<?xml version="1.0" encoding="UTF-8" standalone="no"?>
<!DOCTYPE svg PUBLIC "-//W3C//DTD SVG 1.1//EN" "http://www.w3.org/Graphics/SVG/1.1/DTD/svg11.dtd">
<svg width="100%" height="100%" viewBox="0 0 1383 219" version="1.1" xmlns="http://www.w3.org/2000/svg" xmlns:xlink="http://www.w3.org/1999/xlink" xml:space="preserve" xmlns:serif="http://www.serif.com/" style="fill-rule:evenodd;clip-rule:evenodd;stroke-linejoin:round;stroke-miterlimit:2;">
    <g transform="matrix(1,0,0,1,-9719.79,-386.54)">
        <g transform="matrix(1.23589,0,0,1.23589,8862.41,-114.524)">
            <path d="M903.509,557.829L903.509,427.295L986.376,427.295L986.376,442.879L922.209,442.879L922.209,483.762L982.709,483.762L982.709,499.345L922.209,499.345L922.209,557.829L903.509,557.829Z" style="fill:white;fill-rule:nonzero;"/>
        </g>
        <g transform="matrix(1.23589,0,0,1.23589,8862.61,-114.524)">
            <rect x="1005.81" y="465.429" width="18.333" height="92.4" style="fill:white;fill-rule:nonzero;"/>
        </g>
        <g transform="matrix(0.0672112,0,0,0.0672112,10093.5,422.342)">
            <path d="M350,64.75C313.621,64.75 278.445,77.777 250.844,101.473C223.239,125.168 205.032,157.961 199.516,193.922C194.004,229.879 201.547,266.621 220.782,297.502L350.002,486.502L479.222,297.502C498.456,266.623 505.999,229.881 500.488,193.922C494.972,157.961 476.765,125.168 449.16,101.473C421.558,77.778 386.383,64.75 350.004,64.75L350,64.75ZM350,273C335.148,273 320.902,267.102 310.402,256.598C299.898,246.098 294,231.852 294,217C294,202.148 299.898,187.902 310.402,177.402C320.902,166.898 335.148,161 350,161C364.852,161 379.098,166.898 389.598,177.402C400.102,187.902 406,202.148 406,217C406,231.852 400.102,246.098 389.598,256.598C379.098,267.102 364.852,273 350,273Z" style="fill:white;fill-rule:nonzero;"/>
        </g>
        <g transform="matrix(1.23589,0,0,1.23589,8862.41,-114.524)">
            <path d="M1130.11,511.995L1064.11,511.995C1064.72,533.629 1074.56,544.445 1093.63,544.445C1104.26,544.445 1113.98,540.962 1122.78,533.995L1128.46,547.195C1124.3,550.862 1119.02,553.765 1112.6,555.904C1106.18,558.042 1099.74,559.112 1093.26,559.112C1078.47,559.112 1066.86,554.865 1058.43,546.37C1049.99,537.876 1045.78,526.234 1045.78,511.445C1045.78,502.034 1047.64,493.662 1051.37,486.329C1055.1,478.995 1060.32,473.312 1067.04,469.279C1073.76,465.245 1081.4,463.229 1089.96,463.229C1102.43,463.229 1112.23,467.262 1119.38,475.329C1126.53,483.395 1130.11,494.579 1130.11,508.879L1130.11,511.995ZM1090.33,476.979C1083.36,476.979 1077.68,479.056 1073.28,483.212C1068.88,487.367 1066.06,493.295 1064.84,500.995L1113.79,500.995C1113.06,493.173 1110.68,487.215 1106.64,483.12C1102.61,479.026 1097.17,476.979 1090.33,476.979Z" style="fill:white;fill-rule:nonzero;"/>
        </g>
        <g transform="matrix(1.23589,0,0,1.23589,8862.41,-114.524)">
            <rect x="1151.38" y="422.895" width="18.333" height="134.933" style="fill:white;fill-rule:nonzero;"/>
        </g>
        <g transform="matrix(1.23589,0,0,1.23589,8862.41,-114.524)">
            <path d="M1281.36,422.895L1281.36,557.829L1263.03,557.829L1263.03,542.062C1260.34,547.562 1256.33,551.779 1251.02,554.712C1245.7,557.645 1239.5,559.112 1232.41,559.112C1224.46,559.112 1217.38,557.095 1211.14,553.062C1204.91,549.029 1200.05,543.376 1196.57,536.104C1193.08,528.831 1191.34,520.429 1191.34,510.895C1191.34,501.362 1193.05,492.99 1196.48,485.779C1199.9,478.567 1204.69,473.006 1210.87,469.095C1217.04,465.184 1224.22,463.229 1232.41,463.229C1239.38,463.229 1245.52,464.695 1250.83,467.629C1256.15,470.562 1260.15,474.717 1262.84,480.095L1262.84,422.895L1281.36,422.895ZM1236.63,544.445C1245.06,544.445 1251.57,541.542 1256.15,535.737C1260.73,529.931 1263.03,521.773 1263.03,511.262C1263.03,500.751 1260.73,492.592 1256.15,486.787C1251.57,480.981 1245.12,478.079 1236.81,478.079C1228.38,478.079 1221.81,480.951 1217.1,486.695C1212.39,492.44 1210.04,500.506 1210.04,510.895C1210.04,521.406 1212.39,529.626 1217.1,535.554C1221.81,541.481 1228.31,544.445 1236.63,544.445Z" style="fill:white;fill-rule:nonzero;"/>
        </g>
        <g transform="matrix(1.23589,0,0,1.23589,8862.41,-114.524)">
            <path d="M1352.86,559.295C1342.71,559.295 1333.46,557.951 1325.08,555.262C1316.71,552.573 1309.47,548.54 1303.36,543.162L1310.14,529.229C1316.5,534.362 1323.1,538.09 1329.94,540.412C1336.79,542.734 1344.49,543.895 1353.04,543.895C1362.82,543.895 1370.4,542.062 1375.78,538.395C1381.15,534.729 1383.84,529.534 1383.84,522.812C1383.84,517.19 1381.34,512.942 1376.33,510.07C1371.31,507.198 1363.37,504.54 1352.49,502.095C1342.1,499.895 1333.61,497.359 1327.01,494.487C1320.41,491.615 1315.21,487.765 1311.43,482.937C1307.64,478.109 1305.74,471.906 1305.74,464.329C1305.74,456.751 1307.76,450.059 1311.79,444.254C1315.83,438.448 1321.54,433.926 1328.93,430.687C1336.33,427.448 1344.85,425.829 1354.51,425.829C1363.68,425.829 1372.26,427.234 1380.27,430.045C1388.27,432.856 1394.96,436.829 1400.34,441.962L1393.56,455.895C1387.57,450.884 1381.4,447.187 1375.04,444.804C1368.69,442.42 1361.9,441.229 1354.69,441.229C1345.28,441.229 1337.89,443.215 1332.51,447.187C1327.13,451.159 1324.44,456.567 1324.44,463.412C1324.44,469.279 1326.8,473.74 1331.5,476.795C1336.21,479.851 1343.75,482.601 1354.14,485.045C1365.02,487.49 1373.82,490.056 1380.54,492.745C1387.26,495.434 1392.64,499.101 1396.68,503.745C1400.71,508.39 1402.73,514.379 1402.73,521.712C1402.73,529.29 1400.71,535.89 1396.68,541.512C1392.64,547.134 1386.87,551.504 1379.35,554.62C1371.83,557.737 1363,559.295 1352.86,559.295Z" style="fill:white;fill-rule:nonzero;"/>
        </g>
        <g transform="matrix(1.23589,0,0,1.23589,8862.41,-114.524)">
            <path d="M1503.38,511.995L1437.38,511.995C1437.99,533.629 1447.83,544.445 1466.89,544.445C1477.53,544.445 1487.24,540.962 1496.04,533.995L1501.73,547.195C1497.57,550.862 1492.28,553.765 1485.87,555.904C1479.45,558.042 1473,559.112 1466.53,559.112C1451.74,559.112 1440.13,554.865 1431.69,546.37C1423.26,537.876 1419.04,526.234 1419.04,511.445C1419.04,502.034 1420.91,493.662 1424.63,486.329C1428.36,478.995 1433.59,473.312 1440.31,469.279C1447.03,465.245 1454.67,463.229 1463.23,463.229C1475.69,463.229 1485.5,467.262 1492.65,475.329C1499.8,483.395 1503.38,494.579 1503.38,508.879L1503.38,511.995ZM1463.59,476.979C1456.63,476.979 1450.94,479.056 1446.54,483.212C1442.14,487.367 1439.33,493.295 1438.11,500.995L1487.06,500.995C1486.33,493.173 1483.94,487.215 1479.91,483.12C1475.88,479.026 1470.44,476.979 1463.59,476.979Z" style="fill:white;fill-rule:nonzero;"/>
        </g>
        <g transform="matrix(1.23589,0,0,1.23589,8862.41,-114.524)">
            <path d="M1570.66,463.229C1573.47,463.229 1576.4,463.656 1579.46,464.512L1579.09,481.379C1575.79,480.156 1572.19,479.545 1568.28,479.545C1559.84,479.545 1553.52,482.081 1549.3,487.154C1545.08,492.226 1542.98,498.612 1542.98,506.312L1542.98,557.829L1524.64,557.829L1524.64,491.462C1524.64,481.806 1524.15,473.129 1523.18,465.429L1540.41,465.429L1542.06,482.112C1544.5,476.001 1548.29,471.326 1553.43,468.087C1558.56,464.848 1564.3,463.229 1570.66,463.229Z" style="fill:white;fill-rule:nonzero;"/>
        </g>
        <g transform="matrix(1.23589,0,0,1.23589,8862.41,-114.524)">
            <path d="M1664.53,465.612L1683.04,465.612L1642.89,557.829L1626.21,557.829L1586.43,465.612L1606.04,465.612L1635.01,536.929L1664.53,465.612Z" style="fill:white;fill-rule:nonzero;"/>
        </g>
        <g transform="matrix(1.23589,0,0,1.23589,8862.41,-114.524)">
            <rect x="1697.34" y="465.429" width="18.333" height="92.4" style="fill:white;fill-rule:nonzero;"/>
        </g>
        <g transform="matrix(0.0576641,0,0,0.0576641,10951.4,423.119)">
            <path d="M350,77.852C461.64,77.852 552.15,168.356 552.15,280.002C552.15,391.648 461.646,482.152 350,482.152C238.354,482.152 147.85,391.648 147.85,280.002C147.85,168.356 238.354,77.852 350,77.852ZM350,211.882C387.617,211.882 418.117,242.378 418.117,279.999C418.117,317.616 387.621,348.116 350,348.116C312.383,348.116 281.883,317.62 281.883,279.999C281.883,242.382 312.379,211.882 350,211.882Z" style="fill:white;"/>
            <path d="M383.67,87.609L368.666,33.906L331.334,33.906L316.334,87.605L383.67,87.609Z" style="fill:white;"/>
            <path d="M475.36,130.22L489.215,76.212L456.887,57.544L417.043,96.548L475.36,130.22Z" style="fill:white;"/>
            <path d="M533.45,212.96L572.458,173.116L553.79,140.788L499.786,154.643L533.45,212.96Z" style="fill:white;"/>
            <path d="M542.39,313.67L596.093,298.666L596.093,261.334L542.394,246.334L542.39,313.67Z" style="fill:white;"/>
            <path d="M499.78,405.36L553.788,419.215L572.456,386.887L533.452,347.043L499.78,405.36Z" style="fill:white;"/>
            <path d="M417.04,463.45L456.884,502.458L489.212,483.79L475.357,429.786L417.04,463.45Z" style="fill:white;"/>
            <path d="M316.33,472.39L331.334,526.093L368.666,526.093L383.666,472.394L316.33,472.39Z" style="fill:white;"/>
            <path d="M224.64,429.78L210.785,483.788L243.113,502.456L282.957,463.452L224.64,429.78Z" style="fill:white;"/>
            <path d="M166.55,347.04L127.542,386.884L146.21,419.212L200.214,405.357L166.55,347.04Z" style="fill:white;"/>
            <path d="M157.61,246.33L103.907,261.334L103.907,298.666L157.606,313.666L157.61,246.33Z" style="fill:white;"/>
            <path d="M200.22,154.64L146.212,140.785L127.544,173.113L166.548,212.957L200.22,154.64Z" style="fill:white;"/>
            <path d="M282.96,96.551L243.116,57.543L210.788,76.211L224.643,130.215L282.96,96.551Z" style="fill:white;"/>
        </g>
        <g transform="matrix(1.23589,0,0,1.23589,8862.41,-114.524)">
            <path d="M1775.08,559.112C1758.94,559.112 1746.23,555.201 1736.94,547.379L1742.44,533.995C1752.1,541.329 1763.16,544.995 1775.63,544.995C1781.98,544.995 1786.81,543.926 1790.11,541.787C1793.41,539.648 1795.06,536.623 1795.06,532.712C1795.06,529.412 1793.93,526.815 1791.67,524.92C1789.41,523.026 1785.59,521.406 1780.21,520.062L1764.81,516.395C1756.74,514.684 1750.6,511.659 1746.38,507.32C1742.17,502.981 1740.06,497.573 1740.06,491.095C1740.06,482.784 1743.39,476.062 1750.05,470.929C1756.71,465.795 1765.54,463.229 1776.54,463.229C1783.14,463.229 1789.41,464.267 1795.33,466.345C1801.26,468.423 1806.3,471.356 1810.46,475.145L1804.78,488.162C1795.85,481.073 1786.44,477.529 1776.54,477.529C1770.55,477.529 1765.91,478.659 1762.61,480.92C1759.31,483.181 1757.66,486.329 1757.66,490.362C1757.66,493.54 1758.7,496.106 1760.78,498.062C1762.85,500.017 1766.15,501.545 1770.68,502.645L1786.44,506.495C1795.24,508.451 1801.75,511.537 1805.97,515.754C1810.18,519.97 1812.29,525.44 1812.29,532.162C1812.29,540.473 1808.96,547.042 1802.3,551.87C1795.64,556.698 1786.56,559.112 1775.08,559.112Z" style="fill:white;fill-rule:nonzero;"/>
        </g>
        <g transform="matrix(0.524623,0,0,0.524623,7057.57,-286.112)">
            <path d="M5277.88,1282.16C5390.11,1282.16 5481.22,1375.29 5481.22,1489.98C5481.22,1604.68 5390.11,1697.8 5277.88,1697.8C5165.65,1697.8 5074.53,1604.68 5074.53,1489.98C5074.53,1375.29 5165.65,1282.16 5277.88,1282.16ZM5159.59,1550.03C5165.41,1550.03 5170.14,1554.74 5170.14,1560.53C5170.14,1566.33 5165.41,1571.03 5159.59,1571.03C5153.77,1571.03 5149.04,1566.33 5149.04,1560.53C5149.04,1554.74 5153.77,1550.03 5159.59,1550.03ZM5373.66,1432.02C5375.71,1421.34 5368.69,1411.13 5357.97,1409.24C5347.26,1407.35 5336.89,1414.49 5334.84,1425.17L5311.23,1547.95C5309.18,1558.63 5316.21,1568.84 5326.92,1570.73C5337.63,1572.62 5348,1565.48 5350.05,1554.79L5373.66,1432.02ZM5245.75,1432.02C5247.8,1421.34 5240.77,1411.13 5230.06,1409.24C5219.35,1407.35 5208.98,1414.49 5206.93,1425.17L5183.32,1547.95C5181.26,1558.63 5188.29,1568.84 5199.01,1570.73C5209.72,1572.62 5220.08,1565.48 5222.14,1554.79L5245.75,1432.02ZM5309.7,1432.02C5311.76,1421.34 5304.73,1411.13 5294.02,1409.24C5283.3,1407.35 5272.94,1414.49 5270.88,1425.17L5247.28,1547.95C5245.22,1558.63 5252.25,1568.84 5262.96,1570.73C5273.68,1572.62 5284.04,1565.48 5286.1,1554.79L5309.7,1432.02ZM5396.17,1408.94C5401.99,1408.94 5406.71,1413.64 5406.71,1419.43C5406.71,1425.23 5401.99,1429.93 5396.17,1429.93C5390.34,1429.93 5385.62,1425.23 5385.62,1419.43C5385.62,1413.64 5390.34,1408.94 5396.17,1408.94Z" style="fill:white;"/>
        </g>
    </g>
</svg>
