<?xml version="1.0" encoding="UTF-8" standalone="no"?>
<!DOCTYPE svg PUBLIC "-//W3C//DTD SVG 1.1//EN" "http://www.w3.org/Graphics/SVG/1.1/DTD/svg11.dtd">
<svg width="100%" height="100%" viewBox="0 0 900 450" version="1.1" xmlns="http://www.w3.org/2000/svg" xmlns:xlink="http://www.w3.org/1999/xlink" xml:space="preserve" xmlns:serif="http://www.serif.com/" style="fill-rule:evenodd;clip-rule:evenodd;stroke-linejoin:round;stroke-miterlimit:2;">
    <rect id="Artboard1" x="0" y="0" width="900" height="450" style="fill:rgb(255,224,186);"/>
    <g transform="matrix(1.43837,0,0,1.43837,90.408,-134.593)">
        <path d="M172.625,241.863C172.272,250.288 165.145,256.809 156.723,256.444C148.295,256.078 141.765,248.964 142.115,240.533C142.492,232.114 149.616,225.593 158.028,225.949C166.46,226.311 172.987,233.431 172.625,241.863Z" style="fill:rgb(203,233,244);fill-rule:nonzero;"/>
    </g>
    <g transform="matrix(1.43837,0,0,1.43837,90.408,-134.593)">
        <path d="M155.686,280.767C133.837,279.824 116.883,261.344 117.832,239.489C118.777,217.641 137.251,200.693 159.106,201.629C180.942,202.578 197.921,221.055 196.96,242.907C196.021,264.758 177.553,281.709 155.686,280.767ZM210.473,232.719C205.668,228.439 203.119,221.163 204.074,214.994C204.673,211.138 215.517,204.423 215.517,204.423L199.336,186.839C199.336,186.839 191.744,197.128 187.863,197.395C181.925,197.828 175.21,194.779 171.596,189.821C169.299,186.664 172.272,174.257 172.272,174.257L148.369,173.229C148.369,173.229 150.242,185.86 147.703,188.789C144.175,192.842 137.893,194.902 132.759,193.873C128.934,193.115 122.75,181.958 122.75,181.958L104.439,197.337C104.439,197.337 114.35,205.369 114.454,209.253C114.611,215.78 111.144,222.983 105.67,226.882C102.492,229.148 90.094,226.017 90.094,226.017L88.755,249.901C88.755,249.901 101.387,248.166 104.279,250.751C109.087,255.053 111.642,262.329 110.687,268.488C110.095,272.339 99.228,279.05 99.228,279.05L115.409,296.634C115.409,296.634 122.996,286.355 126.889,286.084C132.812,285.661 139.551,288.716 143.171,293.653C145.462,296.815 142.511,309.213 142.511,309.213L166.395,310.245C166.395,310.245 164.5,297.62 167.046,294.685C170.583,290.641 176.88,288.571 182.014,289.603C185.824,290.374 192.017,301.522 192.017,301.522L210.322,286.14C210.322,286.14 200.42,278.105 200.301,274.218C200.153,267.696 203.614,260.499 209.091,256.591C212.269,254.34 224.676,257.472 224.676,257.472L225.996,233.594C225.996,233.594 213.383,235.307 210.473,232.719Z" style="fill:rgb(255,159,23);fill-rule:nonzero;"/>
    </g>
    <g transform="matrix(1.43837,0,0,1.43837,90.408,-134.593)">
        <path d="M187.633,243.045C186.917,259.748 172.793,272.704 156.085,271.973C139.391,271.252 126.441,257.138 127.163,240.444C127.878,223.726 141.998,210.782 158.701,211.494C175.406,212.222 188.36,226.345 187.633,243.045Z" style="fill:rgb(255,159,23);fill-rule:nonzero;"/>
    </g>
    <g transform="matrix(1.43837,0,0,1.43837,90.408,-134.593)">
        <rect x="347.225" y="149.038" width="61.815" height="227.6" style="fill:rgb(0,84,121);fill-rule:nonzero;"/>
    </g>
    <g transform="matrix(1.43837,0,0,1.43837,90.408,-134.593)">
        <rect x="238.084" y="149.038" width="109.141" height="227.6" style="fill:rgb(153,192,209);fill-rule:nonzero;"/>
    </g>
    <g transform="matrix(1.43837,0,0,1.43837,90.408,-134.593)">
        <rect x="363.62" y="317.181" width="29.018" height="48.944" style="fill:rgb(197,197,197);fill-rule:nonzero;"/>
    </g>
    <g transform="matrix(1.43837,0,0,1.43837,90.408,-134.593)">
        <rect x="367.207" y="322.397" width="21.851" height="2.125" style="fill:rgb(70,79,114);fill-rule:nonzero;"/>
    </g>
    <g transform="matrix(1.43837,0,0,1.43837,90.408,-134.593)">
        <rect x="367.207" y="326.112" width="21.851" height="2.128" style="fill:rgb(70,79,114);fill-rule:nonzero;"/>
    </g>
    <g transform="matrix(1.43837,0,0,1.43837,90.408,-134.593)">
        <rect x="367.207" y="329.916" width="21.851" height="2.128" style="fill:rgb(70,79,114);fill-rule:nonzero;"/>
    </g>
    <g transform="matrix(1.43837,0,0,1.43837,90.408,-134.593)">
        <rect x="367.207" y="333.631" width="21.851" height="2.131" style="fill:rgb(70,79,114);fill-rule:nonzero;"/>
    </g>
    <g transform="matrix(1.43837,0,0,1.43837,90.408,-134.593)">
        <rect x="367.207" y="337.417" width="21.851" height="2.125" style="fill:rgb(70,79,114);fill-rule:nonzero;"/>
    </g>
    <g transform="matrix(1.43837,0,0,1.43837,90.408,-134.593)">
        <rect x="367.207" y="341.132" width="21.851" height="2.128" style="fill:rgb(70,79,114);fill-rule:nonzero;"/>
    </g>
    <g transform="matrix(1.43837,0,0,1.43837,90.408,-134.593)">
        <rect x="367.207" y="344.936" width="21.851" height="2.125" style="fill:rgb(70,79,114);fill-rule:nonzero;"/>
    </g>
    <g transform="matrix(1.43837,0,0,1.43837,90.408,-134.593)">
        <rect x="367.207" y="348.652" width="21.851" height="2.13" style="fill:rgb(70,79,114);fill-rule:nonzero;"/>
    </g>
    <g transform="matrix(1.43837,0,0,1.43837,90.408,-134.593)">
        <rect x="367.207" y="353.171" width="21.851" height="2.128" style="fill:rgb(70,79,114);fill-rule:nonzero;"/>
    </g>
    <g transform="matrix(1.43837,0,0,1.43837,90.408,-134.593)">
        <rect x="367.207" y="356.975" width="21.851" height="2.125" style="fill:rgb(70,79,114);fill-rule:nonzero;"/>
    </g>
    <g transform="matrix(1.43837,0,0,1.43837,90.408,-134.593)">
        <rect x="367.207" y="360.69" width="21.851" height="2.131" style="fill:rgb(70,79,114);fill-rule:nonzero;"/>
    </g>
    <g transform="matrix(1.43837,0,0,1.43837,90.408,-134.593)">
        <path d="M363.255,210.423L393.009,210.423L378.131,180.668L363.255,210.423Z" style="fill:rgb(109,118,161);fill-rule:nonzero;"/>
    </g>
    <g transform="matrix(1.43837,0,0,1.43837,90.408,-134.593)">
        <path d="M390.13,208.405L378.131,185.037L366.132,208.405L390.13,208.405Z" style="fill:rgb(255,207,3);fill-rule:nonzero;"/>
    </g>
    <g transform="matrix(1.43837,0,0,1.43837,90.408,-134.593)">
        <path d="M380.571,206.462L380.799,195.912L378.078,199.587L377.342,190.3L377.296,202.403L379.494,199.348L380.571,206.462Z" style="fill:rgb(109,118,161);fill-rule:nonzero;"/>
    </g>
    <g transform="matrix(1.43837,0,0,1.43837,90.408,-134.593)">
        <rect x="250.35" y="167.855" width="83.356" height="34.812" style="fill:white;fill-rule:nonzero;"/>
    </g>
    <g transform="matrix(1.43837,0,0,1.43837,90.408,-134.593)">
        <rect x="254.599" y="171.963" width="60.394" height="17.409" style="fill:rgb(0,84,121);fill-rule:nonzero;"/>
    </g>
    <g transform="matrix(1.43837,0,0,1.43837,90.408,-134.593)">
        <rect x="250.35" y="211.236" width="83.356" height="9.454" style="fill:white;fill-rule:nonzero;"/>
    </g>
    <g transform="matrix(1.43837,0,0,1.43837,90.408,-134.593)">
        <rect x="327.464" y="231.948" width="6.242" height="34.643" style="fill:white;fill-rule:nonzero;"/>
    </g>
    <g transform="matrix(1.43837,0,0,1.43837,90.408,-134.593)">
        <rect x="316.359" y="231.948" width="6.248" height="34.643" style="fill:white;fill-rule:nonzero;"/>
    </g>
    <g transform="matrix(1.43837,0,0,1.43837,90.408,-134.593)">
        <rect x="305.257" y="231.948" width="6.241" height="34.643" style="fill:white;fill-rule:nonzero;"/>
    </g>
    <g transform="matrix(1.43837,0,0,1.43837,90.408,-134.593)">
        <rect x="294.151" y="231.948" width="6.248" height="34.643" style="fill:white;fill-rule:nonzero;"/>
    </g>
    <g transform="matrix(1.43837,0,0,1.43837,90.408,-134.593)">
        <rect x="284.784" y="231.948" width="6.248" height="34.643" style="fill:white;fill-rule:nonzero;"/>
    </g>
    <g transform="matrix(1.43837,0,0,1.43837,90.408,-134.593)">
        <rect x="273.681" y="231.948" width="6.248" height="34.643" style="fill:white;fill-rule:nonzero;"/>
    </g>
    <g transform="matrix(1.43837,0,0,1.43837,90.408,-134.593)">
        <rect x="262.582" y="231.948" width="6.242" height="34.643" style="fill:white;fill-rule:nonzero;"/>
    </g>
    <g transform="matrix(1.43837,0,0,1.43837,90.408,-134.593)">
        <rect x="251.477" y="231.948" width="6.248" height="34.643" style="fill:white;fill-rule:nonzero;"/>
    </g>
    <g transform="matrix(1.43837,0,0,1.43837,90.408,-134.593)">
        <rect x="254.206" y="262.836" width="0.786" height="69.208" style="fill:white;fill-rule:nonzero;"/>
    </g>
    <g transform="matrix(1.43837,0,0,1.43837,90.408,-134.593)">
        <rect x="265.308" y="262.836" width="0.786" height="69.208" style="fill:white;fill-rule:nonzero;"/>
    </g>
    <g transform="matrix(1.43837,0,0,1.43837,90.408,-134.593)">
        <rect x="276.411" y="262.836" width="0.786" height="69.208" style="fill:white;fill-rule:nonzero;"/>
    </g>
    <g transform="matrix(1.43837,0,0,1.43837,90.408,-134.593)">
        <rect x="287.516" y="262.836" width="0.786" height="69.208" style="fill:white;fill-rule:nonzero;"/>
    </g>
    <g transform="matrix(1.43837,0,0,1.43837,90.408,-134.593)">
        <rect x="296.884" y="262.836" width="0.786" height="69.208" style="fill:white;fill-rule:nonzero;"/>
    </g>
    <g transform="matrix(1.43837,0,0,1.43837,90.408,-134.593)">
        <rect x="307.986" y="262.836" width="0.786" height="69.208" style="fill:white;fill-rule:nonzero;"/>
    </g>
    <g transform="matrix(1.43837,0,0,1.43837,90.408,-134.593)">
        <rect x="319.088" y="262.836" width="0.786" height="69.208" style="fill:white;fill-rule:nonzero;"/>
    </g>
    <g transform="matrix(1.43837,0,0,1.43837,90.408,-134.593)">
        <rect x="330.191" y="262.836" width="0.786" height="69.208" style="fill:white;fill-rule:nonzero;"/>
    </g>
    <g transform="matrix(1.43837,0,0,1.43837,90.408,-134.593)">
        <rect x="250.35" y="331.298" width="83.356" height="4.194" style="fill:white;fill-rule:nonzero;"/>
    </g>
    <g transform="matrix(1.43837,0,0,1.43837,90.408,-134.593)">
        <path d="M330.86,236.124L330.814,230.054C330.808,229.305 330.513,228.586 330.003,228.083C329.555,227.641 328.978,227.398 328.373,227.398L328.355,227.398L317.958,227.475C316.991,227.49 315.972,227.064 315.247,226.299C314.535,225.547 314.139,224.549 314.133,223.487L314.078,215.955L315.649,215.943L315.705,223.474C315.708,224.138 315.953,224.758 316.39,225.218C316.807,225.66 317.354,225.903 317.931,225.903L317.946,225.903L328.342,225.826L328.376,225.826C329.392,225.826 330.363,226.228 331.109,226.962C331.913,227.757 332.38,228.878 332.386,230.042L332.432,236.112L330.86,236.124Z" style="fill:white;fill-rule:nonzero;"/>
    </g>
    <g transform="matrix(1.43837,0,0,1.43837,90.408,-134.593)">
        <path d="M308.443,236.115L308.401,230.042C308.394,229.317 308.127,228.639 307.651,228.135C307.194,227.65 306.592,227.386 305.96,227.386L305.938,227.386L295.545,227.463L295.511,227.463C294.501,227.463 293.549,227.045 292.831,226.287C292.122,225.538 291.726,224.54 291.716,223.477L291.664,215.943L293.236,215.931L293.288,223.465C293.295,224.128 293.537,224.745 293.973,225.206C294.394,225.654 295.041,225.94 295.533,225.891L305.926,225.814L305.96,225.814C307.028,225.814 308.035,226.253 308.794,227.054C309.546,227.847 309.963,228.906 309.973,230.03L310.015,236.103L308.443,236.115Z" style="fill:white;fill-rule:nonzero;"/>
    </g>
    <g transform="matrix(1.43837,0,0,1.43837,90.408,-134.593)">
        <path d="M287.391,236.109L287.347,230.036C287.335,228.568 286.359,227.38 285.164,227.38L285.152,227.38L275.622,227.451L275.597,227.451C274.737,227.451 273.911,227.101 273.267,226.465C272.499,225.71 272.054,224.613 272.045,223.459L271.986,215.931L273.558,215.918L273.617,223.447C273.623,224.187 273.896,224.878 274.369,225.344C274.618,225.59 275.029,225.879 275.597,225.879L275.609,225.879L285.14,225.808L285.164,225.808C287.219,225.808 288.901,227.693 288.919,230.023L288.963,236.097L287.391,236.109Z" style="fill:white;fill-rule:nonzero;"/>
    </g>
    <g transform="matrix(1.43837,0,0,1.43837,90.408,-134.593)">
        <path d="M265.634,236.118L265.591,230.048C265.585,229.302 265.364,228.581 264.98,228.074C264.787,227.816 264.378,227.389 263.804,227.389L263.795,227.389L255.542,227.447L255.517,227.447C254.808,227.447 254.114,227.147 253.558,226.6C252.791,225.845 252.346,224.696 252.339,223.453L252.278,215.925L253.85,215.912L253.911,223.444C253.915,224.26 254.197,225.022 254.664,225.482C254.845,225.66 255.143,225.875 255.52,225.875L255.53,225.875L263.783,225.817L263.807,225.817C264.722,225.817 265.609,226.293 266.236,227.128C266.825,227.911 267.154,228.943 267.163,230.036L267.206,236.106L265.634,236.118Z" style="fill:white;fill-rule:nonzero;"/>
    </g>
    <g transform="matrix(1.43837,0,0,1.43837,90.408,-134.593)">
        <rect x="250.35" y="342.192" width="83.356" height="13.107" style="fill:white;fill-rule:nonzero;"/>
    </g>
    <g transform="matrix(1.43837,0,0,1.43837,90.408,-134.593)">
        <rect x="327.464" y="280.515" width="6.242" height="9.011" style="fill:white;fill-rule:nonzero;"/>
    </g>
    <g transform="matrix(1.43837,0,0,1.43837,90.408,-134.593)">
        <rect x="316.359" y="306.048" width="6.248" height="9.011" style="fill:white;fill-rule:nonzero;"/>
    </g>
    <g transform="matrix(1.43837,0,0,1.43837,90.408,-134.593)">
        <rect x="305.257" y="285.019" width="6.241" height="9.011" style="fill:white;fill-rule:nonzero;"/>
    </g>
    <g transform="matrix(1.43837,0,0,1.43837,90.408,-134.593)">
        <rect x="294.154" y="318.955" width="6.245" height="9.012" style="fill:white;fill-rule:nonzero;"/>
    </g>
    <g transform="matrix(1.43837,0,0,1.43837,90.408,-134.593)">
        <rect x="284.784" y="276.008" width="6.248" height="9.011" style="fill:white;fill-rule:nonzero;"/>
    </g>
    <g transform="matrix(1.43837,0,0,1.43837,90.408,-134.593)">
        <rect x="263.298" y="280.515" width="6.248" height="9.011" style="fill:white;fill-rule:nonzero;"/>
    </g>
    <g transform="matrix(1.43837,0,0,1.43837,90.408,-134.593)">
        <rect x="251.477" y="314.448" width="6.248" height="9.012" style="fill:white;fill-rule:nonzero;"/>
    </g>
    <g transform="matrix(1.43837,0,0,1.43837,90.408,-134.593)">
        <rect x="344.219" y="170.994" width="4" height="55.017" style="fill:rgb(0,84,121);fill-rule:nonzero;"/>
    </g>
    <g transform="matrix(1.43837,0,0,1.43837,90.408,-134.593)">
        <rect x="344.219" y="297.156" width="4" height="55.017" style="fill:rgb(0,84,121);fill-rule:nonzero;"/>
    </g>
    <g transform="matrix(1.43837,0,0,1.43837,90.408,-134.593)">
        <path d="M207.54,225.056C208.633,223.646 213.11,220.76 217.565,223.152C223.518,226.351 231.133,237.843 240.451,237.54C249.813,237.223 252.745,231.647 255.217,228.181C257.673,224.696 257.015,222.157 258.683,220.297C260.344,218.424 262.469,220.49 259.859,227.014C258.614,230.14 254.298,246.293 243.251,248.716C228.775,251.896 201.142,233.438 207.54,225.056Z" style="fill:rgb(251,198,180);fill-rule:nonzero;"/>
    </g>
    <g transform="matrix(1.43837,0,0,1.43837,90.408,-134.593)">
        <path d="M208.99,221.85C208.99,221.85 203.423,226.732 210.457,235.222C217.494,243.711 221.732,246.44 221.732,246.44C221.732,246.44 228.391,243.665 233.835,233.748C233.835,233.748 215.839,213.849 208.99,221.85Z" style="fill:rgb(237,165,3);fill-rule:nonzero;"/>
    </g>
    <g transform="matrix(1.43837,0,0,1.43837,90.408,-134.593)">
        <path d="M186.441,238.829C190.571,254.095 188.292,264.826 186.441,270.641C190.749,272.025 188.182,274.334 188.065,274.626C181.974,287.27 219.843,279.778 226.497,269.542C228.787,266.023 226.598,261.554 227.006,254.795C227.154,253.275 227.194,251.737 227.209,250.229C227.396,243.306 226.93,236.548 225.956,231.948C222.984,217.997 209.862,217.316 201.876,218.43C198.25,218.93 193.521,219.544 189.889,221.681L189.871,221.709C185.637,224.273 183.371,227.478 186.441,238.829Z" style="fill:rgb(255,181,2);fill-rule:nonzero;"/>
    </g>
    <g transform="matrix(1.43837,0,0,1.43837,90.408,-134.593)">
        <path d="M195.824,231.344C197.46,238.273 203.313,259.422 186.441,269.999C186.441,269.999 214.378,290.457 230.362,272.759C230.362,272.759 227.147,242.566 222.68,230.576C221.4,227.131 217.992,216.554 211.86,218.083C211.86,218.083 222.64,235.062 217.722,239.545C212.803,244.033 208.161,240.26 205.99,236.883C202.511,231.448 198.796,218.881 198.796,218.881L192.275,220.539C192.275,220.539 194.43,225.437 195.824,231.344Z" style="fill:rgb(28,39,69);fill-rule:nonzero;"/>
    </g>
    <g transform="matrix(1.43837,0,0,1.43837,90.408,-134.593)">
        <path d="M201.203,208.316C201.203,208.316 204.783,213.941 200.976,217.69C197.061,221.528 215.051,228.31 214.178,224.856C213.064,220.395 210.408,218.012 211.946,212.529L201.203,208.316Z" style="fill:rgb(247,178,160);fill-rule:nonzero;"/>
    </g>
    <g transform="matrix(1.43837,0,0,1.43837,90.408,-134.593)">
        <path d="M209.29,195.706C213.617,198.841 219.8,214.263 216.214,218.301C214.63,220.06 207.16,219.259 201.676,212.833C199.419,210.211 196.392,205.102 198.603,199.305C199.616,196.67 204.271,192.065 209.29,195.706Z" style="fill:rgb(251,198,180);fill-rule:nonzero;"/>
    </g>
    <g transform="matrix(1.43837,0,0,1.43837,90.408,-134.593)">
        <path d="M213.463,197.128C214.568,199.022 214.384,199.511 208.474,201.205C202.576,202.9 201.48,202.63 202.278,203.981C204.624,207.982 200.221,207.705 203.076,212.446C205.919,217.205 200.47,214.798 197.719,210.963C197.178,210.186 194.117,206.468 196.248,199.833C198.716,192.084 209.367,190.186 213.463,197.128Z" style="fill:rgb(29,27,58);fill-rule:nonzero;"/>
    </g>
    <g transform="matrix(1.43837,0,0,1.43837,90.408,-134.593)">
        <path d="M201.483,207.493C201.483,207.493 219.776,202.326 218.925,196.624C218.4,193.109 207.783,194.487 207.783,194.487L201.483,207.493Z" style="fill:rgb(237,165,3);fill-rule:nonzero;"/>
    </g>
    <g transform="matrix(1.43837,0,0,1.43837,90.408,-134.593)">
        <path d="M213.463,197.128C212.001,202.63 207.685,205.657 196.472,209.237C196.472,209.237 190.405,198.365 198.268,192.605C205.213,187.536 214.397,193.606 213.463,197.128Z" style="fill:rgb(255,181,2);fill-rule:nonzero;"/>
    </g>
    <g transform="matrix(1.43837,0,0,1.43837,90.408,-134.593)">
        <path d="M176.656,328.814C172.864,343.65 168.418,375.333 175.704,375.514C182.981,375.68 187.052,373.472 182.855,372.299C178.655,371.114 178.486,370.656 178.615,369.477C180.42,354.175 204.347,330.316 206.38,312.127C207.064,305.916 207.534,300.236 207.857,295.249C210.58,308.571 208.578,322.71 208.815,327.386C209.582,344.015 213.138,375.449 221.108,375.514C229.598,375.572 233.767,373.22 228.342,372.1C223.65,371.108 223.847,370.89 223.933,369.729C225.075,352.938 233.218,321.897 234.777,301.949C236.583,278.927 179.957,315.842 176.656,328.814Z" style="fill:rgb(251,198,180);fill-rule:nonzero;"/>
    </g>
    <g transform="matrix(1.43837,0,0,1.43837,90.408,-134.593)">
        <path d="M216.638,371.731C216.638,371.731 222.969,374.24 226.877,371.731C226.877,371.731 234.016,372.692 229.536,374.43C225.032,376.171 216.371,377.608 216.638,371.731Z" style="fill:rgb(112,112,112);fill-rule:nonzero;"/>
    </g>
    <g transform="matrix(1.43837,0,0,1.43837,90.408,-134.593)">
        <path d="M172.612,372.299C172.612,372.299 178.949,374.798 182.855,372.299C182.855,372.299 189.997,373.272 185.492,374.998C181.004,376.739 172.348,378.182 172.612,372.299Z" style="fill:rgb(112,112,112);fill-rule:nonzero;"/>
    </g>
    <g transform="matrix(1.43837,0,0,1.43837,90.408,-134.593)">
        <path d="M229.146,262.836C214.633,272.517 194.341,271.531 186.441,269.999C184.304,287.263 171.332,352.035 169.868,360.924C176.238,363.036 178.357,363.481 180.199,363.481C210.961,323.809 207.43,306.794 207.755,301.808C208.913,307.571 205.115,335.796 211.756,363.481C213.982,364.918 220.727,366.785 225.554,363.481C225.796,361.71 234.823,329.916 234.627,305.028C234.492,288.062 231.655,276.416 229.146,262.836Z" style="fill:rgb(28,39,69);fill-rule:nonzero;"/>
    </g>
    <g transform="matrix(1.43837,0,0,1.43837,90.408,-134.593)">
        <path d="M187.454,284.623C196.475,281.761 197.27,272.839 197.279,272.753L196.082,272.664C196.06,272.987 195.33,280.868 187.086,283.487L187.454,284.623Z" style="fill:white;fill-rule:nonzero;"/>
    </g>
    <g transform="matrix(1.43837,0,0,1.43837,90.408,-134.593)">
        <path d="M229.687,282.4L230.052,281.255C221.787,278.639 221.062,270.518 221.056,270.435L219.855,270.527C219.868,270.622 220.663,279.541 229.687,282.4Z" style="fill:white;fill-rule:nonzero;"/>
    </g>
    <g transform="matrix(1.43837,0,0,1.43837,90.408,-134.593)">
        <rect x="72.952" y="342.68" width="63.28" height="36.552" style="fill:rgb(75,75,75);fill-rule:nonzero;"/>
    </g>
    <g transform="matrix(1.43837,0,0,1.43837,90.408,-134.593)">
        <rect x="136.232" y="342.68" width="24.55" height="36.552" style="fill:rgb(213,182,143);fill-rule:nonzero;"/>
    </g>
    <g transform="matrix(1.43837,0,0,1.43837,90.408,-134.593)">
        <rect x="76.772" y="331.224" width="9.088" height="17.821" style="fill:rgb(75,75,75);fill-rule:nonzero;"/>
    </g>
    <g transform="matrix(1.43837,0,0,1.43837,90.408,-134.593)">
        <rect x="81.316" y="333.77" width="67.646" height="2.183" style="fill:rgb(75,75,75);fill-rule:nonzero;"/>
    </g>
    <g transform="matrix(1.43837,0,0,1.43837,90.408,-134.593)">
        <rect x="144.417" y="331.224" width="9.089" height="17.821" style="fill:rgb(213,182,143);fill-rule:nonzero;"/>
    </g>
    <g transform="matrix(1.43837,0,0,1.43837,90.408,-134.593)">
        <rect x="163.033" y="274.343" width="51.836" height="29.939" style="fill:rgb(75,75,75);fill-rule:nonzero;"/>
    </g>
    <g transform="matrix(1.43837,0,0,1.43837,90.408,-134.593)">
        <rect x="214.869" y="274.343" width="20.108" height="29.939" style="fill:rgb(213,182,143);fill-rule:nonzero;"/>
    </g>
    <g transform="matrix(1.43837,0,0,1.43837,90.408,-134.593)">
        <rect x="166.162" y="264.96" width="7.445" height="14.597" style="fill:rgb(75,75,75);fill-rule:nonzero;"/>
    </g>
    <g transform="matrix(1.43837,0,0,1.43837,90.408,-134.593)">
        <rect x="169.886" y="267.045" width="55.41" height="1.787" style="fill:rgb(75,75,75);fill-rule:nonzero;"/>
    </g>
    <g transform="matrix(1.43837,0,0,1.43837,90.408,-134.593)">
        <rect x="221.572" y="264.96" width="7.445" height="14.597" style="fill:rgb(213,182,143);fill-rule:nonzero;"/>
    </g>
    <g transform="matrix(1.43837,0,0,1.43837,90.408,-134.593)">
        <path d="M192.376,223.048C194,223.573 196.997,226.213 196.226,230.972C195.204,237.343 187.221,247.795 190.411,256.1C193.613,264.429 199.557,265.335 203.457,266.48C207.362,267.61 209.441,266.235 211.642,267.141C213.85,268.059 212.649,270.629 205.953,270.309C202.748,270.153 186.84,271.313 181.203,262.108C173.816,250.057 182.83,219.897 192.376,223.048Z" style="fill:rgb(251,198,180);fill-rule:nonzero;"/>
    </g>
    <g transform="matrix(1.43837,0,0,1.43837,90.408,-134.593)">
        <path d="M192.275,220.539C192.275,220.539 187.859,219.713 182.404,228.722C176.96,237.705 175.824,242.375 175.824,242.375C175.824,242.375 180.405,247.515 191.04,249.33C191.04,249.33 203.024,225.805 192.275,220.539Z" style="fill:rgb(237,165,3);fill-rule:nonzero;"/>
    </g>
    <g transform="matrix(1.43837,0,0,1.43837,90.408,-134.593)">
        <path d="M420.409,269.262C418.383,269.262 416.731,270.911 416.731,272.937C416.731,274.961 418.383,276.609 420.409,276.609C422.439,276.609 424.087,274.961 424.087,272.937C424.087,270.911 422.439,269.262 420.409,269.262ZM420.409,279.569C416.749,279.569 413.771,276.591 413.771,272.937C413.771,269.278 416.749,266.306 420.409,266.306C424.072,266.306 427.047,269.278 427.047,272.937C427.047,276.591 424.072,279.569 420.409,279.569Z" style="fill:white;fill-rule:nonzero;"/>
    </g>
    <g transform="matrix(1.43837,0,0,1.43837,90.408,-134.593)">
        <path d="M212.354,174.177L202.379,164.355L204.452,162.246L214.43,172.068L212.354,174.177Z" style="fill:rgb(255,181,2);fill-rule:nonzero;"/>
    </g>
    <g transform="matrix(1.43837,0,0,1.43837,90.408,-134.593)">
        <path d="M204.562,174.159L202.468,172.071L212.25,162.268L214.344,164.355L204.562,174.159Z" style="fill:rgb(255,181,2);fill-rule:nonzero;"/>
    </g>
    <g transform="matrix(1.43837,0,0,1.43837,90.408,-134.593)">
        <path d="M324.59,126.246L325.877,124.822C325.877,124.822 325.238,124.186 324.599,123.557C324.007,122.869 323.408,122.187 323.408,122.187L321.919,123.394C321.919,123.394 322.555,124.128 323.196,124.868C323.896,125.559 324.59,126.246 324.59,126.246Z" style="fill:white;fill-rule:nonzero;"/>
    </g>
    <g transform="matrix(1.43837,0,0,1.43837,90.408,-134.593)">
        <path d="M329.884,129.157L330.289,127.275C330.289,127.275 329.475,127.103 328.714,126.741C328.327,126.554 327.946,126.369 327.682,126.173C327.409,125.995 327.228,125.878 327.228,125.878L326.138,127.465C326.138,127.465 326.35,127.601 326.669,127.803C326.976,128.03 327.434,128.261 327.909,128.479C328.839,128.933 329.884,129.157 329.884,129.157Z" style="fill:white;fill-rule:nonzero;"/>
    </g>
    <g transform="matrix(1.43837,0,0,1.43837,90.408,-134.593)">
        <path d="M335.932,128.365L335.167,126.606C335.167,126.606 334.36,126.977 333.537,127.18C332.715,127.413 331.885,127.429 331.885,127.429L331.947,129.348C331.95,129.348 333.015,129.323 334.013,129.04C335.02,128.786 335.932,128.365 335.932,128.365Z" style="fill:white;fill-rule:nonzero;"/>
    </g>
    <g transform="matrix(1.43837,0,0,1.43837,90.408,-134.593)">
        <path d="M340.909,125.497L339.878,123.882C339.878,123.882 339.085,124.383 338.296,124.886C337.51,125.356 336.727,125.823 336.727,125.823L337.664,127.502C337.664,127.502 338.49,127.008 339.325,126.514C340.114,126.007 340.909,125.497 340.909,125.497Z" style="fill:white;fill-rule:nonzero;"/>
    </g>
    <g transform="matrix(1.43837,0,0,1.43837,90.408,-134.593)">
        <path d="M345.625,123.038L345.048,121.205C345.048,121.205 344.072,121.528 343.178,121.96C342.291,122.399 341.465,122.894 341.465,122.894L342.441,124.552C342.441,124.552 343.227,124.085 344.016,123.689C344.818,123.302 345.625,123.038 345.625,123.038Z" style="fill:white;fill-rule:nonzero;"/>
    </g>
    <g transform="matrix(1.43837,0,0,1.43837,90.408,-134.593)">
        <path d="M350.375,123.268L351.167,121.524C351.167,121.518 350.212,121.067 349.156,120.895C348.109,120.68 347.041,120.803 347.041,120.803L347.219,122.716C347.219,122.716 348.032,122.614 348.821,122.783C349.616,122.915 350.375,123.268 350.375,123.268Z" style="fill:white;fill-rule:nonzero;"/>
    </g>
    <g transform="matrix(1.43837,0,0,1.43837,90.408,-134.593)">
        <path d="M354.382,126.48L355.825,125.212C355.825,125.212 355.156,124.496 354.458,123.79C354.078,123.471 353.7,123.142 353.415,122.9C353.12,122.667 352.899,122.535 352.899,122.535L351.797,124.107C351.797,124.107 351.978,124.214 352.233,124.42C352.484,124.628 352.816,124.914 353.147,125.199C353.771,125.829 354.382,126.48 354.382,126.48Z" style="fill:white;fill-rule:nonzero;"/>
    </g>
    <g transform="matrix(1.43837,0,0,1.43837,90.408,-134.593)">
        <path d="M419.829,190.929L422.46,190.917L422.429,184.666L419.801,184.678L419.829,190.929Z" style="fill:rgb(52,52,52);fill-rule:nonzero;"/>
    </g>
    <g transform="matrix(1.43837,0,0,1.43837,90.408,-134.593)">
        <path d="M419.878,200.238L422.506,200.226L422.475,193.975L419.847,193.987L419.878,200.238Z" style="fill:rgb(52,52,52);fill-rule:nonzero;"/>
    </g>
    <g transform="matrix(1.43837,0,0,1.43837,90.408,-134.593)">
        <path d="M419.924,209.544L422.555,209.532L422.521,203.281L419.893,203.293L419.924,209.544Z" style="fill:rgb(52,52,52);fill-rule:nonzero;"/>
    </g>
    <g transform="matrix(1.43837,0,0,1.43837,90.408,-134.593)">
        <path d="M419.97,218.857L422.601,218.841L422.57,212.593L419.939,212.605L419.97,218.857Z" style="fill:rgb(52,52,52);fill-rule:nonzero;"/>
    </g>
    <g transform="matrix(1.43837,0,0,1.43837,90.408,-134.593)">
        <path d="M420.016,228.163L422.647,228.15L422.617,221.899L419.989,221.912L420.016,228.163Z" style="fill:rgb(52,52,52);fill-rule:nonzero;"/>
    </g>
    <g transform="matrix(1.43837,0,0,1.43837,90.408,-134.593)">
        <path d="M420.065,237.475L422.696,237.46L422.662,231.212L420.034,231.224L420.065,237.475Z" style="fill:rgb(52,52,52);fill-rule:nonzero;"/>
    </g>
    <g transform="matrix(1.43837,0,0,1.43837,90.408,-134.593)">
        <path d="M420.111,246.778L422.742,246.769L422.709,240.518L420.081,240.53L420.111,246.778Z" style="fill:rgb(52,52,52);fill-rule:nonzero;"/>
    </g>
    <g transform="matrix(1.43837,0,0,1.43837,90.408,-134.593)">
        <rect x="101.531" y="314.316" width="27.219" height="2.103" style="fill:rgb(39,53,92);fill-rule:nonzero;"/>
    </g>
    <g transform="matrix(1.43837,0,0,1.43837,90.408,-134.593)">
        <rect x="112.158" y="307.442" width="15.005" height="2.103" style="fill:rgb(39,53,92);fill-rule:nonzero;"/>
    </g>
</svg>
