<?xml version="1.0" encoding="UTF-8" standalone="no"?>
<!DOCTYPE svg PUBLIC "-//W3C//DTD SVG 1.1//EN" "http://www.w3.org/Graphics/SVG/1.1/DTD/svg11.dtd">
<svg width="100%" height="100%" viewBox="0 0 900 450" version="1.1" xmlns="http://www.w3.org/2000/svg" xmlns:xlink="http://www.w3.org/1999/xlink" xml:space="preserve" xmlns:serif="http://www.serif.com/" style="fill-rule:evenodd;clip-rule:evenodd;stroke-linejoin:round;stroke-miterlimit:2;">
    <g transform="matrix(1.43837,0,0,1.43837,90.408,-134.593)">
        <g id="Artboard1" transform="matrix(1.0224,0,0,1.0224,-62.8545,-154.87)">
            <rect x="0" y="243" width="612" height="306" style="fill:rgb(255,227,192);"/>
        </g>
        <g transform="matrix(1.47059,0,0,1.47059,29.5786,-292.477)">
            <path d="M97.272,363.352C97.032,369.081 92.186,373.515 86.459,373.267C80.728,373.018 76.288,368.181 76.526,362.448C76.782,356.723 81.627,352.289 87.347,352.531C93.079,352.776 97.518,357.618 97.272,363.352Z" style="fill:rgb(203,233,244);fill-rule:nonzero;"/>
        </g>
        <g transform="matrix(1.47059,0,0,1.47059,29.5786,-292.477)">
            <path d="M85.753,389.806C70.896,389.165 59.367,376.598 60.012,361.737C60.655,346.88 73.217,335.356 88.078,335.992C102.926,336.637 114.472,349.202 113.819,364.061C113.181,378.92 100.623,390.447 85.753,389.806ZM123.008,357.134C119.741,354.224 118.007,349.276 118.657,345.081C119.064,342.459 126.438,337.893 126.438,337.893L115.435,325.936C115.435,325.936 110.272,332.933 107.633,333.114C103.595,333.408 99.029,331.335 96.571,327.964C95.009,325.817 97.031,317.381 97.031,317.381L80.777,316.682C80.777,316.682 82.051,325.271 80.324,327.263C77.925,330.019 73.653,331.42 70.162,330.72C67.561,330.205 63.356,322.618 63.356,322.618L50.905,333.076C50.905,333.076 57.644,338.538 57.715,341.179C57.822,345.617 55.464,350.515 51.742,353.167C49.581,354.708 41.15,352.579 41.15,352.579L40.239,368.82C40.239,368.82 48.829,367.64 50.795,369.398C54.064,372.323 55.802,377.271 55.152,381.459C54.749,384.078 47.36,388.641 47.36,388.641L58.363,400.598C58.363,400.598 63.522,393.608 66.169,393.424C70.197,393.136 74.779,395.214 77.241,398.571C78.799,400.721 76.792,409.152 76.792,409.152L93.033,409.854C93.033,409.854 91.744,401.269 93.476,399.273C95.881,396.523 100.163,395.115 103.654,395.817C106.245,396.341 110.456,403.922 110.456,403.922L122.903,393.462C122.903,393.462 116.17,387.998 116.089,385.355C115.988,380.92 118.342,376.026 122.066,373.369C124.227,371.838 132.664,373.968 132.664,373.968L133.562,357.731C133.564,357.729 124.987,358.893 123.008,357.134Z" style="fill:rgb(255,159,23);fill-rule:nonzero;"/>
        </g>
        <g transform="matrix(1.47059,0,0,1.47059,29.5786,-292.477)">
            <path d="M107.477,364.155C106.99,375.513 97.386,384.323 86.024,383.826C74.672,383.336 65.866,373.738 66.357,362.386C66.843,351.018 76.445,342.216 87.803,342.7C99.163,343.196 107.971,352.799 107.477,364.155Z" style="fill:rgb(255,159,23);fill-rule:nonzero;"/>
        </g>
        <g transform="matrix(1.47059,0,0,1.47059,29.5786,-292.477)">
            <rect x="216" y="300.231" width="42.034" height="154.768" style="fill:rgb(89,182,84);"/>
        </g>
        <g transform="matrix(1.47059,0,0,1.47059,29.5786,-292.477)">
            <rect x="141.784" y="300.231" width="74.216" height="154.768" style="fill:rgb(74,74,73);"/>
        </g>
        <g transform="matrix(1.47059,0,0,1.47059,29.5786,-292.477)">
            <rect x="227.148" y="414.568" width="19.732" height="33.282" style="fill:rgb(197,197,197);"/>
        </g>
        <g transform="matrix(1.47059,0,0,1.47059,29.5786,-292.477)">
            <rect x="229.587" y="418.115" width="14.859" height="1.445"/>
        </g>
        <g transform="matrix(1.47059,0,0,1.47059,29.5786,-292.477)">
            <rect x="229.587" y="420.641" width="14.859" height="1.447" style="fill:rgb(2,2,2);"/>
        </g>
        <g transform="matrix(1.47059,0,0,1.47059,29.5786,-292.477)">
            <rect x="229.587" y="423.228" width="14.859" height="1.447" style="fill:rgb(2,2,2);"/>
        </g>
        <g transform="matrix(1.47059,0,0,1.47059,29.5786,-292.477)">
            <rect x="229.587" y="425.754" width="14.859" height="1.449" style="fill:rgb(2,2,2);"/>
        </g>
        <g transform="matrix(1.47059,0,0,1.47059,29.5786,-292.477)">
            <rect x="229.587" y="428.328" width="14.859" height="1.445" style="fill:rgb(2,2,2);"/>
        </g>
        <g transform="matrix(1.47059,0,0,1.47059,29.5786,-292.477)">
            <rect x="229.587" y="430.854" width="14.859" height="1.447"/>
        </g>
        <g transform="matrix(1.47059,0,0,1.47059,29.5786,-292.477)">
            <rect x="229.587" y="433.441" width="14.859" height="1.445" style="fill:rgb(2,2,2);"/>
        </g>
        <g transform="matrix(1.47059,0,0,1.47059,29.5786,-292.477)">
            <rect x="229.587" y="435.968" width="14.859" height="1.448" style="fill:rgb(5,5,5);"/>
        </g>
        <g transform="matrix(1.47059,0,0,1.47059,29.5786,-292.477)">
            <rect x="229.587" y="439.041" width="14.859" height="1.447" style="fill:rgb(2,2,2);"/>
        </g>
        <g transform="matrix(1.47059,0,0,1.47059,29.5786,-292.477)">
            <rect x="229.587" y="441.628" width="14.859" height="1.445"/>
        </g>
        <g transform="matrix(1.47059,0,0,1.47059,29.5786,-292.477)">
            <rect x="229.587" y="444.154" width="14.859" height="1.449"/>
        </g>
        <g transform="matrix(1.47059,0,0,1.47059,29.5786,-292.477)">
            <path d="M226.9,341.972L247.133,341.972L237.016,321.739L226.9,341.972Z" style="fill:rgb(2,2,2);fill-rule:nonzero;"/>
        </g>
        <g transform="matrix(1.47059,0,0,1.47059,29.5786,-292.477)">
            <path d="M245.175,340.6L237.016,324.71L228.857,340.6L245.175,340.6Z" style="fill:rgb(255,207,3);fill-rule:nonzero;"/>
        </g>
        <g transform="matrix(1.47059,0,0,1.47059,29.5786,-292.477)">
            <path d="M238.675,339.279L238.83,332.105L236.98,334.604L236.48,328.289L236.449,336.519L237.944,334.442L238.675,339.279Z" style="fill:rgb(5,5,5);fill-rule:nonzero;"/>
        </g>
        <g transform="matrix(1.47059,0,0,1.47059,29.5786,-292.477)">
            <rect x="150.125" y="313.026" width="56.682" height="23.672" style="fill:white;"/>
        </g>
        <g transform="matrix(1.47059,0,0,1.47059,29.5786,-292.477)">
            <rect x="153.014" y="315.82" width="41.068" height="11.838" style="fill:rgb(89,182,84);"/>
        </g>
        <g transform="matrix(1.47059,0,0,1.47059,29.5786,-292.477)">
            <rect x="150.125" y="342.525" width="56.682" height="6.429" style="fill:white;"/>
        </g>
        <g transform="matrix(1.47059,0,0,1.47059,29.5786,-292.477)">
            <rect x="202.562" y="356.609" width="4.245" height="23.557" style="fill:white;"/>
        </g>
        <g transform="matrix(1.47059,0,0,1.47059,29.5786,-292.477)">
            <rect x="195.011" y="356.609" width="4.249" height="23.557" style="fill:white;"/>
        </g>
        <g transform="matrix(1.47059,0,0,1.47059,29.5786,-292.477)">
            <rect x="187.461" y="356.609" width="4.244" height="23.557" style="fill:white;"/>
        </g>
        <g transform="matrix(1.47059,0,0,1.47059,29.5786,-292.477)">
            <rect x="179.909" y="356.609" width="4.249" height="23.557" style="fill:white;"/>
        </g>
        <g transform="matrix(1.47059,0,0,1.47059,29.5786,-292.477)">
            <rect x="173.54" y="356.609" width="4.249" height="23.557" style="fill:white;"/>
        </g>
        <g transform="matrix(1.47059,0,0,1.47059,29.5786,-292.477)">
            <rect x="165.99" y="356.609" width="4.249" height="23.557" style="fill:white;"/>
        </g>
        <g transform="matrix(1.47059,0,0,1.47059,29.5786,-292.477)">
            <rect x="158.442" y="356.609" width="4.245" height="23.557" style="fill:white;"/>
        </g>
        <g transform="matrix(1.47059,0,0,1.47059,29.5786,-292.477)">
            <rect x="150.891" y="356.609" width="4.249" height="23.557" style="fill:white;"/>
        </g>
        <g transform="matrix(1.47059,0,0,1.47059,29.5786,-292.477)">
            <rect x="152.747" y="377.613" width="0.534" height="47.061" style="fill:white;"/>
        </g>
        <g transform="matrix(1.47059,0,0,1.47059,29.5786,-292.477)">
            <rect x="160.296" y="377.613" width="0.534" height="47.061" style="fill:white;"/>
        </g>
        <g transform="matrix(1.47059,0,0,1.47059,29.5786,-292.477)">
            <rect x="167.846" y="377.613" width="0.534" height="47.061" style="fill:white;"/>
        </g>
        <g transform="matrix(1.47059,0,0,1.47059,29.5786,-292.477)">
            <rect x="175.397" y="377.613" width="0.534" height="47.061" style="fill:white;"/>
        </g>
        <g transform="matrix(1.47059,0,0,1.47059,29.5786,-292.477)">
            <rect x="181.768" y="377.613" width="0.534" height="47.061" style="fill:white;"/>
        </g>
        <g transform="matrix(1.47059,0,0,1.47059,29.5786,-292.477)">
            <rect x="189.317" y="377.613" width="0.534" height="47.061" style="fill:white;"/>
        </g>
        <g transform="matrix(1.47059,0,0,1.47059,29.5786,-292.477)">
            <rect x="196.866" y="377.613" width="0.534" height="47.061" style="fill:white;"/>
        </g>
        <g transform="matrix(1.47059,0,0,1.47059,29.5786,-292.477)">
            <rect x="204.416" y="377.613" width="0.534" height="47.061" style="fill:white;"/>
        </g>
        <g transform="matrix(1.47059,0,0,1.47059,29.5786,-292.477)">
            <rect x="150.125" y="424.167" width="56.682" height="2.852" style="fill:white;"/>
        </g>
        <g transform="matrix(1.47059,0,0,1.47059,29.5786,-292.477)">
            <path d="M204.871,359.449L204.84,355.321C204.836,354.812 204.635,354.323 204.289,353.981C203.984,353.68 203.592,353.515 203.181,353.515L203.169,353.515L196.099,353.567C195.441,353.577 194.749,353.288 194.256,352.767C193.772,352.256 193.503,351.577 193.498,350.855L193.461,345.733L194.529,345.725L194.567,350.846C194.569,351.298 194.736,351.719 195.033,352.032C195.317,352.333 195.689,352.498 196.081,352.498L196.091,352.498L203.16,352.446L203.183,352.446C203.874,352.446 204.534,352.719 205.041,353.218C205.588,353.759 205.905,354.521 205.909,355.312L205.94,359.44L204.871,359.449Z" style="fill:white;fill-rule:nonzero;"/>
        </g>
        <g transform="matrix(1.47059,0,0,1.47059,29.5786,-292.477)">
            <path d="M189.628,359.443L189.599,355.313C189.594,354.82 189.413,354.359 189.089,354.016C188.778,353.686 188.369,353.507 187.939,353.507L187.924,353.507L180.857,353.559L180.834,353.559C180.147,353.559 179.5,353.275 179.012,352.759C178.53,352.25 178.261,351.571 178.254,350.848L178.219,345.725L179.288,345.717L179.323,350.84C179.328,351.291 179.492,351.71 179.789,352.024C180.075,352.329 180.515,352.523 180.85,352.49L187.917,352.438L187.94,352.438C188.666,352.438 189.351,352.737 189.867,353.281C190.378,353.82 190.662,354.54 190.669,355.305L190.698,359.435L189.628,359.443Z" style="fill:white;fill-rule:nonzero;"/>
        </g>
        <g transform="matrix(1.47059,0,0,1.47059,29.5786,-292.477)">
            <path d="M175.312,359.439L175.282,355.309C175.274,354.311 174.61,353.503 173.798,353.503L173.79,353.503L167.31,353.551L167.293,353.551C166.708,353.551 166.147,353.313 165.709,352.881C165.187,352.368 164.884,351.622 164.878,350.837L164.838,345.718L165.907,345.709L165.947,350.829C165.951,351.332 166.137,351.802 166.458,352.119C166.627,352.286 166.907,352.483 167.293,352.483L167.301,352.483L173.782,352.435L173.798,352.435C175.195,352.435 176.339,353.717 176.351,355.301L176.381,359.431L175.312,359.439Z" style="fill:white;fill-rule:nonzero;"/>
        </g>
        <g transform="matrix(1.47059,0,0,1.47059,29.5786,-292.477)">
            <path d="M160.518,359.445L160.489,355.317C160.485,354.81 160.335,354.319 160.074,353.975C159.943,353.8 159.665,353.509 159.274,353.509L159.268,353.509L153.656,353.548L153.639,353.548C153.157,353.548 152.685,353.344 152.307,352.972C151.785,352.459 151.483,351.677 151.478,350.832L151.437,345.713L152.506,345.704L152.547,350.826C152.55,351.381 152.741,351.899 153.059,352.212C153.182,352.333 153.385,352.479 153.641,352.479L153.648,352.479L159.26,352.44L159.276,352.44C159.898,352.44 160.501,352.764 160.928,353.331C161.329,353.863 161.552,354.565 161.558,355.308L161.587,359.436L160.518,359.445Z" style="fill:white;fill-rule:nonzero;"/>
        </g>
        <g transform="matrix(1.47059,0,0,1.47059,29.5786,-292.477)">
            <rect x="150.125" y="431.575" width="56.682" height="8.913" style="fill:white;"/>
        </g>
        <g transform="matrix(1.47059,0,0,1.47059,29.5786,-292.477)">
            <rect x="202.562" y="389.635" width="4.245" height="6.127" style="fill:white;"/>
        </g>
        <g transform="matrix(1.47059,0,0,1.47059,29.5786,-292.477)">
            <rect x="195.011" y="406.997" width="4.249" height="6.127" style="fill:white;"/>
        </g>
        <g transform="matrix(1.47059,0,0,1.47059,29.5786,-292.477)">
            <rect x="187.461" y="392.698" width="4.244" height="6.127" style="fill:white;"/>
        </g>
        <g transform="matrix(1.47059,0,0,1.47059,29.5786,-292.477)">
            <rect x="179.911" y="415.774" width="4.247" height="6.128" style="fill:white;"/>
        </g>
        <g transform="matrix(1.47059,0,0,1.47059,29.5786,-292.477)">
            <rect x="173.54" y="386.57" width="4.249" height="6.127" style="fill:white;"/>
        </g>
        <g transform="matrix(1.47059,0,0,1.47059,29.5786,-292.477)">
            <rect x="158.929" y="389.635" width="4.249" height="6.127" style="fill:white;"/>
        </g>
        <g transform="matrix(1.47059,0,0,1.47059,29.5786,-292.477)">
            <rect x="150.891" y="412.709" width="4.249" height="6.128" style="fill:white;"/>
        </g>
        <g transform="matrix(1.47059,0,0,1.47059,29.5786,-292.477)">
            <rect x="213.955" y="315.161" width="2.72" height="37.412" style="fill:rgb(70,157,66);"/>
        </g>
        <g transform="matrix(1.47059,0,0,1.47059,29.5786,-292.477)">
            <rect x="213.955" y="400.951" width="2.72" height="37.412" style="fill:rgb(70,157,66);"/>
        </g>
        <g transform="matrix(1.47059,0,0,1.47059,29.5786,-292.477)">
            <path d="M121.014,351.923C121.757,350.964 124.802,349.002 127.831,350.628C131.879,352.803 137.057,360.618 143.393,360.412C149.759,360.196 151.753,356.405 153.434,354.048C155.104,351.678 154.657,349.952 155.791,348.687C156.92,347.413 158.365,348.818 156.591,353.255C155.744,355.381 152.81,366.365 145.298,368.012C135.454,370.174 116.663,357.623 121.014,351.923Z" style="fill:rgb(251,198,180);fill-rule:nonzero;"/>
        </g>
        <g transform="matrix(1.47059,0,0,1.47059,29.5786,-292.477)">
            <path d="M122,349.743C122,349.743 118.214,353.063 122.998,358.836C127.783,364.609 130.665,366.464 130.665,366.464C130.665,366.464 135.193,364.577 138.895,357.833C138.894,357.833 126.657,344.302 122,349.743Z" style="fill:rgb(201,200,199);fill-rule:nonzero;"/>
        </g>
        <g transform="matrix(1.47059,0,0,1.47059,29.5786,-292.477)">
            <path d="M106.666,361.288C109.474,371.669 107.925,378.966 106.666,382.92C109.595,383.861 107.85,385.431 107.77,385.63C103.628,394.228 129.379,389.133 133.904,382.173C135.461,379.78 133.973,376.741 134.25,372.145C134.351,371.111 134.378,370.066 134.388,369.04C134.515,364.332 134.198,359.737 133.536,356.609C131.515,347.122 122.592,346.659 117.162,347.417C114.696,347.757 111.481,348.175 109.011,349.628L108.999,349.647C106.12,351.39 104.579,353.57 106.666,361.288Z" style="fill:rgb(183,182,182);fill-rule:nonzero;"/>
        </g>
        <g transform="matrix(1.47059,0,0,1.47059,29.5786,-292.477)">
            <path d="M113.047,356.199C114.159,360.911 118.14,375.292 106.667,382.484C106.667,382.484 125.664,396.395 136.533,384.361C136.533,384.361 134.347,363.83 131.309,355.677C130.439,353.334 128.121,346.142 123.951,347.182C123.951,347.182 131.281,358.728 127.937,361.776C124.592,364.828 121.436,362.262 119.959,359.966C117.593,356.27 115.067,347.725 115.067,347.725L110.633,348.852C110.634,348.851 112.099,352.182 113.047,356.199Z" style="fill:rgb(2,2,2);fill-rule:nonzero;"/>
        </g>
        <g transform="matrix(1.47059,0,0,1.47059,29.5786,-292.477)">
            <path d="M116.705,340.54C116.705,340.54 119.139,344.365 116.551,346.914C113.889,349.524 126.122,354.136 125.528,351.787C124.77,348.754 122.964,347.133 124.01,343.405L116.705,340.54Z" style="fill:rgb(247,178,160);fill-rule:nonzero;"/>
        </g>
        <g transform="matrix(1.47059,0,0,1.47059,29.5786,-292.477)">
            <path d="M122.204,331.965C125.146,334.097 129.351,344.584 126.912,347.33C125.835,348.526 120.755,347.981 117.026,343.612C115.491,341.829 113.433,338.355 114.936,334.413C115.625,332.62 118.791,329.489 122.204,331.965Z" style="fill:rgb(251,198,180);fill-rule:nonzero;"/>
        </g>
        <g transform="matrix(1.47059,0,0,1.47059,29.5786,-292.477)">
            <path d="M125.041,332.932C125.792,334.22 125.667,334.552 121.648,335.704C117.637,336.857 116.892,336.673 117.435,337.592C119.03,340.313 116.036,340.124 117.978,343.348C119.911,346.584 116.206,344.947 114.335,342.34C113.967,341.812 111.886,339.283 113.335,334.772C115.013,329.502 122.256,328.211 125.041,332.932Z" style="fill:rgb(29,27,58);fill-rule:nonzero;"/>
        </g>
        <g transform="matrix(1.47059,0,0,1.47059,29.5786,-292.477)">
            <path d="M116.895,339.98C116.895,339.98 129.334,336.466 128.756,332.589C128.399,330.199 121.179,331.136 121.179,331.136L116.895,339.98Z" style="fill:rgb(132,132,132);fill-rule:nonzero;"/>
        </g>
        <g transform="matrix(1.47059,0,0,1.47059,29.5786,-292.477)">
            <path d="M125.041,332.932C124.047,336.673 121.112,338.732 113.487,341.166C113.487,341.166 109.361,333.773 114.708,329.856C119.431,326.409 125.677,330.537 125.041,332.932Z" style="fill:rgb(201,200,199);fill-rule:nonzero;"/>
        </g>
        <g transform="matrix(1.47059,0,0,1.47059,29.5786,-292.477)">
            <path d="M100.013,422.478C97.434,432.566 94.411,454.111 99.366,454.234C104.314,454.347 107.083,452.845 104.229,452.048C101.373,451.242 101.258,450.931 101.346,450.129C102.573,439.724 118.844,423.5 120.226,411.131C120.691,406.908 121.011,403.045 121.23,399.654C123.082,408.713 121.72,418.327 121.881,421.507C122.403,432.815 124.821,454.19 130.24,454.234C136.013,454.273 138.848,452.674 135.159,451.912C131.968,451.237 132.102,451.089 132.161,450.3C132.938,438.882 138.475,417.774 139.535,404.21C140.763,388.555 102.257,413.657 100.013,422.478Z" style="fill:rgb(251,198,180);fill-rule:nonzero;"/>
        </g>
        <g transform="matrix(1.47059,0,0,1.47059,29.5786,-292.477)">
            <path d="M127.2,451.662C127.2,451.662 131.505,453.368 134.163,451.662C134.163,451.662 139.018,452.316 135.971,453.497C132.908,454.681 127.019,455.658 127.2,451.662Z" style="fill:rgb(112,112,112);fill-rule:nonzero;"/>
        </g>
        <g transform="matrix(1.47059,0,0,1.47059,29.5786,-292.477)">
            <path d="M97.263,452.048C97.263,452.048 101.572,453.747 104.228,452.048C104.228,452.048 109.085,452.71 106.021,453.883C102.969,455.067 97.083,456.048 97.263,452.048Z" style="fill:rgb(112,112,112);fill-rule:nonzero;"/>
        </g>
        <g transform="matrix(1.47059,0,0,1.47059,29.5786,-292.477)">
            <path d="M135.706,377.613C125.837,384.196 112.039,383.526 106.667,382.484C105.214,394.224 96.393,438.268 95.397,444.313C99.729,445.749 101.17,446.052 102.422,446.052C123.34,419.075 120.939,407.505 121.16,404.114C121.947,408.033 119.365,427.226 123.881,446.052C125.395,447.029 129.981,448.299 133.264,446.052C133.429,444.848 139.567,423.228 139.434,406.304C139.341,394.767 137.412,386.848 135.706,377.613Z" style="fill:rgb(2,2,2);fill-rule:nonzero;"/>
        </g>
        <g transform="matrix(1.47059,0,0,1.47059,29.5786,-292.477)">
            <path d="M107.355,392.428C113.489,390.482 114.03,384.415 114.036,384.356L113.222,384.295C113.207,384.515 112.711,389.874 107.105,391.655L107.355,392.428Z" style="fill:white;fill-rule:nonzero;"/>
        </g>
        <g transform="matrix(1.47059,0,0,1.47059,29.5786,-292.477)">
            <path d="M136.074,390.917L136.322,390.138C130.702,388.359 130.209,382.837 130.205,382.78L129.388,382.843C129.397,382.908 129.937,388.973 136.074,390.917Z" style="fill:white;fill-rule:nonzero;"/>
        </g>
        <g transform="matrix(1.47059,0,0,1.47059,29.5786,-292.477)">
            <rect x="29.494" y="431.907" width="43.03" height="24.855" style="fill:rgb(89,182,84);"/>
        </g>
        <g transform="matrix(1.47059,0,0,1.47059,29.5786,-292.477)">
            <rect x="72.524" y="431.907" width="16.694" height="24.855" style="fill:rgb(201,200,199);"/>
        </g>
        <g transform="matrix(1.47059,0,0,1.47059,29.5786,-292.477)">
            <rect x="32.092" y="424.117" width="6.18" height="12.118" style="fill:rgb(89,182,84);"/>
        </g>
        <g transform="matrix(1.47059,0,0,1.47059,29.5786,-292.477)">
            <rect x="35.181" y="425.848" width="45.999" height="1.484" style="fill:rgb(89,182,84);"/>
        </g>
        <g transform="matrix(1.47059,0,0,1.47059,29.5786,-292.477)">
            <rect x="78.09" y="424.117" width="6.181" height="12.118" style="fill:rgb(201,200,199);"/>
        </g>
        <g transform="matrix(1.47059,0,0,1.47059,29.5786,-292.477)">
            <rect x="90.749" y="385.438" width="35.248" height="20.359" style="fill:rgb(75,75,75);"/>
        </g>
        <g transform="matrix(1.47059,0,0,1.47059,29.5786,-292.477)">
            <rect x="125.997" y="385.438" width="13.673" height="20.359" style="fill:rgb(213,182,143);"/>
        </g>
        <g transform="matrix(1.47059,0,0,1.47059,29.5786,-292.477)">
            <rect x="92.877" y="379.057" width="5.063" height="9.926" style="fill:rgb(75,75,75);"/>
        </g>
        <g transform="matrix(1.47059,0,0,1.47059,29.5786,-292.477)">
            <rect x="95.409" y="380.475" width="37.679" height="1.215" style="fill:rgb(75,75,75);"/>
        </g>
        <g transform="matrix(1.47059,0,0,1.47059,29.5786,-292.477)">
            <rect x="130.556" y="379.057" width="5.063" height="9.926" style="fill:rgb(213,182,143);"/>
        </g>
        <g transform="matrix(1.47059,0,0,1.47059,29.5786,-292.477)">
            <path d="M110.702,350.557C111.806,350.914 113.844,352.709 113.32,355.945C112.625,360.277 107.197,367.385 109.366,373.032C111.543,378.696 115.585,379.312 118.237,380.09C120.892,380.858 122.306,379.923 123.803,380.539C125.304,381.163 124.488,382.911 119.934,382.693C117.755,382.587 106.937,383.376 103.104,377.116C98.081,368.923 104.211,348.415 110.702,350.557Z" style="fill:rgb(251,198,180);fill-rule:nonzero;"/>
        </g>
        <g transform="matrix(1.47059,0,0,1.47059,29.5786,-292.477)">
            <path d="M110.634,348.851C110.634,348.851 107.631,348.289 103.922,354.415C100.22,360.523 99.448,363.699 99.448,363.699C99.448,363.699 102.563,367.194 109.795,368.428C109.794,368.429 117.943,352.432 110.634,348.851Z" style="fill:rgb(183,180,174);fill-rule:nonzero;"/>
        </g>
        <g transform="matrix(1.47059,0,0,1.47059,29.5786,-292.477)">
            <path d="M265.765,381.983C264.387,381.983 263.264,383.104 263.264,384.482C263.264,385.858 264.387,386.979 265.765,386.979C267.145,386.979 268.266,385.858 268.266,384.482C268.266,383.104 267.145,381.983 265.765,381.983ZM265.765,388.992C263.276,388.992 261.251,386.967 261.251,384.482C261.251,381.994 263.276,379.973 265.765,379.973C268.256,379.973 270.279,381.994 270.279,384.482C270.279,386.967 268.256,388.992 265.765,388.992Z" style="fill:white;fill-rule:nonzero;"/>
        </g>
        <g transform="matrix(1.47059,0,0,1.47059,29.5786,-292.477)">
            <path d="M124.287,317.325L117.504,310.646L118.914,309.212L125.699,315.891L124.287,317.325Z" style="fill:rgb(89,182,84);fill-rule:nonzero;"/>
        </g>
        <g transform="matrix(1.47059,0,0,1.47059,29.5786,-292.477)">
            <path d="M118.989,317.313L117.565,315.893L124.217,309.227L125.641,310.646L118.989,317.313Z" style="fill:rgb(89,182,84);fill-rule:nonzero;"/>
        </g>
        <g transform="matrix(1.47059,0,0,1.47059,29.5786,-292.477)">
            <path d="M200.608,284.732L201.483,283.764C201.483,283.764 201.048,283.332 200.614,282.904C200.211,282.436 199.804,281.972 199.804,281.972L198.791,282.793C198.791,282.793 199.223,283.292 199.659,283.795C200.136,284.265 200.608,284.732 200.608,284.732Z" style="fill:white;fill-rule:nonzero;"/>
        </g>
        <g transform="matrix(1.47059,0,0,1.47059,29.5786,-292.477)">
            <path d="M204.208,286.711L204.483,285.431C204.483,285.431 203.929,285.314 203.412,285.068C203.149,284.941 202.89,284.815 202.71,284.682C202.524,284.561 202.401,284.481 202.401,284.481L201.66,285.56C201.66,285.56 201.804,285.652 202.021,285.79C202.23,285.944 202.541,286.101 202.864,286.25C203.497,286.559 204.208,286.711 204.208,286.711Z" style="fill:white;fill-rule:nonzero;"/>
        </g>
        <g transform="matrix(1.47059,0,0,1.47059,29.5786,-292.477)">
            <path d="M208.32,286.173L207.8,284.977C207.8,284.977 207.251,285.229 206.692,285.367C206.133,285.525 205.569,285.536 205.569,285.536L205.611,286.841C205.613,286.841 206.337,286.824 207.016,286.632C207.7,286.459 208.32,286.173 208.32,286.173Z" style="fill:white;fill-rule:nonzero;"/>
        </g>
        <g transform="matrix(1.47059,0,0,1.47059,29.5786,-292.477)">
            <path d="M211.705,284.223L211.004,283.125C211.004,283.125 210.465,283.466 209.928,283.808C209.394,284.128 208.861,284.445 208.861,284.445L209.498,285.587C209.498,285.587 210.06,285.251 210.627,284.915C211.164,284.569 211.705,284.223 211.705,284.223Z" style="fill:white;fill-rule:nonzero;"/>
        </g>
        <g transform="matrix(1.47059,0,0,1.47059,29.5786,-292.477)">
            <path d="M214.912,282.551L214.52,281.305C214.52,281.305 213.856,281.525 213.248,281.818C212.645,282.117 212.083,282.453 212.083,282.453L212.747,283.58C212.747,283.58 213.281,283.262 213.818,282.993C214.363,282.73 214.912,282.551 214.912,282.551Z" style="fill:white;fill-rule:nonzero;"/>
        </g>
        <g transform="matrix(1.47059,0,0,1.47059,29.5786,-292.477)">
            <path d="M218.142,282.707L218.681,281.521C218.681,281.517 218.032,281.21 217.314,281.093C216.602,280.947 215.876,281.03 215.876,281.03L215.997,282.331C215.997,282.331 216.55,282.262 217.086,282.377C217.625,282.467 218.142,282.707 218.142,282.707Z" style="fill:white;fill-rule:nonzero;"/>
        </g>
        <g transform="matrix(1.47059,0,0,1.47059,29.5786,-292.477)">
            <path d="M220.866,284.891L221.847,284.029C221.847,284.029 221.392,283.542 220.917,283.062C220.659,282.845 220.402,282.621 220.208,282.457C220.007,282.299 219.857,282.209 219.857,282.209L219.108,283.278C219.108,283.278 219.231,283.351 219.404,283.491C219.575,283.632 219.8,283.827 220.026,284.021C220.451,284.448 220.866,284.891 220.866,284.891Z" style="fill:white;fill-rule:nonzero;"/>
        </g>
        <g transform="matrix(1.47059,0,0,1.47059,29.5786,-292.477)">
            <path d="M265.37,328.716L267.159,328.708L267.138,324.457L265.351,324.465L265.37,328.716Z" style="fill:rgb(52,52,52);fill-rule:nonzero;"/>
        </g>
        <g transform="matrix(1.47059,0,0,1.47059,29.5786,-292.477)">
            <path d="M265.404,335.047L267.191,335.039L267.17,330.788L265.383,330.796L265.404,335.047Z" style="fill:rgb(52,52,52);fill-rule:nonzero;"/>
        </g>
        <g transform="matrix(1.47059,0,0,1.47059,29.5786,-292.477)">
            <path d="M265.435,341.375L267.224,341.367L267.201,337.116L265.414,337.124L265.435,341.375Z" style="fill:rgb(52,52,52);fill-rule:nonzero;"/>
        </g>
        <g transform="matrix(1.47059,0,0,1.47059,29.5786,-292.477)">
            <path d="M265.466,347.707L267.255,347.696L267.234,343.447L265.445,343.455L265.466,347.707Z" style="fill:rgb(52,52,52);fill-rule:nonzero;"/>
        </g>
        <g transform="matrix(1.47059,0,0,1.47059,29.5786,-292.477)">
            <path d="M265.497,354.036L267.286,354.027L267.266,349.776L265.479,349.785L265.497,354.036Z" style="fill:rgb(52,52,52);fill-rule:nonzero;"/>
        </g>
        <g transform="matrix(1.47059,0,0,1.47059,29.5786,-292.477)">
            <path d="M265.531,360.368L267.32,360.358L267.297,356.109L265.51,356.117L265.531,360.368Z" style="fill:rgb(52,52,52);fill-rule:nonzero;"/>
        </g>
        <g transform="matrix(1.47059,0,0,1.47059,29.5786,-292.477)">
            <path d="M265.562,366.694L267.351,366.688L267.329,362.437L265.542,362.445L265.562,366.694Z" style="fill:rgb(52,52,52);fill-rule:nonzero;"/>
        </g>
        <g transform="matrix(1.47059,0,0,1.47059,29.5786,-292.477)">
            <rect x="48.928" y="412.62" width="18.509" height="1.43" style="fill:rgb(39,53,92);"/>
        </g>
        <g transform="matrix(1.47059,0,0,1.47059,29.5786,-292.477)">
            <rect x="56.154" y="407.945" width="10.203" height="1.43" style="fill:rgb(39,53,92);"/>
        </g>
    </g>
</svg>
