<?xml version="1.0" encoding="UTF-8" standalone="no"?>
<!DOCTYPE svg PUBLIC "-//W3C//DTD SVG 1.1//EN" "http://www.w3.org/Graphics/SVG/1.1/DTD/svg11.dtd">
<svg width="100%" height="100%" viewBox="0 0 900 450" version="1.1" xmlns="http://www.w3.org/2000/svg" xmlns:xlink="http://www.w3.org/1999/xlink" xml:space="preserve" xmlns:serif="http://www.serif.com/" style="fill-rule:evenodd;clip-rule:evenodd;stroke-linejoin:round;stroke-miterlimit:2;">
    <g transform="matrix(0.790696,0,0,1,93.6656,0)">
        <g id="Artboard1" transform="matrix(1.85987,0,0,1.47059,-118.46,-357.353)">
            <rect x="0" y="243" width="612" height="306" style="fill:rgb(220,220,220);"/>
        </g>
        <g transform="matrix(1.47059,0,0,1.47059,55.7457,-357.353)">
            <ellipse cx="266.4" cy="495.363" rx="291.417" ry="28.627" style="fill:rgb(190,190,190);"/>
        </g>
        <g transform="matrix(2.25989,0,0,1.78688,273.607,-463.543)">
            <path d="M10.128,465.346C10.128,465.346 12.307,468.28 12.008,468.745C11.709,469.21 9.417,469.276 8.022,468.745C6.627,468.213 6.593,464.774 5.962,463.297C5.697,462.678 6.263,460.852 7.058,460.72C7.853,460.587 8.718,460.976 8.718,460.976C8.718,460.976 7.895,463.057 10.128,465.346Z" style="fill:rgb(29,59,84);fill-rule:nonzero;"/>
        </g>
        <g transform="matrix(2.25989,0,0,1.78688,273.607,-463.543)">
            <path d="M71.881,401.521C71.881,401.521 71.289,406.091 74.591,409.601C77.894,413.11 85.34,411.859 85.34,411.859C85.34,411.859 84.109,407.712 81.408,406.003C78.709,404.293 73.406,403.705 71.881,401.521Z" style="fill:rgb(219,237,209);fill-rule:nonzero;"/>
        </g>
        <g transform="matrix(2.25989,0,0,1.78688,273.607,-463.543)">
            <path d="M75.723,392.854C75.723,392.854 73.001,397.978 75.339,403.578C77.678,409.176 87.008,410.999 87.008,410.999C87.008,410.999 87.393,405.564 84.967,402.355C82.543,399.144 76.553,396.102 75.723,392.854Z" style="fill:rgb(74,167,26);fill-rule:nonzero;"/>
        </g>
        <g transform="matrix(2.25989,0,0,1.78688,273.607,-463.543)">
            <path d="M197.857,326.973C197.857,326.973 202.484,333.993 198.581,337.722C194.677,341.451 194.217,337.287 194.217,337.287C194.217,337.287 192.129,337.424 196.28,332.674C198.238,330.435 197.857,326.973 197.857,326.973Z" style="fill:rgb(219,237,209);fill-rule:nonzero;"/>
        </g>
        <g transform="matrix(2.25989,0,0,1.78688,273.607,-463.543)">
            <path d="M210.246,323.39C210.246,323.39 213.547,329.766 205.778,335.741C198.01,341.715 198.048,345.832 198.048,345.832C198.048,345.832 192.58,331.055 210.246,323.39Z" style="fill:rgb(109,185,72);fill-rule:nonzero;"/>
        </g>
        <g transform="matrix(2.25989,0,0,1.78688,273.607,-463.543)">
            <path d="M197.053,343.114C194.1,343.032 198.425,335.535 203.233,334.014C208.041,332.492 211.881,333.125 214.807,331.265C214.806,331.264 211.591,343.519 197.053,343.114Z" style="fill:rgb(74,167,26);fill-rule:nonzero;"/>
        </g>
        <g transform="matrix(2.25989,0,0,1.78688,273.607,-463.543)">
            <rect x="79.125" y="319.228" width="0.621" height="74.309" style="fill:rgb(233,233,233);"/>
        </g>
        <g transform="matrix(2.25989,0,0,1.78688,273.607,-463.543)">
            <rect x="33.588" y="372.696" width="51.301" height="0.621" style="fill:rgb(233,233,233);"/>
        </g>
        <g transform="matrix(2.25989,0,0,1.78688,273.607,-463.543)">
            <path d="M106.385,343.527C102.121,343.527 98.651,347.166 98.651,351.639L98.651,422.551C98.651,427.024 102.12,430.664 106.385,430.664L207.102,430.664C211.366,430.664 214.836,427.024 214.836,422.551L214.836,351.639C214.836,347.167 211.367,343.527 207.102,343.527L106.385,343.527ZM207.102,431.409L106.385,431.409C101.71,431.409 97.906,427.436 97.906,422.551L97.906,351.639C97.906,346.755 101.71,342.782 106.385,342.782L207.102,342.782C211.778,342.782 215.581,346.755 215.581,351.639L215.581,422.551C215.581,427.436 211.778,431.409 207.102,431.409Z" style="fill:rgb(233,233,233);fill-rule:nonzero;"/>
        </g>
        <g transform="matrix(2.25989,0,0,1.78688,273.607,-463.543)">
            <path d="M60.969,291.471C60.128,291.448 59.285,291.436 58.465,291.436C58.186,291.436 57.907,291.437 57.629,291.44L57.622,290.695C57.902,290.692 58.184,290.691 58.465,290.691C59.293,290.691 60.142,290.703 60.99,290.726L60.969,291.471ZM50.962,291.778L50.892,291.036C51.99,290.932 53.121,290.851 54.254,290.794L54.291,291.539C53.17,291.595 52.05,291.675 50.962,291.778ZM67.642,291.873C66.518,291.771 65.397,291.685 64.308,291.619L64.353,290.874C65.45,290.941 66.579,291.027 67.709,291.13L67.642,291.873ZM74.285,292.659C73.166,292.499 72.05,292.352 70.968,292.224L71.056,291.483C72.144,291.612 73.266,291.76 74.391,291.921L74.285,292.659ZM44.358,292.727L44.215,291.995C45.301,291.782 46.42,291.593 47.542,291.433L47.647,292.171C46.538,292.329 45.431,292.516 44.358,292.727ZM80.89,293.753C79.776,293.546 78.667,293.35 77.593,293.172L77.715,292.437C78.794,292.616 79.908,292.812 81.026,293.02L80.89,293.753ZM37.902,294.371L37.677,293.66C38.735,293.324 39.826,293.013 40.921,292.735L41.105,293.457C40.025,293.732 38.948,294.04 37.902,294.371ZM87.453,295.088C86.344,294.844 85.242,294.611 84.177,294.394L84.326,293.663C85.394,293.881 86.501,294.115 87.613,294.359L87.453,295.088ZM93.979,296.608C92.871,296.336 91.774,296.074 90.72,295.828L90.889,295.102C91.945,295.349 93.045,295.611 94.156,295.884L93.979,296.608ZM31.697,296.77L31.386,296.093C32.399,295.627 33.445,295.185 34.495,294.779L34.764,295.475C33.728,295.874 32.697,296.309 31.697,296.77ZM100.476,298.261C99.359,297.967 98.267,297.685 97.231,297.421L97.415,296.699C98.454,296.964 99.547,297.247 100.666,297.541L100.476,298.261ZM25.846,299.934L25.45,299.302C26.4,298.706 27.381,298.134 28.366,297.601L28.72,298.257C27.75,298.783 26.783,299.346 25.846,299.934ZM106.952,300C105.876,299.706 104.796,299.413 103.716,299.122L103.91,298.403C104.992,298.693 106.072,298.987 107.149,299.281L106.952,300ZM113.428,301.768C112.94,301.643 112.452,301.512 111.973,301.38L110.187,300.887L110.385,300.168L112.172,300.661C112.645,300.792 113.13,300.921 113.614,301.045L113.428,301.768ZM120.004,303.218C118.881,303.007 117.771,302.781 116.705,302.547L116.865,301.819C117.923,302.052 119.025,302.275 120.141,302.485L120.004,303.218ZM20.446,303.819L19.973,303.242C20.843,302.529 21.744,301.838 22.649,301.186L23.085,301.791C22.192,302.433 21.305,303.116 20.446,303.819ZM126.648,304.286C125.513,304.131 124.392,303.964 123.32,303.792L123.438,303.056C124.506,303.227 125.619,303.392 126.75,303.547L126.648,304.286ZM133.329,305.072C132.187,304.957 131.063,304.835 129.985,304.71L130.072,303.969C131.146,304.095 132.266,304.216 133.402,304.33L133.329,305.072ZM140.027,305.654C138.876,305.567 137.749,305.477 136.677,305.384L136.741,304.641C137.811,304.733 138.935,304.824 140.084,304.91L140.027,305.654ZM146.733,306.099C145.55,306.029 144.454,305.96 143.379,305.89L143.427,305.146C144.501,305.217 145.596,305.285 146.775,305.355L146.733,306.099ZM153.45,306.465C152.327,306.407 151.206,306.349 150.086,306.288L150.126,305.543C151.246,305.604 152.366,305.662 153.487,305.72L153.45,306.465ZM160.162,306.804C159.098,306.75 158.034,306.696 156.969,306.642L156.809,306.635L156.846,305.89L157.005,305.898C158.071,305.952 159.135,306.005 160.199,306.06L160.162,306.804ZM166.851,307.168C165.74,307.103 164.625,307.04 163.509,306.98L163.549,306.235C164.666,306.296 165.781,306.358 166.893,306.424L166.851,307.168ZM173.543,307.612C172.48,307.532 171.355,307.453 170.199,307.377L170.247,306.633C171.406,306.71 172.534,306.789 173.599,306.869L173.543,307.612ZM180.224,308.193C179.152,308.085 178.029,307.98 176.887,307.881L176.952,307.138C178.098,307.237 179.224,307.343 180.299,307.451L180.224,308.193ZM15.555,308.333L15.018,307.816C15.803,307.003 16.613,306.21 17.428,305.456L17.935,306.004C17.13,306.747 16.329,307.531 15.555,308.333ZM186.877,308.981C185.807,308.833 184.689,308.691 183.555,308.557L183.642,307.816C184.781,307.951 185.904,308.094 186.979,308.242L186.877,308.981ZM193.484,310.056C192.42,309.854 191.311,309.659 190.188,309.477L190.308,308.741C191.437,308.924 192.554,309.12 193.623,309.324L193.484,310.056ZM200.006,311.52C198.96,311.245 197.868,310.98 196.758,310.732L196.921,310.004C198.04,310.254 199.141,310.521 200.196,310.799L200.006,311.52ZM11.189,313.367L10.601,312.908C11.297,312.017 12.018,311.141 12.742,310.305L13.306,310.793C12.59,311.62 11.877,312.485 11.189,313.367ZM206.376,313.501C205.361,313.13 204.297,312.773 203.215,312.437L203.436,311.725C204.529,312.064 205.605,312.426 206.632,312.801L206.376,313.501ZM212.481,316.146C211.52,315.654 210.508,315.178 209.471,314.731L209.766,314.047C210.817,314.501 211.845,314.983 212.821,315.482L212.481,316.146ZM7.332,318.806L6.705,318.402C7.318,317.451 7.953,316.512 8.591,315.611L9.2,316.042C8.568,316.934 7.94,317.864 7.332,318.806ZM218.14,319.606C217.266,318.968 216.337,318.349 215.381,317.766L215.769,317.129C216.743,317.723 217.688,318.354 218.579,319.004L218.14,319.606ZM223.097,323.972C222.353,323.178 221.555,322.405 220.724,321.676L221.216,321.116C222.065,321.862 222.88,322.651 223.64,323.462L223.097,323.972ZM3.944,324.557L3.288,324.203C3.825,323.206 4.381,322.219 4.94,321.269L5.583,321.647C5.028,322.589 4.477,323.568 3.944,324.557ZM227.107,329.211C226.528,328.275 225.898,327.361 225.234,326.492L225.826,326.039C226.506,326.927 227.151,327.863 227.742,328.82L227.107,329.211ZM0.977,330.541L0.299,330.232C0.768,329.202 1.254,328.18 1.743,327.193L2.411,327.523C1.926,328.503 1.443,329.519 0.977,330.541ZM230.03,335.131C229.63,334.093 229.185,333.074 228.706,332.102L229.374,331.772C229.863,332.765 230.318,333.805 230.724,334.863L230.03,335.131ZM231.911,341.49C231.82,341.088 231.724,340.681 231.626,340.278C231.461,339.597 231.281,338.921 231.089,338.267L231.804,338.057C231.999,338.722 232.183,339.41 232.351,340.102C232.449,340.508 232.546,340.919 232.638,341.325L231.911,341.49ZM233.128,348.054C232.978,346.977 232.795,345.868 232.589,344.76L233.321,344.623C233.529,345.742 233.713,346.862 233.866,347.95L233.128,348.054ZM233.725,354.694C233.686,353.609 233.615,352.49 233.514,351.367L234.257,351.3C234.36,352.437 234.432,353.57 234.47,354.668L233.725,354.694ZM234.282,361.415L233.54,361.344C233.643,360.265 233.711,359.149 233.74,358.026L234.486,358.046C234.456,359.185 234.387,360.318 234.282,361.415ZM233.122,368.06L232.401,367.872C232.675,366.822 232.91,365.732 233.101,364.632L233.836,364.759C233.64,365.88 233.402,366.99 233.122,368.06ZM230.831,374.412L230.156,374.094C230.622,373.107 231.047,372.078 231.423,371.037L232.124,371.289C231.742,372.353 231.307,373.404 230.831,374.412ZM227.36,380.209L226.761,379.765C227.418,378.881 228.036,377.956 228.6,377.014L229.241,377.397C228.663,378.36 228.03,379.306 227.36,380.209ZM222.828,385.223L222.324,384.674C223.143,383.922 223.929,383.131 224.66,382.323L225.213,382.823C224.466,383.649 223.664,384.456 222.828,385.223ZM217.478,389.353L217.071,388.728C218.011,388.117 218.924,387.471 219.784,386.808L220.238,387.399C219.363,388.073 218.434,388.731 217.478,389.353ZM211.562,392.629L211.245,391.954C212.264,391.475 213.263,390.965 214.215,390.44L214.575,391.092C213.609,391.626 212.595,392.143 211.562,392.629ZM205.291,395.147L205.05,394.443C206.118,394.079 207.172,393.69 208.183,393.284L208.46,393.976C207.437,394.385 206.371,394.78 205.291,395.147ZM198.813,397.019L198.638,396.295C199.732,396.03 200.819,395.742 201.865,395.442L202.072,396.157C201.014,396.462 199.918,396.752 198.813,397.019ZM192.21,398.353L192.089,397.618C193.2,397.434 194.306,397.233 195.38,397.017L195.527,397.747C194.445,397.965 193.329,398.169 192.21,398.353ZM185.528,399.231L185.453,398.489C186.571,398.377 187.69,398.248 188.778,398.105L188.875,398.844C187.78,398.989 186.653,399.118 185.528,399.231ZM161.987,399.415C159.878,399.242 158.641,399.08 158.628,399.078L158.725,398.34C158.737,398.341 159.959,398.502 162.047,398.672L161.987,399.415ZM178.807,399.713L178.774,398.968C179.895,398.918 181.02,398.852 182.118,398.774L182.172,399.518C181.065,399.597 179.934,399.663 178.807,399.713ZM168.706,399.784C167.582,399.751 166.45,399.703 165.345,399.643L165.385,398.899C166.485,398.959 167.61,399.006 168.729,399.04L168.706,399.784ZM172.826,399.845C172.572,399.845 172.321,399.844 172.071,399.842L172.075,399.097C173.173,399.103 174.316,399.096 175.425,399.075L175.44,399.82C174.576,399.837 173.696,399.845 172.826,399.845Z" style="fill:rgb(252,251,250);fill-rule:nonzero;"/>
        </g>
        <g transform="matrix(2.25989,0,0,1.78688,273.607,-463.543)">
            <path d="M206.07,348.193C197.135,348.193 189.892,340.95 189.892,332.015C189.892,323.08 197.135,315.837 206.07,315.837C215.005,315.837 222.248,323.08 222.248,332.015C222.248,340.95 215.006,348.193 206.07,348.193ZM227.125,326.561C226.613,324.58 225.828,322.709 224.814,320.988L227.167,317.449L220.638,310.92L217.099,313.273C215.379,312.259 213.508,311.474 211.526,310.962L210.688,306.799L201.454,306.799L200.616,310.962C198.635,311.474 196.763,312.259 195.043,313.273L191.504,310.92L188.239,314.185L184.974,317.449L187.327,320.988C186.313,322.708 185.528,324.58 185.016,326.561L180.853,327.399L180.853,336.633L185.016,337.471C185.528,339.453 186.313,341.324 187.327,343.044L184.974,346.583L191.503,353.112L195.042,350.759C196.762,351.774 198.634,352.559 200.615,353.07L201.453,357.233L210.687,357.233L211.525,353.07C213.506,352.559 215.377,351.773 217.098,350.759L220.637,353.112L223.902,349.847L227.166,346.582L224.813,343.043C225.828,341.323 226.612,339.452 227.124,337.47L231.287,336.632L231.287,327.398L227.125,326.561Z" style="fill:rgb(74,167,26);fill-rule:nonzero;"/>
        </g>
        <g transform="matrix(2.25989,0,0,1.78688,273.607,-463.543)">
            <path d="M206.07,342.5L206.07,413.412C206.07,418.098 202.272,421.898 197.585,421.898L92.151,421.898C87.464,421.898 83.665,418.098 83.665,413.412L83.665,342.5C83.665,337.813 87.464,334.016 92.151,334.016L197.584,334.016C202.271,334.016 206.07,337.814 206.07,342.5Z" style="fill:rgb(252,251,250);fill-rule:nonzero;"/>
        </g>
        <g transform="matrix(2.25989,0,0,1.78688,273.607,-463.543)">
            <path d="M123.132,382.389C115.549,385.102 107.374,382.654 102.448,376.863C101.274,375.483 100.284,373.912 99.531,372.176C99.365,371.792 99.21,371.401 99.067,371.002C97.634,366.995 97.641,362.822 98.822,359.052C100.525,353.61 104.671,349.004 110.453,346.936C112.362,346.253 114.308,345.898 116.229,345.839C124.167,345.6 131.7,350.441 134.519,358.322C138.019,368.114 132.921,378.888 123.132,382.389ZM140.434,356.208C136.675,345.697 126.629,339.241 116.041,339.559C113.477,339.636 110.883,340.11 108.336,341.021C100.624,343.779 95.094,349.922 92.822,357.18C91.247,362.209 91.237,367.774 93.148,373.12C93.338,373.651 93.545,374.174 93.767,374.685C94.773,377 96.092,379.095 97.659,380.936C104.229,388.661 115.132,391.925 125.247,388.309C138.305,383.637 145.104,369.266 140.434,356.208Z" style="fill:rgb(148,148,148);fill-rule:nonzero;"/>
        </g>
        <g transform="matrix(2.25989,0,0,1.78688,273.607,-463.543)">
            <path d="M98.821,359.053L92.823,357.18C95.094,349.922 100.625,343.779 108.337,341.021C110.884,340.11 113.478,339.636 116.042,339.559L116.229,345.841C114.308,345.9 112.362,346.255 110.453,346.938C104.67,349.005 100.524,353.611 98.821,359.053Z" style="fill:rgb(92,92,92);fill-rule:nonzero;"/>
        </g>
        <g transform="matrix(2.25989,0,0,1.78688,273.607,-463.543)">
            <path d="M99.53,372.176L93.768,374.684C93.546,374.173 93.34,373.65 93.149,373.119C91.238,367.774 91.248,362.208 92.823,357.179L98.821,359.052C97.641,362.822 97.633,366.994 99.066,371.002C99.209,371.401 99.364,371.793 99.53,372.176Z" style="fill:rgb(116,116,116);fill-rule:nonzero;"/>
        </g>
        <g transform="matrix(2.25989,0,0,1.78688,273.607,-463.543)">
            <path d="M97.66,380.935C96.093,379.094 94.773,377 93.768,374.684L99.53,372.176C100.283,373.912 101.274,375.483 102.447,376.863L97.66,380.935Z" style="fill:rgb(116,116,116);fill-rule:nonzero;"/>
        </g>
        <g transform="matrix(2.25989,0,0,1.78688,273.607,-463.543)">
            <path d="M206.07,342.5L206.07,413.412C206.07,418.098 202.272,421.898 197.585,421.898L150.906,421.898L150.906,334.015L197.585,334.015C202.271,334.016 206.07,337.814 206.07,342.5Z" style="fill:rgb(82,82,82);fill-rule:nonzero;"/>
        </g>
        <g transform="matrix(2.25989,0,0,1.78688,273.607,-463.543)">
            <path d="M197.875,347.6L159.101,347.6C158.49,347.6 157.994,347.105 157.994,346.494L157.994,344.242C157.994,343.631 158.49,343.135 159.101,343.135L197.875,343.135C198.486,343.135 198.982,343.631 198.982,344.242L198.982,346.494C198.982,347.105 198.486,347.6 197.875,347.6Z" style="fill:white;fill-rule:nonzero;"/>
        </g>
        <g transform="matrix(2.25989,0,0,1.78688,273.607,-463.543)">
            <path d="M197.875,357.18L159.101,357.18C158.49,357.18 157.994,356.684 157.994,356.073L157.994,353.821C157.994,353.21 158.49,352.714 159.101,352.714L197.875,352.714C198.486,352.714 198.982,353.21 198.982,353.821L198.982,356.073C198.982,356.684 198.486,357.18 197.875,357.18Z" style="fill:rgb(255,159,23);fill-rule:nonzero;"/>
        </g>
        <g transform="matrix(2.25989,0,0,1.78688,273.607,-463.543)">
            <path d="M195.26,414.196L161.717,414.196C159.661,414.196 157.995,412.53 157.995,410.474L157.995,367.422C157.995,365.366 159.661,363.7 161.717,363.7L195.26,363.7C197.316,363.7 198.982,365.367 198.982,367.422L198.982,410.474C198.982,412.53 197.315,414.196 195.26,414.196Z" style="fill:rgb(255,230,200);fill-rule:nonzero;"/>
        </g>
        <g transform="matrix(2.25989,0,0,1.78688,273.607,-463.543)">
            <path d="M157.994,398.561C156.42,397.837 155.326,396.248 155.326,394.401L155.326,366.126C155.326,363.599 157.375,361.55 159.902,361.55L165.305,361.55C166.94,361.55 168.375,362.408 169.184,363.698L161.715,363.698C159.659,363.698 157.993,365.365 157.993,367.42L157.994,398.561Z" style="fill:rgb(255,159,23);fill-rule:nonzero;"/>
        </g>
        <g transform="matrix(2.25989,0,0,1.78688,273.607,-463.543)">
            <path d="M165.306,398.977L159.903,398.977C159.222,398.977 158.576,398.828 157.994,398.562L157.994,367.422C157.994,365.366 159.66,363.7 161.716,363.7L169.185,363.7C169.626,364.404 169.881,365.235 169.881,366.128L169.881,394.403C169.882,396.928 167.833,398.977 165.306,398.977Z" style="fill:rgb(255,230,200);fill-rule:nonzero;"/>
        </g>
        <g transform="matrix(2.25989,0,0,1.78688,273.607,-463.543)">
            <rect x="60.545" y="329.956" width="93.541" height="0.622" style="fill:rgb(233,233,233);"/>
        </g>
        <g transform="matrix(2.25989,0,0,1.78688,273.607,-463.543)">
            <path d="M69.913,315.537C67.559,315.537 65.644,317.451 65.644,319.805C65.644,322.158 67.559,324.073 69.913,324.073C72.266,324.073 74.181,322.158 74.181,319.805C74.181,317.451 72.267,315.537 69.913,315.537ZM69.913,324.819C67.148,324.819 64.899,322.57 64.899,319.805C64.899,317.04 67.148,314.791 69.913,314.791C72.677,314.791 74.927,317.04 74.927,319.805C74.927,322.57 72.678,324.819 69.913,324.819Z" style="fill:white;fill-rule:nonzero;"/>
        </g>
        <g transform="matrix(2.25989,0,0,1.78688,273.607,-463.543)">
            <path d="M56.476,381.952C56.476,381.952 61.159,382.788 61.201,386.755C61.242,390.721 57.614,396.465 55.255,396.04C52.897,395.615 50.214,393.522 50.305,391.109C50.396,388.696 51.065,385.526 52.152,383.787C53.239,382.047 55.168,381.866 56.476,381.952Z" style="fill:rgb(238,168,134);fill-rule:nonzero;"/>
        </g>
        <g transform="matrix(2.25989,0,0,1.78688,273.607,-463.543)">
            <path d="M50.468,389.272C50.468,389.272 50.477,390.081 52.088,390.722C53.699,391.364 56.658,390.466 57.402,390.615C58.145,390.764 58.365,390.406 58.365,390.406L58.417,391.198L59.047,391.626C59.047,391.626 59.489,389.519 60.812,389.335C62.135,389.151 63.238,383.103 57.532,381.959C57.532,381.959 53.308,380.811 52.218,382.955C51.127,385.097 50.264,387.763 50.468,389.272Z" style="fill:rgb(35,35,35);fill-rule:nonzero;"/>
        </g>
        <g transform="matrix(1.85987,0,0,1.47059,-118.46,-357.353)">
            <path d="M314.532,426.678C318.207,426.678 321.187,429.658 321.187,433.334L321.187,477.924C321.187,481.598 318.207,484.578 314.532,484.578L269.944,484.578C266.269,484.578 263.288,481.598 263.288,477.924L263.288,433.334C263.288,429.659 266.268,426.678 269.944,426.678L314.532,426.678ZM320.67,440.216L320.677,440.217L320.67,440.216ZM320.387,440.153C320.439,440.165 320.49,440.177 320.541,440.188C320.499,440.178 320.457,440.169 320.415,440.159L320.387,440.153ZM319.903,440.025C320.014,440.058 320.125,440.088 320.238,440.116C320.125,440.088 320.013,440.058 319.903,440.025ZM319.669,439.955C319.704,439.966 319.739,439.977 319.774,439.988L319.747,439.979C319.721,439.972 319.695,439.963 319.669,439.955ZM319.638,439.945L319.663,439.953L319.638,439.945L319.614,439.938L319.638,439.945ZM319.508,439.903C319.541,439.914 319.574,439.925 319.607,439.935C319.574,439.925 319.542,439.914 319.508,439.903ZM319.026,439.728C319.106,439.759 319.186,439.79 319.267,439.819C319.187,439.79 319.106,439.759 319.026,439.728ZM318.93,439.69L318.96,439.702L318.93,439.69ZM318.808,439.64C318.843,439.654 318.877,439.669 318.913,439.683C318.878,439.669 318.842,439.655 318.808,439.64ZM318.651,439.573C318.671,439.582 318.691,439.591 318.711,439.599L318.678,439.585L318.651,439.573ZM317.913,439.215C317.957,439.239 318.001,439.262 318.045,439.284C318.009,439.266 317.974,439.247 317.938,439.228L317.913,439.215ZM317.606,439.043C317.642,439.064 317.679,439.085 317.715,439.106L317.691,439.092C317.662,439.076 317.633,439.06 317.606,439.043ZM317.568,439.022L317.52,438.994C317.536,439.003 317.552,439.012 317.568,439.022ZM317.389,438.915C317.414,438.93 317.438,438.944 317.462,438.959C317.438,438.944 317.414,438.93 317.389,438.915ZM317.28,438.846C317.288,438.851 317.296,438.856 317.304,438.861C317.295,438.856 317.288,438.851 317.28,438.846ZM317.123,438.745C317.159,438.769 317.196,438.792 317.232,438.816C317.196,438.792 317.159,438.769 317.123,438.745ZM316.882,438.582C316.905,438.598 316.928,438.614 316.951,438.63L316.928,438.614C316.92,438.609 316.912,438.603 316.905,438.598L316.882,438.582ZM316.529,438.325C316.573,438.359 316.619,438.393 316.664,438.426C316.619,438.393 316.574,438.359 316.529,438.325ZM316.426,438.246C316.44,438.256 316.453,438.267 316.466,438.277C316.454,438.267 316.44,438.256 316.426,438.246ZM316.326,438.166C316.35,438.185 316.374,438.204 316.398,438.223C316.375,438.204 316.35,438.185 316.326,438.166ZM315.999,437.892L315.978,437.874C316.067,437.952 316.158,438.028 316.249,438.103C316.165,438.034 316.081,437.963 315.999,437.892ZM315.823,437.735C315.857,437.766 315.892,437.798 315.926,437.828C315.892,437.798 315.857,437.766 315.823,437.735ZM315.527,437.453C315.592,437.518 315.659,437.582 315.726,437.645C315.665,437.588 315.606,437.531 315.546,437.472L315.527,437.453ZM315.215,437.132C315.264,437.185 315.314,437.237 315.364,437.289C315.314,437.237 315.264,437.185 315.215,437.132ZM315.083,436.987C315.095,437.001 315.108,437.015 315.12,437.029L315.102,437.008C315.096,437.001 315.09,436.994 315.083,436.987ZM314.727,436.566C314.781,436.633 314.835,436.699 314.89,436.765C314.835,436.699 314.781,436.633 314.727,436.566ZM314.601,436.406C314.632,436.446 314.664,436.487 314.696,436.526C314.67,436.493 314.644,436.461 314.618,436.427L314.601,436.406ZM314.152,435.775C314.222,435.881 314.293,435.986 314.367,436.089L314.351,436.067C314.283,435.971 314.216,435.874 314.152,435.775ZM314.114,435.718C314.122,435.73 314.13,435.742 314.138,435.754L314.13,435.741L314.114,435.718ZM313.936,435.432C313.96,435.471 313.984,435.51 314.008,435.549C313.988,435.518 313.969,435.487 313.951,435.456L313.936,435.432ZM313.764,435.136C313.771,435.148 313.778,435.16 313.784,435.173C313.778,435.161 313.771,435.148 313.764,435.136ZM313.259,434.096C313.271,434.125 313.283,434.154 313.296,434.184C313.287,434.164 313.279,434.143 313.27,434.123L313.259,434.096ZM313.173,433.886L313.163,433.859C313.18,433.903 313.198,433.947 313.215,433.991L313.204,433.964C313.194,433.939 313.184,433.912 313.173,433.886ZM313.071,433.614C313.082,433.644 313.093,433.673 313.104,433.702C313.093,433.673 313.082,433.644 313.071,433.614ZM313.022,433.474L313.033,433.504L313.022,433.474ZM312.95,433.256L312.96,433.287L312.95,433.256ZM312.901,433.097C312.91,433.126 312.919,433.155 312.928,433.184C312.918,433.155 312.909,433.126 312.901,433.097ZM312.854,432.936L312.846,432.909C312.856,432.946 312.867,432.982 312.878,433.019L312.87,432.992C312.864,432.974 312.858,432.955 312.854,432.936ZM312.744,432.517C312.747,432.527 312.749,432.537 312.751,432.548L312.744,432.517ZM312.665,432.155C312.675,432.203 312.685,432.252 312.695,432.299C312.684,432.251 312.675,432.203 312.665,432.155ZM312.518,431.181C312.52,431.2 312.522,431.218 312.524,431.237C312.522,431.219 312.52,431.2 312.518,431.181ZM310.809,428.494L310.753,428.494L310.809,428.494ZM310.894,428.494L310.922,428.494L310.894,428.494ZM311.416,428.488C311.267,428.491 311.115,428.493 310.959,428.495C311.134,428.494 311.304,428.491 311.47,428.487L311.416,428.488ZM310.435,428.492C310.449,428.493 310.463,428.493 310.476,428.493L310.435,428.492ZM310.2,428.487C310.269,428.489 310.338,428.49 310.406,428.492L310.377,428.491C310.328,428.49 310.279,428.489 310.23,428.488L310.2,428.487ZM309.906,428.478C309.994,428.481 310.083,428.484 310.17,428.486L310.141,428.485C310.063,428.484 309.985,428.481 309.906,428.478ZM311.782,428.477L311.731,428.478C311.679,428.48 311.627,428.481 311.575,428.483L311.523,428.484C311.61,428.482 311.697,428.48 311.782,428.477ZM309.843,428.476L309.892,428.477L309.843,428.476ZM309.795,428.474L309.833,428.475L309.795,428.474ZM309.597,428.465C309.658,428.468 309.719,428.47 309.78,428.473C309.719,428.471 309.658,428.468 309.597,428.465ZM309.412,428.455C309.443,428.457 309.474,428.458 309.504,428.46L309.473,428.458C309.453,428.457 309.433,428.456 309.412,428.455ZM312.324,428.451L312.284,428.453C312.313,428.452 312.342,428.45 312.371,428.448L312.324,428.451ZM308.438,428.377C308.693,428.404 308.945,428.425 309.195,428.442L309.164,428.44C308.935,428.424 308.704,428.405 308.47,428.381L308.438,428.377ZM307.797,428.299L307.764,428.295C307.968,428.323 308.172,428.348 308.374,428.37L308.406,428.373C308.205,428.352 308.001,428.328 307.797,428.299ZM307.345,428.231L307.329,428.228C307.345,428.231 307.361,428.233 307.377,428.236L307.345,428.231ZM306.665,428.106C306.718,428.117 306.771,428.128 306.825,428.138C306.782,428.13 306.74,428.121 306.697,428.113L306.665,428.106ZM306.6,428.093L306.632,428.1C306.622,428.097 306.611,428.095 306.6,428.093ZM306.148,427.991L306.116,427.983C306.17,427.997 306.223,428.009 306.277,428.022L306.309,428.029C306.256,428.016 306.202,428.004 306.148,427.991ZM305.96,427.943C305.991,427.951 306.021,427.959 306.052,427.967L306.02,427.959C306,427.954 305.98,427.948 305.96,427.943ZM305.891,427.925C305.91,427.93 305.928,427.935 305.947,427.94L305.924,427.934L305.891,427.925ZM305.827,427.908L305.795,427.9C305.806,427.903 305.816,427.906 305.827,427.908L305.859,427.917C305.849,427.914 305.838,427.912 305.827,427.908ZM305.455,427.804C305.488,427.814 305.521,427.823 305.554,427.833C305.52,427.823 305.487,427.813 305.455,427.804ZM305.223,427.732C305.292,427.754 305.362,427.776 305.431,427.796C305.372,427.778 305.313,427.761 305.254,427.742L305.223,427.732ZM304.692,427.549C304.795,427.587 304.899,427.624 305.003,427.659L304.972,427.649C304.888,427.62 304.805,427.591 304.722,427.561L304.692,427.549ZM304.564,427.5C304.596,427.513 304.629,427.525 304.661,427.537L304.63,427.525C304.608,427.517 304.586,427.509 304.564,427.5ZM304.349,427.415C304.395,427.434 304.442,427.452 304.489,427.471C304.442,427.453 304.395,427.434 304.349,427.415ZM303.795,427.17C303.842,427.192 303.889,427.214 303.936,427.236C303.889,427.214 303.842,427.192 303.795,427.17ZM303.504,427.024C303.595,427.072 303.686,427.117 303.779,427.162C303.687,427.117 303.596,427.072 303.504,427.024ZM303.292,426.909C303.353,426.942 303.413,426.976 303.474,427.008C303.413,426.976 303.352,426.943 303.292,426.909ZM303.249,426.886C303.254,426.889 303.259,426.891 303.263,426.894C303.258,426.891 303.253,426.888 303.249,426.886ZM303.182,426.848L303.197,426.857L303.182,426.848ZM303.122,426.813C303.14,426.823 303.157,426.833 303.176,426.844C303.163,426.836 303.149,426.829 303.137,426.822L303.122,426.813ZM321.1,440.295C321.033,440.284 320.965,440.273 320.899,440.26L320.87,440.255C320.956,440.271 321.042,440.286 321.129,440.3L321.1,440.295ZM318.573,439.538C318.482,439.498 318.392,439.456 318.302,439.413C318.4,439.46 318.499,439.505 318.598,439.55L318.573,439.538ZM317.863,439.188C317.854,439.183 317.846,439.178 317.838,439.174L317.813,439.16C317.838,439.174 317.863,439.187 317.887,439.201L317.863,439.188ZM315.487,437.414C315.452,437.379 315.416,437.343 315.381,437.307C315.423,437.349 315.465,437.392 315.507,437.433L315.487,437.414ZM315.177,437.091C315.183,437.098 315.19,437.105 315.196,437.111L315.177,437.091ZM314.567,436.361C314.511,436.287 314.455,436.211 314.4,436.136C314.461,436.22 314.522,436.302 314.584,436.383L314.567,436.361ZM312.831,432.853C312.824,432.828 312.817,432.804 312.811,432.779C312.821,432.813 312.829,432.847 312.839,432.881L312.831,432.853Z" style="fill:rgb(74,167,26);fill-rule:nonzero;"/>
        </g>
        <g transform="matrix(2.25989,0,0,1.78688,273.607,-463.543)">
            <path d="M87.153,338.79L87.153,365.434C87.153,368.07 85.016,370.208 82.379,370.208L44.275,370.208C41.639,370.208 39.501,368.071 39.501,365.434L39.501,338.79C39.501,336.153 41.638,334.016 44.275,334.016L82.379,334.016C85.016,334.016 87.153,336.153 87.153,338.79Z" style="fill:rgb(219,237,209);fill-rule:nonzero;"/>
        </g>
        <g transform="matrix(2.25989,0,0,1.78688,273.607,-463.543)">
            <path d="M86.086,422.71L69.816,422.71C69.198,422.71 68.697,422.209 68.697,421.591L68.697,418.704C68.697,418.086 69.198,417.584 69.816,417.584L86.086,417.584C86.704,417.584 87.206,418.086 87.206,418.704L87.206,421.591C87.206,422.209 86.705,422.71 86.086,422.71Z" style="fill:rgb(252,251,250);fill-rule:nonzero;"/>
        </g>
        <g transform="matrix(2.25989,0,0,1.78688,273.607,-463.543)">
            <path d="M84.629,452.482L71.275,452.482C69.851,452.482 68.697,451.327 68.697,449.905L68.697,427.893C68.697,426.47 69.851,425.316 71.275,425.316L84.629,425.316C86.052,425.316 87.207,426.471 87.207,427.893L87.207,449.905C87.206,451.327 86.052,452.482 84.629,452.482Z" style="fill:rgb(252,251,250);fill-rule:nonzero;"/>
        </g>
        <g transform="matrix(2.25989,0,0,1.78688,273.607,-463.543)">
            <path d="M50.247,423.887C50.274,421.847 51.254,420.043 52.759,418.894C53.855,418.057 55.228,417.567 56.714,417.585C59.445,417.62 61.753,419.365 62.633,421.789L62.634,421.792C62.843,422.368 62.972,422.983 63.007,423.623C63.014,423.764 63.017,423.907 63.015,424.051C62.997,425.494 62.5,426.818 61.679,427.877C60.494,429.405 58.632,430.379 56.549,430.352C55.861,430.343 55.201,430.226 54.583,430.017C52.033,429.156 50.211,426.727 50.247,423.887ZM53.901,432.036C54.724,432.315 55.606,432.471 56.522,432.483C59.3,432.519 61.784,431.221 63.365,429.184C64.46,427.772 65.122,426.004 65.146,424.079C65.149,423.887 65.145,423.697 65.135,423.508C65.089,422.653 64.917,421.831 64.637,421.061C63.463,417.829 60.384,415.502 56.742,415.454C54.78,415.429 52.964,416.069 51.51,417.167C49.478,418.699 48.152,421.12 48.117,423.86C48.069,427.645 50.498,430.885 53.901,432.036Z" style="fill:rgb(237,246,232);fill-rule:nonzero;"/>
        </g>
        <g transform="matrix(2.25989,0,0,1.78688,273.607,-463.543)">
            <path d="M61.679,427.878L63.364,429.184C61.784,431.221 59.3,432.519 56.522,432.484C55.605,432.472 54.724,432.315 53.901,432.037L54.584,430.017C55.201,430.226 55.862,430.343 56.55,430.352C58.632,430.38 60.494,429.406 61.679,427.878Z" style="fill:rgb(255,159,23);fill-rule:nonzero;"/>
        </g>
        <g transform="matrix(2.25989,0,0,1.78688,273.607,-463.543)">
            <path d="M63.007,423.623L65.135,423.507C65.145,423.696 65.149,423.886 65.146,424.078C65.122,426.002 64.46,427.77 63.364,429.183L61.679,427.877C62.5,426.818 62.996,425.493 63.015,424.051C63.017,423.907 63.014,423.765 63.007,423.623Z" style="fill:rgb(255,175,61);fill-rule:nonzero;"/>
        </g>
        <g transform="matrix(2.25989,0,0,1.78688,273.607,-463.543)">
            <path d="M63.007,423.624C62.972,422.984 62.844,422.369 62.634,421.793L62.633,421.79L64.636,421.062C64.916,421.832 65.089,422.654 65.134,423.509L63.007,423.624Z" style="fill:rgb(255,193,106);fill-rule:nonzero;"/>
        </g>
        <g transform="matrix(2.25989,0,0,1.78688,273.607,-463.543)">
            <path d="M51.51,417.167C52.964,416.069 54.779,415.429 56.742,415.454C60.384,415.502 63.463,417.829 64.637,421.061L62.635,421.793L62.634,421.79C61.753,419.365 59.445,417.62 56.715,417.586C55.229,417.568 53.856,418.058 52.76,418.895L51.51,417.167Z" style="fill:rgb(255,211,149);fill-rule:nonzero;"/>
        </g>
        <g transform="matrix(-1.64912,-0.679956,2.25434,-3.41831,646.551,545.949)">
            <path d="M309.006,56.234L316.087,60.744L301.925,60.744L309.006,56.234Z" style="fill:rgb(252,251,250);fill-rule:nonzero;"/>
        </g>
        <g transform="matrix(2.25989,0,0,1.78688,273.607,-463.543)">
            <path d="M65.202,413.027C65.202,413.027 65.661,412.967 65.928,412.695C66.389,412.224 66.432,411.232 67.361,411.164C68.289,411.097 69.146,413.912 68.997,414.491C68.849,415.07 67.615,415.534 65.675,415.44C63.736,415.346 65.202,413.027 65.202,413.027Z" style="fill:rgb(238,168,134);fill-rule:nonzero;"/>
        </g>
        <g transform="matrix(2.25989,0,0,1.78688,273.607,-463.543)">
            <path d="M67.049,411.231C67.049,411.231 68.301,410.584 69.774,410.027C71.067,409.538 72.665,409.191 72.839,409.413C73.225,409.907 71.717,410.255 70.464,410.823C69.31,411.345 69.509,411.262 69.509,411.262C69.509,411.262 69.423,411.233 70.78,410.9C72.239,410.54 73.764,410.315 73.958,410.588C74.053,410.721 74.223,411.184 73.611,411.165C73.929,411.102 73.88,411.054 73.911,411.181C74.074,411.838 71.995,412.692 71.17,413.031C71.806,412.775 72.296,412.652 72.125,413.134C71.931,413.686 68.943,414.765 67.906,415.251C66.773,415.777 67.049,411.231 67.049,411.231Z" style="fill:rgb(238,168,134);fill-rule:nonzero;"/>
        </g>
        <g transform="matrix(2.25989,0,0,1.78688,273.607,-463.543)">
            <path d="M44.87,393.632C44.87,393.632 41.944,393.42 39.879,393.632C37.814,393.843 34.96,395.533 33.233,396.021C31.506,396.509 27.337,399.31 27.45,399.694C27.562,400.077 29.177,404.635 32.162,408.338C34.717,411.506 44.87,393.632 44.87,393.632Z" style="fill:rgb(212,216,232);fill-rule:nonzero;"/>
        </g>
        <g transform="matrix(2.25989,0,0,1.78688,273.607,-463.543)">
            <path d="M38.555,395.468C38.555,395.468 35.4,397.803 34.302,399.944C33.203,402.084 32.829,404.633 32.829,404.633L38.555,395.468Z" style="fill:rgb(169,173,186);fill-rule:nonzero;"/>
        </g>
        <g transform="matrix(2.25989,0,0,1.78688,273.607,-463.543)">
            <path d="M40.946,465.026C40.946,465.026 41.848,465.983 42.369,466.237C42.89,466.491 49.113,467.561 49.536,468.068C49.958,468.575 49.958,470.574 48.353,470.574C46.748,470.574 41.397,470.545 40.496,470.574C39.595,470.602 35.788,471.363 35.397,470.574C35.005,469.786 35.041,466.106 35.737,465.224C36.432,464.341 40.946,465.026 40.946,465.026Z" style="fill:rgb(28,65,84);fill-rule:nonzero;"/>
        </g>
        <g transform="matrix(2.25989,0,0,1.78688,273.607,-463.543)">
            <path d="M40.754,463.908L40.946,465.026C40.946,465.026 39.285,465.786 35.736,465.224L35.736,464.069L40.754,463.908Z" style="fill:rgb(42,97,125);fill-rule:nonzero;"/>
        </g>
        <g transform="matrix(2.25989,0,0,1.78688,273.607,-463.543)">
            <path d="M2.957,461.929C2.957,461.929 2.26,462.739 1.915,463.788C1.695,464.459 0.647,467.59 1.098,468.35C1.548,469.111 5.097,469.223 6.871,468.942C8.645,468.661 12.503,469.251 12.898,468.492C13.292,467.731 13.517,466.622 12.363,466.191C11.208,465.76 8.561,464.633 8.082,463.45C7.604,462.267 2.957,461.929 2.957,461.929Z" style="fill:rgb(28,65,84);fill-rule:nonzero;"/>
        </g>
        <g transform="matrix(2.25989,0,0,1.78688,273.607,-463.543)">
            <path d="M8.575,462.182L8.083,463.449C8.083,463.449 2.999,463.068 2.957,461.929L4.562,459.592L8.575,462.182Z" style="fill:rgb(42,97,125);fill-rule:nonzero;"/>
        </g>
        <g transform="matrix(2.25989,0,0,1.78688,273.607,-463.543)">
            <path d="M50.312,391.473C50.312,391.473 47.478,393.879 46.672,393.683C45.866,393.486 49.451,398.773 49.451,398.773C49.451,398.773 52.865,395.413 53.634,395.312C54.403,395.211 50.312,391.473 50.312,391.473Z" style="fill:rgb(238,168,134);fill-rule:nonzero;"/>
        </g>
        <g transform="matrix(2.25989,0,0,1.78688,273.607,-463.543)">
            <path d="M50.505,400.976C49.54,401.559 49.378,401.746 49.491,404.507C49.603,407.266 50.748,409.491 50.833,410.252C50.918,411.012 52.451,418.555 52.873,418.977C53.296,419.399 58.344,418.415 59.366,418.099C60.895,417.625 67.364,415.434 67.364,415.434L65.941,412.466C65.941,412.466 57.774,414.288 57.511,413.649C57.249,413.011 56.609,407.65 56.384,406.486C56.159,405.322 56.551,403.493 55.161,400.731C53.914,398.259 50.505,400.976 50.505,400.976Z" style="fill:rgb(212,216,232);fill-rule:nonzero;"/>
        </g>
        <g transform="matrix(2.25989,0,0,1.78688,273.607,-463.543)">
            <path d="M40.928,421.742C40.928,421.742 42.659,423.583 43.143,424.182C46.459,428.28 50.973,435.804 51.536,437.118C52.099,438.432 48.746,447.726 47.368,450.973C46.645,452.676 41.867,464.407 42.017,464.67C42.167,464.933 36.962,465.107 34.634,463.905C34.634,463.905 37.982,453.988 38.686,452.044C39.752,449.108 43.443,440.975 43.556,440.187C43.668,439.398 37.587,432.895 35.559,431.656C33.531,430.416 28.575,426.023 28.012,425.46C27.449,424.897 24.257,423.395 24.558,420.541C24.859,417.688 26.979,415.435 26.979,415.435L40.928,421.742Z" style="fill:rgb(30,30,30);fill-rule:nonzero;"/>
        </g>
        <g transform="matrix(2.25989,0,0,1.78688,273.607,-463.543)">
            <path d="M31.829,428.801C31.829,428.801 31.512,429.635 31.067,430.804C30.112,433.312 28.569,437.361 28.312,438.001C27.937,438.94 26.059,442.995 25.158,443.784C24.256,444.572 9.425,462.37 9.387,462.52C9.35,462.67 3.83,459.816 3.492,458.727C3.492,458.727 11.528,448.251 12.767,446.712C14.007,445.172 16.597,442.882 17.461,439.239C18.325,435.597 24.519,421.591 24.538,421.065C24.538,421.065 25.535,416.748 26.98,415.433C28.426,414.119 33.683,415.658 34.509,418.398C35.335,421.142 31.829,428.801 31.829,428.801Z" style="fill:rgb(30,30,30);fill-rule:nonzero;"/>
        </g>
        <g transform="matrix(2.25989,0,0,1.78688,273.607,-463.543)">
            <path d="M46.416,393.658L47.613,393.185C47.613,393.185 50.636,393.88 52.381,396.301L52.231,397.025C52.232,397.026 47.622,396.027 46.416,393.658Z" style="fill:rgb(212,216,232);fill-rule:nonzero;"/>
        </g>
        <g transform="matrix(2.25989,0,0,1.78688,273.607,-463.543)">
            <path d="M51.031,411.289C50.788,411.628 50.592,411.869 50.467,411.979C50.381,412.053 50.278,412.139 50.158,412.237L50.156,412.238L50.042,407.696C50.042,407.696 50.612,409.447 50.696,409.705C50.782,409.966 51.031,411.289 51.031,411.289Z" style="fill:rgb(169,173,186);fill-rule:nonzero;"/>
        </g>
        <g transform="matrix(2.25989,0,0,1.78688,273.607,-463.543)">
            <path d="M31.829,428.801C31.829,428.801 31.512,429.635 31.067,430.804C30.058,429.642 27.754,425.251 27.754,425.251C27.904,425.358 28.386,425.811 28.498,425.911C28.609,426.013 31.829,428.801 31.829,428.801Z" style="fill:rgb(13,13,13);fill-rule:nonzero;"/>
        </g>
        <g transform="matrix(2.25989,0,0,1.78688,273.607,-463.543)">
            <path d="M57.624,390.258C57.731,389.914 57.474,388.599 56.634,389.347C55.795,390.096 55.798,391.773 56.272,391.91C56.746,392.048 57.354,391.131 57.624,390.258Z" style="fill:rgb(238,168,134);fill-rule:nonzero;"/>
        </g>
        <g transform="matrix(2.25989,0,0,1.78688,273.607,-463.543)">
            <path d="M54.486,382.875C54.486,382.875 50.422,379.986 50.4,389.839L54.486,382.875Z" style="fill:rgb(35,35,35);fill-rule:nonzero;"/>
        </g>
        <g transform="matrix(2.25989,0,0,1.78688,273.607,-463.543)">
            <path d="M51.031,411.289C50.788,411.628 50.592,411.869 50.467,411.979C50.381,412.053 50.278,412.139 50.158,412.237L50.156,412.238C49.01,413.155 46.436,414.938 45.248,415.584C43.934,416.299 41.441,422.31 41.441,422.31C41.441,422.31 29.683,421.517 26.979,415.435C26.979,415.435 28.895,411.154 30.641,408.62C32.387,406.085 36.216,396.96 38.244,395.666C40.272,394.371 42.018,393.524 46.017,393.638C50.016,393.751 52.232,396.924 52.232,396.924C52.232,396.924 55.274,400.191 55.574,401.918C55.833,403.402 52.531,409.2 51.031,411.289Z" style="fill:rgb(212,216,232);fill-rule:nonzero;"/>
        </g>
        <g transform="matrix(2.25989,0,0,1.78688,273.607,-463.543)">
            <path d="M87.153,338.79L87.07,341.44L39.419,341.44L39.501,338.79C39.501,336.153 41.638,334.016 44.275,334.016L82.379,334.016C85.016,334.016 87.153,336.153 87.153,338.79Z" style="fill:rgb(74,167,26);fill-rule:nonzero;"/>
        </g>
        <g transform="matrix(2.25989,0,0,1.78688,273.607,-463.543)">
            <path d="M44.861,344.297C44.033,344.297 43.36,344.971 43.36,345.798L43.36,364.911C43.36,365.739 44.033,366.412 44.861,366.412L54.448,366.412C55.276,366.412 55.949,365.739 55.949,364.911L55.949,345.798C55.949,344.97 55.276,344.297 54.448,344.297L44.861,344.297ZM54.448,367.158L44.861,367.158C43.622,367.158 42.614,366.15 42.614,364.911L42.614,345.798C42.614,344.559 43.622,343.551 44.861,343.551L54.448,343.551C55.687,343.551 56.695,344.559 56.695,345.798L56.695,364.911C56.696,366.15 55.687,367.158 54.448,367.158Z" style="fill:rgb(74,167,26);fill-rule:nonzero;"/>
        </g>
        <g transform="matrix(2.25989,0,0,1.78688,273.607,-463.543)">
            <path d="M82.827,345.912L59.985,345.912C59.573,345.912 59.239,345.578 59.239,345.166L59.239,344.671C59.239,344.259 59.573,343.924 59.985,343.924L82.827,343.924C83.24,343.924 83.574,344.259 83.574,344.671L83.574,345.166C83.573,345.578 83.239,345.912 82.827,345.912Z" style="fill:rgb(74,167,26);fill-rule:nonzero;"/>
        </g>
        <g transform="matrix(2.25989,0,0,1.78688,273.607,-463.543)">
            <path d="M82.827,349.95L59.985,349.95C59.573,349.95 59.239,349.616 59.239,349.204L59.239,348.709C59.239,348.297 59.573,347.962 59.985,347.962L82.827,347.962C83.24,347.962 83.574,348.297 83.574,348.709L83.574,349.204C83.573,349.616 83.239,349.95 82.827,349.95Z" style="fill:rgb(74,167,26);fill-rule:nonzero;"/>
        </g>
        <g transform="matrix(2.25989,0,0,1.78688,273.607,-463.543)">
            <path d="M138.291,400.298L94.665,400.298C94.027,400.298 93.511,399.781 93.511,399.143L93.511,396.813C93.511,396.177 94.027,395.659 94.665,395.659L138.292,395.659C138.929,395.659 139.447,396.176 139.447,396.813L139.447,399.143C139.446,399.782 138.929,400.298 138.291,400.298Z" style="fill:rgb(233,233,233);fill-rule:nonzero;"/>
        </g>
        <g transform="matrix(2.25989,0,0,1.78688,273.607,-463.543)">
            <path d="M138.291,407.859L94.665,407.859C94.027,407.859 93.511,407.342 93.511,406.704L93.511,404.374C93.511,403.737 94.027,403.22 94.665,403.22L138.292,403.22C138.929,403.22 139.447,403.737 139.447,404.374L139.447,406.704C139.446,407.343 138.929,407.859 138.291,407.859Z" style="fill:rgb(169,169,169);fill-rule:nonzero;"/>
        </g>
        <g transform="matrix(2.25989,0,0,1.78688,273.607,-463.543)">
            <path d="M138.291,415.42L94.665,415.42C94.027,415.42 93.511,414.903 93.511,414.265L93.511,411.936C93.511,411.298 94.027,410.781 94.665,410.781L138.292,410.781C138.929,410.781 139.447,411.298 139.447,411.936L139.447,414.265C139.446,414.903 138.929,415.42 138.291,415.42Z" style="fill:rgb(82,82,82);fill-rule:nonzero;"/>
        </g>
        <g transform="matrix(2.25989,0,0,1.78688,273.607,-463.543)">
            <path d="M47.129,338.044C47.129,339.188 46.201,340.115 45.058,340.115C43.915,340.115 42.987,339.188 42.987,338.044C42.987,336.9 43.915,335.973 45.058,335.973C46.201,335.973 47.129,336.9 47.129,338.044Z" style="fill:rgb(227,242,255);fill-rule:nonzero;"/>
        </g>
        <g transform="matrix(2.25989,0,0,1.78688,284.171,-465.425)">
            <path d="M201.396,409.963C201.396,409.963 209.814,412.68 211.757,412.202C212.784,411.948 214.391,410.492 215.883,408.921C216.13,408.661 216.373,408.397 216.612,408.136C218.258,406.325 219.602,404.599 219.602,404.599C219.602,404.599 223.679,399.821 220.408,397.691C220.408,397.691 218.964,397.827 217.873,398.996C216.782,400.165 215.759,402.028 215.473,402.652C215.187,403.276 211.183,409.051 210.975,409.181C210.768,409.31 209.018,408.851 207.615,408.734C205.327,408.543 201.904,407.377 201.904,407.377L201.396,409.963Z" style="fill:rgb(67,67,67);fill-rule:nonzero;"/>
        </g>
        <g transform="matrix(2.25989,0,0,1.78688,273.607,-463.543)">
            <path d="M214.464,461.489C214.464,461.489 213.393,463.405 212.757,463.794C211.964,464.278 210.425,465.83 209.887,465.902C209.35,465.973 207.418,466.316 207.791,467.407C208.096,468.301 212.705,468.173 213.224,467.725C213.744,467.277 215.298,465.669 215.926,465.705C216.554,465.741 216.32,468.024 216.32,468.024L217.001,468.024C217.001,468.024 217.238,465.802 217.267,465.42C217.352,464.29 216.547,463.458 216.511,462.813C216.474,462.168 216.438,461.687 216.438,461.687L214.464,461.489Z" style="fill:rgb(22,32,46);fill-rule:nonzero;"/>
        </g>
        <g transform="matrix(2.25989,0,0,1.78688,273.607,-463.543)">
            <path d="M210.041,465.849C210.041,465.849 211.56,466.373 212.729,465.701C213.898,465.029 216.142,464.009 216.935,464.002C216.935,464.002 216.502,462.679 216.494,462.53C216.484,462.382 216.438,461.685 216.438,461.685L214.476,461.37C214.476,461.37 213.204,463.238 212.643,463.678C212.082,464.119 210.645,465.216 210.041,465.849Z" style="fill:rgb(238,168,134);fill-rule:nonzero;"/>
        </g>
        <g transform="matrix(2.25989,0,0,1.78688,273.607,-463.543)">
            <path d="M232.986,463.292C232.986,463.292 232.796,464.618 232.59,464.98C232.383,465.342 231.815,467.185 231.556,467.529C231.298,467.873 230.729,470.457 231.556,470.766C232.383,471.076 234.329,471.593 234.983,470.56C235.638,469.526 235.724,468.493 235.621,467.701C235.517,466.909 234.732,463.273 234.742,462.912C234.753,462.552 232.986,463.292 232.986,463.292Z" style="fill:rgb(238,168,134);fill-rule:nonzero;"/>
        </g>
        <g transform="matrix(2.25989,0,0,1.78688,273.607,-463.543)">
            <path d="M231.885,466.813C231.885,466.813 231.797,468.82 233.312,468.82C234.828,468.82 235.5,466.994 235.5,466.994C235.5,466.994 236.017,467.891 235.5,469.802C234.983,471.715 232.83,471.318 232.348,471.249C231.866,471.18 229.58,470.575 231.885,466.813Z" style="fill:rgb(22,32,46);fill-rule:nonzero;"/>
        </g>
        <g transform="matrix(2.25989,0,0,1.78688,273.607,-463.543)">
            <path d="M230.484,417.565C230.484,417.565 232.444,420.062 233.135,421.714C233.827,423.365 234.978,426.986 234.825,429.79C234.671,432.594 233.749,437.858 234.018,439.048C234.287,440.239 234.555,442.697 234.844,443.542C235.132,444.387 236.284,446.846 236.4,449.38C236.515,451.916 235.58,463.037 235.656,464.074C235.734,465.111 232.3,464.477 232.3,464.477C232.3,464.477 232.212,454.451 231.828,452.723C231.444,450.994 230.983,445.117 230.637,444.694C230.292,444.272 229.322,439.816 229.259,439.088C229.198,438.384 225.089,426.201 224.859,424.127C224.628,422.053 219.482,417.565 219.482,417.565C219.482,417.565 224.53,415.634 230.484,417.565Z" style="fill:rgb(39,39,39);fill-rule:nonzero;"/>
        </g>
        <g transform="matrix(2.25989,0,0,1.78688,273.607,-463.543)">
            <path d="M217.72,462.038C218.451,461.923 220.406,450.687 220.175,448.689C219.944,446.692 219.714,442.433 220.367,440.702C220.795,439.566 223.473,433.785 225.275,429.727C225.529,429.154 225.765,428.616 225.976,428.129C226.548,426.809 226.925,425.873 226.935,425.68C226.974,424.912 229.478,411.677 219.584,417.565C219.584,417.565 219.483,418.611 219.368,418.995C219.252,419.379 216.602,429.175 216.333,432.94C216.064,436.704 215.372,439.898 215.257,440.702C215.141,441.506 215.372,444.196 215.602,444.887C215.833,445.578 214.103,461.189 213.988,461.574C213.875,461.959 216.991,462.153 217.72,462.038Z" style="fill:rgb(39,39,39);fill-rule:nonzero;"/>
        </g>
        <g transform="matrix(2.25989,0,0,1.78688,273.607,-463.543)">
            <path d="M223.466,396.656C223.466,396.656 221.593,397.539 220.943,397.669C220.293,397.799 217.77,401.075 217.327,402.271C216.885,403.467 217.326,405.261 218.236,407.368C219.146,409.475 218.287,410.177 218.703,412.283C219.118,414.389 219.482,418.849 219.403,420.019C219.325,421.189 229.921,421.413 232.339,419.281C232.339,419.281 229.91,415.64 229.598,415.12C229.286,414.6 229.547,411.766 229.833,411.037C230.119,410.309 232.146,404.294 232.146,404.294C232.146,404.294 233.582,399.362 232.175,398.269C230.953,397.32 227.622,396.98 227.025,396.773C226.428,396.565 224.687,396.473 223.466,396.656Z" style="fill:rgb(237,218,211);fill-rule:nonzero;"/>
        </g>
        <g transform="matrix(2.25989,0,0,1.78688,273.607,-463.543)">
            <path d="M222.866,400.829L221.729,399.497L222.718,395.989C222.718,395.989 223.049,397.942 222.866,400.829Z" style="fill:rgb(214,197,190);fill-rule:nonzero;"/>
        </g>
        <g transform="matrix(2.25989,0,0,1.78688,273.607,-463.543)">
            <path d="M222.573,394.494C222.573,394.494 222.946,397.929 222.868,399.048C222.868,399.048 224.812,400.998 227.026,396.773C227.026,396.773 226.096,395.032 226.796,392.658C227.498,390.285 222.573,394.494 222.573,394.494Z" style="fill:rgb(238,168,134);fill-rule:nonzero;"/>
        </g>
        <g transform="matrix(2.25989,0,0,1.78688,273.607,-463.543)">
            <path d="M222.868,399.048L222.867,400.829L225.107,399.157L222.868,399.048Z" style="fill:rgb(238,168,134);fill-rule:nonzero;"/>
        </g>
        <g transform="matrix(2.25989,0,0,1.78688,273.607,-463.543)">
            <path d="M222.866,400.829L223.796,399.678L226.927,396.558L227.941,397.534L222.866,400.829Z" style="fill:rgb(214,197,190);fill-rule:nonzero;"/>
        </g>
        <g transform="matrix(2.25989,0,0,1.78688,273.012,-465.425)">
            <path d="M226.548,422.043C227.429,426.264 233.808,421.568 233.808,421.568C233.808,421.568 229.672,414.618 231.318,409.064L231.357,408.933C231.462,408.582 231.567,408.248 231.672,407.931L231.728,407.76C232.087,406.668 232.381,405.765 232.619,405.022L232.619,405.021C233.354,402.735 233.567,401.982 233.567,401.982C233.567,401.982 233.252,398.424 231.495,398.033C229.73,397.641 227.867,397.273 227.867,397.273C227.867,397.273 224.821,401.18 224.694,402.935C224.567,404.691 225.666,417.822 226.548,422.043Z" style="fill:rgb(67,67,67);fill-rule:nonzero;"/>
        </g>
        <g transform="matrix(2.25989,0,0,1.78688,273.012,-465.425)">
            <path d="M217.15,403.416C217.15,403.416 216.953,405.836 218.615,409.014C218.615,409.014 218.58,413.269 218.527,414.751C218.475,416.233 218.122,421.837 218.122,421.837L219.948,422.907C220.316,423.123 220.771,422.824 220.719,422.4C220.204,418.135 218.525,401.954 222.161,397.606L220.541,398.165C220.541,398.166 217.15,401.723 217.15,403.416Z" style="fill:rgb(67,67,67);fill-rule:nonzero;"/>
        </g>
        <g transform="matrix(2.25989,0,0,1.78688,273.607,-463.543)">
            <path d="M221.729,399.497L220.295,399.892L222.718,395.989L221.729,399.497Z" style="fill:rgb(250,230,222);fill-rule:nonzero;"/>
        </g>
        <g transform="matrix(2.25989,0,0,1.78688,273.607,-463.543)">
            <path d="M223.797,399.678L225.106,401.395L227.782,396.937L226.929,396.558L223.797,399.678Z" style="fill:rgb(250,230,222);fill-rule:nonzero;"/>
        </g>
        <g transform="matrix(2.25989,0,0,1.78688,273.607,-463.543)">
            <path d="M223.928,383.408C222.558,383.277 219.479,383.822 218.838,387.44C218.838,387.44 218.901,388.426 219.103,389.209C219.304,389.991 218.505,392.231 218.68,392.352C218.854,392.472 219.593,392.651 219.593,392.651C219.593,392.651 220.276,395.172 221.149,395.192C222.022,395.212 225.354,394.687 227.055,391.672C228.756,388.657 229.461,383.94 223.928,383.408Z" style="fill:rgb(238,168,134);fill-rule:nonzero;"/>
        </g>
        <g transform="matrix(2.25989,0,0,1.78688,273.607,-463.543)">
            <path d="M218.837,387.44C218.837,387.44 220.994,389.066 223.191,389.478C225.389,389.89 226.578,393.714 226.578,393.714C226.578,393.714 230.264,388.174 227.711,384.626C225.158,381.078 218.558,383.175 218.837,387.44Z" style="fill:rgb(52,64,82);fill-rule:nonzero;"/>
        </g>
        <g transform="matrix(2.25989,0,0,1.78688,273.607,-463.543)">
            <path d="M224.117,389.419C224.149,388.991 224.657,388.371 225.331,388.99C226.005,389.609 224.964,391.6 224.399,391.373C223.833,391.146 224.084,389.862 224.117,389.419Z" style="fill:rgb(238,168,134);fill-rule:nonzero;"/>
        </g>
        <g transform="matrix(2.25989,0,0,1.78688,273.607,-463.543)">
            <path d="M222.568,394.991C222.618,395.258 222.669,395.57 222.71,395.901C224.554,394.85 225.521,393.511 225.521,393.511C224.454,394.386 222.568,394.991 222.568,394.991Z" style="fill:rgb(167,120,96);fill-rule:nonzero;"/>
        </g>
        <g transform="matrix(2.25989,0,0,1.78688,273.607,-463.543)">
            <path d="M210.703,418.337L210.689,418.337L204.517,418.306C205.495,416.923 206.069,415.234 206.069,413.412L206.069,410.576C208.315,411.207 211.18,411.92 212.662,411.92C212.897,411.92 213.096,411.902 213.253,411.864C213.311,411.85 213.371,411.831 213.433,411.81L213.414,415.64C213.407,417.133 212.194,418.337 210.703,418.337ZM212.331,408.866C211.844,408.866 210.344,408.499 209.112,408.397C208.184,408.319 207.069,408.081 206.07,407.826L206.07,394.876C206.277,394.803 206.483,394.728 206.689,394.654L210.807,394.674C212.304,394.681 213.512,395.902 213.505,397.399L213.455,407.532C212.926,408.276 212.534,408.806 212.472,408.844C212.446,408.86 212.398,408.866 212.331,408.866Z" style="fill:white;fill-rule:nonzero;"/>
        </g>
        <g transform="matrix(2.25989,0,0,1.78688,273.607,-463.543)">
            <path d="M206.07,394.876L206.07,394.651L206.689,394.654C206.483,394.729 206.277,394.803 206.07,394.876Z" style="fill:rgb(220,234,246);fill-rule:nonzero;"/>
        </g>
        <g transform="matrix(2.25989,0,0,1.78688,273.607,-463.543)">
            <path d="M204.517,418.307L183.351,418.202C181.854,418.195 180.647,416.975 180.654,415.479L180.66,414.196L195.26,414.196C197.316,414.196 198.982,412.53 198.982,410.474L198.982,394.616L206.07,394.651L206.07,407.826C204.609,407.452 203.4,407.04 203.4,407.04L202.892,409.626C202.892,409.626 204.285,410.076 206.07,410.577L206.07,413.413C206.07,415.235 205.495,416.924 204.517,418.307Z" style="fill:rgb(222,222,222);fill-rule:nonzero;"/>
        </g>
        <g transform="matrix(2.25989,0,0,1.78688,273.607,-463.543)">
            <path d="M195.26,414.196L180.66,414.196L180.744,397.237C180.751,395.744 181.964,394.54 183.454,394.54L183.468,394.54L198.982,394.616L198.982,410.474C198.982,412.53 197.315,414.196 195.26,414.196Z" style="fill:rgb(222,222,222);fill-rule:nonzero;"/>
        </g>
        <g transform="matrix(2.25989,0,0,1.78688,273.607,-463.543)">
            <path d="M212.662,411.921C211.18,411.921 208.315,411.208 206.069,410.577C204.285,410.076 202.891,409.626 202.891,409.626L203.399,407.04C203.399,407.04 204.608,407.452 206.069,407.826C207.067,408.082 208.182,408.32 209.111,408.397C210.343,408.499 211.843,408.866 212.33,408.866C212.397,408.866 212.446,408.859 212.471,408.844C212.532,408.806 212.925,408.276 213.454,407.532L213.433,411.811C213.371,411.833 213.311,411.851 213.253,411.865C213.096,411.903 212.897,411.921 212.662,411.921Z" style="fill:white;fill-rule:nonzero;"/>
        </g>
        <g transform="matrix(2.25989,0,0,1.78688,273.607,-463.543)">
            <path d="M195.524,416.371L209.457,416.44C210.438,416.444 211.238,415.652 211.243,414.671L211.319,399.174C211.324,398.193 210.532,397.394 209.551,397.388L195.616,397.319C194.635,397.314 193.835,398.106 193.83,399.088L193.754,414.584C193.749,415.566 194.542,416.366 195.524,416.371Z" style="fill:rgb(240,240,240);fill-rule:nonzero;"/>
        </g>
        <g transform="matrix(2.25989,0,0,1.78688,273.607,-463.543)">
            <path d="M184.164,416.364L192.217,416.404C192.493,416.405 192.718,416.183 192.72,415.907L192.729,413.999C192.73,413.723 192.508,413.498 192.233,413.497L184.18,413.457C183.904,413.456 183.68,413.678 183.678,413.954L183.668,415.862C183.665,416.138 183.887,416.363 184.164,416.364Z" style="fill:white;fill-rule:nonzero;"/>
        </g>
        <g transform="matrix(2.25989,0,0,1.78688,273.607,-463.543)">
            <path d="M183.941,412.579L192.449,412.62C192.599,412.621 192.722,412.5 192.722,412.35L192.723,412.033C192.724,411.882 192.603,411.76 192.452,411.76L183.943,411.718C183.793,411.717 183.671,411.838 183.67,411.989L183.669,412.307C183.669,412.456 183.791,412.579 183.941,412.579Z" style="fill:white;fill-rule:nonzero;"/>
        </g>
        <g transform="matrix(2.25989,0,0,1.78688,273.607,-463.543)">
            <path d="M214.513,410.681C214.513,410.681 214.19,410.756 213.943,410.64C213.516,410.441 213.239,409.786 212.599,409.974C211.96,410.162 212.091,412.262 212.336,412.612C212.581,412.963 213.523,412.964 214.798,412.416C216.075,411.868 214.513,410.681 214.513,410.681Z" style="fill:rgb(238,168,134);fill-rule:nonzero;"/>
        </g>
        <g transform="matrix(2.25989,0,0,1.78688,273.607,-463.543)">
            <path d="M212.825,409.94C212.825,409.94 211.824,409.82 210.698,409.815C209.709,409.812 208.566,409.984 208.491,410.171C208.407,410.38 209.484,410.316 210.466,410.382C211.37,410.444 211.186,410.576 211.186,410.576C211.186,410.576 211.236,410.535 210.243,410.651C209.175,410.775 208.098,411.005 208.036,411.237C208.005,411.35 208.056,411.411 208.454,411.427C208.225,411.464 208.206,411.53 208.217,411.623C208.272,412.104 209.878,412.155 210.516,412.175C210.026,412.163 209.667,412.203 209.901,412.483C210.17,412.804 212.441,412.779 213.258,412.845C214.148,412.917 212.825,409.94 212.825,409.94Z" style="fill:rgb(238,168,134);fill-rule:nonzero;"/>
        </g>
        <g transform="matrix(2.25989,0,0,1.78688,273.607,-463.543)">
            <path d="M226.175,388.651C225.501,390.184 225.908,391.847 227.085,392.363C228.261,392.88 229.761,392.056 230.435,390.523C231.109,388.99 230.701,387.328 229.525,386.81C228.348,386.294 226.848,387.119 226.175,388.651Z" style="fill:rgb(52,64,82);fill-rule:nonzero;"/>
        </g>
        <g transform="matrix(2.25989,0,0,1.78688,273.012,-465.425)">
            <path d="M231.853,398.166C231.853,398.166 230.108,398.488 229.245,399.834C228.382,401.179 227.499,403.095 227.33,403.758C227.161,404.423 223.889,410.523 223.708,410.689C223.527,410.854 221.722,410.716 220.322,410.854C218.037,411.077 214.46,410.546 214.46,410.546L214.425,413.181C214.425,413.181 223.196,414.34 225.021,413.52C227.253,412.517 232.653,404.974 232.653,404.974C232.653,404.974 235.455,399.673 231.853,398.166Z" style="fill:rgb(67,67,67);fill-rule:nonzero;"/>
        </g>
        <g transform="matrix(2.25989,0,0,1.78688,262.448,-463.543)">
            <path d="M229.805,410.161L233.223,407.423C233.582,406.331 233.876,405.428 234.114,404.685C234.114,404.686 230.649,409.225 229.805,410.161Z" style="fill:rgb(98,94,94);fill-rule:nonzero;"/>
        </g>
        <g transform="matrix(2.25989,0,0,1.78688,273.607,-463.543)">
            <path d="M217.38,408.584C217.627,408.324 217.87,408.06 218.109,407.799C218.109,407.799 217.182,405.336 217.122,404.294C217.121,404.293 216.904,406.622 217.38,408.584Z" style="fill:rgb(98,94,94);fill-rule:nonzero;"/>
        </g>
        <g transform="matrix(2.25989,0,0,1.78688,273.607,-463.543)">
            <path d="M188.683,403.732C187.475,404.164 186.174,403.774 185.388,402.851C185.201,402.631 185.043,402.382 184.924,402.106C184.897,402.044 184.873,401.982 184.85,401.918C184.622,401.28 184.623,400.615 184.811,400.015C185.082,399.149 185.743,398.415 186.663,398.085C186.967,397.976 187.277,397.92 187.583,397.911C188.847,397.873 190.047,398.644 190.496,399.899C191.054,401.458 190.242,403.175 188.683,403.732ZM191.439,399.562C190.84,397.887 189.24,396.86 187.553,396.911C187.145,396.923 186.732,396.999 186.326,397.144C185.098,397.583 184.217,398.562 183.856,399.717C183.604,400.519 183.603,401.405 183.908,402.256C183.939,402.34 183.971,402.424 184.007,402.505C184.167,402.874 184.378,403.208 184.627,403.501C185.673,404.732 187.41,405.252 189.021,404.675C191.1,403.931 192.183,401.641 191.439,399.562Z" style="fill:white;fill-rule:nonzero;"/>
        </g>
        <g transform="matrix(2.25989,0,0,1.78688,273.607,-463.543)">
            <path d="M185.803,408.294C185.307,408.471 184.772,408.312 184.45,407.933C184.372,407.843 184.309,407.74 184.258,407.626L184.228,407.548C184.134,407.286 184.135,407.014 184.212,406.767C184.323,406.411 184.594,406.109 184.972,405.974C185.097,405.931 185.224,405.906 185.35,405.903C185.869,405.887 186.362,406.204 186.547,406.719C186.777,407.36 186.444,408.065 185.803,408.294ZM186.935,406.582C186.69,405.894 186.032,405.472 185.339,405.493C185.171,405.498 185.001,405.529 184.835,405.589C184.33,405.769 183.969,406.17 183.82,406.646C183.716,406.975 183.715,407.34 183.841,407.689L183.881,407.791C183.947,407.943 184.033,408.08 184.136,408.2C184.565,408.705 185.279,408.918 185.941,408.682C186.796,408.375 187.241,407.435 186.935,406.582Z" style="fill:white;fill-rule:nonzero;"/>
        </g>
        <g transform="matrix(2.25989,0,0,1.78688,273.607,-463.543)">
            <rect x="59.806" y="356.109" width="2.902" height="10.676" style="fill:rgb(74,167,26);"/>
        </g>
        <g transform="matrix(2.25989,0,0,1.78688,273.607,-463.543)">
            <rect x="63.936" y="355.032" width="2.902" height="11.753" style="fill:rgb(74,167,26);"/>
        </g>
        <g transform="matrix(2.25989,0,0,1.78688,273.607,-463.543)">
            <rect x="68.122" y="357.269" width="2.902" height="9.517" style="fill:rgb(74,167,26);"/>
        </g>
        <g transform="matrix(2.25989,0,0,1.78688,273.607,-463.543)">
            <rect x="72.308" y="352.858" width="2.902" height="13.927" style="fill:rgb(74,167,26);"/>
        </g>
        <g transform="matrix(2.25989,0,0,1.78688,273.607,-463.543)">
            <rect x="76.7" y="354.245" width="2.902" height="12.54" style="fill:rgb(74,167,26);"/>
        </g>
        <g transform="matrix(0.57823,0,0,0.457204,-31.3843,-178.918)">
            <path d="M478.986,828.113L476.358,828.113L476.358,756.163C476.358,733.318 457.56,714.52 434.715,714.52L282.28,714.52C259.435,714.52 240.637,733.319 240.637,756.163L240.637,1150.89C240.637,1173.73 259.436,1192.53 282.28,1192.53L434.716,1192.53C457.561,1192.53 476.359,1173.73 476.359,1150.89L476.359,879.328L478.986,879.328L478.986,828.113Z" style="fill:rgb(30,30,30);fill-rule:nonzero;"/>
        </g>
        <g transform="matrix(0.57823,0,0,0.457204,-31.3843,-178.918)">
            <path d="M436.396,725.354L416.498,725.354C417.221,727.125 417.593,729.021 417.593,730.934C417.593,739.038 410.924,745.708 402.819,745.708L315.49,745.708C307.385,745.707 300.716,739.038 300.716,730.934C300.716,729.02 301.088,727.125 301.81,725.354L283.226,725.354C266.166,725.354 252.128,739.392 252.128,756.452L252.128,1150.6C252.128,1167.66 266.167,1181.69 283.226,1181.69L436.396,1181.69C453.456,1181.69 467.494,1167.66 467.494,1150.6L467.494,756.452C467.495,739.392 453.456,725.354 436.396,725.354Z" style="fill:white;fill-rule:nonzero;"/>
        </g>
        <g transform="matrix(0.57823,0,0,0.457204,-31.3843,-178.918)">
            <path d="M432.56,1174.93L287.063,1174.93C270.345,1174.93 256.745,1162.79 256.745,1147.87L256.745,1128.28C256.745,1116.38 267.577,1106.71 280.89,1106.71L438.733,1106.71C452.047,1106.71 462.878,1116.38 462.878,1128.28L462.878,1147.87C462.878,1162.79 449.278,1174.93 432.56,1174.93Z" style="fill:rgb(229,229,229);fill-rule:nonzero;"/>
        </g>
        <g transform="matrix(0.57823,0,0,0.457204,-31.3843,-178.918)">
            <path d="M302.357,845.654L269.903,845.654C268.701,845.653 267.711,844.664 267.71,843.461L267.71,811.007C267.711,809.805 268.701,808.815 269.903,808.814L302.357,808.814C303.56,808.815 304.549,809.805 304.55,811.007L304.55,843.461C304.549,844.664 303.56,845.653 302.357,845.654Z" style="fill:rgb(255,159,23);fill-rule:nonzero;"/>
        </g>
        <g transform="matrix(0.57823,0,0,0.457204,-31.3843,-178.918)">
            <path d="M351.479,845.654L319.024,845.654C317.822,845.653 316.832,844.664 316.831,843.461L316.831,811.007C316.832,809.805 317.822,808.815 319.024,808.814L351.479,808.814C352.681,808.815 353.67,809.805 353.671,811.007L353.671,843.461C353.67,844.664 352.681,845.653 351.479,845.654Z" style="fill:rgb(229,229,229);fill-rule:nonzero;"/>
        </g>
        <g transform="matrix(0.57823,0,0,0.457204,-31.3843,-178.918)">
            <path d="M400.599,845.654L368.144,845.654C366.942,845.653 365.953,844.664 365.952,843.461L365.952,811.007C365.953,809.805 366.942,808.815 368.144,808.814L400.599,808.814C401.801,808.815 402.791,809.805 402.792,811.007L402.792,843.461C402.791,844.664 401.801,845.653 400.599,845.654Z" style="fill:rgb(229,229,229);fill-rule:nonzero;"/>
        </g>
        <g transform="matrix(0.57823,0,0,0.457204,-31.3843,-178.918)">
            <path d="M449.72,845.654L417.266,845.654C416.063,845.653 415.074,844.664 415.073,843.461L415.073,811.007C415.074,809.805 416.063,808.815 417.266,808.814L449.72,808.814C450.922,808.815 451.912,809.805 451.913,811.007L451.913,843.461C451.911,844.664 450.922,845.653 449.72,845.654Z" style="fill:rgb(229,229,229);fill-rule:nonzero;"/>
        </g>
        <g transform="matrix(0.57823,0,0,0.457204,-31.3843,-178.918)">
            <path d="M302.242,905.74L269.787,905.74C268.585,905.739 267.595,904.749 267.594,903.547L267.594,871.092C267.595,869.89 268.585,868.901 269.787,868.899L302.242,868.899C303.444,868.901 304.433,869.89 304.435,871.092L304.435,903.547C304.433,904.749 303.444,905.739 302.242,905.74Z" style="fill:rgb(229,229,229);fill-rule:nonzero;"/>
        </g>
        <g transform="matrix(0.57823,0,0,0.457204,-31.3843,-178.918)">
            <path d="M351.362,905.74L318.907,905.74C317.705,905.739 316.716,904.749 316.715,903.547L316.715,871.092C316.716,869.89 317.705,868.901 318.907,868.899L351.362,868.899C352.564,868.901 353.554,869.89 353.555,871.092L353.555,903.547C353.554,904.749 352.565,905.739 351.362,905.74Z" style="fill:rgb(229,229,229);fill-rule:nonzero;"/>
        </g>
        <g transform="matrix(0.57823,0,0,0.457204,-31.3843,-178.918)">
            <path d="M400.483,905.74L368.029,905.74C366.826,905.739 365.837,904.749 365.836,903.547L365.836,871.092C365.837,869.89 366.826,868.901 368.029,868.899L400.483,868.899C401.685,868.901 402.675,869.89 402.676,871.092L402.676,903.547C402.674,904.749 401.685,905.739 400.483,905.74Z" style="fill:rgb(74,167,26);fill-rule:nonzero;"/>
        </g>
        <g transform="matrix(0.57823,0,0,0.457204,-31.3843,-178.918)">
            <path d="M449.603,905.74L417.149,905.74C415.947,905.739 414.957,904.749 414.956,903.547L414.956,871.092C414.957,869.89 415.947,868.901 417.149,868.899L449.603,868.899C450.806,868.901 451.795,869.89 451.796,871.092L451.796,903.547C451.795,904.749 450.806,905.739 449.603,905.74Z" style="fill:rgb(255,159,23);fill-rule:nonzero;"/>
        </g>
        <g transform="matrix(0.57823,0,0,0.457204,-31.3843,-178.918)">
            <path d="M302.126,965.825L269.672,965.825C268.469,965.824 267.48,964.834 267.479,963.632L267.479,931.178C267.48,929.975 268.469,928.986 269.672,928.985L302.126,928.985C303.328,928.986 304.318,929.975 304.319,931.178L304.319,963.632C304.317,964.834 303.328,965.823 302.126,965.825Z" style="fill:rgb(229,229,229);fill-rule:nonzero;"/>
        </g>
        <g transform="matrix(0.57823,0,0,0.457204,-31.3843,-178.918)">
            <path d="M351.246,965.825L318.792,965.825C317.589,965.824 316.6,964.834 316.599,963.632L316.599,931.178C316.6,929.975 317.589,928.986 318.792,928.985L351.246,928.985C352.449,928.986 353.438,929.975 353.439,931.178L353.439,963.632C353.438,964.834 352.449,965.823 351.246,965.825Z" style="fill:rgb(229,229,229);fill-rule:nonzero;"/>
        </g>
        <g transform="matrix(0.57823,0,0,0.457204,-31.3843,-178.918)">
            <path d="M400.367,965.825L367.913,965.825C366.711,965.824 365.721,964.834 365.72,963.632L365.72,931.178C365.721,929.975 366.711,928.986 367.913,928.985L400.368,928.985C401.57,928.986 402.559,929.975 402.56,931.178L402.56,963.632C402.558,964.834 401.569,965.823 400.367,965.825Z" style="fill:rgb(229,229,229);fill-rule:nonzero;"/>
        </g>
        <g transform="matrix(0.57823,0,0,0.457204,-31.3843,-178.918)">
            <path d="M449.488,965.825L417.033,965.825C415.831,965.824 414.841,964.834 414.84,963.632L414.84,931.178C414.841,929.975 415.831,928.986 417.033,928.985L449.488,928.985C450.69,928.986 451.679,929.975 451.68,931.178L451.681,963.632C451.679,964.834 450.69,965.823 449.488,965.825Z" style="fill:rgb(229,229,229);fill-rule:nonzero;"/>
        </g>
        <g transform="matrix(0.57823,0,0,0.457204,-31.3843,-178.918)">
            <path d="M302.009,1025.91L269.555,1025.91C268.352,1025.91 267.363,1024.92 267.362,1023.72L267.362,991.263C267.363,990.061 268.352,989.071 269.555,989.07L302.009,989.07C303.212,989.071 304.201,990.061 304.202,991.263L304.202,1023.72C304.201,1024.92 303.212,1025.91 302.009,1025.91Z" style="fill:rgb(229,229,229);fill-rule:nonzero;"/>
        </g>
        <g transform="matrix(0.57823,0,0,0.457204,-31.3843,-178.918)">
            <path d="M351.13,1025.91L318.675,1025.91C317.473,1025.91 316.483,1024.92 316.482,1023.72L316.482,991.263C316.483,990.061 317.473,989.071 318.675,989.07L351.129,989.07C352.332,989.071 353.321,990.061 353.322,991.263L353.322,1023.72C353.321,1024.92 352.333,1025.91 351.13,1025.91Z" style="fill:rgb(229,229,229);fill-rule:nonzero;"/>
        </g>
        <g transform="matrix(0.57823,0,0,0.457204,-31.3843,-178.918)">
            <path d="M400.251,1025.91L367.796,1025.91C366.594,1025.91 365.604,1024.92 365.603,1023.72L365.603,991.263C365.604,990.061 366.594,989.071 367.796,989.07L400.251,989.07C401.453,989.071 402.442,990.061 402.444,991.263L402.444,1023.72C402.442,1024.92 401.453,1025.91 400.251,1025.91Z" style="fill:rgb(229,229,229);fill-rule:nonzero;"/>
        </g>
        <g transform="matrix(0.57823,0,0,0.457204,-31.3843,-178.918)">
            <path d="M449.371,1025.91L416.916,1025.91C415.714,1025.91 414.725,1024.92 414.724,1023.72L414.724,991.263C414.725,990.061 415.714,989.071 416.916,989.07L449.371,989.07C450.573,989.071 451.563,990.061 451.564,991.263L451.564,1023.72C451.563,1024.92 450.574,1025.91 449.371,1025.91Z" style="fill:rgb(229,229,229);fill-rule:nonzero;"/>
        </g>
        <g transform="matrix(0.57823,0,0,0.457204,-31.3843,-178.918)">
            <path d="M302.357,1160.11L269.903,1160.11C268.701,1160.11 267.711,1159.12 267.71,1157.92L267.71,1125.47C267.711,1124.26 268.701,1123.28 269.903,1123.27L302.357,1123.27C303.56,1123.28 304.549,1124.26 304.55,1125.47L304.55,1157.92C304.549,1159.12 303.56,1160.11 302.357,1160.11Z" style="fill:white;fill-rule:nonzero;"/>
        </g>
        <g transform="matrix(0.57823,0,0,0.457204,-31.3843,-178.918)">
            <path d="M351.479,1160.11L319.024,1160.11C317.822,1160.11 316.832,1159.12 316.831,1157.92L316.831,1125.47C316.832,1124.26 317.822,1123.28 319.024,1123.27L351.479,1123.27C352.681,1123.28 353.67,1124.26 353.671,1125.47L353.671,1157.92C353.67,1159.12 352.681,1160.11 351.479,1160.11Z" style="fill:white;fill-rule:nonzero;"/>
        </g>
        <g transform="matrix(0.57823,0,0,0.457204,-31.3843,-178.918)">
            <path d="M400.599,1160.11L368.144,1160.11C366.942,1160.11 365.953,1159.12 365.952,1157.92L365.952,1125.47C365.953,1124.26 366.942,1123.28 368.144,1123.27L400.599,1123.27C401.801,1123.28 402.791,1124.26 402.792,1125.47L402.792,1157.92C402.791,1159.12 401.801,1160.11 400.599,1160.11Z" style="fill:white;fill-rule:nonzero;"/>
        </g>
        <g transform="matrix(0.57823,0,0,0.457204,-31.3843,-178.918)">
            <path d="M449.72,1160.11L417.266,1160.11C416.063,1160.11 415.074,1159.12 415.073,1157.92L415.073,1125.47C415.074,1124.26 416.063,1123.28 417.266,1123.27L449.72,1123.27C450.922,1123.28 451.912,1124.26 451.913,1125.47L451.913,1157.92C451.911,1159.12 450.922,1160.11 449.72,1160.11Z" style="fill:white;fill-rule:nonzero;"/>
        </g>
        <g transform="matrix(0.57823,0,0,0.457204,75.2992,-140.053)">
            <circle cx="159.407" cy="1002.31" r="4.386" style="fill:rgb(229,229,229);"/>
        </g>
        <g transform="matrix(0.57823,0,0,0.457204,75.2992,-140.053)">
            <circle cx="175.195" cy="1002.31" r="4.386" style="fill:rgb(229,229,229);"/>
        </g>
        <g transform="matrix(0.57823,0,0,0.457204,75.2992,-140.053)">
            <circle cx="190.984" cy="1002.31" r="4.386" style="fill:rgb(229,229,229);"/>
        </g>
        <g transform="matrix(0.57823,0,0,0.457204,-31.3843,-178.918)">
            <path d="M299.199,1059.35C300.863,1057.69 301.799,1055.43 301.799,1053.07C301.799,1050.17 300.379,1047.45 298.002,1045.8L306.567,1015.45L290.951,1020.41L285.211,1048.47C284.372,1049.86 283.929,1051.46 283.929,1053.08C283.929,1057.97 287.957,1062 292.851,1062C295.236,1062 297.523,1061.05 299.199,1059.35Z" style="fill:rgb(255,183,183);fill-rule:nonzero;"/>
        </g>
        <g transform="matrix(0.57823,0,0,0.457204,-31.3843,-178.918)">
            <path d="M303.639,1040.75C303.36,1040.8 303.076,1040.83 302.792,1040.82L287.812,1040.52C285.664,1040.47 283.921,1038.7 283.921,1036.55C283.921,1036.35 283.935,1036.16 283.963,1035.97L299.16,933.294C300.093,927.184 305.395,922.621 311.575,922.606C318.432,922.624 324.065,928.27 324.065,935.127C324.065,936.138 323.943,937.146 323.7,938.128L312.929,981.754L306.821,1037.28C306.638,1039.01 305.341,1040.42 303.639,1040.75Z" style="fill:rgb(63,61,86);fill-rule:nonzero;"/>
        </g>
        <g transform="matrix(0.57823,0,0,0.457204,75.2992,-140.053)">
            <path d="M125.403,1117.83L133.74,1117.83L137.706,1085.67L125.401,1085.67L125.403,1117.83Z" style="fill:rgb(255,183,183);fill-rule:nonzero;"/>
        </g>
        <g transform="matrix(0.57823,0,0,0.457204,-31.3843,-178.918)">
            <path d="M307.776,1200.11L324.195,1200.11C329.935,1200.11 334.657,1204.83 334.658,1210.57L334.658,1210.91L307.777,1210.91L307.776,1200.11Z" style="fill:rgb(47,46,65);fill-rule:nonzero;"/>
        </g>
        <g transform="matrix(0.57823,0,0,0.457204,75.2992,-140.053)">
            <path d="M160.951,1115.12L169.235,1116.05L176.761,1084.53L164.533,1083.16L160.951,1115.12Z" style="fill:rgb(255,183,183);fill-rule:nonzero;"/>
        </g>
        <g transform="matrix(0.57823,0,0,0.457204,-31.3843,-178.918)">
            <path d="M343.641,1197.18L359.957,1199.01L359.958,1199.01C365.662,1199.65 369.829,1204.87 369.189,1210.58L369.152,1210.91L342.438,1207.92L343.641,1197.18Z" style="fill:rgb(47,46,65);fill-rule:nonzero;"/>
        </g>
        <g transform="matrix(0.57823,0,0,0.457204,-31.3843,-178.918)">
            <path d="M302.079,1023.89C302.079,1023.89 290.65,1049.19 300.742,1065.63L306.755,1193.58L320.561,1193.58L333.955,1090.22L357.755,1120.82L343.255,1192.24L360.14,1193.19L383.595,1120.82C383.595,1120.82 365.576,1041.02 359.626,1039.1L355.715,1020.86L302.079,1023.89Z" style="fill:rgb(47,46,65);fill-rule:nonzero;"/>
        </g>
        <g transform="matrix(0.57823,0,0,0.457204,-31.3843,-178.918)">
            <path d="M296.992,1046.1C296.992,1046.1 286.695,1057.92 313.895,1062C341.095,1066.08 369.655,1059.96 370.335,1051.8C371.015,1043.64 296.992,1046.1 296.992,1046.1Z" style="fill:rgb(203,203,203);fill-rule:nonzero;"/>
        </g>
        <g transform="matrix(0.57823,0,0,0.457204,-31.3843,-178.918)">
            <path d="M433.343,899.516C433.189,903.736 429.675,907.124 425.452,907.124C424.891,907.124 424.331,907.064 423.783,906.945L413.501,921.772L402.967,917.721L417.78,896.986C418.754,893.591 421.88,891.235 425.411,891.235C429.766,891.235 433.35,894.819 433.35,899.174C433.351,899.289 433.348,899.402 433.343,899.516Z" style="fill:rgb(255,183,183);fill-rule:nonzero;"/>
        </g>
        <g transform="matrix(0.57823,0,0,0.457204,-31.3843,-178.918)">
            <path d="M346.391,918.593L331.854,912.017L313.229,913.348C313.229,913.348 290.775,939.6 299.615,964.76L294.175,1052.48C328.855,1062 344.619,1044.14 369.655,1051.8L361.922,954.309L346.391,918.593Z" style="fill:rgb(63,61,86);fill-rule:nonzero;"/>
        </g>
        <g transform="matrix(0.57823,0,0,0.457204,-31.3843,-178.918)">
            <path d="M336.675,924.98L346.391,918.593C346.391,918.593 359.886,916.553 365.281,921.787C365.281,921.787 383.591,923.319 388.013,927.89L392.882,928.988L409.057,908.043L418.955,913.421L404.675,952.181L361.922,954.31L336.675,924.98Z" style="fill:rgb(63,61,86);fill-rule:nonzero;"/>
        </g>
        <g transform="matrix(0.507371,-0.219303,0.277354,0.401176,-84.9856,-38.4978)">
            <circle cx="93.096" cy="708.905" r="22.947" style="fill:rgb(255,183,183);"/>
        </g>
        <g transform="matrix(0.57823,0,0,0.457204,-31.3843,-178.918)">
            <path d="M309.174,866.565C313.27,859.198 318.388,854.428 326.815,854.6C335.242,854.773 342.532,854.439 346.323,861.967C347.325,860.091 347.827,857.988 347.78,855.861C350.116,857.377 351.332,860.15 350.867,862.896C352.364,862.019 353.316,860.437 353.388,858.704C356.2,859.64 356.931,863.603 355.509,866.203C354.086,868.803 351.294,870.307 348.617,871.578C345.94,872.85 347.176,879.572 345.427,881.965C344.206,883.636 343.649,885.683 342.826,887.581C342.792,887.656 342.733,887.717 342.659,887.754C340.774,888.805 339.584,890.684 339.917,892.817C339.956,892.977 339.947,893.145 339.89,893.299C337.502,897.796 334.926,902.501 330.6,905.184C327.129,907.28 322.968,907.923 319.027,906.973C314.605,905.916 310.781,902.983 308.025,899.367C305.268,895.751 303.495,891.478 302.163,887.13C300.98,883.273 300.121,879.15 301.059,875.227C301.996,871.303 305.171,867.671 309.193,867.368" style="fill:rgb(47,46,65);fill-rule:nonzero;"/>
        </g>
    </g>
</svg>
