<?xml version="1.0" encoding="UTF-8" standalone="no"?>
<!DOCTYPE svg PUBLIC "-//W3C//DTD SVG 1.1//EN" "http://www.w3.org/Graphics/SVG/1.1/DTD/svg11.dtd">
<svg width="100%" height="100%" viewBox="0 0 900 450" version="1.1" xmlns="http://www.w3.org/2000/svg" xmlns:xlink="http://www.w3.org/1999/xlink" xml:space="preserve" xmlns:serif="http://www.serif.com/" style="fill-rule:evenodd;clip-rule:evenodd;stroke-linejoin:round;stroke-miterlimit:2;">
    <rect id="Artboard1" x="0" y="0" width="900" height="450" style="fill:rgb(255,146,173);"/>
    <g transform="matrix(0.790696,0,0,1,93.6656,0)">
        <ellipse cx="447.51" cy="371.122" rx="428.554" ry="42.099" style="fill:rgb(255,129,160);"/>
    </g>
    <g transform="matrix(1.21508,0,0,1.21508,210.804,-72.2091)">
        <path d="M96.537,362.268C96.537,362.268 99.742,366.583 99.302,367.267C98.863,367.951 95.492,368.048 93.44,367.267C91.388,366.485 91.339,361.428 90.411,359.255C90.022,358.345 90.854,355.659 92.023,355.465C93.192,355.27 94.464,355.842 94.464,355.842C94.464,355.842 93.252,358.902 96.537,362.268Z" style="fill:rgb(29,59,84);fill-rule:nonzero;"/>
    </g>
    <g transform="matrix(1.21508,0,0,1.21508,210.804,-72.2091)">
        <path d="M187.35,268.408C187.35,268.408 186.479,275.129 191.335,280.29C196.192,285.451 207.142,283.61 207.142,283.61C207.142,283.61 205.331,277.511 201.36,274.998C197.391,272.484 189.592,271.619 187.35,268.408Z" style="fill:rgb(134,145,53);fill-rule:nonzero;"/>
    </g>
    <g transform="matrix(1.21508,0,0,1.21508,210.804,-72.2091)">
        <path d="M193,255.662C193,255.662 188.997,263.198 192.436,271.432C195.875,279.665 209.597,282.345 209.597,282.345C209.597,282.345 210.163,274.352 206.596,269.633C203.029,264.913 194.22,260.439 193,255.662Z" style="fill:rgb(72,117,58);fill-rule:nonzero;"/>
    </g>
    <g transform="matrix(1.21508,0,0,1.21508,210.804,-72.2091)">
        <path d="M372.609,158.779C372.609,158.779 379.414,169.103 373.673,174.586C367.932,180.07 367.256,173.947 367.256,173.947C367.256,173.947 364.185,174.149 370.29,167.163C373.168,163.87 372.609,158.779 372.609,158.779Z" style="fill:rgb(187,208,112);fill-rule:nonzero;"/>
    </g>
    <g transform="matrix(1.21508,0,0,1.21508,210.804,-72.2091)">
        <path d="M390.828,153.51C390.828,153.51 395.682,162.887 384.258,171.673C372.835,180.459 372.89,186.513 372.89,186.513C372.89,186.513 364.848,164.781 390.828,153.51Z" style="fill:rgb(151,164,60);fill-rule:nonzero;"/>
    </g>
    <g transform="matrix(1.21508,0,0,1.21508,210.804,-72.2091)">
        <path d="M371.426,182.515C367.084,182.394 373.443,171.369 380.514,169.132C387.584,166.894 393.231,167.824 397.534,165.089C397.534,165.089 392.805,183.111 371.426,182.515Z" style="fill:rgb(72,117,58);fill-rule:nonzero;"/>
    </g>
    <g transform="matrix(1.21508,0,0,1.21508,210.804,-72.2091)">
        <rect x="198.003" y="147.389" width="0.913" height="109.278" style="fill:rgb(233,233,233);fill-rule:nonzero;"/>
    </g>
    <g transform="matrix(1.21508,0,0,1.21508,210.804,-72.2091)">
        <rect x="131.037" y="226.018" width="75.442" height="0.913" style="fill:rgb(233,233,233);fill-rule:nonzero;"/>
    </g>
    <g transform="matrix(1.21508,0,0,1.21508,210.804,-72.2091)">
        <path d="M238.091,183.122C231.82,183.122 226.718,188.474 226.718,195.051L226.718,299.334C226.718,305.912 231.82,311.265 238.091,311.265L386.204,311.265C392.475,311.265 397.577,305.912 397.577,299.334L397.577,195.051C397.577,188.474 392.475,183.122 386.204,183.122L238.091,183.122ZM386.204,312.361L238.091,312.361C231.216,312.361 225.622,306.518 225.622,299.334L225.622,195.051C225.622,187.869 231.216,182.026 238.091,182.026L386.204,182.026C393.08,182.026 398.673,187.869 398.673,195.051L398.673,299.334C398.673,306.518 393.08,312.361 386.204,312.361Z" style="fill:rgb(233,233,233);fill-rule:nonzero;"/>
    </g>
    <g transform="matrix(1.21508,0,0,1.21508,210.804,-72.2091)">
        <path d="M171.303,106.57C170.066,106.536 168.827,106.519 167.62,106.519C167.209,106.519 166.8,106.521 166.391,106.525L166.38,105.429C166.792,105.425 167.206,105.423 167.62,105.423C168.837,105.423 170.086,105.44 171.333,105.474L171.303,106.57ZM156.587,107.021L156.484,105.93C158.099,105.777 159.762,105.658 161.428,105.574L161.482,106.669C159.833,106.752 158.186,106.87 156.587,107.021ZM181.116,107.161C179.463,107.011 177.814,106.885 176.213,106.788L176.279,105.693C177.892,105.791 179.552,105.918 181.215,106.069L181.116,107.161ZM190.885,108.316C189.239,108.08 187.598,107.864 186.007,107.676L186.136,106.587C187.736,106.777 189.386,106.994 191.041,107.231L190.885,108.316ZM146.874,108.416L146.663,107.34C148.26,107.027 149.906,106.749 151.556,106.513L151.711,107.598C150.08,107.831 148.453,108.106 146.874,108.416ZM200.598,109.925C198.96,109.62 197.329,109.333 195.749,109.07L195.929,107.989C197.516,108.252 199.154,108.541 200.798,108.847L200.598,109.925ZM137.381,110.835L137.05,109.79C138.606,109.296 140.211,108.838 141.821,108.429L142.091,109.491C140.502,109.895 138.918,110.347 137.381,110.835ZM210.249,111.889C208.618,111.53 206.997,111.187 205.431,110.868L205.65,109.793C207.221,110.114 208.848,110.458 210.484,110.817L210.249,111.889ZM219.847,114.124C218.217,113.724 216.605,113.338 215.055,112.977L215.304,111.909C216.857,112.272 218.474,112.658 220.108,113.059L219.847,114.124ZM128.256,114.362L127.798,113.366C129.287,112.68 130.826,112.03 132.37,111.434L132.765,112.457C131.242,113.044 129.726,113.685 128.256,114.362ZM229.401,116.555C227.759,116.123 226.153,115.708 224.629,115.319L224.899,114.257C226.427,114.646 228.035,115.063 229.68,115.495L229.401,116.555ZM119.651,119.015L119.069,118.086C120.466,117.21 121.909,116.369 123.357,115.585L123.878,116.55C122.451,117.322 121.029,118.151 119.651,119.015ZM238.925,119.113C237.342,118.681 235.755,118.25 234.166,117.822L234.451,116.764C236.042,117.191 237.63,117.623 239.214,118.055L238.925,119.113ZM248.448,121.713C247.731,121.529 247.012,121.337 246.309,121.143L243.682,120.418L243.973,119.361L246.601,120.086C247.297,120.278 248.01,120.469 248.721,120.651L248.448,121.713ZM258.118,123.845C256.466,123.535 254.834,123.203 253.267,122.859L253.502,121.788C255.058,122.13 256.678,122.459 258.32,122.767L258.118,123.845ZM111.71,124.728L111.015,123.879C112.295,122.831 113.62,121.814 114.95,120.856L115.591,121.746C114.278,122.69 112.973,123.694 111.71,124.728ZM267.89,125.416C266.221,125.188 264.573,124.943 262.996,124.69L263.169,123.608C264.739,123.859 266.377,124.102 268.039,124.33L267.89,125.416ZM277.715,126.571C276.036,126.402 274.382,126.223 272.798,126.038L272.926,124.949C274.505,125.134 276.152,125.312 277.823,125.48L277.715,126.571ZM287.564,127.427C285.872,127.299 284.214,127.166 282.637,127.03L282.731,125.938C284.305,126.073 285.957,126.207 287.647,126.333L287.564,127.427ZM297.426,128.081C295.687,127.978 294.074,127.877 292.494,127.773L292.565,126.679C294.144,126.783 295.755,126.884 297.489,126.986L297.426,128.081ZM307.304,128.619C305.653,128.534 304.004,128.448 302.357,128.359L302.416,127.264C304.063,127.353 305.71,127.439 307.359,127.524L307.304,128.619ZM317.174,129.118C315.609,129.038 314.044,128.959 312.478,128.88L312.243,128.869L312.298,127.773L312.532,127.785C314.099,127.864 315.665,127.943 317.229,128.023L317.174,129.118ZM327.011,129.653C325.377,129.557 323.738,129.465 322.097,129.376L322.156,128.281C323.799,128.371 325.439,128.462 327.074,128.559L327.011,129.653ZM336.853,130.306C335.29,130.188 333.636,130.072 331.935,129.96L332.006,128.866C333.71,128.979 335.369,129.095 336.936,129.213L336.853,130.306ZM346.677,131.161C345.1,131.002 343.449,130.848 341.769,130.702L341.864,129.61C343.549,129.756 345.205,129.911 346.786,130.07L346.677,131.161ZM104.517,131.367L103.728,130.606C104.882,129.411 106.074,128.244 107.272,127.136L108.017,127.942C106.834,129.035 105.656,130.187 104.517,131.367ZM356.461,132.319C354.887,132.102 353.243,131.892 351.575,131.695L351.703,130.606C353.378,130.804 355.029,131.015 356.61,131.233L356.461,132.319ZM366.177,133.9C364.613,133.603 362.981,133.316 361.33,133.048L361.506,131.966C363.167,132.235 364.809,132.524 366.381,132.823L366.177,133.9ZM375.768,136.054C374.23,135.65 372.624,135.26 370.992,134.895L371.231,133.825C372.877,134.193 374.496,134.586 376.047,134.994L375.768,136.054ZM98.097,138.769L97.233,138.094C98.257,136.784 99.317,135.496 100.382,134.266L101.211,134.983C100.157,136.2 99.109,137.473 98.097,138.769ZM385.137,138.967C383.644,138.422 382.08,137.896 380.488,137.402L380.813,136.355C382.421,136.853 384.002,137.386 385.513,137.937L385.137,138.967ZM394.115,142.856C392.702,142.133 391.214,141.433 389.689,140.775L390.123,139.769C391.669,140.436 393.181,141.146 394.615,141.88L394.115,142.856ZM92.425,146.768L91.503,146.174C92.405,144.775 93.338,143.394 94.276,142.069L95.171,142.703C94.242,144.015 93.318,145.383 92.425,146.768ZM402.437,147.944C401.151,147.006 399.786,146.096 398.38,145.238L398.95,144.302C400.383,145.176 401.772,146.103 403.083,147.059L402.437,147.944ZM409.726,154.365C408.632,153.198 407.458,152.061 406.236,150.988L406.96,150.165C408.208,151.262 409.407,152.423 410.525,153.615L409.726,154.365ZM87.442,155.225L86.478,154.705C87.268,153.239 88.085,151.788 88.907,150.391L89.852,150.947C89.037,152.332 88.226,153.771 87.442,155.225ZM415.623,162.069C414.772,160.693 413.845,159.348 412.868,158.07L413.738,157.404C414.738,158.71 415.686,160.086 416.556,161.493L415.623,162.069ZM83.079,164.026L82.082,163.571C82.772,162.057 83.487,160.553 84.205,159.102L85.188,159.588C84.474,161.029 83.765,162.522 83.079,164.026ZM419.922,170.776C419.334,169.25 418.68,167.751 417.975,166.321L418.958,165.836C419.677,167.296 420.346,168.825 420.944,170.382L419.922,170.776ZM422.688,180.127C422.554,179.536 422.413,178.937 422.269,178.345C422.027,177.344 421.762,176.349 421.48,175.388L422.531,175.079C422.818,176.057 423.089,177.069 423.335,178.086C423.479,178.683 423.622,179.288 423.757,179.884L422.688,180.127ZM424.477,189.78C424.256,188.196 423.988,186.566 423.685,184.936L424.762,184.735C425.068,186.381 425.339,188.027 425.563,189.627L424.477,189.78ZM425.355,199.545C425.298,197.95 425.193,196.304 425.044,194.652L426.136,194.553C426.288,196.225 426.394,197.891 426.449,199.506L425.355,199.545ZM426.175,209.428L425.084,209.323C425.235,207.736 425.335,206.095 425.378,204.443L426.475,204.472C426.43,206.149 426.329,207.816 426.175,209.428ZM424.469,219.201L423.408,218.924C423.811,217.38 424.157,215.777 424.437,214.16L425.518,214.347C425.231,215.994 424.88,217.627 424.469,219.201ZM421.1,228.542L420.108,228.074C420.793,226.623 421.419,225.11 421.971,223.578L423.002,223.949C422.439,225.514 421.799,227.06 421.1,228.542ZM415.995,237.067L415.114,236.414C416.08,235.114 416.989,233.753 417.818,232.368L418.76,232.931C417.911,234.347 416.981,235.739 415.995,237.067ZM409.33,244.441L408.589,243.634C409.794,242.528 410.949,241.365 412.025,240.177L412.838,240.913C411.739,242.126 410.56,243.313 409.33,244.441ZM401.463,250.514L400.865,249.595C402.247,248.696 403.59,247.746 404.855,246.771L405.523,247.64C404.235,248.632 402.869,249.599 401.463,250.514ZM392.763,255.332L392.297,254.34C393.795,253.635 395.265,252.886 396.665,252.113L397.194,253.072C395.773,253.857 394.282,254.617 392.763,255.332ZM383.541,259.034L383.187,257.998C384.757,257.462 386.307,256.891 387.794,256.294L388.202,257.311C386.697,257.914 385.129,258.494 383.541,259.034ZM374.014,261.788L373.756,260.723C375.365,260.333 376.963,259.91 378.502,259.468L378.806,260.52C377.251,260.968 375.64,261.395 374.014,261.788ZM364.304,263.749L364.126,262.668C365.76,262.398 367.387,262.102 368.965,261.784L369.181,262.858C367.591,263.179 365.95,263.478 364.304,263.749ZM354.478,265.04L354.368,263.949C356.012,263.784 357.657,263.595 359.258,263.385L359.4,264.472C357.789,264.684 356.132,264.874 354.478,265.04ZM319.858,265.311C316.757,265.057 314.937,264.818 314.919,264.815L315.062,263.729C315.08,263.73 316.877,263.967 319.948,264.218L319.858,265.311ZM344.593,265.749L344.544,264.654C346.192,264.58 347.847,264.484 349.461,264.369L349.54,265.463C347.915,265.578 346.251,265.675 344.593,265.749ZM329.74,265.853C328.087,265.804 326.423,265.734 324.797,265.645L324.856,264.551C326.474,264.639 328.128,264.709 329.773,264.758L329.74,265.853ZM335.798,265.943C335.424,265.943 335.055,265.941 334.687,265.939L334.693,264.844C336.307,264.853 337.988,264.842 339.619,264.811L339.641,265.906C338.371,265.931 337.077,265.943 335.798,265.943Z" style="fill:rgb(230,230,230);fill-rule:nonzero;"/>
    </g>
    <g transform="matrix(1.21508,0,0,1.21508,210.804,-72.2091)">
        <path d="M384.687,189.985C371.548,189.985 360.896,179.333 360.896,166.194C360.896,153.055 371.548,142.403 384.687,142.403C397.827,142.403 408.478,153.055 408.478,166.194C408.478,179.333 397.827,189.985 384.687,189.985ZM415.649,158.172C414.896,155.259 413.742,152.507 412.25,149.977L415.71,144.772L410.91,139.972L406.109,135.171L400.904,138.631C398.374,137.14 395.623,135.985 392.709,135.232L391.477,129.11L377.897,129.11L376.665,135.232C373.752,135.985 370.999,137.14 368.47,138.631L363.266,135.171L358.465,139.972L353.664,144.772L357.124,149.977C355.633,152.507 354.478,155.259 353.725,158.172L347.603,159.405L347.603,172.984L353.725,174.216C354.478,177.13 355.633,179.882 357.124,182.411L353.664,187.616L363.266,197.218L368.47,193.757C370.999,195.249 373.752,196.404 376.665,197.156L377.897,203.278L391.477,203.278L392.709,197.156C395.623,196.404 398.374,195.249 400.904,193.757L406.109,197.218L410.91,192.417L415.71,187.616L412.25,182.411C413.742,179.882 414.896,177.13 415.649,174.216L421.771,172.984L421.771,159.405L415.649,158.172Z" style="fill:rgb(253,237,241);fill-rule:nonzero;"/>
    </g>
    <g transform="matrix(1.21508,0,0,1.21508,210.804,-72.2091)">
        <path d="M384.686,181.613L384.686,285.896C384.686,292.787 379.1,298.375 372.208,298.375L217.159,298.375C210.267,298.375 204.68,292.787 204.68,285.896L204.68,181.613C204.68,174.721 210.267,169.136 217.159,169.136L372.208,169.136C379.1,169.136 384.686,174.721 384.686,181.613Z" style="fill:rgb(215,211,195);fill-rule:nonzero;"/>
    </g>
    <g transform="matrix(1.21508,0,0,1.21508,210.804,-72.2091)">
        <path d="M262.718,240.273C251.566,244.262 239.545,240.662 232.3,232.146C230.574,230.117 229.118,227.807 228.01,225.254C227.766,224.69 227.538,224.114 227.328,223.528C225.22,217.635 225.231,211.499 226.967,205.955C229.472,197.952 235.569,191.178 244.072,188.138C246.879,187.134 249.741,186.612 252.566,186.525C264.239,186.173 275.317,193.292 279.463,204.882C284.611,219.28 277.114,235.124 262.718,240.273ZM288.163,201.771C282.635,186.313 267.861,176.819 252.291,177.287C248.521,177.4 244.706,178.098 240.96,179.437C229.619,183.493 221.486,192.527 218.146,203.2C215.83,210.596 215.815,218.78 218.626,226.641C218.906,227.422 219.21,228.191 219.536,228.942C221.015,232.347 222.955,235.427 225.26,238.134C234.922,249.494 250.956,254.295 265.83,248.976C285.032,242.108 295.031,220.974 288.163,201.771Z" style="fill:rgb(148,148,148);fill-rule:nonzero;"/>
    </g>
    <g transform="matrix(1.21508,0,0,1.21508,210.804,-72.2091)">
        <path d="M226.967,205.955L218.146,203.2C221.486,192.527 229.619,183.493 240.96,179.437C244.706,178.098 248.521,177.4 252.291,177.287L252.566,186.525C249.741,186.612 246.879,187.134 244.072,188.138C235.569,191.178 229.472,197.952 226.967,205.955Z" style="fill:rgb(92,92,92);fill-rule:nonzero;"/>
    </g>
    <g transform="matrix(1.21508,0,0,1.21508,210.804,-72.2091)">
        <path d="M228.01,225.254L219.536,228.942C219.21,228.191 218.906,227.422 218.626,226.641C215.815,218.78 215.83,210.596 218.146,203.2L226.967,205.955C225.231,211.499 225.22,217.635 227.328,223.528C227.538,224.114 227.766,224.69 228.01,225.254Z" style="fill:rgb(116,116,116);fill-rule:nonzero;"/>
    </g>
    <g transform="matrix(1.21508,0,0,1.21508,210.804,-72.2091)">
        <path d="M225.26,238.134C222.955,235.427 221.015,232.347 219.536,228.942L228.01,225.254C229.118,227.807 230.574,230.117 232.3,232.146L225.26,238.134Z" style="fill:rgb(116,116,116);fill-rule:nonzero;"/>
    </g>
    <g transform="matrix(1.21508,0,0,1.21508,210.804,-72.2091)">
        <path d="M384.686,181.613L384.686,285.896C384.686,292.787 379.1,298.375 372.208,298.375L303.562,298.375L303.562,169.136L372.208,169.136C379.1,169.136 384.686,174.721 384.686,181.613Z" style="fill:rgb(253,237,241);fill-rule:nonzero;"/>
    </g>
    <g transform="matrix(1.21508,0,0,1.21508,210.804,-72.2091)">
        <path d="M372.635,189.113L315.615,189.113C314.717,189.113 313.987,188.385 313.987,187.486L313.987,184.174C313.987,183.275 314.717,182.546 315.615,182.546L372.635,182.546C373.534,182.546 374.263,183.275 374.263,184.174L374.263,187.486C374.263,188.385 373.534,189.113 372.635,189.113Z" style="fill:white;fill-rule:nonzero;"/>
    </g>
    <g transform="matrix(1.21508,0,0,1.21508,210.804,-72.2091)">
        <path d="M372.635,203.2L315.615,203.2C314.717,203.2 313.987,202.471 313.987,201.572L313.987,198.26C313.987,197.361 314.717,196.632 315.615,196.632L372.635,196.632C373.534,196.632 374.263,197.361 374.263,198.26L374.263,201.572C374.263,202.471 373.534,203.2 372.635,203.2Z" style="fill:rgb(203,137,153);fill-rule:nonzero;"/>
    </g>
    <g transform="matrix(1.21508,0,0,1.21508,210.804,-72.2091)">
        <path d="M368.789,287.047L319.461,287.047C316.437,287.047 313.987,284.597 313.987,281.573L313.987,218.261C313.987,215.238 316.437,212.787 319.461,212.787L368.789,212.787C371.812,212.787 374.263,215.238 374.263,218.261L374.263,281.573C374.263,284.597 371.812,287.047 368.789,287.047Z" style="fill:rgb(205,170,178);fill-rule:nonzero;"/>
    </g>
    <g transform="matrix(1.21508,0,0,1.21508,210.804,-72.2091)">
        <path d="M313.987,264.055C311.672,262.991 310.064,260.653 310.064,257.938L310.064,216.357C310.064,212.641 313.077,209.628 316.794,209.628L324.74,209.628C327.145,209.628 329.255,210.89 330.445,212.787L319.461,212.787C316.437,212.787 313.987,215.238 313.987,218.261L313.987,264.055Z" style="fill:rgb(190,151,160);fill-rule:nonzero;"/>
    </g>
    <g transform="matrix(1.21508,0,0,1.21508,210.804,-72.2091)">
        <path d="M324.74,264.666L316.794,264.666C315.792,264.666 314.842,264.447 313.987,264.055L313.987,218.261C313.987,215.238 316.437,212.787 319.461,212.787L330.445,212.787C331.094,213.822 331.469,215.045 331.469,216.357L331.469,257.938C331.469,261.654 328.456,264.666 324.74,264.666Z" style="fill:rgb(205,170,178);fill-rule:nonzero;"/>
    </g>
    <g transform="matrix(1.21508,0,0,1.21508,210.804,-72.2091)">
        <rect x="170.679" y="163.165" width="137.56" height="0.914" style="fill:rgb(233,233,233);fill-rule:nonzero;"/>
    </g>
    <g transform="matrix(1.21508,0,0,1.21508,210.804,-72.2091)">
        <path d="M184.456,141.961C180.994,141.961 178.178,144.776 178.178,148.238C178.178,151.699 180.994,154.515 184.456,154.515C187.917,154.515 190.732,151.699 190.732,148.238C190.732,144.776 187.917,141.961 184.456,141.961ZM184.456,155.611C180.39,155.611 177.082,152.303 177.082,148.238C177.082,144.172 180.39,140.864 184.456,140.864C188.521,140.864 191.829,144.172 191.829,148.238C191.829,152.303 188.521,155.611 184.456,155.611Z" style="fill:white;fill-rule:nonzero;"/>
    </g>
    <g transform="matrix(1.21508,0,0,1.21508,210.804,-72.2091)">
        <path d="M164.695,239.63C164.695,239.63 171.582,240.86 171.643,246.693C171.704,252.525 166.368,260.973 162.899,260.348C159.431,259.723 155.486,256.645 155.62,253.096C155.754,249.548 156.737,244.886 158.336,242.328C159.935,239.77 162.771,239.504 164.695,239.63Z" style="fill:rgb(238,168,134);fill-rule:nonzero;"/>
    </g>
    <g transform="matrix(1.21508,0,0,1.21508,210.804,-72.2091)">
        <path d="M155.86,250.395C155.86,250.395 155.873,251.585 158.242,252.527C160.611,253.471 164.963,252.15 166.056,252.369C167.148,252.588 167.472,252.061 167.472,252.061L167.548,253.225L168.474,253.854C168.474,253.854 169.124,250.755 171.069,250.485C173.015,250.215 174.637,241.321 166.246,239.638C166.246,239.638 160.034,237.95 158.432,241.103C156.829,244.255 155.56,248.175 155.86,250.395Z" style="fill:rgb(35,35,35);fill-rule:nonzero;"/>
    </g>
    <path d="M462.547,270.114C467.952,270.114 472.334,274.497 472.334,279.902L472.334,345.475C472.334,350.878 467.952,355.261 462.547,355.261L396.976,355.261C391.571,355.261 387.188,350.878 387.188,345.475L387.188,279.902C387.188,274.497 391.571,270.114 396.976,270.114L462.547,270.114ZM471.574,290.023L471.584,290.025L471.574,290.023ZM471.157,289.931C471.233,289.949 471.308,289.966 471.384,289.983C471.323,289.969 471.261,289.955 471.199,289.941L471.157,289.931ZM470.445,289.743C470.608,289.791 470.772,289.835 470.937,289.877C470.772,289.835 470.608,289.791 470.445,289.743ZM470.102,289.64C470.154,289.656 470.205,289.672 470.257,289.688L470.217,289.675C470.178,289.664 470.14,289.652 470.102,289.64ZM470.056,289.625L470.093,289.637L470.056,289.625L470.021,289.614L470.056,289.625ZM469.865,289.563C469.913,289.579 469.962,289.595 470.01,289.61C469.962,289.595 469.914,289.579 469.865,289.563ZM469.156,289.306C469.274,289.352 469.392,289.397 469.511,289.44C469.392,289.397 469.274,289.352 469.156,289.306ZM469.015,289.25L469.059,289.268L469.015,289.25ZM468.835,289.177C468.886,289.198 468.937,289.219 468.989,289.24C468.938,289.219 468.886,289.198 468.835,289.177ZM468.604,289.078C468.634,289.091 468.663,289.104 468.692,289.116L468.643,289.095L468.604,289.078ZM467.519,288.551C467.583,288.586 467.648,288.62 467.713,288.653C467.66,288.626 467.608,288.599 467.555,288.571L467.519,288.551ZM467.067,288.299C467.12,288.33 467.174,288.361 467.228,288.391L467.192,288.371C467.15,288.347 467.108,288.323 467.067,288.299ZM467.012,288.267L466.977,288.246L466.941,288.225C466.965,288.239 466.988,288.253 467.012,288.267ZM466.749,288.11C466.785,288.132 466.821,288.153 466.857,288.175C466.821,288.153 466.785,288.132 466.749,288.11ZM466.588,288.009C466.6,288.016 466.611,288.024 466.623,288.031C466.611,288.024 466.6,288.016 466.588,288.009ZM466.357,287.861C466.41,287.896 466.464,287.93 466.518,287.965C466.464,287.93 466.411,287.896 466.357,287.861ZM466.003,287.621C466.037,287.644 466.071,287.668 466.105,287.691L466.071,287.668C466.059,287.66 466.048,287.652 466.037,287.644L466.003,287.621ZM465.484,287.242C465.549,287.292 465.616,287.342 465.683,287.391C465.616,287.342 465.55,287.292 465.484,287.242ZM465.333,287.126C465.353,287.141 465.373,287.157 465.392,287.172C465.373,287.157 465.353,287.141 465.333,287.126ZM465.186,287.009C465.221,287.037 465.256,287.065 465.292,287.093C465.257,287.065 465.221,287.037 465.186,287.009ZM464.704,286.606L464.673,286.579C464.804,286.693 464.937,286.806 465.072,286.916C464.948,286.815 464.825,286.711 464.704,286.606ZM464.446,286.375C464.496,286.421 464.547,286.467 464.598,286.512C464.547,286.467 464.496,286.421 464.446,286.375ZM464.011,285.961C464.107,286.057 464.205,286.151 464.304,286.244C464.215,286.16 464.127,286.076 464.04,285.99L464.011,285.961ZM463.552,285.488C463.624,285.566 463.697,285.643 463.771,285.719C463.697,285.643 463.624,285.566 463.552,285.488ZM463.358,285.275C463.376,285.296 463.395,285.316 463.413,285.337L463.386,285.306C463.376,285.296 463.367,285.286 463.358,285.275ZM462.834,284.656C462.913,284.755 462.993,284.852 463.074,284.948C462.993,284.852 462.913,284.754 462.834,284.656ZM462.648,284.42C462.694,284.479 462.74,284.539 462.787,284.597C462.749,284.549 462.711,284.501 462.673,284.452L462.648,284.42ZM461.988,283.493C462.091,283.649 462.196,283.804 462.304,283.955L462.281,283.922C462.181,283.781 462.083,283.638 461.988,283.493ZM461.933,283.409C461.945,283.427 461.956,283.444 461.968,283.462L461.956,283.443L461.933,283.409ZM461.67,282.988C461.705,283.046 461.74,283.103 461.776,283.16C461.747,283.115 461.719,283.069 461.692,283.023L461.67,282.988ZM461.418,282.553C461.428,282.571 461.438,282.589 461.448,282.607C461.438,282.589 461.428,282.571 461.418,282.553ZM460.675,281.024C460.693,281.067 460.711,281.11 460.729,281.153C460.716,281.123 460.704,281.093 460.691,281.063L460.675,281.024ZM460.549,280.714L460.534,280.675C460.559,280.74 460.585,280.805 460.611,280.869L460.595,280.83C460.58,280.792 460.564,280.753 460.549,280.714ZM460.399,280.315C460.415,280.359 460.431,280.402 460.447,280.445C460.431,280.402 460.415,280.359 460.399,280.315ZM460.326,280.109L460.342,280.153L460.326,280.109ZM460.22,279.788L460.235,279.833L460.22,279.788ZM460.148,279.555C460.161,279.598 460.174,279.64 460.187,279.683C460.174,279.64 460.161,279.597 460.148,279.555ZM460.079,279.318L460.067,279.278C460.082,279.332 460.098,279.386 460.114,279.44L460.102,279.4C460.094,279.373 460.086,279.345 460.079,279.318ZM459.918,278.702C459.922,278.717 459.925,278.732 459.929,278.747L459.918,278.702ZM459.801,278.169C459.816,278.24 459.83,278.311 459.845,278.381C459.83,278.31 459.816,278.24 459.801,278.169ZM459.585,276.737C459.588,276.765 459.591,276.792 459.594,276.82C459.591,276.792 459.588,276.765 459.585,276.737ZM457.072,272.786L456.989,272.786L457.072,272.786ZM457.197,272.786L457.238,272.786L457.197,272.786ZM457.964,272.776C457.745,272.781 457.521,272.784 457.292,272.786C457.549,272.784 457.799,272.78 458.043,272.774L457.964,272.776ZM456.522,272.782C456.542,272.783 456.563,272.783 456.583,272.783L456.522,272.782ZM456.176,272.775C456.278,272.778 456.379,272.78 456.479,272.782L456.436,272.781C456.364,272.78 456.292,272.778 456.22,272.776L456.176,272.775ZM455.744,272.762C455.874,272.767 456.004,272.771 456.132,272.774L456.089,272.773C455.975,272.77 455.86,272.766 455.744,272.762ZM458.503,272.76L458.428,272.762C458.352,272.765 458.275,272.767 458.198,272.77L458.121,272.772C458.25,272.768 458.378,272.764 458.503,272.76ZM455.651,272.759L455.723,272.761L455.651,272.759ZM455.581,272.756L455.637,272.758L455.581,272.756ZM455.289,272.743C455.379,272.747 455.469,272.751 455.558,272.755C455.469,272.751 455.379,272.747 455.289,272.743ZM455.018,272.728C455.063,272.731 455.109,272.733 455.154,272.736L455.109,272.733C455.078,272.731 455.048,272.73 455.018,272.728ZM459.3,272.722L459.241,272.725C459.284,272.723 459.327,272.72 459.369,272.718L459.3,272.722ZM453.586,272.613C453.961,272.652 454.332,272.683 454.699,272.708L454.653,272.705C454.317,272.682 453.976,272.653 453.633,272.618L453.586,272.613ZM452.643,272.499L452.595,272.493C452.895,272.534 453.195,272.571 453.492,272.603L453.539,272.608C453.242,272.577 452.943,272.541 452.643,272.499ZM451.978,272.399L451.955,272.395C451.978,272.399 452.002,272.403 452.025,272.407L451.978,272.399ZM450.978,272.215C451.056,272.231 451.134,272.247 451.213,272.262C451.15,272.25 451.088,272.237 451.025,272.225L450.978,272.215ZM450.883,272.195L450.93,272.205C450.914,272.202 450.899,272.198 450.883,272.195ZM450.218,272.045L450.171,272.033C450.25,272.053 450.329,272.071 450.408,272.09L450.455,272.101C450.376,272.083 450.297,272.064 450.218,272.045ZM449.941,271.975C449.986,271.987 450.031,271.998 450.076,272.01L450.029,271.998C450,271.991 449.97,271.983 449.941,271.975ZM449.84,271.949C449.868,271.957 449.895,271.964 449.922,271.971L449.888,271.962L449.84,271.949ZM449.746,271.924L449.699,271.912C449.715,271.916 449.73,271.92 449.746,271.924L449.793,271.937C449.778,271.933 449.762,271.929 449.746,271.924ZM449.198,271.77C449.246,271.784 449.295,271.798 449.343,271.812C449.294,271.798 449.246,271.784 449.198,271.77ZM448.858,271.665C448.96,271.697 449.062,271.729 449.164,271.759C449.077,271.733 448.991,271.707 448.904,271.679L448.858,271.665ZM448.077,271.396C448.229,271.452 448.381,271.506 448.535,271.558L448.489,271.543C448.366,271.501 448.244,271.457 448.122,271.413L448.077,271.396ZM447.888,271.324C447.935,271.343 447.983,271.361 448.031,271.379L447.986,271.362C447.953,271.349 447.92,271.337 447.888,271.324ZM447.572,271.199C447.64,271.227 447.709,271.254 447.778,271.282C447.709,271.254 447.64,271.227 447.572,271.199ZM446.757,270.838C446.826,270.871 446.895,270.903 446.964,270.935C446.895,270.903 446.826,270.871 446.757,270.838ZM446.33,270.624C446.464,270.694 446.598,270.761 446.734,270.827C446.598,270.761 446.464,270.694 446.33,270.624ZM446.017,270.455C446.106,270.504 446.195,270.553 446.285,270.6C446.195,270.553 446.106,270.504 446.017,270.455ZM445.954,270.42C445.961,270.424 445.968,270.428 445.975,270.432C445.968,270.428 445.961,270.424 445.954,270.42ZM445.856,270.364L445.878,270.377L445.856,270.364ZM445.767,270.313C445.793,270.328 445.819,270.343 445.846,270.358C445.827,270.347 445.807,270.336 445.788,270.325L445.767,270.313ZM472.206,290.14C472.107,290.124 472.008,290.107 471.91,290.089L471.868,290.081C471.994,290.105 472.121,290.127 472.249,290.147L472.206,290.14ZM468.49,289.027C468.356,288.968 468.224,288.906 468.092,288.843C468.236,288.912 468.381,288.979 468.528,289.044L468.49,289.027ZM467.446,288.512C467.433,288.505 467.421,288.498 467.409,288.492L467.373,288.472C467.409,288.492 467.446,288.512 467.482,288.532L467.446,288.512ZM463.952,285.903C463.9,285.851 463.848,285.799 463.796,285.746C463.858,285.808 463.919,285.871 463.981,285.932L463.952,285.903ZM463.496,285.428C463.505,285.438 463.515,285.448 463.524,285.458L463.496,285.428ZM462.598,284.354C462.515,284.245 462.433,284.134 462.352,284.023C462.441,284.146 462.531,284.267 462.623,284.387L462.598,284.354ZM460.045,279.196C460.035,279.16 460.025,279.124 460.015,279.087C460.029,279.137 460.042,279.187 460.056,279.237L460.045,279.196Z" style="fill:rgb(193,193,193);fill-rule:nonzero;"/>
    <g transform="matrix(1.21508,0,0,1.21508,210.804,-72.2091)">
        <path d="M209.808,176.156L209.808,215.338C209.808,219.215 206.666,222.358 202.788,222.358L146.752,222.358C142.875,222.358 139.732,219.215 139.732,215.338L139.732,176.156C139.732,172.278 142.875,169.136 146.752,169.136L202.788,169.136C206.666,169.136 209.808,172.278 209.808,176.156Z" style="fill:rgb(227,242,255);fill-rule:nonzero;"/>
    </g>
    <g transform="matrix(1.21508,0,0,1.21508,210.804,-72.2091)">
        <path d="M208.24,299.568L184.313,299.568C183.404,299.568 182.667,298.831 182.667,297.922L182.667,293.677C182.667,292.768 183.404,292.03 184.313,292.03L208.24,292.03C209.149,292.03 209.887,292.768 209.887,293.677L209.887,297.922C209.887,298.831 209.149,299.568 208.24,299.568Z" style="fill:rgb(227,242,255);fill-rule:nonzero;"/>
    </g>
    <g transform="matrix(1.21508,0,0,1.21508,210.804,-72.2091)">
        <path d="M206.096,343.35L186.458,343.35C184.364,343.35 182.667,341.652 182.667,339.56L182.667,307.189C182.667,305.097 184.364,303.399 186.458,303.399L206.096,303.399C208.189,303.399 209.887,305.097 209.887,307.189L209.887,339.56C209.887,341.652 208.189,343.35 206.096,343.35Z" style="fill:rgb(227,242,255);fill-rule:nonzero;"/>
    </g>
    <g transform="matrix(1.21508,0,0,1.21508,210.804,-72.2091)">
        <path d="M155.535,301.299C155.574,298.299 157.016,295.646 159.229,293.956C160.841,292.725 162.86,292.004 165.045,292.031C169.061,292.082 172.455,294.648 173.75,298.214L173.752,298.219C174.06,299.066 174.249,299.971 174.3,300.912C174.311,301.119 174.314,301.329 174.312,301.541C174.285,303.663 173.554,305.61 172.348,307.168C170.605,309.415 167.867,310.848 164.804,310.807C163.792,310.794 162.821,310.622 161.913,310.314C158.162,309.047 155.482,305.475 155.535,301.299ZM160.908,313.283C162.119,313.693 163.415,313.923 164.763,313.94C168.848,313.993 172.501,312.084 174.826,309.088C176.437,307.011 177.41,304.412 177.445,301.581C177.449,301.299 177.443,301.019 177.429,300.742C177.362,299.484 177.108,298.276 176.696,297.143C174.97,292.39 170.442,288.968 165.086,288.897C162.2,288.86 159.53,289.802 157.392,291.416C154.404,293.669 152.454,297.229 152.403,301.259C152.332,306.825 155.904,311.59 160.908,313.283Z" style="fill:rgb(227,242,255);fill-rule:nonzero;"/>
    </g>
    <g transform="matrix(1.21508,0,0,1.21508,210.804,-72.2091)">
        <path d="M172.347,307.168L174.825,309.088C172.501,312.084 168.848,313.993 164.763,313.941C163.415,313.923 162.119,313.693 160.908,313.284L161.913,310.314C162.821,310.622 163.792,310.794 164.804,310.807C167.866,310.847 170.604,309.415 172.347,307.168Z" style="fill:rgb(169,66,91);fill-rule:nonzero;"/>
    </g>
    <g transform="matrix(1.21508,0,0,1.21508,210.804,-72.2091)">
        <path d="M174.299,300.911L177.429,300.741C177.443,301.019 177.449,301.299 177.445,301.581C177.409,304.411 176.436,307.011 174.825,309.088L172.347,307.168C173.555,305.611 174.284,303.662 174.312,301.541C174.314,301.329 174.31,301.119 174.299,300.911Z" style="fill:rgb(212,114,138);fill-rule:nonzero;"/>
    </g>
    <g transform="matrix(1.21508,0,0,1.21508,210.804,-72.2091)">
        <path d="M174.3,300.912C174.249,299.971 174.06,299.066 173.752,298.219L173.75,298.214L176.696,297.143C177.108,298.276 177.362,299.484 177.429,300.742L174.3,300.912Z" style="fill:rgb(212,114,138);fill-rule:nonzero;"/>
    </g>
    <g transform="matrix(1.21508,0,0,1.21508,210.804,-72.2091)">
        <path d="M157.392,291.416C159.53,289.802 162.2,288.86 165.086,288.897C170.442,288.968 174.97,292.39 176.696,297.143L173.752,298.219L173.75,298.214C172.455,294.648 169.061,292.082 165.045,292.031C162.86,292.004 160.841,292.725 159.229,293.956L157.392,291.416Z" style="fill:rgb(255,186,203);fill-rule:nonzero;"/>
    </g>
    <g transform="matrix(-0.886687,-0.46237,1.2121,-2.32445,411.326,614.245)">
        <path d="M314.367,139.937L324.78,146.569L303.953,146.569L314.367,139.937Z" style="fill:rgb(230,230,230);"/>
    </g>
    <g transform="matrix(1.21508,0,0,1.21508,210.804,-72.2091)">
        <path d="M177.528,285.328C177.528,285.328 178.203,285.24 178.596,284.84C179.274,284.148 179.337,282.688 180.703,282.589C182.067,282.49 183.328,286.63 183.109,287.481C182.891,288.332 181.077,289.015 178.224,288.877C175.372,288.739 177.528,285.328 177.528,285.328Z" style="fill:rgb(238,168,134);fill-rule:nonzero;"/>
    </g>
    <g transform="matrix(1.21508,0,0,1.21508,210.804,-72.2091)">
        <path d="M180.244,282.687C180.244,282.687 182.085,281.735 184.252,280.916C186.153,280.197 188.504,279.686 188.759,280.013C189.327,280.739 187.109,281.251 185.266,282.086C183.569,282.854 183.861,282.731 183.861,282.731C183.861,282.731 183.735,282.689 185.73,282.198C187.876,281.669 190.118,281.338 190.404,281.739C190.543,281.935 190.793,282.616 189.893,282.588C190.361,282.496 190.288,282.425 190.334,282.611C190.574,283.577 187.517,284.833 186.303,285.331C187.238,284.954 187.959,284.773 187.708,285.482C187.422,286.294 183.029,287.881 181.503,288.595C179.838,289.373 180.244,282.687 180.244,282.687Z" style="fill:rgb(238,168,134);fill-rule:nonzero;"/>
    </g>
    <g transform="matrix(1.21508,0,0,1.21508,210.804,-72.2091)">
        <path d="M147.627,256.806C147.627,256.806 143.324,256.494 140.287,256.806C137.25,257.116 133.053,259.602 130.513,260.319C127.973,261.037 121.843,265.156 122.009,265.72C122.174,266.283 124.549,272.986 128.938,278.432C132.696,283.092 147.627,256.806 147.627,256.806Z" style="fill:rgb(212,216,232);fill-rule:nonzero;"/>
    </g>
    <g transform="matrix(1.21508,0,0,1.21508,210.804,-72.2091)">
        <path d="M138.341,259.507C138.341,259.507 133.702,262.941 132.086,266.09C130.47,269.237 129.92,272.986 129.92,272.986L138.341,259.507Z" style="fill:rgb(169,173,186);fill-rule:nonzero;"/>
    </g>
    <g transform="matrix(1.21508,0,0,1.21508,210.804,-72.2091)">
        <path d="M141.857,361.798C141.857,361.798 143.183,363.206 143.949,363.579C144.715,363.952 153.867,365.526 154.489,366.271C155.11,367.017 155.11,369.957 152.749,369.957C150.389,369.957 142.52,369.915 141.194,369.957C139.869,369.998 134.271,371.117 133.695,369.957C133.119,368.798 133.172,363.386 134.195,362.089C135.219,360.791 141.857,361.798 141.857,361.798Z" style="fill:rgb(28,65,84);fill-rule:nonzero;"/>
    </g>
    <g transform="matrix(1.21508,0,0,1.21508,210.804,-72.2091)">
        <path d="M141.575,360.154L141.857,361.798C141.857,361.798 139.414,362.916 134.195,362.089L134.195,360.39L141.575,360.154Z" style="fill:rgb(42,97,125);fill-rule:nonzero;"/>
    </g>
    <g transform="matrix(1.21508,0,0,1.21508,210.804,-72.2091)">
        <path d="M85.991,357.243C85.991,357.243 84.966,358.434 84.459,359.977C84.135,360.964 82.595,365.568 83.258,366.686C83.92,367.805 89.139,367.97 91.748,367.556C94.357,367.142 100.031,368.011 100.611,366.894C101.191,365.775 101.522,364.144 99.824,363.51C98.126,362.876 94.233,361.219 93.529,359.479C92.825,357.74 85.991,357.243 85.991,357.243Z" style="fill:rgb(28,65,84);fill-rule:nonzero;"/>
    </g>
    <g transform="matrix(1.21508,0,0,1.21508,210.804,-72.2091)">
        <path d="M94.252,357.616L93.529,359.479C93.529,359.479 86.053,358.919 85.991,357.243L88.352,353.806L94.252,357.616Z" style="fill:rgb(42,97,125);fill-rule:nonzero;"/>
    </g>
    <g transform="matrix(1.21508,0,0,1.21508,210.804,-72.2091)">
        <path d="M155.631,253.632C155.631,253.632 151.464,257.171 150.278,256.882C149.092,256.593 154.365,264.368 154.365,264.368C154.365,264.368 159.385,259.427 160.516,259.278C161.646,259.128 155.631,253.632 155.631,253.632Z" style="fill:rgb(238,168,134);fill-rule:nonzero;"/>
    </g>
    <g transform="matrix(1.21508,0,0,1.21508,210.804,-72.2091)">
        <path d="M155.914,267.607C154.495,268.465 154.257,268.74 154.423,272.799C154.588,276.857 156.272,280.129 156.396,281.247C156.521,282.365 158.775,293.457 159.396,294.078C160.018,294.699 167.442,293.252 168.944,292.787C171.192,292.09 180.706,288.868 180.706,288.868L178.613,284.504C178.613,284.504 166.603,287.183 166.216,286.244C165.83,285.306 164.89,277.422 164.558,275.71C164.227,273.998 164.804,271.308 162.759,267.247C160.928,263.611 155.914,267.607 155.914,267.607Z" style="fill:rgb(212,216,232);fill-rule:nonzero;"/>
    </g>
    <g transform="matrix(1.21508,0,0,1.21508,210.804,-72.2091)">
        <path d="M141.831,298.144C141.831,298.144 144.376,300.852 145.089,301.732C149.965,307.758 156.603,318.823 157.431,320.756C158.259,322.688 153.328,336.356 151.302,341.131C150.239,343.636 143.212,360.887 143.433,361.273C143.654,361.66 135.999,361.915 132.575,360.148C132.575,360.148 137.498,345.564 138.534,342.705C140.101,338.387 145.53,326.427 145.696,325.268C145.861,324.107 136.918,314.545 133.936,312.723C130.953,310.9 123.666,304.439 122.837,303.611C122.009,302.783 117.315,300.574 117.757,296.377C118.199,292.181 121.318,288.868 121.318,288.868L141.831,298.144Z" style="fill:rgb(30,30,30);fill-rule:nonzero;"/>
    </g>
    <g transform="matrix(1.21508,0,0,1.21508,210.804,-72.2091)">
        <path d="M128.45,308.526C128.45,308.526 127.984,309.752 127.33,311.471C125.925,315.159 123.656,321.113 123.278,322.055C122.727,323.436 119.965,329.399 118.64,330.56C117.314,331.719 95.503,357.893 95.447,358.113C95.393,358.334 87.275,354.137 86.778,352.535C86.778,352.535 98.595,337.129 100.417,334.866C102.24,332.602 106.05,329.234 107.32,323.877C108.591,318.521 117.699,297.924 117.727,297.15C117.727,297.15 119.193,290.801 121.318,288.868C123.444,286.935 131.175,289.199 132.39,293.229C133.605,297.262 128.45,308.526 128.45,308.526Z" style="fill:rgb(30,30,30);fill-rule:nonzero;"/>
    </g>
    <g transform="matrix(1.21508,0,0,1.21508,210.804,-72.2091)">
        <path d="M149.901,256.845L151.662,256.15C151.662,256.15 156.107,257.172 158.674,260.733L158.454,261.798C158.454,261.798 151.675,260.328 149.901,256.845Z" style="fill:rgb(212,216,232);fill-rule:nonzero;"/>
    </g>
    <g transform="matrix(1.21508,0,0,1.21508,210.804,-72.2091)">
        <path d="M156.688,282.772C156.331,283.27 156.042,283.625 155.858,283.787C155.732,283.896 155.58,284.023 155.404,284.166L155.401,284.168L155.234,277.488C155.234,277.488 156.072,280.063 156.196,280.443C156.322,280.827 156.688,282.772 156.688,282.772Z" style="fill:rgb(169,173,186);fill-rule:nonzero;"/>
    </g>
    <g transform="matrix(1.21508,0,0,1.21508,210.804,-72.2091)">
        <path d="M128.45,308.526C128.45,308.526 127.984,309.752 127.33,311.471C125.846,309.762 122.458,303.305 122.458,303.305C122.679,303.463 123.388,304.128 123.552,304.275C123.714,304.425 128.45,308.526 128.45,308.526Z" style="fill:rgb(13,13,13);fill-rule:nonzero;"/>
    </g>
    <g transform="matrix(1.21508,0,0,1.21508,210.804,-72.2091)">
        <path d="M166.383,251.845C166.54,251.339 166.162,249.405 164.927,250.506C163.693,251.607 163.698,254.074 164.395,254.275C165.092,254.477 165.987,253.128 166.383,251.845Z" style="fill:rgb(238,168,134);fill-rule:nonzero;"/>
    </g>
    <g transform="matrix(1.21508,0,0,1.21508,210.804,-72.2091)">
        <path d="M161.768,240.987C161.768,240.987 155.792,236.738 155.759,251.228L161.768,240.987Z" style="fill:rgb(35,35,35);fill-rule:nonzero;"/>
    </g>
    <g transform="matrix(1.21508,0,0,1.21508,210.804,-72.2091)">
        <path d="M156.688,282.772C156.331,283.27 156.042,283.625 155.858,283.787C155.732,283.896 155.58,284.023 155.404,284.166L155.401,284.168C153.715,285.517 149.931,288.139 148.183,289.088C146.25,290.139 142.585,298.979 142.585,298.979C142.585,298.979 125.294,297.813 121.318,288.868C121.318,288.868 124.135,282.573 126.703,278.846C129.27,275.118 134.902,261.699 137.884,259.796C140.866,257.891 143.434,256.646 149.315,256.813C155.196,256.979 158.454,261.645 158.454,261.645C158.454,261.645 162.927,266.449 163.368,268.989C163.749,271.174 158.893,279.7 156.688,282.772Z" style="fill:rgb(212,216,232);fill-rule:nonzero;"/>
    </g>
    <g transform="matrix(1.21508,0,0,1.21508,210.804,-72.2091)">
        <path d="M209.808,176.156L209.686,180.053L139.611,180.053L139.732,176.156C139.732,172.278 142.875,169.136 146.752,169.136L202.788,169.136C206.666,169.136 209.808,172.278 209.808,176.156Z" style="fill:rgb(255,100,138);fill-rule:nonzero;"/>
    </g>
    <g transform="matrix(1.21508,0,0,1.21508,210.804,-72.2091)">
        <path d="M147.614,184.255C146.396,184.255 145.406,185.246 145.406,186.463L145.406,214.57C145.406,215.788 146.396,216.778 147.614,216.778L161.713,216.778C162.931,216.778 163.921,215.788 163.921,214.57L163.921,186.463C163.921,185.246 162.931,184.255 161.713,184.255L147.614,184.255ZM161.713,217.874L147.614,217.874C145.792,217.874 144.31,216.392 144.31,214.57L144.31,186.463C144.31,184.641 145.792,183.159 147.614,183.159L161.713,183.159C163.535,183.159 165.018,184.641 165.018,186.463L165.018,214.57C165.018,216.392 163.535,217.874 161.713,217.874Z" style="fill:rgb(255,100,138);fill-rule:nonzero;"/>
    </g>
    <g transform="matrix(1.21508,0,0,1.21508,210.804,-72.2091)">
        <path d="M203.446,186.63L169.855,186.63C169.249,186.63 168.758,186.139 168.758,185.533L168.758,184.805C168.758,184.199 169.249,183.707 169.855,183.707L203.446,183.707C204.053,183.707 204.544,184.199 204.544,184.805L204.544,185.533C204.544,186.139 204.053,186.63 203.446,186.63Z" style="fill:rgb(255,100,138);fill-rule:nonzero;"/>
    </g>
    <g transform="matrix(1.21508,0,0,1.21508,210.804,-72.2091)">
        <path d="M203.446,192.568L169.855,192.568C169.249,192.568 168.758,192.077 168.758,191.471L168.758,190.743C168.758,190.137 169.249,189.645 169.855,189.645L203.446,189.645C204.053,189.645 204.544,190.137 204.544,190.743L204.544,191.471C204.544,192.077 204.053,192.568 203.446,192.568Z" style="fill:rgb(255,100,138);fill-rule:nonzero;"/>
    </g>
    <g transform="matrix(1.21508,0,0,1.21508,210.804,-72.2091)">
        <path d="M285.012,266.61L220.855,266.61C219.917,266.61 219.158,265.85 219.158,264.912L219.158,261.486C219.158,260.55 219.917,259.789 220.855,259.789L285.012,259.789C285.949,259.789 286.71,260.55 286.71,261.486L286.71,264.912C286.71,265.85 285.949,266.61 285.012,266.61Z" style="fill:rgb(178,173,154);fill-rule:nonzero;"/>
    </g>
    <g transform="matrix(1.21508,0,0,1.21508,210.804,-72.2091)">
        <path d="M285.012,277.729L220.855,277.729C219.917,277.729 219.158,276.969 219.158,276.031L219.158,272.605C219.158,271.668 219.917,270.908 220.855,270.908L285.012,270.908C285.949,270.908 286.71,271.668 286.71,272.605L286.71,276.031C286.71,276.969 285.949,277.729 285.012,277.729Z" style="fill:rgb(149,137,94);fill-rule:nonzero;"/>
    </g>
    <g transform="matrix(1.21508,0,0,1.21508,210.804,-72.2091)">
        <path d="M285.012,288.848L220.855,288.848C219.917,288.848 219.158,288.088 219.158,287.15L219.158,283.725C219.158,282.787 219.917,282.027 220.855,282.027L285.012,282.027C285.949,282.027 286.71,282.787 286.71,283.725L286.71,287.15C286.71,288.088 285.949,288.848 285.012,288.848Z" style="fill:rgb(116,105,65);fill-rule:nonzero;"/>
    </g>
    <g transform="matrix(1.21508,0,0,1.21508,210.804,-72.2091)">
        <path d="M150.949,175.059C150.949,176.741 149.585,178.104 147.903,178.104C146.222,178.104 144.858,176.741 144.858,175.059C144.858,173.377 146.222,172.014 147.903,172.014C149.585,172.014 150.949,173.377 150.949,175.059Z" style="fill:rgb(227,242,255);fill-rule:nonzero;"/>
    </g>
    <g transform="matrix(1.21508,0,0,1.21508,216.484,-73.489)">
        <path d="M380.013,280.327C380.013,280.327 392.393,284.322 395.25,283.619C396.761,283.246 399.123,281.104 401.318,278.794C401.681,278.411 402.039,278.023 402.39,277.64C404.81,274.977 406.787,272.439 406.787,272.439C406.787,272.439 412.783,265.412 407.972,262.28C407.972,262.28 405.849,262.48 404.244,264.199C402.64,265.918 401.135,268.658 400.715,269.575C400.295,270.492 394.406,278.986 394.1,279.177C393.795,279.367 391.222,278.691 389.159,278.52C385.794,278.239 380.76,276.524 380.76,276.524L380.013,280.327Z" style="fill:rgb(67,67,67);fill-rule:nonzero;"/>
    </g>
    <g transform="matrix(1.21508,0,0,1.21508,210.804,-72.2091)">
        <path d="M397.03,356.596C397.03,356.596 395.455,359.414 394.519,359.985C393.353,360.696 391.09,362.979 390.299,363.085C389.509,363.189 386.668,363.694 387.217,365.298C387.666,366.613 394.443,366.424 395.207,365.765C395.972,365.106 398.257,362.742 399.18,362.795C400.103,362.848 399.76,366.205 399.76,366.205L400.761,366.205C400.761,366.205 401.11,362.938 401.152,362.376C401.277,360.714 400.093,359.49 400.04,358.542C399.986,357.594 399.933,356.886 399.933,356.886L397.03,356.596Z" style="fill:rgb(22,32,46);fill-rule:nonzero;"/>
    </g>
    <g transform="matrix(1.21508,0,0,1.21508,210.804,-72.2091)">
        <path d="M390.526,363.008C390.526,363.008 392.76,363.779 394.479,362.791C396.198,361.803 399.498,360.303 400.665,360.292C400.665,360.292 400.028,358.346 400.016,358.128C400.002,357.91 399.933,356.886 399.933,356.886L397.048,356.423C397.048,356.423 395.177,359.17 394.352,359.817C393.527,360.464 391.415,362.077 390.526,363.008Z" style="fill:rgb(238,168,134);fill-rule:nonzero;"/>
    </g>
    <g transform="matrix(1.21508,0,0,1.21508,210.804,-72.2091)">
        <path d="M424.268,359.247C424.268,359.247 423.988,361.197 423.685,361.729C423.381,362.261 422.545,364.972 422.165,365.478C421.785,365.984 420.949,369.784 422.165,370.239C423.381,370.695 426.243,371.455 427.205,369.936C428.168,368.415 428.294,366.896 428.143,365.731C427.99,364.566 426.835,359.219 426.851,358.689C426.867,358.16 424.268,359.247 424.268,359.247Z" style="fill:rgb(238,168,134);fill-rule:nonzero;"/>
    </g>
    <g transform="matrix(1.21508,0,0,1.21508,210.804,-72.2091)">
        <path d="M422.65,364.426C422.65,364.426 422.52,367.377 424.748,367.377C426.978,367.377 427.965,364.691 427.965,364.691C427.965,364.691 428.725,366.01 427.965,368.82C427.205,371.633 424.039,371.05 423.33,370.948C422.621,370.848 419.26,369.958 422.65,364.426Z" style="fill:rgb(22,32,46);fill-rule:nonzero;"/>
    </g>
    <g transform="matrix(1.21508,0,0,1.21508,210.804,-72.2091)">
        <path d="M420.59,292.002C420.59,292.002 423.472,295.674 424.488,298.103C425.505,300.531 427.199,305.856 426.974,309.98C426.748,314.104 425.392,321.844 425.787,323.595C426.183,325.346 426.577,328.961 427.002,330.204C427.426,331.447 429.12,335.063 429.29,338.79C429.459,342.519 428.084,358.874 428.196,360.399C428.31,361.924 423.261,360.992 423.261,360.992C423.261,360.992 423.132,346.248 422.567,343.706C422.002,341.163 421.324,332.52 420.815,331.898C420.308,331.277 418.881,324.724 418.789,323.654C418.7,322.619 412.656,304.702 412.318,301.652C411.979,298.602 404.411,292.002 404.411,292.002C404.411,292.002 411.834,289.163 420.59,292.002Z" style="fill:rgb(39,39,39);fill-rule:nonzero;"/>
    </g>
    <g transform="matrix(1.21508,0,0,1.21508,210.804,-72.2091)">
        <path d="M401.819,357.404C402.894,357.235 405.769,340.711 405.43,337.773C405.09,334.836 404.752,328.573 405.713,326.027C406.343,324.356 410.28,315.855 412.93,309.887C413.303,309.044 413.651,308.253 413.961,307.537C414.802,305.596 415.357,304.219 415.372,303.936C415.43,302.806 419.112,283.344 404.561,292.002C404.561,292.002 404.413,293.541 404.244,294.105C404.073,294.67 400.176,309.076 399.781,314.612C399.385,320.148 398.368,324.844 398.199,326.027C398.029,327.21 398.368,331.165 398.707,332.182C399.046,333.198 396.503,356.156 396.334,356.722C396.165,357.287 400.747,357.573 401.819,357.404Z" style="fill:rgb(39,39,39);fill-rule:nonzero;"/>
    </g>
    <g transform="matrix(1.21508,0,0,1.21508,210.804,-72.2091)">
        <path d="M410.269,261.253C410.269,261.253 407.515,262.552 406.559,262.743C405.603,262.934 401.893,267.752 401.241,269.511C400.591,271.27 401.24,273.908 402.578,277.006C403.916,280.104 402.653,281.137 403.265,284.234C403.876,287.331 404.41,293.89 404.295,295.61C404.18,297.331 419.762,297.66 423.318,294.525C423.318,294.525 419.746,289.171 419.287,288.406C418.828,287.641 419.212,283.473 419.633,282.402C420.054,281.331 423.035,272.486 423.035,272.486C423.035,272.486 425.147,265.233 423.078,263.626C421.281,262.23 416.383,261.731 415.504,261.426C414.624,261.119 412.065,260.985 410.269,261.253Z" style="fill:rgb(237,218,211);fill-rule:nonzero;"/>
    </g>
    <g transform="matrix(1.21508,0,0,1.21508,210.804,-72.2091)">
        <path d="M409.387,267.39L407.715,265.431L409.169,260.272C409.169,260.272 409.656,263.145 409.387,267.39Z" style="fill:rgb(214,197,190);fill-rule:nonzero;"/>
    </g>
    <g transform="matrix(1.21508,0,0,1.21508,210.804,-72.2091)">
        <path d="M408.955,258.074C408.955,258.074 409.503,263.126 409.389,264.771C409.389,264.771 412.248,267.639 415.504,261.426C415.504,261.426 414.136,258.865 415.166,255.374C416.198,251.885 408.955,258.074 408.955,258.074Z" style="fill:rgb(238,168,134);fill-rule:nonzero;"/>
    </g>
    <g transform="matrix(1.21508,0,0,1.21508,210.804,-72.2091)">
        <path d="M409.389,264.771L409.387,267.39L412.681,264.931L409.389,264.771Z" style="fill:rgb(238,168,134);fill-rule:nonzero;"/>
    </g>
    <g transform="matrix(1.21508,0,0,1.21508,210.804,-72.2091)">
        <path d="M409.387,267.39L410.755,265.698L415.36,261.11L416.851,262.545L409.387,267.39Z" style="fill:rgb(214,197,190);fill-rule:nonzero;"/>
    </g>
    <g transform="matrix(1.21508,0,0,1.21508,210.484,-73.489)">
        <path d="M414.677,298.092C415.973,304.299 425.353,297.394 425.353,297.394C425.353,297.394 419.271,287.174 421.691,279.006L421.749,278.813C421.903,278.297 422.058,277.806 422.212,277.339L422.294,277.088C422.822,275.482 423.254,274.154 423.604,273.062L423.604,273.061C424.685,269.699 424.998,268.592 424.998,268.592C424.998,268.592 424.535,263.359 421.951,262.785C419.356,262.209 416.615,261.667 416.615,261.667C416.615,261.667 412.135,267.412 411.949,269.994C411.764,272.574 413.38,291.884 414.677,298.092Z" style="fill:rgb(67,67,67);fill-rule:nonzero;"/>
    </g>
    <g transform="matrix(1.21508,0,0,1.21508,210.484,-73.489)">
        <path d="M400.857,270.699C400.857,270.699 400.567,274.258 403.011,278.932C403.011,278.932 402.959,285.189 402.882,287.369C402.805,289.549 402.286,297.79 402.286,297.79L404.972,299.364C405.513,299.681 406.183,299.242 406.106,298.619C405.348,292.347 402.88,268.552 408.226,262.157L405.844,262.979C405.844,262.979 400.857,268.21 400.857,270.699Z" style="fill:rgb(67,67,67);fill-rule:nonzero;"/>
    </g>
    <g transform="matrix(1.21508,0,0,1.21508,210.804,-72.2091)">
        <path d="M407.715,265.431L405.606,266.012L409.169,260.272L407.715,265.431Z" style="fill:rgb(250,230,222);fill-rule:nonzero;"/>
    </g>
    <g transform="matrix(1.21508,0,0,1.21508,210.804,-72.2091)">
        <path d="M410.755,265.698L412.68,268.223L416.615,261.667L415.36,261.11L410.755,265.698Z" style="fill:rgb(250,230,222);fill-rule:nonzero;"/>
    </g>
    <g transform="matrix(1.21508,0,0,1.21508,210.804,-72.2091)">
        <path d="M410.948,241.771C408.934,241.578 404.406,242.38 403.462,247.7C403.462,247.7 403.555,249.15 403.852,250.301C404.147,251.451 402.973,254.745 403.23,254.923C403.486,255.1 404.572,255.363 404.572,255.363C404.572,255.363 405.577,259.07 406.86,259.1C408.144,259.13 413.044,258.358 415.546,253.924C418.048,249.49 419.085,242.554 410.948,241.771Z" style="fill:rgb(238,168,134);fill-rule:nonzero;"/>
    </g>
    <g transform="matrix(1.21508,0,0,1.21508,210.804,-72.2091)">
        <path d="M403.462,247.7C403.462,247.7 406.634,250.091 409.865,250.697C413.098,251.303 414.846,256.926 414.846,256.926C414.846,256.926 420.267,248.779 416.512,243.562C412.757,238.345 403.051,241.428 403.462,247.7Z" style="fill:rgb(52,64,82);fill-rule:nonzero;"/>
    </g>
    <g transform="matrix(1.21508,0,0,1.21508,210.804,-72.2091)">
        <path d="M411.226,250.611C411.273,249.982 412.02,249.07 413.011,249.98C414.002,250.89 412.472,253.818 411.64,253.485C410.808,253.151 411.177,251.262 411.226,250.611Z" style="fill:rgb(238,168,134);fill-rule:nonzero;"/>
    </g>
    <g transform="matrix(1.21508,0,0,1.21508,210.804,-72.2091)">
        <path d="M408.948,258.805C409.021,259.197 409.096,259.656 409.157,260.143C411.869,258.597 413.291,256.628 413.291,256.628C411.722,257.916 408.948,258.805 408.948,258.805Z" style="fill:rgb(167,120,96);fill-rule:nonzero;"/>
    </g>
    <g transform="matrix(1.21508,0,0,1.21508,210.804,-72.2091)">
        <path d="M391.5,293.138L391.48,293.138L382.403,293.093C383.841,291.059 384.686,288.576 384.686,285.896L384.686,281.726C387.989,282.654 392.202,283.702 394.381,283.702C394.726,283.702 395.019,283.676 395.25,283.619C395.335,283.598 395.423,283.571 395.514,283.539L395.486,289.172C395.476,291.366 393.692,293.138 391.5,293.138ZM393.893,279.21C393.177,279.21 390.971,278.67 389.159,278.52C387.794,278.406 386.154,278.056 384.686,277.68L384.686,258.636C384.991,258.529 385.294,258.419 385.596,258.309L391.652,258.339C393.854,258.35 395.63,260.145 395.619,262.346L395.545,277.247C394.767,278.341 394.19,279.121 394.1,279.177C394.063,279.2 393.992,279.21 393.893,279.21Z" style="fill:white;fill-rule:nonzero;"/>
    </g>
    <g transform="matrix(1.21508,0,0,1.21508,210.804,-72.2091)">
        <path d="M384.686,258.636L384.686,258.305L385.596,258.309C385.294,258.419 384.991,258.529 384.686,258.636Z" style="fill:rgb(220,234,246);fill-rule:nonzero;"/>
    </g>
    <g transform="matrix(1.21508,0,0,1.21508,210.804,-72.2091)">
        <path d="M382.403,293.093L351.276,292.939C349.074,292.928 347.299,291.135 347.31,288.934L347.319,287.047L368.789,287.047C371.812,287.047 374.263,284.597 374.263,281.573L374.263,258.253L384.686,258.305L384.686,277.68C382.538,277.13 380.76,276.524 380.76,276.524L380.013,280.327C380.013,280.327 382.062,280.989 384.686,281.726L384.686,285.896C384.686,288.576 383.841,291.059 382.403,293.093Z" style="fill:rgb(222,222,222);fill-rule:nonzero;"/>
    </g>
    <g transform="matrix(1.21508,0,0,1.21508,210.804,-72.2091)">
        <path d="M368.789,287.047L347.319,287.047L347.442,262.107C347.453,259.912 349.236,258.141 351.428,258.141L351.448,258.141L374.263,258.253L374.263,281.573C374.263,284.597 371.812,287.047 368.789,287.047Z" style="fill:rgb(222,222,222);fill-rule:nonzero;"/>
    </g>
    <g transform="matrix(1.21508,0,0,1.21508,210.804,-72.2091)">
        <path d="M394.381,283.702C392.202,283.702 387.989,282.654 384.686,281.726C382.062,280.989 380.013,280.327 380.013,280.327L380.76,276.524C380.76,276.524 382.538,277.13 384.686,277.68C386.154,278.056 387.794,278.406 389.159,278.52C390.971,278.67 393.177,279.21 393.893,279.21C393.992,279.21 394.063,279.2 394.1,279.177C394.19,279.121 394.767,278.341 395.545,277.247L395.514,283.539C395.423,283.571 395.335,283.598 395.25,283.619C395.019,283.676 394.726,283.702 394.381,283.702Z" style="fill:white;fill-rule:nonzero;"/>
    </g>
    <g transform="matrix(1.21508,0,0,1.21508,210.804,-72.2091)">
        <path d="M369.177,290.246L389.667,290.348C391.11,290.354 392.286,289.189 392.294,287.747L392.406,264.957C392.413,263.515 391.249,262.339 389.806,262.331L369.314,262.23C367.872,262.223 366.695,263.387 366.688,264.831L366.576,287.619C366.568,289.063 367.733,290.239 369.177,290.246Z" style="fill:rgb(240,240,240);fill-rule:nonzero;"/>
    </g>
    <g transform="matrix(1.21508,0,0,1.21508,210.804,-72.2091)">
        <path d="M352.471,290.236L364.313,290.295C364.719,290.297 365.05,289.97 365.052,289.564L365.065,286.758C365.067,286.352 364.74,286.021 364.335,286.02L352.492,285.961C352.086,285.959 351.756,286.286 351.754,286.692L351.739,289.498C351.738,289.904 352.064,290.234 352.471,290.236Z" style="fill:white;fill-rule:nonzero;"/>
    </g>
    <g transform="matrix(1.21508,0,0,1.21508,210.804,-72.2091)">
        <path d="M352.144,284.67L364.656,284.731C364.877,284.732 365.057,284.555 365.058,284.334L365.06,283.868C365.061,283.646 364.883,283.467 364.662,283.466L352.149,283.404C351.929,283.402 351.749,283.581 351.748,283.802L351.746,284.269C351.744,284.489 351.923,284.669 352.144,284.67Z" style="fill:white;fill-rule:nonzero;"/>
    </g>
    <g transform="matrix(1.21508,0,0,1.21508,210.804,-72.2091)">
        <path d="M397.102,281.878C397.102,281.878 396.627,281.988 396.264,281.818C395.636,281.525 395.228,280.562 394.288,280.838C393.349,281.114 393.541,284.202 393.901,284.718C394.261,285.234 395.646,285.235 397.522,284.43C399.399,283.624 397.102,281.878 397.102,281.878Z" style="fill:rgb(238,168,134);fill-rule:nonzero;"/>
    </g>
    <g transform="matrix(1.21508,0,0,1.21508,210.804,-72.2091)">
        <path d="M394.62,280.789C394.62,280.789 393.148,280.612 391.492,280.605C390.038,280.6 388.356,280.854 388.246,281.129C388.123,281.436 389.706,281.342 391.15,281.439C392.479,281.53 392.209,281.725 392.209,281.725C392.209,281.725 392.282,281.665 390.822,281.835C389.252,282.018 387.668,282.356 387.577,282.697C387.532,282.863 387.606,282.953 388.191,282.977C387.854,283.031 387.826,283.128 387.842,283.265C387.923,283.972 390.285,284.048 391.223,284.077C390.502,284.059 389.974,284.118 390.319,284.53C390.715,285.002 394.055,284.965 395.256,285.062C396.566,285.166 394.62,280.789 394.62,280.789Z" style="fill:rgb(238,168,134);fill-rule:nonzero;"/>
    </g>
    <g transform="matrix(1.21508,0,0,1.21508,210.804,-72.2091)">
        <path d="M414.252,249.482C413.261,251.737 413.86,254.182 415.59,254.941C417.319,255.702 419.525,254.49 420.516,252.235C421.507,249.98 420.907,247.536 419.178,246.775C417.448,246.016 415.242,247.228 414.252,249.482Z" style="fill:rgb(52,64,82);fill-rule:nonzero;"/>
    </g>
    <g transform="matrix(1.21508,0,0,1.21508,210.484,-73.489)">
        <path d="M422.479,262.979C422.479,262.979 419.913,263.452 418.644,265.432C417.375,267.41 416.077,270.227 415.828,271.203C415.58,272.181 410.768,281.152 410.501,281.395C410.235,281.638 407.581,281.435 405.522,281.637C402.161,281.965 396.901,281.184 396.901,281.184L396.849,285.059C396.849,285.059 409.747,286.764 412.431,285.557C415.713,284.082 423.655,272.99 423.655,272.99C423.655,272.99 427.775,265.195 422.479,262.979Z" style="fill:rgb(67,67,67);fill-rule:nonzero;"/>
    </g>
    <g transform="matrix(1.21508,0,0,1.21508,204.804,-72.2091)">
        <path d="M417.267,281.114L422.294,277.088C422.822,275.482 423.254,274.154 423.604,273.062C423.604,273.062 418.508,279.737 417.267,281.114Z" style="fill:rgb(98,94,94);fill-rule:nonzero;"/>
    </g>
    <g transform="matrix(1.21508,0,0,1.21508,210.804,-72.2091)">
        <path d="M401.318,278.794C401.681,278.411 402.039,278.023 402.39,277.64C402.39,277.64 401.027,274.018 400.938,272.485C400.938,272.485 400.618,275.91 401.318,278.794Z" style="fill:rgb(98,94,94);fill-rule:nonzero;"/>
    </g>
    <g transform="matrix(1.21508,0,0,1.21508,210.804,-72.2091)">
        <path d="M359.117,271.659C357.341,272.295 355.427,271.721 354.272,270.364C353.997,270.041 353.765,269.674 353.589,269.268C353.55,269.177 353.514,269.085 353.48,268.992C353.145,268.054 353.146,267.076 353.423,266.193C353.822,264.919 354.793,263.84 356.147,263.355C356.594,263.195 357.05,263.112 357.5,263.099C359.359,263.043 361.123,264.177 361.784,266.022C362.604,268.315 361.41,270.84 359.117,271.659ZM363.17,265.527C362.289,263.064 359.936,261.554 357.456,261.628C356.856,261.646 356.248,261.757 355.651,261.97C353.845,262.615 352.55,264.055 352.018,265.754C351.648,266.933 351.646,268.236 352.094,269.488C352.139,269.612 352.187,269.735 352.239,269.854C352.475,270.396 352.784,270.888 353.151,271.318C354.689,273.128 357.244,273.893 359.613,273.045C362.671,271.952 364.264,268.585 363.17,265.527Z" style="fill:white;fill-rule:nonzero;"/>
    </g>
    <g transform="matrix(1.21508,0,0,1.21508,210.804,-72.2091)">
        <path d="M354.882,278.368C354.152,278.629 353.366,278.394 352.893,277.837C352.779,277.704 352.685,277.553 352.611,277.386L352.567,277.272C352.429,276.887 352.43,276.486 352.544,276.123C352.707,275.6 353.106,275.156 353.662,274.957C353.846,274.893 354.033,274.857 354.218,274.853C354.981,274.829 355.706,275.295 355.978,276.053C356.314,276.995 355.824,278.031 354.882,278.368ZM356.547,275.85C356.186,274.839 355.219,274.217 354.2,274.248C353.953,274.255 353.703,274.301 353.459,274.389C352.717,274.654 352.185,275.244 351.967,275.943C351.814,276.427 351.813,276.963 351.998,277.477L352.057,277.627C352.154,277.85 352.281,278.052 352.432,278.229C353.063,278.972 354.113,279.285 355.086,278.938C356.342,278.488 356.996,277.105 356.547,275.85Z" style="fill:white;fill-rule:nonzero;"/>
    </g>
    <g transform="matrix(1.21508,0,0,1.21508,210.804,-72.2091)">
        <rect x="169.592" y="201.626" width="4.268" height="15.7" style="fill:rgb(255,100,138);fill-rule:nonzero;"/>
    </g>
    <g transform="matrix(1.21508,0,0,1.21508,210.804,-72.2091)">
        <rect x="175.666" y="200.042" width="4.268" height="17.284" style="fill:rgb(255,100,138);fill-rule:nonzero;"/>
    </g>
    <g transform="matrix(1.21508,0,0,1.21508,210.804,-72.2091)">
        <rect x="181.821" y="203.331" width="4.268" height="13.995" style="fill:rgb(255,100,138);fill-rule:nonzero;"/>
    </g>
    <g transform="matrix(1.21508,0,0,1.21508,210.804,-72.2091)">
        <rect x="187.977" y="196.845" width="4.268" height="20.481" style="fill:rgb(255,100,138);fill-rule:nonzero;"/>
    </g>
    <g transform="matrix(1.21508,0,0,1.21508,210.804,-72.2091)">
        <rect x="194.436" y="198.885" width="4.268" height="18.441" style="fill:rgb(255,100,138);fill-rule:nonzero;"/>
    </g>
    <g transform="matrix(0.310899,0,0,0.310899,104.179,147.764)">
        <g transform="matrix(1,0,0,1,-184.5,-85.0053)">
            <path d="M775.256,252.054L771.393,252.054L771.393,146.245C771.393,112.65 743.749,85.005 710.154,85.005L485.984,85.005C452.389,85.005 424.744,112.65 424.744,146.244L424.744,726.72C424.744,760.315 452.389,787.96 485.984,787.96L710.154,787.96C743.749,787.96 771.393,760.315 771.393,726.721L771.393,327.37L775.256,327.37L775.256,252.054Z" style="fill:rgb(30,30,30);fill-rule:nonzero;"/>
        </g>
        <g transform="matrix(1,0,0,1,-184.5,-85.0053)">
            <path d="M712.625,100.938L683.363,100.938C684.426,103.543 684.973,106.33 684.973,109.144C684.973,121.062 675.165,130.87 663.247,130.871L534.822,130.871C522.903,130.87 513.096,121.062 513.096,109.144C513.096,106.33 513.643,103.543 514.705,100.938L487.375,100.938C462.287,100.938 441.642,121.582 441.642,146.67L441.642,726.295C441.642,751.383 462.287,772.027 487.375,772.027L712.625,772.027C737.713,772.027 758.358,751.383 758.358,726.295L758.358,146.67C758.358,121.582 737.713,100.938 712.625,100.938Z" style="fill:white;fill-rule:nonzero;"/>
        </g>
        <g transform="matrix(1,0,0,1,-184.5,-85.0053)">
            <path d="M706.983,762.075L493.017,762.075C468.432,762.075 448.431,744.223 448.431,722.279L448.431,693.469C448.431,675.979 464.36,661.75 483.939,661.75L716.061,661.75C735.64,661.75 751.569,675.979 751.569,693.469L751.569,722.279C751.569,744.223 731.568,762.075 706.983,762.075Z" style="fill:rgb(229,229,229);fill-rule:nonzero;"/>
        </g>
        <g transform="matrix(1,0,0,1,-184.5,-85.0053)">
            <path d="M515.509,277.85L467.782,277.85C466.014,277.848 464.559,276.394 464.557,274.625L464.557,226.898C464.559,225.13 466.014,223.675 467.782,223.673L515.509,223.673C517.278,223.675 518.732,225.13 518.734,226.898L518.734,274.625C518.732,276.394 517.278,277.848 515.509,277.85Z" style="fill:rgb(182,89,112);fill-rule:nonzero;"/>
        </g>
        <g transform="matrix(1,0,0,1,-184.5,-85.0053)">
            <path d="M587.746,277.85L540.018,277.85C538.25,277.848 536.795,276.394 536.793,274.625L536.793,226.898C536.795,225.13 538.25,223.675 540.018,223.673L587.746,223.673C589.514,223.675 590.968,225.13 590.97,226.898L590.97,274.625C590.968,276.394 589.514,277.848 587.746,277.85Z" style="fill:rgb(229,229,229);fill-rule:nonzero;"/>
        </g>
        <g transform="matrix(1,0,0,1,-184.5,-85.0053)">
            <path d="M659.982,277.85L612.254,277.85C610.486,277.848 609.032,276.394 609.03,274.625L609.03,226.898C609.032,225.13 610.486,223.675 612.254,223.673L659.982,223.673C661.75,223.675 663.205,225.13 663.207,226.898L663.207,274.625C663.205,276.394 661.75,277.848 659.982,277.85Z" style="fill:rgb(229,229,229);fill-rule:nonzero;"/>
        </g>
        <g transform="matrix(1,0,0,1,-184.5,-85.0053)">
            <path d="M732.218,277.85L684.491,277.85C682.722,277.848 681.268,276.394 681.266,274.625L681.266,226.898C681.268,225.13 682.722,223.675 684.491,223.673L732.218,223.673C733.986,223.675 735.441,225.13 735.443,226.898L735.443,274.625C735.441,276.394 733.986,277.848 732.218,277.85Z" style="fill:rgb(229,229,229);fill-rule:nonzero;"/>
        </g>
        <g transform="matrix(1,0,0,1,-184.5,-85.0053)">
            <path d="M515.339,366.211L467.611,366.211C465.843,366.209 464.388,364.754 464.386,362.986L464.386,315.258C464.388,313.49 465.843,312.036 467.611,312.033L515.339,312.033C517.107,312.036 518.561,313.49 518.564,315.258L518.564,362.986C518.561,364.754 517.107,366.209 515.339,366.211Z" style="fill:rgb(229,229,229);fill-rule:nonzero;"/>
        </g>
        <g transform="matrix(1,0,0,1,-184.5,-85.0053)">
            <path d="M587.575,366.211L539.847,366.211C538.079,366.209 536.625,364.754 536.623,362.986L536.623,315.258C536.625,313.49 538.079,312.036 539.847,312.033L587.575,312.033C589.343,312.036 590.798,313.49 590.8,315.258L590.8,362.986C590.798,364.754 589.343,366.209 587.575,366.211Z" style="fill:rgb(229,229,229);fill-rule:nonzero;"/>
        </g>
        <g transform="matrix(1,0,0,1,-184.5,-85.0053)">
            <path d="M659.811,366.211L612.084,366.211C610.315,366.209 608.861,364.754 608.859,362.986L608.859,315.258C608.861,313.49 610.315,312.036 612.084,312.033L659.811,312.033C661.579,312.036 663.034,313.49 663.036,315.258L663.036,362.986C663.034,364.754 661.579,366.209 659.811,366.211Z" style="fill:rgb(74,167,26);fill-rule:nonzero;"/>
        </g>
        <g transform="matrix(1,0,0,1,-184.5,-85.0053)">
            <path d="M732.047,366.211L684.32,366.211C682.552,366.209 681.097,364.754 681.095,362.986L681.095,315.258C681.097,313.49 682.552,312.036 684.32,312.033L732.047,312.033C733.816,312.036 735.27,313.49 735.272,315.258L735.272,362.986C735.27,364.754 733.816,366.209 732.047,366.211Z" style="fill:rgb(182,89,112);fill-rule:nonzero;"/>
        </g>
        <g transform="matrix(1,0,0,1,-184.5,-85.0053)">
            <path d="M515.168,454.571L467.441,454.571C465.672,454.569 464.218,453.114 464.216,451.346L464.216,403.619C464.218,401.85 465.672,400.396 467.441,400.394L515.168,400.394C516.936,400.396 518.391,401.85 518.393,403.619L518.393,451.346C518.391,453.114 516.936,454.569 515.168,454.571Z" style="fill:rgb(229,229,229);fill-rule:nonzero;"/>
        </g>
        <g transform="matrix(1,0,0,1,-184.5,-85.0053)">
            <path d="M587.404,454.571L539.677,454.571C537.908,454.569 536.454,453.114 536.452,451.346L536.452,403.619C536.454,401.85 537.908,400.396 539.677,400.394L587.404,400.394C589.173,400.396 590.627,401.85 590.629,403.619L590.629,451.346C590.627,453.114 589.173,454.569 587.404,454.571Z" style="fill:rgb(229,229,229);fill-rule:nonzero;"/>
        </g>
        <g transform="matrix(1,0,0,1,-184.5,-85.0053)">
            <path d="M659.64,454.571L611.913,454.571C610.145,454.569 608.69,453.114 608.688,451.346L608.688,403.619C608.69,401.85 610.145,400.396 611.913,400.394L659.641,400.394C661.409,400.396 662.863,401.85 662.865,403.619L662.865,451.346C662.863,453.114 661.409,454.569 659.64,454.571Z" style="fill:rgb(229,229,229);fill-rule:nonzero;"/>
        </g>
        <g transform="matrix(1,0,0,1,-184.5,-85.0053)">
            <path d="M731.877,454.571L684.149,454.571C682.381,454.569 680.926,453.114 680.924,451.346L680.924,403.619C680.926,401.85 682.381,400.396 684.149,400.394L731.877,400.394C733.645,400.396 735.099,401.85 735.101,403.619L735.102,451.346C735.099,453.114 733.645,454.569 731.877,454.571Z" style="fill:rgb(229,229,229);fill-rule:nonzero;"/>
        </g>
        <g transform="matrix(1,0,0,1,-184.5,-85.0053)">
            <path d="M514.997,542.931L467.27,542.931C465.501,542.929 464.047,541.475 464.045,539.707L464.045,491.979C464.047,490.211 465.501,488.756 467.27,488.754L514.997,488.754C516.766,488.756 518.22,490.211 518.222,491.979L518.222,539.707C518.22,541.475 516.766,542.929 514.997,542.931Z" style="fill:rgb(229,229,229);fill-rule:nonzero;"/>
        </g>
        <g transform="matrix(1,0,0,1,-184.5,-85.0053)">
            <path d="M587.234,542.931L539.506,542.931C537.738,542.929 536.283,541.475 536.281,539.707L536.281,491.979C536.283,490.211 537.738,488.756 539.506,488.754L587.233,488.754C589.002,488.756 590.456,490.211 590.458,491.979L590.458,539.707C590.456,541.475 589.002,542.929 587.234,542.931Z" style="fill:rgb(229,229,229);fill-rule:nonzero;"/>
        </g>
        <g transform="matrix(1,0,0,1,-184.5,-85.0053)">
            <path d="M659.47,542.931L611.742,542.931C609.974,542.929 608.519,541.475 608.517,539.707L608.517,491.979C608.519,490.211 609.974,488.756 611.742,488.754L659.47,488.754C661.238,488.756 662.692,490.211 662.695,491.979L662.695,539.707C662.692,541.475 661.238,542.929 659.47,542.931Z" style="fill:rgb(229,229,229);fill-rule:nonzero;"/>
        </g>
        <g transform="matrix(1,0,0,1,-184.5,-85.0053)">
            <path d="M731.706,542.931L683.978,542.931C682.21,542.929 680.756,541.475 680.754,539.707L680.754,491.979C680.756,490.211 682.21,488.756 683.978,488.754L731.706,488.754C733.474,488.756 734.929,490.211 734.931,491.979L734.931,539.707C734.929,541.475 733.474,542.929 731.706,542.931Z" style="fill:rgb(229,229,229);fill-rule:nonzero;"/>
        </g>
        <g transform="matrix(1,0,0,1,-184.5,-85.0053)">
            <path d="M515.509,740.291L467.782,740.291C466.014,740.289 464.559,738.835 464.557,737.066L464.557,689.339C464.559,687.57 466.014,686.116 467.782,686.114L515.509,686.114C517.278,686.116 518.732,687.57 518.734,689.339L518.734,737.066C518.732,738.835 517.278,740.289 515.509,740.291Z" style="fill:white;fill-rule:nonzero;"/>
        </g>
        <g transform="matrix(1,0,0,1,-184.5,-85.0053)">
            <path d="M587.746,740.291L540.018,740.291C538.25,740.289 536.795,738.835 536.793,737.066L536.793,689.339C536.795,687.57 538.25,686.116 540.018,686.114L587.746,686.114C589.514,686.116 590.968,687.57 590.97,689.339L590.97,737.066C590.968,738.835 589.514,740.289 587.746,740.291Z" style="fill:white;fill-rule:nonzero;"/>
        </g>
        <g transform="matrix(1,0,0,1,-184.5,-85.0053)">
            <path d="M659.982,740.291L612.254,740.291C610.486,740.289 609.032,738.835 609.03,737.066L609.03,689.339C609.032,687.57 610.486,686.116 612.254,686.114L659.982,686.114C661.75,686.116 663.205,687.57 663.207,689.339L663.207,737.066C663.205,738.835 661.75,740.289 659.982,740.291Z" style="fill:white;fill-rule:nonzero;"/>
        </g>
        <g transform="matrix(1,0,0,1,-184.5,-85.0053)">
            <path d="M732.218,740.291L684.491,740.291C682.722,740.289 681.268,738.835 681.266,737.066L681.266,689.339C681.268,687.57 682.722,686.116 684.491,686.114L732.218,686.114C733.986,686.116 735.441,687.57 735.443,689.339L735.443,737.066C735.441,738.835 733.986,740.289 732.218,740.291Z" style="fill:white;fill-rule:nonzero;"/>
        </g>
        <circle cx="392.111" cy="548.221" r="6.45" style="fill:rgb(229,229,229);"/>
        <circle cx="415.329" cy="548.221" r="6.45" style="fill:rgb(229,229,229);"/>
        <circle cx="438.548" cy="548.221" r="6.45" style="fill:rgb(229,229,229);"/>
        <g transform="matrix(1,0,0,1,-184.5,-85.0053)">
            <path d="M510.864,592.107C513.311,589.661 514.688,586.339 514.688,582.878C514.688,578.616 512.6,574.614 509.104,572.175L521.7,527.546L498.736,534.85L490.295,576.11C489.061,578.156 488.409,580.5 488.409,582.888C488.409,590.086 494.332,596.008 501.529,596.008C505.036,596.008 508.4,594.602 510.864,592.107Z" style="fill:rgb(255,183,183);fill-rule:nonzero;"/>
        </g>
        <g transform="matrix(1,0,0,1,-184.5,-85.0053)">
            <path d="M517.394,564.752C516.983,564.83 516.566,564.866 516.149,564.857L494.119,564.416C490.96,564.352 488.397,561.737 488.397,558.578C488.397,558.291 488.418,558.006 488.459,557.723L510.807,406.732C512.179,397.747 519.976,391.036 529.064,391.015C539.148,391.041 547.431,399.345 547.431,409.428C547.431,410.915 547.251,412.397 546.894,413.841L531.054,477.997L522.071,559.658C521.804,562.193 519.897,564.27 517.394,564.752Z" style="fill:rgb(63,61,86);fill-rule:nonzero;"/>
        </g>
        <path d="M342.105,718.105L354.365,718.105L360.198,670.817L342.103,670.818L342.105,718.105Z" style="fill:rgb(255,183,183);fill-rule:nonzero;"/>
        <g transform="matrix(1,0,0,1,-184.5,-85.0053)">
            <path d="M523.478,799.108L547.623,799.107C556.064,799.107 563.009,806.053 563.01,814.493L563.01,814.993L523.479,814.995L523.478,799.108Z" style="fill:rgb(47,46,65);fill-rule:nonzero;"/>
        </g>
        <path d="M394.382,714.123L406.565,715.489L417.632,669.146L399.65,667.13L394.382,714.123Z" style="fill:rgb(255,183,183);fill-rule:nonzero;"/>
        <g transform="matrix(1,0,0,1,-184.5,-85.0053)">
            <path d="M576.22,794.802L600.214,797.492L600.215,797.492C608.603,798.434 614.731,806.11 613.79,814.498L613.735,814.995L574.45,810.59L576.22,794.802Z" style="fill:rgb(47,46,65);fill-rule:nonzero;"/>
        </g>
        <g transform="matrix(1,0,0,1,-184.5,-85.0053)">
            <path d="M515.099,539.96C515.099,539.96 498.291,577.169 513.133,601.337L521.976,789.505L542.279,789.505L561.976,637.505L596.976,682.505L575.653,787.533L600.484,788.927L634.976,682.505C634.976,682.505 608.478,565.157 599.727,562.331L593.976,535.505L515.099,539.96Z" style="fill:rgb(47,46,65);fill-rule:nonzero;"/>
        </g>
        <g transform="matrix(1,0,0,1,-184.5,-85.0053)">
            <path d="M507.618,572.627C507.618,572.627 492.476,590.005 532.476,596.005C572.476,602.005 614.476,593.005 615.476,581.005C616.476,569.005 507.618,572.627 507.618,572.627Z" style="fill:rgb(203,203,203);fill-rule:nonzero;"/>
        </g>
        <g transform="matrix(1,0,0,1,-184.5,-85.0053)">
            <path d="M708.135,357.058C707.908,363.264 702.741,368.246 696.531,368.246C695.706,368.246 694.883,368.158 694.076,367.983L678.956,389.788L663.465,383.831L685.249,353.339C686.681,348.347 691.279,344.882 696.471,344.882C702.876,344.882 708.146,350.152 708.146,356.557C708.146,356.724 708.142,356.891 708.135,357.058Z" style="fill:rgb(255,183,183);fill-rule:nonzero;"/>
        </g>
        <g transform="matrix(1,0,0,1,-184.5,-85.0053)">
            <path d="M580.264,385.112L558.886,375.441L531.497,377.399C531.497,377.399 498.476,416.005 511.476,453.005L503.476,582.005C554.476,596.005 577.659,569.747 614.476,581.005L603.104,437.636L580.264,385.112Z" style="fill:rgb(63,61,86);fill-rule:nonzero;"/>
        </g>
        <g transform="matrix(1,0,0,1,-184.5,-85.0053)">
            <path d="M565.976,394.505L580.264,385.112C580.264,385.112 600.11,382.112 608.043,389.809C608.043,389.809 634.97,392.062 641.473,398.784L648.633,400.398L672.42,369.596L686.976,377.505L665.976,434.505L603.104,437.636L565.976,394.505Z" style="fill:rgb(63,61,86);fill-rule:nonzero;"/>
        </g>
        <g transform="matrix(0.877455,-0.47966,0.47966,0.877455,-277.199,222.122)">
            <circle cx="554.72" cy="334.983" r="33.745" style="fill:rgb(255,183,183);"/>
        </g>
        <g transform="matrix(1,0,0,1,-184.5,-85.0053)">
            <path d="M525.533,308.601C531.556,297.767 539.083,290.752 551.476,291.005C563.869,291.259 574.589,290.769 580.165,301.839C581.639,299.08 582.377,295.987 582.308,292.86C585.743,295.09 587.532,299.167 586.847,303.205C589.049,301.915 590.448,299.589 590.555,297.04C594.691,298.416 595.766,304.245 593.674,308.068C591.581,311.892 587.476,314.103 583.538,315.972C579.601,317.842 581.419,327.728 578.847,331.247C577.052,333.704 576.232,336.714 575.022,339.506C574.972,339.616 574.885,339.706 574.777,339.761C572.005,341.307 570.255,344.07 570.744,347.207C570.802,347.442 570.788,347.689 570.705,347.916C567.194,354.529 563.405,361.448 557.043,365.394C551.939,368.476 545.82,369.422 540.024,368.025C533.521,366.47 527.898,362.158 523.844,356.84C519.79,351.523 517.182,345.238 515.223,338.845C513.484,333.173 512.22,327.109 513.599,321.34C514.977,315.57 519.646,310.228 525.561,309.782" style="fill:rgb(47,46,65);fill-rule:nonzero;"/>
        </g>
    </g>
</svg>
