<?xml version="1.0" encoding="UTF-8" standalone="no"?>
<!DOCTYPE svg PUBLIC "-//W3C//DTD SVG 1.1//EN" "http://www.w3.org/Graphics/SVG/1.1/DTD/svg11.dtd">
<svg width="100%" height="100%" viewBox="0 0 1383 1667" version="1.1" xmlns="http://www.w3.org/2000/svg" xmlns:xlink="http://www.w3.org/1999/xlink" xml:space="preserve" xmlns:serif="http://www.serif.com/" style="fill-rule:evenodd;clip-rule:evenodd;stroke-linejoin:round;stroke-miterlimit:2;">
    <g id="Artboard1" transform="matrix(0.552972,0,0,1,0,0)">
        <rect x="0" y="0" width="2500" height="1666.67" style="fill:none;"/>
        <g transform="matrix(7.53504,0,0,4.16667,-1660.39,0)">
            <path d="M518.638,257.903C517.854,257.903 517.07,257.693 516.374,257.275L502.794,249.134L503.616,247.763L517.195,255.904C518.073,256.434 519.172,256.438 520.054,255.92L542.156,242.993C542.51,242.787 542.716,242.421 542.708,242.013C542.701,241.605 542.481,241.248 542.123,241.055L512.666,225.281L513.419,223.871L542.877,239.646C543.754,240.115 544.288,240.99 544.307,241.984C544.324,242.979 543.821,243.872 542.962,244.373L520.861,257.3C520.175,257.701 519.406,257.903 518.638,257.903Z" style="fill:rgb(179,211,235);fill-rule:nonzero;"/>
            <path d="M463.711,380.201C462.752,380.201 461.794,379.962 460.931,379.481L406.735,349.313C405.937,348.869 405.458,348.058 405.454,347.144C405.451,346.229 405.925,345.414 406.721,344.964L431.248,331.132C431.636,330.912 431.679,330.543 431.679,330.394C431.68,330.245 431.639,329.875 431.253,329.652L403.965,313.983C403.215,313.552 402.756,312.777 402.737,311.912C402.719,311.047 403.145,310.254 403.876,309.79L415.023,302.727L415.879,304.076L404.731,311.141C404.365,311.373 404.333,311.733 404.336,311.878C404.339,312.022 404.387,312.381 404.762,312.598L432.05,328.267C432.822,328.712 433.281,329.509 433.277,330.399C433.274,331.291 432.81,332.085 432.034,332.523L407.507,346.355C407.096,346.588 407.053,346.98 407.053,347.138C407.054,347.296 407.1,347.687 407.513,347.917L461.708,378.085C462.997,378.803 464.583,378.773 465.848,378.009L486.455,365.34C486.618,365.239 486.643,365.087 486.643,365.005C486.642,364.938 486.623,364.773 486.454,364.67L471.539,355.604L472.369,354.238L487.284,363.305C487.882,363.668 488.239,364.302 488.24,365.001C488.242,365.699 487.888,366.335 487.293,366.701L466.681,379.373C465.771,379.925 464.74,380.201 463.711,380.201Z" style="fill:rgb(179,211,235);fill-rule:nonzero;"/>
            <path d="M487.117,258.725L460.989,243.64C459.386,242.713 459.587,241.096 461.438,240.027L486.668,225.461C488.52,224.392 491.32,224.275 492.924,225.202L519.052,240.287C520.656,241.213 520.455,242.83 518.604,243.899L493.374,258.465C491.522,259.534 488.722,259.65 487.117,258.725Z" style="fill:rgb(179,211,235);fill-rule:nonzero;"/>
            <path d="M527.72,228.797L527.72,217.508L502.406,217.493L493.656,212.441C491.648,211.282 488.141,211.428 485.821,212.767L477.658,217.479L452.321,217.466L452.321,229.076C452.265,229.86 452.702,230.618 453.667,231.175L486.386,250.065C488.394,251.225 491.901,251.079 494.22,249.74L525.813,231.501C527.15,230.729 527.795,229.729 527.72,228.797Z" style="fill:rgb(56,109,171);fill-rule:nonzero;"/>
            <path d="M490.021,211.665C488.552,211.701 487.026,212.071 485.821,212.767L477.658,217.479L452.321,217.466L452.321,229.076C452.265,229.86 452.702,230.618 453.667,231.175L486.386,250.065C487.351,250.622 488.662,250.875 490.021,250.842L490.021,211.665Z" style="fill:rgb(56,109,171);fill-rule:nonzero;"/>
            <path d="M455.188,217.467L452.321,217.466L452.321,229.076C452.265,229.86 452.702,230.618 453.667,231.175L455.188,232.054L455.188,217.467Z" style="fill:rgb(85,147,206);fill-rule:nonzero;"/>
            <path d="M486.89,250.313C488.621,251.054 491.127,251.013 493.152,250.24L493.152,237.058L486.89,237.058L486.89,250.313Z" style="fill:rgb(85,147,206);fill-rule:nonzero;"/>
            <path d="M486.386,238.497L453.667,219.606C451.658,218.447 451.91,216.422 454.229,215.083L485.821,196.844C488.141,195.505 491.648,195.359 493.656,196.519L526.375,215.409C528.383,216.568 528.131,218.594 525.813,219.932L494.22,238.172C491.901,239.511 488.394,239.656 486.386,238.497Z" style="fill:rgb(212,235,250);fill-rule:nonzero;"/>
            <path d="M486.975,235.097L459.556,219.267C457.873,218.295 458.084,216.598 460.027,215.477L486.502,200.19C488.445,199.069 491.385,198.947 493.067,199.919L520.485,215.749C522.169,216.721 521.958,218.417 520.015,219.539L493.539,234.824C491.597,235.946 488.657,236.068 486.975,235.097Z" style="fill:rgb(85,147,206);fill-rule:nonzero;"/>
            <path d="M515.685,231.776C515.685,232.619 515.094,233.644 514.364,234.065C513.635,234.486 513.043,234.145 513.043,233.302C513.043,232.459 513.635,231.435 514.364,231.014C515.094,230.592 515.685,230.934 515.685,231.776Z" style="fill:rgb(212,235,250);fill-rule:nonzero;"/>
            <path d="M519.938,229.321C519.938,230.164 519.346,231.188 518.616,231.61C517.886,232.031 517.294,231.69 517.294,230.848C517.294,230.005 517.886,228.979 518.616,228.559C519.346,228.137 519.938,228.479 519.938,229.321Z" style="fill:rgb(212,235,250);fill-rule:nonzero;"/>
            <path d="M524.189,226.866C524.189,227.709 523.598,228.734 522.867,229.155C522.138,229.577 521.547,229.235 521.547,228.393C521.547,227.55 522.138,226.525 522.867,226.104C523.598,225.683 524.189,226.023 524.189,226.866Z" style="fill:rgb(212,235,250);fill-rule:nonzero;"/>
            <path d="M527.72,210.756L527.72,199.467L502.406,199.452L493.656,194.4C491.648,193.241 488.141,193.387 485.821,194.726L477.658,199.438L452.321,199.425L452.321,211.035C452.265,211.819 452.702,212.577 453.667,213.134L486.386,232.024C488.394,233.184 491.901,233.038 494.22,231.699L525.813,213.46C527.15,212.688 527.795,211.688 527.72,210.756Z" style="fill:rgb(56,109,171);fill-rule:nonzero;"/>
            <path d="M490.021,193.624C488.552,193.66 487.026,194.03 485.821,194.726L477.658,199.438L452.321,199.425L452.321,211.035C452.265,211.819 452.702,212.577 453.667,213.134L486.386,232.024C487.351,232.581 488.662,232.834 490.021,232.801L490.021,193.624Z" style="fill:rgb(56,109,171);fill-rule:nonzero;"/>
            <path d="M455.188,199.426L452.321,199.425L452.321,211.035C452.265,211.819 452.702,212.577 453.667,213.134L455.188,214.013L455.188,199.426Z" style="fill:rgb(85,147,206);fill-rule:nonzero;"/>
            <path d="M486.89,232.271C488.621,233.013 491.127,232.972 493.152,232.199L493.152,219.017L486.89,219.017L486.89,232.271Z" style="fill:rgb(85,147,206);fill-rule:nonzero;"/>
            <path d="M486.386,220.456L453.667,201.565C451.658,200.406 451.91,198.381 454.229,197.042L485.821,178.803C488.141,177.464 491.648,177.318 493.656,178.478L526.375,197.368C528.383,198.527 528.131,200.553 525.813,201.891L494.22,220.131C491.901,221.47 488.394,221.615 486.386,220.456Z" style="fill:rgb(212,235,250);fill-rule:nonzero;"/>
            <path d="M486.975,217.056L459.556,201.226C457.873,200.254 458.084,198.557 460.027,197.436L486.502,182.149C488.445,181.028 491.385,180.906 493.067,181.878L520.485,197.708C522.169,198.68 521.958,200.377 520.015,201.498L493.539,216.783C491.597,217.905 488.657,218.027 486.975,217.056Z" style="fill:rgb(85,147,206);fill-rule:nonzero;"/>
            <path d="M515.685,213.735C515.685,214.578 515.094,215.603 514.364,216.024C513.635,216.445 513.043,216.104 513.043,215.261C513.043,214.419 513.635,213.394 514.364,212.973C515.094,212.551 515.685,212.893 515.685,213.735Z" style="fill:rgb(212,235,250);fill-rule:nonzero;"/>
            <path d="M519.938,211.28C519.938,212.123 519.346,213.147 518.616,213.569C517.886,213.99 517.294,213.649 517.294,212.807C517.294,211.964 517.886,210.938 518.616,210.518C519.346,210.096 519.938,210.438 519.938,211.28Z" style="fill:rgb(212,235,250);fill-rule:nonzero;"/>
            <path d="M524.189,208.825C524.189,209.668 523.598,210.693 522.867,211.114C522.138,211.536 521.547,211.194 521.547,210.352C521.547,209.509 522.138,208.484 522.867,208.063C523.598,207.642 524.189,207.982 524.189,208.825Z" style="fill:rgb(212,235,250);fill-rule:nonzero;"/>
            <path d="M527.72,192.715L527.72,181.426L502.406,181.412L493.656,176.36C491.648,175.2 488.141,175.346 485.821,176.685L477.658,181.397L452.321,181.384L452.321,192.994C452.265,193.779 452.702,194.536 453.667,195.093L486.386,213.983C488.394,215.143 491.901,214.997 494.22,213.658L525.813,195.419C527.15,194.646 527.795,193.646 527.72,192.715Z" style="fill:rgb(56,109,171);fill-rule:nonzero;"/>
            <path d="M490.021,175.583C488.552,175.619 487.026,175.989 485.821,176.685L477.658,181.397L452.321,181.384L452.321,192.994C452.265,193.779 452.702,194.536 453.667,195.093L486.386,213.983C487.351,214.54 488.662,214.793 490.021,214.76L490.021,175.583Z" style="fill:rgb(56,109,171);fill-rule:nonzero;"/>
            <path d="M455.188,181.386L452.321,181.384L452.321,192.994C452.265,193.779 452.702,194.536 453.667,195.093L455.188,195.972L455.188,181.386Z" style="fill:rgb(85,147,206);fill-rule:nonzero;"/>
            <path d="M486.89,214.23C488.621,214.973 491.127,214.931 493.152,214.158L493.152,200.976L486.89,200.976L486.89,214.23Z" style="fill:rgb(85,147,206);fill-rule:nonzero;"/>
            <path d="M486.386,202.415L453.667,183.524C451.658,182.365 451.91,180.34 454.229,179.002L485.821,160.762C488.141,159.423 491.648,159.277 493.656,160.437L526.375,179.327C528.383,180.486 528.131,182.512 525.813,183.85L494.22,202.09C491.901,203.429 488.394,203.574 486.386,202.415Z" style="fill:rgb(212,235,250);fill-rule:nonzero;"/>
            <path d="M525.813,181.628L494.22,199.868C491.901,201.207 488.394,201.353 486.386,200.193L453.667,181.303C453.219,181.044 452.89,180.741 452.665,180.414C451.975,181.524 452.288,182.729 453.667,183.524L486.386,202.415C488.394,203.574 491.901,203.429 494.22,202.09L525.813,183.85C527.614,182.81 528.161,181.356 527.377,180.216C527.062,180.723 526.539,181.209 525.813,181.628Z" style="fill:white;fill-rule:nonzero;"/>
            <path d="M515.685,195.694C515.685,196.537 515.094,197.562 514.364,197.983C513.635,198.404 513.043,198.063 513.043,197.221C513.043,196.378 513.635,195.353 514.364,194.932C515.094,194.51 515.685,194.852 515.685,195.694Z" style="fill:rgb(212,235,250);fill-rule:nonzero;"/>
            <path d="M519.938,193.239C519.938,194.082 519.346,195.107 518.616,195.528C517.886,195.95 517.294,195.608 517.294,194.766C517.294,193.923 517.886,192.897 518.616,192.477C519.346,192.055 519.938,192.396 519.938,193.239Z" style="fill:rgb(212,235,250);fill-rule:nonzero;"/>
            <path d="M524.189,190.784C524.189,191.627 523.598,192.652 522.867,193.073C522.138,193.495 521.547,193.153 521.547,192.311C521.547,191.468 522.138,190.443 522.867,190.021C523.598,189.601 524.189,189.942 524.189,190.784Z" style="fill:rgb(212,235,250);fill-rule:nonzero;"/>
            <path d="M488.32,190.703L473.009,181.863C472.069,181.321 472.188,180.373 473.272,179.747L488.057,171.212C489.142,170.585 490.782,170.517 491.723,171.06L507.033,179.899C507.973,180.441 507.854,181.39 506.77,182.016L491.986,190.551C490.901,191.178 489.26,191.246 488.32,190.703Z" style="fill:rgb(85,147,206);fill-rule:nonzero;"/>
            <path d="M489.786,183.302L487.668,182.079C487.537,182.004 487.554,181.873 487.704,181.786L489.749,180.605C489.899,180.519 490.127,180.509 490.257,180.584L492.375,181.807C492.505,181.882 492.488,182.014 492.339,182.1L490.293,183.281C490.143,183.367 489.916,183.377 489.786,183.302Z" style="fill:rgb(212,235,250);fill-rule:nonzero;"/>
            <path d="M473.01,181.863L473.053,181.889L473.272,181.737L488.057,173.202C489.142,172.575 490.782,172.508 491.723,173.05L506.99,181.864C507.855,181.244 507.901,180.4 507.033,179.899L491.723,171.06C490.782,170.517 489.142,170.585 488.057,171.212L473.272,179.747C472.188,180.373 472.069,181.321 473.01,181.863Z" style="fill:rgb(56,109,171);fill-rule:nonzero;"/>
            <path d="M428.262,312.857L371.791,280.655C369.726,279.463 369.984,277.381 372.369,276.004L404.861,257.244C407.246,255.867 410.853,255.718 412.919,256.91L469.391,289.11C471.456,290.303 471.196,292.386 468.812,293.763L436.319,312.522C433.935,313.898 430.327,314.049 428.262,312.857Z" style="fill:rgb(179,211,235);fill-rule:nonzero;"/>
            <path d="M474.426,278.271L474.426,146.436L422.015,132.718L412.36,127.144C410.146,125.865 406.275,126.025 403.717,127.502L394.71,132.702L366.756,132.687L375.033,259.956C374.97,260.822 375.453,261.658 376.517,262.271L428.82,301.736C431.036,303.016 434.906,302.855 437.464,301.378L472.32,281.254C473.797,280.402 474.509,279.299 474.426,278.271Z" style="fill:rgb(56,109,171);fill-rule:nonzero;"/>
            <path d="M408.351,126.287C406.729,126.326 405.046,126.735 403.717,127.502L394.71,132.702L366.756,132.687L366.756,264.877C366.692,265.743 367.175,266.578 368.239,267.193L428.82,301.736C429.885,302.352 431.332,302.63 432.832,302.594L433.456,169.577L408.351,126.287Z" style="fill:rgb(212,235,250);fill-rule:nonzero;"/>
            <path d="M429.377,302.009C431.287,302.828 434.052,302.782 436.286,301.93L436.286,168.005L429.377,168.005L429.377,302.009Z" style="fill:rgb(85,147,206);fill-rule:nonzero;"/>
            <path d="M428.82,169.593L368.239,135.049C366.024,133.77 366.302,131.535 368.86,130.059L403.717,109.935C406.275,108.457 410.146,108.297 412.36,109.576L472.941,144.119C475.157,145.398 474.879,147.633 472.32,149.11L437.464,169.234C434.906,170.711 431.036,170.872 428.82,169.593Z" style="fill:rgb(212,235,250);fill-rule:nonzero;"/>
            <path d="M472.32,146.659L437.464,166.783C434.906,168.26 431.036,168.421 428.82,167.142L368.239,132.598C367.746,132.313 367.383,131.979 367.135,131.617C366.373,132.842 366.719,134.171 368.239,135.049L428.82,169.593C431.036,170.872 434.906,170.711 437.464,169.234L472.32,149.11C474.309,147.962 474.912,146.359 474.047,145.101C473.699,145.659 473.122,146.196 472.32,146.659Z" style="fill:rgb(251,254,255);fill-rule:nonzero;"/>
            <path d="M430.534,155.593L390.201,132.213C389.164,131.614 389.294,130.568 390.491,129.878L406.803,120.46C407.999,119.769 409.811,119.694 410.848,120.293L451.181,143.673C452.217,144.271 452.087,145.316 450.89,146.008L434.579,155.425C433.382,156.116 431.57,156.191 430.534,155.593Z" style="fill:rgb(31,62,121);fill-rule:nonzero;"/>
            <path d="M408.76,133.263L406.422,131.913C406.278,131.831 406.297,131.686 406.463,131.591L408.719,130.287C408.885,130.191 409.136,130.182 409.278,130.265L411.616,131.613C411.76,131.696 411.741,131.841 411.576,131.937L409.319,133.239C409.153,133.335 408.903,133.346 408.76,133.263Z" style="fill:rgb(212,235,250);fill-rule:nonzero;"/>
            <path d="M416.567,137.753L414.23,136.403C414.087,136.32 414.104,136.176 414.271,136.08L416.527,134.777C416.693,134.682 416.943,134.671 417.087,134.754L419.424,136.104C419.567,136.187 419.55,136.331 419.384,136.427L417.127,137.729C416.962,137.825 416.711,137.835 416.567,137.753Z" style="fill:rgb(212,235,250);fill-rule:nonzero;"/>
            <path d="M424.376,142.242L422.038,140.893C421.895,140.81 421.913,140.665 422.078,140.569L424.335,139.267C424.501,139.171 424.752,139.161 424.895,139.243L427.232,140.593C427.376,140.676 427.357,140.82 427.192,140.916L424.936,142.219C424.77,142.314 424.52,142.325 424.376,142.242Z" style="fill:rgb(212,235,250);fill-rule:nonzero;"/>
            <path d="M432.184,146.731L429.847,145.383C429.703,145.3 429.721,145.155 429.887,145.06L432.144,143.757C432.309,143.661 432.56,143.65 432.703,143.733L435.04,145.083C435.184,145.165 435.166,145.31 435,145.405L432.743,146.709C432.578,146.805 432.327,146.814 432.184,146.731Z" style="fill:rgb(212,235,250);fill-rule:nonzero;"/>
            <path d="M390.201,132.213L390.249,132.24C390.327,132.184 390.4,132.126 390.491,132.073L406.803,122.656C408,121.965 409.811,121.89 410.848,122.488L451.133,145.841C452.088,145.157 452.139,144.226 451.181,143.673L410.848,120.293C409.811,119.694 408,119.769 406.803,120.46L390.491,129.877C389.294,130.568 389.164,131.614 390.201,132.213Z" style="fill:rgb(85,147,206);fill-rule:nonzero;"/>
            <path d="M444.27,195.712L467.202,182.583C468.492,181.838 469.539,179.839 469.539,178.118L469.539,169.917C469.539,168.196 468.492,167.406 467.202,168.15L444.27,181.28C442.979,182.025 441.934,184.024 441.934,185.745L441.934,193.946C441.934,195.667 442.979,196.457 444.27,195.712Z" style="fill:rgb(31,62,121);fill-rule:nonzero;"/>
            <path d="M468.337,167.903C468.698,168.243 468.924,168.823 468.924,169.609L468.924,177.811C468.924,179.531 467.878,181.53 466.587,182.275L443.655,195.405C443.241,195.645 442.857,195.71 442.52,195.652C442.948,196.056 443.569,196.117 444.27,195.713L467.202,182.583C468.492,181.838 469.539,179.839 469.539,178.118L469.539,169.917C469.539,168.749 469.051,168.025 468.337,167.903Z" style="fill:white;fill-rule:nonzero;"/>
            <path d="M451.167,186.804L453.271,185.589C453.552,185.427 453.78,184.991 453.78,184.616L453.78,182.369C453.78,181.994 453.552,181.822 453.271,181.984L451.167,183.198C450.886,183.361 450.658,183.797 450.658,184.172L450.658,186.419C450.658,186.794 450.886,186.966 451.167,186.804Z" style="fill:rgb(56,109,171);fill-rule:nonzero;"/>
            <path d="M458.201,182.743L460.305,181.528C460.586,181.366 460.814,180.93 460.814,180.555L460.814,178.309C460.814,177.934 460.586,177.761 460.305,177.923L458.201,179.138C457.92,179.3 457.691,179.735 457.691,180.11L457.691,182.357C457.691,182.732 457.92,182.905 458.201,182.743Z" style="fill:white;fill-rule:nonzero;"/>
            <path d="M444.27,254.973L467.202,241.843C468.492,241.098 469.539,239.099 469.539,237.378L469.539,229.178C469.539,227.457 468.492,226.666 467.202,227.411L444.27,240.541C442.979,241.286 441.934,243.285 441.934,245.006L441.934,253.206C441.934,254.927 442.979,255.718 444.27,254.973Z" style="fill:rgb(31,62,121);fill-rule:nonzero;"/>
            <path d="M468.337,227.164C468.698,227.504 468.924,228.083 468.924,228.87L468.924,237.07C468.924,238.791 467.878,240.79 466.587,241.535L443.655,254.665C443.241,254.904 442.857,254.97 442.52,254.912C442.948,255.316 443.569,255.377 444.27,254.973L467.202,241.843C468.492,241.098 469.539,239.099 469.539,237.378L469.539,229.178C469.539,228.009 469.051,227.285 468.337,227.164Z" style="fill:white;fill-rule:nonzero;"/>
            <path d="M451.167,246.064L453.271,244.85C453.552,244.688 453.78,244.251 453.78,243.876L453.78,241.629C453.78,241.254 453.552,241.082 453.271,241.244L451.167,242.459C450.886,242.621 450.658,243.057 450.658,243.432L450.658,245.679C450.658,246.054 450.886,246.227 451.167,246.064Z" style="fill:rgb(56,109,171);fill-rule:nonzero;"/>
            <path d="M458.201,242.003L460.305,240.788C460.586,240.626 460.814,240.19 460.814,239.815L460.814,237.568C460.814,237.193 460.586,237.021 460.305,237.184L458.201,238.397C457.92,238.561 457.691,238.996 457.691,239.371L457.691,241.618C457.691,241.993 457.92,242.165 458.201,242.003Z" style="fill:rgb(56,109,171);fill-rule:nonzero;"/>
            <path d="M444.27,284.603L467.202,271.473C468.492,270.728 469.539,268.729 469.539,267.009L469.539,258.809C469.539,257.087 468.492,256.296 467.202,257.041L444.27,270.171C442.979,270.916 441.934,272.915 441.934,274.636L441.934,282.836C441.934,284.557 442.979,285.348 444.27,284.603Z" style="fill:rgb(31,62,121);fill-rule:nonzero;"/>
            <path d="M468.337,256.794C468.698,257.134 468.924,257.714 468.924,258.5L468.924,266.701C468.924,268.422 467.878,270.42 466.587,271.165L443.655,284.295C443.241,284.534 442.857,284.6 442.52,284.542C442.948,284.946 443.569,285.007 444.27,284.603L467.202,271.473C468.492,270.728 469.539,268.729 469.539,267.009L469.539,258.809C469.539,257.641 469.051,256.916 468.337,256.794Z" style="fill:white;fill-rule:nonzero;"/>
            <path d="M451.167,275.694L453.271,274.479C453.552,274.317 453.78,273.882 453.78,273.507L453.78,271.26C453.78,270.885 453.552,270.712 453.271,270.874L451.167,272.089C450.886,272.251 450.658,272.688 450.658,273.063L450.658,275.309C450.658,275.685 450.886,275.856 451.167,275.694Z" style="fill:white;fill-rule:nonzero;"/>
            <path d="M458.201,271.633L460.305,270.419C460.586,270.256 460.814,269.82 460.814,269.445L460.814,267.198C460.814,266.823 460.586,266.651 460.305,266.813L458.201,268.028C457.92,268.19 457.691,268.626 457.691,269.001L457.691,271.248C457.691,271.623 457.92,271.796 458.201,271.633Z" style="fill:rgb(56,109,171);fill-rule:nonzero;"/>
            <path d="M444.27,225.343L467.202,212.213C468.492,211.468 469.539,209.469 469.539,207.748L469.539,199.548C469.539,197.827 468.492,197.036 467.202,197.781L444.27,210.911C442.979,211.656 441.934,213.654 441.934,215.375L441.934,223.576C441.934,225.297 442.979,226.088 444.27,225.343Z" style="fill:rgb(31,62,121);fill-rule:nonzero;"/>
            <path d="M468.337,197.534C468.698,197.874 468.924,198.453 468.924,199.24L468.924,207.44C468.924,209.161 467.878,211.16 466.587,211.905L443.655,225.035C443.241,225.274 442.857,225.34 442.52,225.282C442.948,225.686 443.569,225.747 444.27,225.343L467.202,212.213C468.492,211.468 469.539,209.469 469.539,207.748L469.539,199.547C469.539,198.379 469.051,197.655 468.337,197.534Z" style="fill:white;fill-rule:nonzero;"/>
            <path d="M451.167,216.434L453.271,215.22C453.552,215.057 453.78,214.621 453.78,214.246L453.78,211.999C453.78,211.624 453.552,211.452 453.271,211.614L451.167,212.829C450.886,212.991 450.658,213.427 450.658,213.802L450.658,216.049C450.658,216.424 450.886,216.597 451.167,216.434Z" style="fill:white;fill-rule:nonzero;"/>
            <path d="M458.201,212.373L460.305,211.158C460.586,210.996 460.814,210.561 460.814,210.186L460.814,207.938C460.814,207.563 460.586,207.391 460.305,207.554L458.201,208.768C457.92,208.93 457.691,209.366 457.691,209.741L457.691,211.988C457.691,212.363 457.92,212.535 458.201,212.373Z" style="fill:white;fill-rule:nonzero;"/>
            <path d="M424.407,187.317L371.501,156.772C370.316,156.088 369.356,154.254 369.356,152.675L369.356,142.587C369.356,141.008 370.316,140.282 371.501,140.966L424.407,171.512C425.592,172.195 426.552,174.029 426.552,175.608L426.552,185.696C426.552,187.275 425.592,188.001 424.407,187.317Z" style="fill:rgb(85,147,206);fill-rule:nonzero;"/>
            <path d="M423.32,183.911C423.188,183.911 423.042,183.869 422.889,183.78L373.02,154.988C372.419,154.642 371.932,153.711 371.932,152.91L371.932,145.325C371.932,144.729 372.202,144.372 372.588,144.372C372.72,144.372 372.866,144.414 373.02,144.503L422.889,173.295C423.489,173.642 423.977,174.572 423.977,175.374L423.977,182.958C423.977,183.554 423.706,183.911 423.32,183.911Z" style="fill:rgb(138,183,226);fill-rule:nonzero;"/>
            <path d="M383.412,157.154L375.97,152.857C375.387,152.521 374.914,151.617 374.914,150.839C374.914,150.062 375.387,149.704 375.97,150.041L383.412,154.338C383.996,154.674 384.469,155.578 384.469,156.355C384.469,157.134 383.996,157.491 383.412,157.154Z" style="fill:rgb(212,235,250);fill-rule:nonzero;"/>
            <path d="M389.755,159.407C389.755,160.186 389.208,160.501 388.535,160.111C387.861,159.723 387.314,158.777 387.314,157.999C387.314,157.221 387.861,156.906 388.535,157.295C389.208,157.684 389.755,158.63 389.755,159.407Z" style="fill:rgb(31,62,121);fill-rule:nonzero;"/>
            <path d="M394.058,161.892C394.058,162.67 393.512,162.985 392.838,162.597C392.164,162.207 391.618,161.262 391.618,160.483C391.618,159.706 392.164,159.391 392.838,159.779C393.512,160.168 394.058,161.114 394.058,161.892Z" style="fill:rgb(31,62,121);fill-rule:nonzero;"/>
            <path d="M398.361,164.376C398.361,165.154 397.814,165.47 397.141,165.081C396.468,164.691 395.921,163.746 395.921,162.968C395.921,162.19 396.468,161.875 397.141,162.264C397.814,162.652 398.361,163.599 398.361,164.376Z" style="fill:rgb(212,235,250);fill-rule:nonzero;"/>
            <path d="M402.664,166.861C402.664,167.639 402.118,167.954 401.444,167.565C400.771,167.176 400.225,166.23 400.225,165.452C400.225,164.675 400.771,164.359 401.444,164.748C402.118,165.137 402.664,166.083 402.664,166.861Z" style="fill:rgb(31,62,121);fill-rule:nonzero;"/>
            <path d="M420.791,179.557L418.284,178.109C417.91,177.894 417.606,177.313 417.606,176.814L417.606,174.162C417.606,173.662 417.91,173.434 418.284,173.649L420.791,175.097C421.166,175.313 421.47,175.893 421.47,176.392L421.47,179.044C421.47,179.543 421.166,179.772 420.791,179.557Z" style="fill:rgb(31,62,121);fill-rule:nonzero;"/>
            <path d="M424.407,205.107L371.501,174.562C370.316,173.878 369.356,172.044 369.356,170.465L369.356,160.377C369.356,158.798 370.316,158.072 371.501,158.756L424.407,189.302C425.592,189.985 426.552,191.819 426.552,193.398L426.552,203.486C426.552,205.065 425.592,205.791 424.407,205.107Z" style="fill:rgb(85,147,206);fill-rule:nonzero;"/>
            <path d="M423.32,201.701C423.188,201.701 423.042,201.659 422.889,201.57L373.02,172.778C372.419,172.432 371.932,171.501 371.932,170.7L371.932,163.115C371.932,162.519 372.202,162.163 372.588,162.163C372.72,162.163 372.866,162.204 373.02,162.293L422.889,191.085C423.489,191.432 423.977,192.362 423.977,193.163L423.977,200.748C423.977,201.344 423.706,201.701 423.32,201.701Z" style="fill:rgb(138,183,226);fill-rule:nonzero;"/>
            <path d="M383.412,174.944L375.97,170.647C375.387,170.311 374.914,169.407 374.914,168.629C374.914,167.852 375.387,167.494 375.97,167.83L383.412,172.127C383.996,172.464 384.469,173.368 384.469,174.146C384.469,174.924 383.996,175.281 383.412,174.944Z" style="fill:rgb(212,235,250);fill-rule:nonzero;"/>
            <path d="M389.755,177.197C389.755,177.976 389.208,178.291 388.535,177.901C387.861,177.513 387.314,176.566 387.314,175.789C387.314,175.011 387.861,174.696 388.535,175.085C389.208,175.474 389.755,176.42 389.755,177.197Z" style="fill:white;fill-rule:nonzero;"/>
            <path d="M394.058,179.682C394.058,180.46 393.512,180.775 392.838,180.386C392.164,179.997 391.618,179.052 391.618,178.273C391.618,177.495 392.164,177.181 392.838,177.569C393.512,177.958 394.058,178.904 394.058,179.682Z" style="fill:rgb(31,62,121);fill-rule:nonzero;"/>
            <path d="M398.361,182.166C398.361,182.944 397.814,183.26 397.141,182.87C396.468,182.481 395.921,181.536 395.921,180.758C395.921,179.98 396.468,179.665 397.141,180.054C397.814,180.442 398.361,181.389 398.361,182.166Z" style="fill:rgb(212,235,250);fill-rule:nonzero;"/>
            <path d="M402.664,184.65C402.664,185.429 402.118,185.744 401.444,185.355C400.771,184.966 400.225,184.021 400.225,183.242C400.225,182.465 400.771,182.149 401.444,182.538C402.118,182.927 402.664,183.873 402.664,184.65Z" style="fill:rgb(31,62,121);fill-rule:nonzero;"/>
            <path d="M420.791,197.347L418.284,195.899C417.91,195.684 417.606,195.104 417.606,194.604L417.606,191.952C417.606,191.452 417.91,191.223 418.284,191.439L420.791,192.887C421.166,193.103 421.47,193.683 421.47,194.182L421.47,196.834C421.47,197.333 421.166,197.563 420.791,197.347Z" style="fill:rgb(31,62,121);fill-rule:nonzero;"/>
            <path d="M424.407,222.897L371.501,192.352C370.316,191.668 369.356,189.834 369.356,188.255L369.356,178.167C369.356,176.588 370.316,175.862 371.501,176.546L424.407,207.092C425.592,207.775 426.552,209.609 426.552,211.188L426.552,221.276C426.552,222.855 425.592,223.581 424.407,222.897Z" style="fill:rgb(85,147,206);fill-rule:nonzero;"/>
            <path d="M423.32,219.491C423.188,219.491 423.042,219.449 422.889,219.36L373.02,190.568C372.419,190.222 371.932,189.291 371.932,188.489L371.932,180.905C371.932,180.309 372.202,179.953 372.588,179.953C372.72,179.953 372.866,179.994 373.02,180.083L422.889,208.875C423.489,209.222 423.977,210.152 423.977,210.953L423.977,218.538C423.977,219.134 423.706,219.491 423.32,219.491Z" style="fill:rgb(138,183,226);fill-rule:nonzero;"/>
            <path d="M383.412,192.734L375.97,188.438C375.387,188.101 374.914,187.197 374.914,186.419C374.914,185.642 375.387,185.283 375.97,185.62L383.412,189.917C383.996,190.254 384.469,191.158 384.469,191.936C384.469,192.714 383.996,193.071 383.412,192.734Z" style="fill:rgb(212,235,250);fill-rule:nonzero;"/>
            <path d="M389.755,194.987C389.755,195.766 389.208,196.081 388.535,195.691C387.861,195.303 387.314,194.356 387.314,193.579C387.314,192.801 387.861,192.485 388.535,192.875C389.208,193.264 389.755,194.21 389.755,194.987Z" style="fill:white;fill-rule:nonzero;"/>
            <path d="M394.058,197.472C394.058,198.25 393.512,198.565 392.838,198.176C392.164,197.787 391.618,196.841 391.618,196.063C391.618,195.285 392.164,194.97 392.838,195.359C393.512,195.748 394.058,196.694 394.058,197.472Z" style="fill:rgb(31,62,121);fill-rule:nonzero;"/>
            <path d="M398.361,199.956C398.361,200.734 397.814,201.05 397.141,200.66C396.468,200.271 395.921,199.325 395.921,198.548C395.921,197.77 396.468,197.455 397.141,197.844C397.814,198.232 398.361,199.179 398.361,199.956Z" style="fill:rgb(212,235,250);fill-rule:nonzero;"/>
            <path d="M402.664,202.44C402.664,203.219 402.118,203.534 401.444,203.145C400.771,202.756 400.225,201.811 400.225,201.032C400.225,200.254 400.771,199.939 401.444,200.328C402.118,200.717 402.664,201.663 402.664,202.44Z" style="fill:rgb(31,62,121);fill-rule:nonzero;"/>
            <path d="M420.791,215.137L418.284,213.689C417.91,213.473 417.606,212.894 417.606,212.394L417.606,209.741C417.606,209.242 417.91,209.013 418.284,209.229L420.791,210.677C421.166,210.893 421.47,211.473 421.47,211.972L421.47,214.624C421.47,215.123 421.166,215.353 420.791,215.137Z" style="fill:rgb(31,62,121);fill-rule:nonzero;"/>
            <path d="M424.407,240.688L371.501,210.142C370.316,209.458 369.356,207.624 369.356,206.045L369.356,195.957C369.356,194.378 370.316,193.652 371.501,194.336L424.407,224.881C425.592,225.565 426.552,227.399 426.552,228.979L426.552,239.066C426.552,240.645 425.592,241.371 424.407,240.688Z" style="fill:rgb(85,147,206);fill-rule:nonzero;"/>
            <path d="M423.32,237.281C423.188,237.281 423.042,237.239 422.889,237.15L373.02,208.358C372.419,208.012 371.932,207.081 371.932,206.279L371.932,198.695C371.932,198.099 372.202,197.743 372.588,197.743C372.72,197.743 372.866,197.784 373.02,197.873L422.889,226.665C423.489,227.012 423.977,227.942 423.977,228.743L423.977,236.328C423.977,236.924 423.706,237.281 423.32,237.281Z" style="fill:rgb(138,183,226);fill-rule:nonzero;"/>
            <path d="M383.412,210.524L375.97,206.228C375.387,205.891 374.914,204.987 374.914,204.209C374.914,203.431 375.387,203.073 375.97,203.41L383.412,207.707C383.996,208.044 384.469,208.947 384.469,209.726C384.469,210.504 383.996,210.861 383.412,210.524Z" style="fill:rgb(212,235,250);fill-rule:nonzero;"/>
            <path d="M389.755,212.777C389.755,213.556 389.208,213.87 388.535,213.481C387.861,213.093 387.314,212.146 387.314,211.369C387.314,210.591 387.861,210.275 388.535,210.665C389.208,211.054 389.755,211.999 389.755,212.777Z" style="fill:rgb(31,62,121);fill-rule:nonzero;"/>
            <path d="M394.058,215.262C394.058,216.04 393.512,216.354 392.838,215.966C392.164,215.577 391.618,214.631 391.618,213.854C391.618,213.075 392.164,212.76 392.838,213.149C393.512,213.538 394.058,214.484 394.058,215.262Z" style="fill:rgb(31,62,121);fill-rule:nonzero;"/>
            <path d="M398.361,217.746C398.361,218.524 397.814,218.84 397.141,218.45C396.468,218.062 395.921,217.115 395.921,216.338C395.921,215.56 396.468,215.244 397.141,215.634C397.814,216.022 398.361,216.969 398.361,217.746Z" style="fill:rgb(212,235,250);fill-rule:nonzero;"/>
            <path d="M402.664,220.23C402.664,221.009 402.118,221.324 401.444,220.935C400.771,220.546 400.225,219.6 400.225,218.822C400.225,218.044 400.771,217.729 401.444,218.118C402.118,218.507 402.664,219.453 402.664,220.23Z" style="fill:rgb(31,62,121);fill-rule:nonzero;"/>
            <path d="M420.791,232.927L418.284,231.479C417.91,231.263 417.606,230.684 417.606,230.184L417.606,227.531C417.606,227.032 417.91,226.803 418.284,227.02L420.791,228.467C421.166,228.683 421.47,229.263 421.47,229.762L421.47,232.414C421.47,232.913 421.166,233.143 420.791,232.927Z" style="fill:rgb(212,235,250);fill-rule:nonzero;"/>
            <path d="M424.407,258.477L371.501,227.932C370.316,227.248 369.356,225.414 369.356,223.835L369.356,213.746C369.356,212.168 370.316,211.441 371.501,212.126L424.407,242.671C425.592,243.355 426.552,245.189 426.552,246.768L426.552,256.856C426.552,258.436 425.592,259.162 424.407,258.477Z" style="fill:rgb(85,147,206);fill-rule:nonzero;"/>
            <path d="M423.32,255.071C423.188,255.071 423.042,255.029 422.889,254.94L373.02,226.148C372.419,225.801 371.932,224.871 371.932,224.069L371.932,216.485C371.932,215.889 372.202,215.533 372.588,215.533C372.72,215.533 372.866,215.575 373.02,215.663L422.889,244.455C423.489,244.802 423.977,245.732 423.977,246.533L423.977,254.117C423.977,254.714 423.706,255.071 423.32,255.071Z" style="fill:rgb(138,183,226);fill-rule:nonzero;"/>
            <path d="M383.412,228.314L375.97,224.018C375.387,223.681 374.914,222.776 374.914,221.999C374.914,221.221 375.387,220.863 375.97,221.2L383.412,225.497C383.996,225.834 384.469,226.737 384.469,227.516C384.469,228.293 383.996,228.651 383.412,228.314Z" style="fill:rgb(212,235,250);fill-rule:nonzero;"/>
            <path d="M389.755,230.567C389.755,231.345 389.208,231.66 388.535,231.271C387.861,230.883 387.314,229.937 387.314,229.159C387.314,228.381 387.861,228.065 388.535,228.455C389.208,228.844 389.755,229.789 389.755,230.567Z" style="fill:rgb(31,62,121);fill-rule:nonzero;"/>
            <path d="M394.058,233.052C394.058,233.83 393.512,234.145 392.838,233.756C392.164,233.367 391.618,232.421 391.618,231.644C391.618,230.865 392.164,230.55 392.838,230.939C393.512,231.328 394.058,232.273 394.058,233.052Z" style="fill:white;fill-rule:nonzero;"/>
            <path d="M398.361,235.536C398.361,236.314 397.814,236.629 397.141,236.24C396.468,235.852 395.921,234.905 395.921,234.128C395.921,233.35 396.468,233.034 397.141,233.424C397.814,233.813 398.361,234.759 398.361,235.536Z" style="fill:rgb(212,235,250);fill-rule:nonzero;"/>
            <path d="M402.664,238.021C402.664,238.799 402.118,239.114 401.444,238.725C400.771,238.336 400.225,237.39 400.225,236.612C400.225,235.834 400.771,235.519 401.444,235.908C402.118,236.297 402.664,237.243 402.664,238.021Z" style="fill:white;fill-rule:nonzero;"/>
            <path d="M420.791,250.717L418.284,249.27C417.91,249.053 417.606,248.473 417.606,247.974L417.606,245.321C417.606,244.822 417.91,244.593 418.284,244.809L420.791,246.257C421.166,246.473 421.47,247.053 421.47,247.552L421.47,250.204C421.47,250.703 421.166,250.933 420.791,250.717Z" style="fill:rgb(212,235,250);fill-rule:nonzero;"/>
            <path d="M424.407,276.268L371.501,245.722C370.316,245.038 369.356,243.204 369.356,241.625L369.356,231.536C369.356,229.958 370.316,229.231 371.501,229.915L424.407,260.461C425.592,261.145 426.552,262.98 426.552,264.558L426.552,274.646C426.552,276.226 425.592,276.951 424.407,276.268Z" style="fill:rgb(85,147,206);fill-rule:nonzero;"/>
            <path d="M423.321,272.86C423.188,272.86 423.042,272.818 422.889,272.729L373.02,243.939C372.419,243.591 371.932,242.66 371.932,241.859L371.932,234.275C371.932,233.679 372.202,233.322 372.588,233.322C372.72,233.322 372.866,233.364 373.02,233.453L422.889,262.245C423.489,262.592 423.977,263.522 423.977,264.323L423.977,271.907C423.977,272.504 423.707,272.86 423.321,272.86Z" style="fill:rgb(138,183,226);fill-rule:nonzero;"/>
            <path d="M383.412,246.104L375.97,241.808C375.387,241.471 374.914,240.566 374.914,239.789C374.914,239.011 375.387,238.653 375.97,238.99L383.412,243.287C383.996,243.624 384.469,244.527 384.469,245.306C384.469,246.083 383.996,246.44 383.412,246.104Z" style="fill:rgb(212,235,250);fill-rule:nonzero;"/>
            <path d="M389.755,248.357C389.755,249.135 389.208,249.45 388.535,249.062C387.861,248.673 387.314,247.727 387.314,246.949C387.314,246.171 387.861,245.855 388.535,246.244C389.208,246.634 389.755,247.579 389.755,248.357Z" style="fill:rgb(31,62,121);fill-rule:nonzero;"/>
            <path d="M394.058,250.842C394.058,251.619 393.512,251.935 392.838,251.546C392.164,251.157 391.618,250.211 391.618,249.434C391.618,248.655 392.164,248.34 392.838,248.729C393.512,249.118 394.058,250.063 394.058,250.842Z" style="fill:rgb(31,62,121);fill-rule:nonzero;"/>
            <path d="M398.361,253.326C398.361,254.104 397.814,254.419 397.141,254.03C396.468,253.642 395.921,252.695 395.921,251.918C395.921,251.14 396.468,250.824 397.141,251.214C397.814,251.603 398.361,252.548 398.361,253.326Z" style="fill:rgb(212,235,250);fill-rule:nonzero;"/>
            <path d="M402.664,255.811C402.664,256.589 402.118,256.904 401.444,256.516C400.771,256.126 400.225,255.18 400.225,254.402C400.225,253.624 400.771,253.309 401.444,253.698C402.118,254.087 402.664,255.032 402.664,255.811Z" style="fill:rgb(31,62,121);fill-rule:nonzero;"/>
            <path d="M420.791,268.507L418.284,267.06C417.91,266.843 417.606,266.263 417.606,265.764L417.606,263.111C417.606,262.612 417.91,262.383 418.284,262.599L420.791,264.046C421.166,264.263 421.47,264.843 421.47,265.342L421.47,267.994C421.47,268.493 421.166,268.723 420.791,268.507Z" style="fill:rgb(31,62,121);fill-rule:nonzero;"/>
            <path d="M424.407,294.058L371.501,263.512C370.316,262.828 369.356,260.994 369.356,259.416L369.356,249.326C369.356,247.747 370.316,247.021 371.501,247.705L424.407,278.251C425.592,278.934 426.552,280.768 426.552,282.348L426.552,292.436C426.552,294.016 425.592,294.741 424.407,294.058Z" style="fill:rgb(85,147,206);fill-rule:nonzero;"/>
            <path d="M423.321,290.65C423.188,290.65 423.042,290.608 422.889,290.52L373.02,261.728C372.419,261.382 371.932,260.451 371.932,259.649L371.932,252.065C371.932,251.469 372.202,251.112 372.587,251.112C372.72,251.112 372.866,251.154 373.02,251.243L422.889,280.035C423.489,280.382 423.977,281.313 423.977,282.113L423.977,289.697C423.977,290.294 423.707,290.65 423.321,290.65Z" style="fill:rgb(138,183,226);fill-rule:nonzero;"/>
            <path d="M383.412,263.894L375.97,259.597C375.387,259.261 374.914,258.356 374.914,257.58C374.914,256.801 375.387,256.443 375.97,256.78L383.412,261.077C383.996,261.414 384.469,262.317 384.469,263.096C384.469,263.873 383.996,264.23 383.412,263.894Z" style="fill:rgb(212,235,250);fill-rule:nonzero;"/>
            <path d="M389.755,266.147C389.755,266.925 389.208,267.24 388.535,266.852C387.861,266.463 387.314,265.517 387.314,264.738C387.314,263.961 387.861,263.646 388.535,264.034C389.208,264.424 389.755,265.369 389.755,266.147Z" style="fill:white;fill-rule:nonzero;"/>
            <path d="M394.058,268.632C394.058,269.409 393.512,269.725 392.838,269.336C392.164,268.947 391.618,268.001 391.618,267.223C391.618,266.445 392.164,266.13 392.838,266.519C393.512,266.908 394.058,267.854 394.058,268.632Z" style="fill:rgb(31,62,121);fill-rule:nonzero;"/>
            <path d="M398.361,271.116C398.361,271.894 397.814,272.209 397.141,271.82C396.468,271.432 395.921,270.485 395.921,269.708C395.921,268.93 396.468,268.614 397.141,269.003C397.814,269.393 398.361,270.338 398.361,271.116Z" style="fill:rgb(212,235,250);fill-rule:nonzero;"/>
            <path d="M402.664,273.601C402.664,274.378 402.118,274.693 401.444,274.305C400.771,273.916 400.225,272.97 400.225,272.192C400.225,271.414 400.771,271.099 401.444,271.488C402.118,271.877 402.664,272.822 402.664,273.601Z" style="fill:rgb(31,62,121);fill-rule:nonzero;"/>
            <path d="M420.791,286.296L418.284,284.849C417.91,284.633 417.606,284.053 417.606,283.554L417.606,280.901C417.606,280.402 417.91,280.173 418.284,280.389L420.791,281.836C421.166,282.053 421.47,282.633 421.47,283.132L421.47,285.784C421.47,286.283 421.166,286.513 420.791,286.296Z" style="fill:rgb(212,235,250);fill-rule:nonzero;"/>
            <path d="M409.02,132.011C408.578,132.011 408.221,131.653 408.221,131.212L408.221,98.325C408.221,97.883 408.578,97.526 409.02,97.526C409.461,97.526 409.818,97.883 409.818,98.325L409.818,131.212C409.818,131.653 409.461,132.011 409.02,132.011Z" style="fill:rgb(85,147,206);fill-rule:nonzero;"/>
            <rect x="406.162" y="96.256" width="5.714" height="12.33" style="fill:rgb(85,147,206);fill-rule:nonzero;"/>
            <path d="M411.039,109.752C409.924,110.396 408.114,110.396 406.999,109.752C405.884,109.107 405.883,108.063 406.999,107.419C408.114,106.775 409.924,106.775 411.039,107.419C412.155,108.063 412.155,109.107 411.039,109.752Z" style="fill:rgb(85,147,206);fill-rule:nonzero;"/>
            <rect x="404.39" y="79.072" width="9.258" height="19.339" style="fill:rgb(85,147,206);fill-rule:nonzero;"/>
            <path d="M406.162,98.285L406.162,102.457C407.839,103.223 410.199,103.223 411.876,102.457L411.876,98.285C410.199,97.519 407.839,97.519 406.162,98.285Z" style="fill:rgb(56,109,171);fill-rule:nonzero;"/>
            <path d="M412.293,100.3C410.484,101.344 407.554,101.344 405.746,100.3C403.938,99.256 403.938,97.564 405.745,96.52C407.554,95.477 410.484,95.477 412.293,96.52C414.101,97.564 414.101,99.256 412.293,100.3Z" style="fill:rgb(85,147,206);fill-rule:nonzero;"/>
            <path d="M416.827,136.673C416.386,136.673 416.028,136.315 416.028,135.874L416.028,102.986C416.028,102.545 416.386,102.188 416.827,102.188C417.269,102.188 417.626,102.545 417.626,102.986L417.626,135.874C417.626,136.315 417.269,136.673 416.827,136.673Z" style="fill:rgb(85,147,206);fill-rule:nonzero;"/>
            <rect x="413.971" y="100.918" width="5.713" height="12.33" style="fill:rgb(85,147,206);fill-rule:nonzero;"/>
            <path d="M418.848,114.414C417.731,115.059 415.923,115.059 414.807,114.414C413.691,113.771 413.691,112.726 414.807,112.082C415.923,111.438 417.731,111.438 418.848,112.082C419.963,112.726 419.963,113.771 418.848,114.414Z" style="fill:rgb(85,147,206);fill-rule:nonzero;"/>
            <rect x="412.198" y="83.735" width="9.259" height="19.337" style="fill:rgb(85,147,206);fill-rule:nonzero;"/>
            <path d="M413.971,102.946L413.971,107.119C415.647,107.885 418.008,107.886 419.685,107.119L419.685,102.946C418.008,102.181 415.647,102.181 413.971,102.946Z" style="fill:rgb(56,109,171);fill-rule:nonzero;"/>
            <path d="M420.101,104.962C418.293,106.006 415.361,106.006 413.554,104.962C411.746,103.918 411.746,102.227 413.554,101.183C415.361,100.139 418.293,100.139 420.101,101.183C421.908,102.227 421.908,103.919 420.101,104.962Z" style="fill:rgb(85,147,206);fill-rule:nonzero;"/>
            <path d="M424.636,141.336C424.194,141.336 423.837,140.979 423.837,140.537L423.837,107.649C423.837,107.208 424.194,106.851 424.636,106.851C425.077,106.851 425.435,107.208 425.435,107.649L425.435,140.537C425.435,140.979 425.077,141.336 424.636,141.336Z" style="fill:rgb(85,147,206);fill-rule:nonzero;"/>
            <rect x="421.778" y="105.581" width="5.714" height="12.329" style="fill:rgb(85,147,206);fill-rule:nonzero;"/>
            <path d="M426.655,119.077C425.54,119.721 423.73,119.721 422.615,119.077C421.499,118.433 421.499,117.389 422.615,116.744C423.73,116.1 425.54,116.1 426.655,116.744C427.771,117.389 427.771,118.433 426.655,119.077Z" style="fill:rgb(85,147,206);fill-rule:nonzero;"/>
            <rect x="420.006" y="88.397" width="9.259" height="19.337" style="fill:rgb(85,147,206);fill-rule:nonzero;"/>
            <path d="M421.778,107.609L421.778,111.781C423.455,112.548 425.815,112.548 427.492,111.782L427.492,107.609C425.815,106.843 423.455,106.843 421.778,107.609Z" style="fill:rgb(56,109,171);fill-rule:nonzero;"/>
            <path d="M427.909,109.625C426.101,110.669 423.17,110.668 421.362,109.625C419.554,108.581 419.554,106.889 421.361,105.845C423.17,104.801 426.101,104.801 427.909,105.845C429.717,106.889 429.717,108.581 427.909,109.625Z" style="fill:rgb(85,147,206);fill-rule:nonzero;"/>
            <path d="M432.443,145.998C432.002,145.998 431.645,145.641 431.645,145.199L431.645,112.312C431.645,111.87 432.002,111.513 432.443,111.513C432.885,111.513 433.242,111.87 433.242,112.312L433.242,145.199C433.242,145.641 432.885,145.998 432.443,145.998Z" style="fill:rgb(85,147,206);fill-rule:nonzero;"/>
            <rect x="429.587" y="110.243" width="5.713" height="12.33" style="fill:rgb(85,147,206);fill-rule:nonzero;"/>
            <path d="M434.464,123.739C433.348,124.384 431.539,124.384 430.423,123.739C429.308,123.095 429.308,122.051 430.423,121.406C431.539,120.763 433.348,120.763 434.464,121.406C435.579,122.051 435.579,123.095 434.464,123.739Z" style="fill:rgb(85,147,206);fill-rule:nonzero;"/>
            <rect x="427.814" y="93.059" width="9.259" height="19.338" style="fill:rgb(85,147,206);fill-rule:nonzero;"/>
            <path d="M429.587,112.271L429.587,116.444C431.264,117.21 433.624,117.21 435.301,116.444L435.301,112.271C433.624,111.506 431.263,111.506 429.587,112.271Z" style="fill:rgb(56,109,171);fill-rule:nonzero;"/>
            <path d="M435.717,114.287C433.909,115.331 430.978,115.331 429.17,114.287C427.362,113.243 427.362,111.551 429.17,110.507C430.978,109.464 433.909,109.464 435.717,110.507C437.524,111.551 437.524,113.243 435.717,114.287Z" style="fill:rgb(85,147,206);fill-rule:nonzero;"/>
            <path d="M468.732,128.415L481.146,121.104L469.323,106.348L466.215,111.426L468.732,128.415Z" style="fill:rgb(85,147,206);fill-rule:nonzero;"/>
            <path d="M378.593,47.43L398.405,36.031L397.66,47.43L386.278,50.956L378.593,47.43Z" style="fill:rgb(85,147,206);fill-rule:nonzero;"/>
            <path d="M472.183,91.31C470.675,90.439 469.235,89.931 467.896,89.721C465.898,79.222 458.593,68.074 449.883,63.044C447.263,61.532 444.771,60.724 442.512,60.55C441.322,47.825 432.475,33.364 421.73,27.161C416.118,23.92 411.025,23.537 407.269,25.521L407.269,25.511L407.087,25.617C406.991,25.669 406.896,25.724 406.802,25.781L395.118,32.681L399,35.747C395.516,37.27 393.313,41.178 393.313,46.956C393.313,57.61 400.793,70.564 410.02,75.891L472.183,120.28C479.111,124.28 484.728,121.038 484.728,113.038C484.728,105.037 479.111,95.31 472.183,91.31Z" style="fill:rgb(85,147,206);fill-rule:nonzero;"/>
            <path d="M393.89,42.265L420.704,26.597C415.499,23.883 410.796,23.659 407.269,25.521L407.269,25.511L407.087,25.617C406.991,25.669 406.896,25.724 406.802,25.781L395.118,32.681L399,35.747C396.564,36.812 394.758,39.045 393.89,42.265Z" style="fill:rgb(85,147,206);fill-rule:nonzero;"/>
            <path d="M443.41,88.354L462.975,76.873C459.619,71.069 454.999,65.998 449.883,63.044C449.206,62.654 448.538,62.312 447.88,62.014L422.994,76.567L443.41,88.354Z" style="fill:rgb(85,147,206);fill-rule:nonzero;"/>
            <path d="M400.631,33.962L409.351,38.997L425.318,29.591C424.151,28.686 422.954,27.868 421.73,27.161C419.797,26.044 417.928,25.275 416.15,24.817L400.631,33.962Z" style="fill:rgb(212,235,250);fill-rule:nonzero;"/>
            <path d="M460.817,73.495L445.201,82.696L450.633,88.753L464.809,80.383C463.688,77.983 462.341,75.662 460.817,73.495Z" style="fill:rgb(212,235,250);fill-rule:nonzero;"/>
            <path d="M459.917,98.535C458.408,97.665 456.97,97.157 455.63,96.947C453.633,86.448 446.327,75.299 437.617,70.27C434.997,68.757 432.506,67.949 430.246,67.776C429.057,55.05 420.209,40.589 409.465,34.386C397.91,27.714 388.543,33.123 388.543,46.464C388.543,46.917 388.556,47.373 388.577,47.832C380.127,43.914 373.525,48.329 373.525,58.337C373.525,68.992 381.005,81.947 390.232,87.273L459.917,127.506C466.845,131.506 472.462,128.263 472.462,120.263C472.462,112.263 466.845,102.535 459.917,98.535Z" style="fill:rgb(212,235,250);fill-rule:nonzero;"/>
            <path d="M388.577,47.832C388.556,47.373 388.543,46.916 388.543,46.464L388.544,46.408C383.876,44.593 379.864,45.383 377.347,48.295C380.082,46.044 384.059,45.737 388.577,47.832Z" style="fill:white;fill-rule:nonzero;"/>
            <path d="M460.937,97.54C459.429,96.67 457.989,96.162 456.65,95.952C454.652,85.454 447.348,74.304 438.637,69.276C436.018,67.763 433.525,66.955 431.266,66.781C430.076,54.056 421.229,39.595 410.484,33.391C403.286,29.236 396.938,29.769 393.173,33.988C397.008,30.71 402.88,30.584 409.465,34.386C420.209,40.589 429.057,55.05 430.246,67.775C432.506,67.949 434.997,68.757 437.617,70.27C446.327,75.299 453.633,86.448 455.63,96.947C456.97,97.157 458.408,97.665 459.917,98.536C466.845,102.535 472.462,112.263 472.462,120.263C472.462,123.149 471.722,125.405 470.462,126.937C472.341,125.489 473.482,122.864 473.482,119.269C473.482,111.269 467.865,101.54 460.937,97.54Z" style="fill:white;fill-rule:nonzero;"/>
            <path d="M387.104,51.009L392.342,53.439L392.075,47.671C392.057,47.266 392.045,46.864 392.045,46.464C392.045,41.316 393.6,37.583 396.422,35.953C399.244,34.325 403.255,34.845 407.713,37.418C417.303,42.956 425.668,56.432 426.759,68.101L427.033,71.041L429.977,71.267C431.786,71.407 433.768,72.091 435.866,73.303C443.482,77.701 450.348,87.919 452.189,97.601L452.65,100.023L455.087,100.405C456.058,100.558 457.094,100.948 458.166,101.567C464.017,104.946 468.96,113.507 468.96,120.263C468.96,122.791 468.259,124.646 467.036,125.352C465.814,126.057 463.857,125.736 461.668,124.473L391.983,84.241C383.877,79.561 377.028,67.699 377.028,58.337C377.028,54.665 378.111,51.866 380,50.66C380.777,50.164 381.717,49.916 382.777,49.916C384.067,49.916 385.535,50.282 387.104,51.009Z" style="fill:rgb(56,109,171);fill-rule:nonzero;"/>
            <path d="M421.882,94.684L423.721,93.761L421.911,92.39L421.882,94.684Z" style="fill:rgb(85,147,206);fill-rule:nonzero;"/>
            <path d="M416.361,69.852L418.146,68.95L418.179,69.883L416.361,69.852Z" style="fill:rgb(85,147,206);fill-rule:nonzero;"/>
            <path d="M427.126,88.879L428.988,87.943L425.404,84.534L427.126,88.879Z" style="fill:rgb(85,147,206);fill-rule:nonzero;"/>
            <path d="M423.183,93.702L414.479,88.576C414.038,88.316 413.681,87.661 413.683,87.113L413.711,77.037L424.014,83.105L423.985,93.181C423.983,93.729 423.624,93.962 423.183,93.702Z" style="fill:rgb(85,147,206);fill-rule:nonzero;"/>
            <path d="M418.127,68.96L408.727,75.009C408.328,75.266 408.65,76.222 409.256,76.58L418.856,82.234L428.456,87.887C429.063,88.245 429.389,87.67 428.993,86.945L419.658,69.863C419.255,69.124 418.533,68.7 418.127,68.96Z" style="fill:rgb(85,147,206);fill-rule:nonzero;"/>
            <path d="M421.316,94.642L412.613,89.516C412.171,89.255 411.814,88.6 411.816,88.052L411.845,77.977L422.147,84.044L422.119,94.121C422.117,94.668 421.758,94.902 421.316,94.642Z" style="fill:rgb(212,235,250);fill-rule:nonzero;"/>
            <path d="M416.261,69.9L406.86,75.949C406.462,76.206 406.784,77.163 407.39,77.519L416.99,83.173L426.59,88.828C427.196,89.184 427.522,88.61 427.126,87.884L417.792,70.802C417.389,70.065 416.667,69.639 416.261,69.9Z" style="fill:rgb(212,235,250);fill-rule:nonzero;"/>
            <path d="M452.752,273.284L451.686,273.284L451.686,213.717L458.72,209.655L458.72,180.333L459.786,180.333L459.786,210.271L452.752,214.332L452.752,273.284Z" style="fill:white;fill-rule:nonzero;"/>
            <path d="M283.653,286.153C283.033,286.153 282.413,285.994 281.851,285.676L262.414,274.67C261.824,274.337 261.471,273.732 261.467,273.055C261.463,272.377 261.812,271.77 262.398,271.431L310.881,243.386C313.663,241.777 317.119,241.78 319.899,243.385L375.314,275.413L374.514,276.798L319.1,244.77C316.813,243.449 313.97,243.449 311.681,244.77L263.199,272.813C263.082,272.882 263.065,272.989 263.065,273.047C263.065,273.105 263.084,273.213 263.201,273.279L282.639,284.285C283.309,284.664 284.123,284.642 284.77,284.223L292.983,278.912L293.851,280.254L285.637,285.565C285.032,285.956 284.344,286.153 283.653,286.153Z" style="fill:rgb(179,211,235);fill-rule:nonzero;"/>
            <path d="M308.963,290.406L282.834,275.32C281.23,274.395 281.432,272.777 283.283,271.709L308.513,257.143C310.364,256.073 313.165,255.957 314.769,256.883L340.897,271.969C342.501,272.895 342.3,274.512 340.448,275.58L315.219,290.146C313.367,291.216 310.566,291.332 308.963,290.406Z" style="fill:rgb(179,211,235);fill-rule:nonzero;"/>
            <path d="M349.565,260.479L349.565,249.189L324.251,249.175L315.501,244.123C313.493,242.964 309.985,243.109 307.667,244.448L299.503,249.161L274.166,249.147L274.166,260.758C274.109,261.542 274.547,262.3 275.512,262.856L308.23,281.747C310.238,282.906 313.746,282.761 316.064,281.422L347.657,263.182C348.995,262.41 349.64,261.409 349.565,260.479Z" style="fill:rgb(56,109,171);fill-rule:nonzero;"/>
            <path d="M311.866,243.347C310.396,243.382 308.871,243.753 307.667,244.448L299.503,249.161L274.166,249.147L274.166,260.758C274.109,261.542 274.547,262.3 275.512,262.856L308.23,281.747C309.195,282.304 310.507,282.557 311.866,282.523L311.866,243.347Z" style="fill:rgb(56,109,171);fill-rule:nonzero;"/>
            <path d="M277.034,249.148L274.166,249.147L274.166,260.758C274.109,261.542 274.547,262.3 275.512,262.856L277.034,263.735L277.034,249.148Z" style="fill:rgb(85,147,206);fill-rule:nonzero;"/>
            <path d="M308.734,281.993C310.466,282.735 312.972,282.694 314.997,281.922L314.997,268.739L308.734,268.739L308.734,281.993Z" style="fill:rgb(85,147,206);fill-rule:nonzero;"/>
            <path d="M308.23,270.178L275.512,251.288C273.504,250.129 273.755,248.104 276.074,246.765L307.667,228.524C309.985,227.187 313.493,227.041 315.501,228.2L348.22,247.09C350.228,248.25 349.976,250.274 347.657,251.613L316.064,269.854C313.746,271.192 310.238,271.338 308.23,270.178Z" style="fill:rgb(212,235,250);fill-rule:nonzero;"/>
            <path d="M308.819,266.778L281.4,250.948C279.718,249.977 279.929,248.279 281.872,247.157L308.347,231.872C310.29,230.75 313.229,230.629 314.912,231.601L342.331,247.431C344.014,248.401 343.803,250.099 341.859,251.221L315.385,266.506C313.441,267.628 310.502,267.75 308.819,266.778Z" style="fill:rgb(85,147,206);fill-rule:nonzero;"/>
            <path d="M337.53,263.458C337.53,264.301 336.938,265.325 336.209,265.746C335.479,266.168 334.888,265.826 334.888,264.983C334.888,264.141 335.479,263.116 336.209,262.694C336.938,262.273 337.53,262.615 337.53,263.458Z" style="fill:rgb(212,235,250);fill-rule:nonzero;"/>
            <path d="M341.782,261.003C341.782,261.847 341.19,262.87 340.461,263.292C339.731,263.713 339.14,263.371 339.14,262.528C339.14,261.688 339.731,260.662 340.461,260.24C341.19,259.818 341.782,260.16 341.782,261.003Z" style="fill:rgb(212,235,250);fill-rule:nonzero;"/>
            <path d="M346.034,258.548C346.034,259.391 345.442,260.416 344.713,260.837C343.983,261.258 343.392,260.917 343.392,260.074C343.392,259.231 343.983,258.206 344.713,257.785C345.442,257.363 346.034,257.705 346.034,258.548Z" style="fill:rgb(212,235,250);fill-rule:nonzero;"/>
            <path d="M349.565,242.438L349.565,231.148L324.251,231.134L315.501,226.082C313.493,224.923 309.985,225.068 307.667,226.407L299.503,231.12L274.166,231.106L274.166,242.717C274.109,243.501 274.547,244.259 275.512,244.815L308.23,263.706C310.238,264.865 313.746,264.72 316.064,263.381L347.657,245.141C348.995,244.369 349.64,243.368 349.565,242.438Z" style="fill:rgb(56,109,171);fill-rule:nonzero;"/>
            <path d="M311.866,225.306C310.396,225.341 308.871,225.712 307.667,226.407L299.503,231.12L274.166,231.106L274.166,242.717C274.109,243.501 274.547,244.259 275.512,244.815L308.23,263.706C309.195,264.263 310.507,264.516 311.866,264.482L311.866,225.306Z" style="fill:rgb(56,109,171);fill-rule:nonzero;"/>
            <path d="M277.034,231.107L274.166,231.106L274.166,242.717C274.109,243.501 274.547,244.259 275.512,244.815L277.034,245.694L277.034,231.107Z" style="fill:rgb(85,147,206);fill-rule:nonzero;"/>
            <path d="M308.734,263.952C310.466,264.694 312.972,264.653 314.997,263.881L314.997,250.698L308.734,250.698L308.734,263.952Z" style="fill:rgb(85,147,206);fill-rule:nonzero;"/>
            <path d="M308.23,252.138L275.512,233.247C273.504,232.088 273.755,230.063 276.074,228.724L307.667,210.484C309.985,209.146 313.493,209 315.501,210.159L348.22,229.049C350.228,230.209 349.976,232.233 347.657,233.572L316.064,251.813C313.746,253.151 310.238,253.297 308.23,252.138Z" style="fill:rgb(212,235,250);fill-rule:nonzero;"/>
            <path d="M308.819,248.737L281.4,232.907C279.718,231.936 279.929,230.238 281.872,229.116L308.347,213.831C310.29,212.709 313.229,212.588 314.912,213.56L342.331,229.39C344.014,230.361 343.803,232.058 341.859,233.18L315.385,248.465C313.441,249.587 310.502,249.709 308.819,248.737Z" style="fill:rgb(85,147,206);fill-rule:nonzero;"/>
            <path d="M337.53,245.417C337.53,246.26 336.938,247.284 336.209,247.706C335.479,248.127 334.888,247.785 334.888,246.942C334.888,246.1 335.479,245.075 336.209,244.653C336.938,244.232 337.53,244.574 337.53,245.417Z" style="fill:rgb(212,235,250);fill-rule:nonzero;"/>
            <path d="M341.782,242.962C341.782,243.805 341.19,244.829 340.461,245.251C339.731,245.672 339.14,245.331 339.14,244.488C339.14,243.646 339.731,242.62 340.461,242.199C341.19,241.777 341.782,242.119 341.782,242.962Z" style="fill:rgb(212,235,250);fill-rule:nonzero;"/>
            <path d="M346.034,240.507C346.034,241.35 345.442,242.375 344.713,242.796C343.983,243.218 343.392,242.876 343.392,242.033C343.392,241.19 343.983,240.165 344.713,239.744C345.442,239.322 346.034,239.664 346.034,240.507Z" style="fill:rgb(212,235,250);fill-rule:nonzero;"/>
            <path d="M349.565,224.396L349.565,213.107L324.251,213.093L315.501,208.041C313.493,206.882 309.985,207.027 307.667,208.366L299.503,213.079L274.166,213.065L274.166,224.676C274.109,225.46 274.547,226.218 275.512,226.774L308.23,245.665C310.238,246.824 313.746,246.679 316.064,245.34L347.657,227.1C348.995,226.328 349.64,225.327 349.565,224.396Z" style="fill:rgb(56,109,171);fill-rule:nonzero;"/>
            <path d="M311.866,207.265C310.396,207.3 308.871,207.671 307.667,208.366L299.503,213.079L274.166,213.065L274.166,224.676C274.109,225.46 274.547,226.218 275.512,226.774L308.23,245.665C309.195,246.222 310.507,246.475 311.866,246.441L311.866,207.265Z" style="fill:rgb(56,109,171);fill-rule:nonzero;"/>
            <path d="M277.034,213.066L274.166,213.065L274.166,224.676C274.109,225.46 274.547,226.218 275.512,226.774L277.034,227.653L277.034,213.066Z" style="fill:rgb(85,147,206);fill-rule:nonzero;"/>
            <path d="M308.734,245.911C310.466,246.653 312.972,246.612 314.997,245.84L314.997,232.657L308.734,232.657L308.734,245.911Z" style="fill:rgb(85,147,206);fill-rule:nonzero;"/>
            <path d="M308.23,234.097L275.512,215.206C273.504,214.047 273.755,212.021 276.074,210.683L307.667,192.443C309.985,191.104 313.493,190.959 315.501,192.118L348.22,211.009C350.228,212.168 349.976,214.192 347.657,215.531L316.064,233.771C313.746,235.11 310.238,235.256 308.23,234.097Z" style="fill:rgb(212,235,250);fill-rule:nonzero;"/>
            <path d="M347.657,213.31L316.064,231.55C313.746,232.889 310.238,233.034 308.23,231.875L275.512,212.984C275.063,212.726 274.734,212.423 274.51,212.096C273.819,213.206 274.133,214.41 275.512,215.206L308.23,234.097C310.238,235.256 313.746,235.11 316.064,233.771L347.657,215.531C349.459,214.491 350.006,213.038 349.222,211.897C348.907,212.403 348.384,212.891 347.657,213.31Z" style="fill:white;fill-rule:nonzero;"/>
            <path d="M337.53,227.376C337.53,228.219 336.938,229.243 336.209,229.665C335.479,230.086 334.888,229.744 334.888,228.901C334.888,228.059 335.479,227.034 336.209,226.612C336.938,226.191 337.53,226.533 337.53,227.376Z" style="fill:rgb(212,235,250);fill-rule:nonzero;"/>
            <path d="M341.782,224.921C341.782,225.764 341.19,226.788 340.461,227.21C339.731,227.631 339.14,227.29 339.14,226.447C339.14,225.604 339.731,224.579 340.461,224.158C341.19,223.736 341.782,224.078 341.782,224.921Z" style="fill:rgb(212,235,250);fill-rule:nonzero;"/>
            <path d="M346.034,222.466C346.034,223.309 345.442,224.334 344.713,224.755C343.983,225.177 343.392,224.835 343.392,223.992C343.392,223.149 343.983,222.125 344.713,221.703C345.442,221.282 346.034,221.623 346.034,222.466Z" style="fill:rgb(212,235,250);fill-rule:nonzero;"/>
            <path d="M310.165,222.385L294.854,213.545C293.914,213.003 294.032,212.055 295.117,211.429L309.901,202.893C310.986,202.267 312.628,202.198 313.567,202.741L328.878,211.581C329.817,212.123 329.7,213.071 328.615,213.697L313.831,222.232C312.746,222.859 311.104,222.927 310.165,222.385Z" style="fill:rgb(85,147,206);fill-rule:nonzero;"/>
            <path d="M311.631,214.983L309.513,213.761C309.383,213.686 309.398,213.554 309.549,213.468L311.594,212.286C311.744,212.2 311.972,212.19 312.102,212.266L314.22,213.488C314.35,213.563 314.333,213.694 314.184,213.781L312.138,214.962C311.988,215.049 311.761,215.059 311.631,214.983Z" style="fill:rgb(212,235,250);fill-rule:nonzero;"/>
            <path d="M294.854,213.545L294.897,213.57L295.117,213.419L309.901,204.884C310.986,204.257 312.628,204.188 313.567,204.731L328.835,213.546C329.701,212.926 329.746,212.082 328.878,211.581L313.567,202.741C312.628,202.198 310.986,202.267 309.901,202.893L295.117,211.429C294.032,212.055 293.914,213.003 294.854,213.545Z" style="fill:rgb(56,109,171);fill-rule:nonzero;"/>
            <path d="M306.122,237.396C306.122,237.963 305.724,238.192 305.232,237.909C304.741,237.625 304.343,236.936 304.343,236.368C304.343,235.802 304.741,235.571 305.232,235.855C305.724,236.139 306.122,236.828 306.122,237.396Z" style="fill:rgb(212,235,250);fill-rule:nonzero;"/>
            <path d="M303.362,235.813C303.362,236.38 302.965,236.61 302.474,236.326C301.982,236.043 301.584,235.354 301.584,234.786C301.584,234.219 301.982,233.989 302.474,234.272C302.965,234.557 303.362,235.246 303.362,235.813Z" style="fill:rgb(212,235,250);fill-rule:nonzero;"/>
            <path d="M306.122,240.725C306.122,241.292 305.724,241.521 305.232,241.238C304.741,240.954 304.343,240.265 304.343,239.698C304.343,239.131 304.741,238.9 305.232,239.185C305.724,239.468 306.122,240.157 306.122,240.725Z" style="fill:rgb(212,235,250);fill-rule:nonzero;"/>
            <path d="M303.362,239.143C303.362,239.71 302.965,239.939 302.474,239.656C301.982,239.372 301.584,238.683 301.584,238.115C301.584,237.549 301.982,237.318 302.474,237.603C302.965,237.886 303.362,238.575 303.362,239.143Z" style="fill:rgb(212,235,250);fill-rule:nonzero;"/>
            <path d="M306.122,255.347C306.122,255.914 305.724,256.145 305.232,255.86C304.741,255.576 304.343,254.887 304.343,254.319C304.343,253.753 304.741,253.522 305.232,253.807C305.724,254.09 306.122,254.779 306.122,255.347Z" style="fill:rgb(212,235,250);fill-rule:nonzero;"/>
            <path d="M303.362,253.765C303.362,254.331 302.965,254.562 302.474,254.277C301.982,253.994 301.584,253.305 301.584,252.737C301.584,252.17 301.982,251.94 302.474,252.224C302.965,252.508 303.362,253.197 303.362,253.765Z" style="fill:rgb(212,235,250);fill-rule:nonzero;"/>
            <path d="M306.122,258.676C306.122,259.244 305.724,259.473 305.232,259.189C304.741,258.906 304.343,258.218 304.343,257.649C304.343,257.082 304.741,256.853 305.232,257.136C305.724,257.419 306.122,258.11 306.122,258.676Z" style="fill:rgb(212,235,250);fill-rule:nonzero;"/>
            <path d="M303.362,257.094C303.362,257.662 302.965,257.891 302.474,257.607C301.982,257.323 301.584,256.634 301.584,256.067C301.584,255.5 301.982,255.27 302.474,255.554C302.965,255.837 303.362,256.526 303.362,257.094Z" style="fill:rgb(212,235,250);fill-rule:nonzero;"/>
            <path d="M306.122,273.298C306.122,273.865 305.724,274.095 305.232,273.812C304.741,273.528 304.343,272.838 304.343,272.271C304.343,271.704 304.741,271.475 305.232,271.758C305.724,272.041 306.122,272.731 306.122,273.298Z" style="fill:rgb(212,235,250);fill-rule:nonzero;"/>
            <path d="M303.362,271.716C303.362,272.283 302.965,272.513 302.474,272.229C301.982,271.945 301.584,271.256 301.584,270.688C301.584,270.122 301.982,269.892 302.474,270.176C302.965,270.459 303.362,271.148 303.362,271.716Z" style="fill:rgb(212,235,250);fill-rule:nonzero;"/>
            <path d="M306.122,276.628C306.122,277.194 305.724,277.425 305.232,277.141C304.741,276.857 304.343,276.168 304.343,275.601C304.343,275.033 304.741,274.804 305.232,275.087C305.724,275.371 306.122,276.061 306.122,276.628Z" style="fill:rgb(212,235,250);fill-rule:nonzero;"/>
            <path d="M303.362,275.045C303.362,275.612 302.965,275.842 302.474,275.559C301.982,275.275 301.584,274.585 301.584,274.019C301.584,273.451 301.982,273.222 302.474,273.505C302.965,273.788 303.362,274.478 303.362,275.045Z" style="fill:rgb(212,235,250);fill-rule:nonzero;"/>
            <path d="M312.291,303.832C311.354,303.832 310.419,303.59 309.585,303.106L293.098,293.538C292.537,293.212 292.203,292.631 292.203,291.983C292.203,291.336 292.538,290.755 293.099,290.43L303.941,284.142L304.744,285.524L293.901,291.813L293.802,291.984L293.9,292.155L310.388,301.724C311.552,302.398 313,302.402 314.168,301.738L346.461,283.336C348.124,282.39 350.186,282.398 351.839,283.358L378.89,298.982C380.064,299.666 381.523,299.668 382.696,298.988L395.739,291.445L396.54,292.83L383.497,300.373C381.827,301.339 379.756,301.335 378.088,300.365L351.038,284.742C349.872,284.064 348.422,284.059 347.252,284.725L314.959,303.127C314.135,303.597 313.213,303.832 312.291,303.832Z" style="fill:rgb(179,211,235);fill-rule:nonzero;"/>
            <path d="M455.517,364.705L429.388,349.62C427.784,348.694 427.985,347.077 429.837,346.008L455.066,331.441C456.918,330.373 459.719,330.257 461.322,331.183L487.451,346.268C489.055,347.193 488.854,348.811 487.002,349.88L461.772,364.446C459.921,365.515 457.12,365.631 455.517,364.705Z" style="fill:rgb(179,211,235);fill-rule:nonzero;"/>
            <path d="M496.119,334.777L496.119,323.488L470.805,323.475L462.055,318.423C460.047,317.263 456.539,317.408 454.221,318.747L446.058,323.46L420.721,323.446L420.721,335.057C420.663,335.842 421.101,336.599 422.065,337.155L454.784,356.046C456.792,357.205 460.3,357.06 462.618,355.721L494.211,337.481C495.549,336.709 496.194,335.709 496.119,334.777Z" style="fill:rgb(56,109,171);fill-rule:nonzero;"/>
            <path d="M458.42,317.646C456.95,317.682 455.426,318.052 454.221,318.747L446.058,323.46L420.721,323.446L420.721,335.057C420.663,335.842 421.101,336.599 422.065,337.155L454.784,356.046C455.749,356.603 457.061,356.855 458.42,356.822L458.42,317.646Z" style="fill:rgb(56,109,171);fill-rule:nonzero;"/>
            <path d="M423.588,323.448L420.721,323.446L420.721,335.057C420.663,335.842 421.101,336.599 422.065,337.155L423.588,338.034L423.588,323.448Z" style="fill:rgb(85,147,206);fill-rule:nonzero;"/>
            <path d="M455.288,356.293C457.021,357.035 459.525,356.993 461.551,356.222L461.551,343.038L455.288,343.038L455.288,356.293Z" style="fill:rgb(85,147,206);fill-rule:nonzero;"/>
            <path d="M454.784,344.478L422.065,325.587C420.058,324.428 420.31,322.402 422.628,321.064L454.221,302.824C456.539,301.485 460.047,301.34 462.055,302.499L494.773,321.39C496.782,322.549 496.53,324.574 494.211,325.913L462.618,344.152C460.3,345.491 456.792,345.637 454.784,344.478Z" style="fill:rgb(212,235,250);fill-rule:nonzero;"/>
            <path d="M455.373,341.077L427.954,325.247C426.271,324.275 426.482,322.579 428.426,321.457L454.9,306.172C456.844,305.05 459.783,304.928 461.466,305.899L488.885,321.729C490.567,322.701 490.356,324.398 488.413,325.52L461.938,340.806C459.995,341.927 457.056,342.049 455.373,341.077Z" style="fill:rgb(85,147,206);fill-rule:nonzero;"/>
            <path d="M484.085,337.757C484.085,338.6 483.493,339.624 482.763,340.046C482.033,340.467 481.441,340.126 481.441,339.283C481.441,338.44 482.033,337.415 482.763,336.994C483.493,336.572 484.085,336.914 484.085,337.757Z" style="fill:rgb(212,235,250);fill-rule:nonzero;"/>
            <path d="M488.337,335.302C488.337,336.145 487.745,337.17 487.015,337.591C486.285,338.013 485.693,337.671 485.693,336.828C485.693,335.985 486.285,334.961 487.015,334.539C487.745,334.118 488.337,334.459 488.337,335.302Z" style="fill:rgb(212,235,250);fill-rule:nonzero;"/>
            <path d="M492.588,332.848C492.588,333.69 491.997,334.715 491.267,335.136C490.537,335.558 489.945,335.216 489.945,334.373C489.945,333.53 490.537,332.506 491.267,332.084C491.997,331.663 492.588,332.005 492.588,332.848Z" style="fill:rgb(212,235,250);fill-rule:nonzero;"/>
            <path d="M496.119,316.736L496.119,305.447L470.805,305.434L462.055,300.382C460.047,299.222 456.539,299.367 454.221,300.706L446.058,305.42L420.721,305.405L420.721,317.016C420.663,317.801 421.101,318.558 422.065,319.115L454.784,338.005C456.792,339.164 460.3,339.019 462.618,337.681L494.211,319.44C495.549,318.668 496.194,317.668 496.119,316.736Z" style="fill:rgb(56,109,171);fill-rule:nonzero;"/>
            <path d="M458.42,299.604C456.95,299.641 455.426,300.011 454.221,300.706L446.058,305.42L420.721,305.405L420.721,317.016C420.663,317.801 421.101,318.558 422.065,319.115L454.784,338.005C455.749,338.563 457.061,338.814 458.42,338.781L458.42,299.604Z" style="fill:rgb(56,109,171);fill-rule:nonzero;"/>
            <path d="M423.588,305.407L420.721,305.405L420.721,317.016C420.663,317.801 421.101,318.558 422.065,319.115L423.588,319.993L423.588,305.407Z" style="fill:rgb(85,147,206);fill-rule:nonzero;"/>
            <path d="M455.288,338.252C457.021,338.994 459.525,338.952 461.551,338.181L461.551,324.997L455.288,324.997L455.288,338.252Z" style="fill:rgb(85,147,206);fill-rule:nonzero;"/>
            <path d="M454.784,326.437L422.065,307.546C420.058,306.387 420.31,304.361 422.628,303.023L454.221,284.783C456.539,283.444 460.047,283.299 462.055,284.458L494.773,303.349C496.782,304.508 496.53,306.533 494.211,307.872L462.618,326.111C460.3,327.45 456.792,327.596 454.784,326.437Z" style="fill:rgb(212,235,250);fill-rule:nonzero;"/>
            <path d="M455.373,323.036L427.954,307.206C426.271,306.234 426.482,304.538 428.426,303.416L454.9,288.131C456.844,287.009 459.783,286.887 461.466,287.858L488.885,303.688C490.567,304.66 490.356,306.357 488.413,307.479L461.938,322.765C459.995,323.886 457.056,324.008 455.373,323.036Z" style="fill:rgb(85,147,206);fill-rule:nonzero;"/>
            <path d="M484.085,319.716C484.085,320.559 483.493,321.583 482.763,322.005C482.033,322.426 481.441,322.085 481.441,321.242C481.441,320.399 482.033,319.374 482.763,318.953C483.493,318.531 484.085,318.873 484.085,319.716Z" style="fill:rgb(212,235,250);fill-rule:nonzero;"/>
            <path d="M488.337,317.261C488.337,318.104 487.745,319.129 487.015,319.55C486.285,319.972 485.693,319.63 485.693,318.787C485.693,317.944 486.285,316.92 487.015,316.498C487.745,316.077 488.337,316.418 488.337,317.261Z" style="fill:rgb(212,235,250);fill-rule:nonzero;"/>
            <path d="M492.588,314.807C492.588,315.649 491.997,316.674 491.267,317.095C490.537,317.517 489.945,317.175 489.945,316.332C489.945,315.489 490.537,314.465 491.267,314.043C491.997,313.622 492.588,313.964 492.588,314.807Z" style="fill:rgb(212,235,250);fill-rule:nonzero;"/>
            <path d="M496.119,298.695L496.119,287.406L470.805,287.393L462.055,282.341C460.047,281.182 456.539,281.326 454.221,282.665L446.058,287.379L420.721,287.364L420.721,298.975C420.663,299.76 421.101,300.517 422.065,301.074L454.784,319.964C456.792,321.123 460.3,320.978 462.618,319.64L494.211,301.399C495.549,300.627 496.194,299.627 496.119,298.695Z" style="fill:rgb(56,109,171);fill-rule:nonzero;"/>
            <path d="M458.42,281.563C456.95,281.6 455.426,281.97 454.221,282.665L446.058,287.379L420.721,287.364L420.721,298.975C420.663,299.76 421.101,300.517 422.065,301.074L454.784,319.964C455.749,320.521 457.061,320.773 458.42,320.74L458.42,281.563Z" style="fill:rgb(56,109,171);fill-rule:nonzero;"/>
            <path d="M423.588,287.366L420.721,287.364L420.721,298.975C420.663,299.76 421.101,300.517 422.065,301.074L423.588,301.952L423.588,287.366Z" style="fill:rgb(85,147,206);fill-rule:nonzero;"/>
            <path d="M455.288,320.211C457.021,320.953 459.525,320.911 461.551,320.14L461.551,306.956L455.288,306.956L455.288,320.211Z" style="fill:rgb(85,147,206);fill-rule:nonzero;"/>
            <path d="M454.784,308.396L422.065,289.505C420.058,288.346 420.31,286.321 422.628,284.982L454.221,266.742C456.539,265.403 460.047,265.258 462.055,266.417L494.773,285.308C496.782,286.467 496.53,288.492 494.211,289.831L462.618,308.07C460.3,309.409 456.792,309.555 454.784,308.396Z" style="fill:rgb(212,235,250);fill-rule:nonzero;"/>
            <path d="M494.211,287.609L462.618,305.849C460.3,307.188 456.792,307.333 454.784,306.174L422.065,287.283C421.618,287.025 421.289,286.722 421.063,286.395C420.374,287.505 420.687,288.709 422.065,289.505L454.784,308.396C456.792,309.555 460.3,309.409 462.618,308.07L494.211,289.831C496.013,288.791 496.561,287.337 495.775,286.196C495.461,286.703 494.938,287.189 494.211,287.609Z" style="fill:white;fill-rule:nonzero;"/>
            <path d="M484.085,301.675C484.085,302.518 483.493,303.542 482.763,303.964C482.033,304.385 481.441,304.044 481.441,303.201C481.441,302.358 482.033,301.333 482.763,300.912C483.493,300.49 484.085,300.832 484.085,301.675Z" style="fill:rgb(212,235,250);fill-rule:nonzero;"/>
            <path d="M488.337,299.22C488.337,300.063 487.745,301.088 487.015,301.509C486.285,301.931 485.693,301.589 485.693,300.746C485.693,299.903 486.285,298.879 487.015,298.457C487.745,298.036 488.337,298.377 488.337,299.22Z" style="fill:rgb(212,235,250);fill-rule:nonzero;"/>
            <path d="M492.588,296.766C492.588,297.608 491.997,298.633 491.267,299.055C490.537,299.476 489.945,299.134 489.945,298.291C489.945,297.448 490.537,296.424 491.267,296.002C491.997,295.581 492.588,295.923 492.588,296.766Z" style="fill:rgb(212,235,250);fill-rule:nonzero;"/>
            <path d="M456.719,296.684L441.408,287.844C440.469,287.302 440.586,286.354 441.671,285.728L456.455,277.192C457.54,276.565 459.182,276.498 460.121,277.04L475.432,285.88C476.372,286.423 476.254,287.37 475.169,287.996L460.385,296.532C459.3,297.158 457.658,297.227 456.719,296.684Z" style="fill:rgb(85,147,206);fill-rule:nonzero;"/>
            <path d="M458.185,289.282L456.066,288.06C455.937,287.984 455.953,287.854 456.103,287.767L458.148,286.586C458.299,286.499 458.525,286.489 458.655,286.564L460.773,287.788C460.903,287.862 460.888,287.994 460.737,288.08L458.692,289.262C458.542,289.348 458.314,289.357 458.185,289.282Z" style="fill:rgb(212,235,250);fill-rule:nonzero;"/>
            <path d="M441.408,287.844L441.451,287.869L441.671,287.718L456.455,279.183C457.54,278.556 459.182,278.488 460.121,279.03L475.389,287.846C476.255,287.226 476.3,286.381 475.432,285.88L460.121,277.04C459.182,276.498 457.54,276.565 456.455,277.192L441.671,285.728C440.586,286.354 440.469,287.302 441.408,287.844Z" style="fill:rgb(56,109,171);fill-rule:nonzero;"/>
            <path d="M408.142,106.448C408.142,107.016 407.744,107.245 407.253,106.962C406.762,106.678 406.363,105.988 406.363,105.422C406.363,104.854 406.762,104.624 407.253,104.908C407.744,105.191 408.142,105.881 408.142,106.448Z" style="fill:rgb(212,235,250);fill-rule:nonzero;"/>
            <path d="M415.976,111.198C415.976,111.766 415.577,111.995 415.086,111.712C414.595,111.428 414.196,110.738 414.196,110.172C414.196,109.604 414.595,109.374 415.086,109.658C415.577,109.941 415.976,110.631 415.976,111.198Z" style="fill:rgb(212,235,250);fill-rule:nonzero;"/>
            <path d="M423.809,115.948C423.809,116.516 423.41,116.745 422.919,116.462C422.428,116.178 422.03,115.488 422.03,114.922C422.03,114.354 422.428,114.124 422.919,114.408C423.41,114.691 423.809,115.381 423.809,115.948Z" style="fill:rgb(212,235,250);fill-rule:nonzero;"/>
            <path d="M431.642,120.698C431.642,121.266 431.244,121.495 430.753,121.212C430.262,120.928 429.863,120.238 429.863,119.672C429.863,119.104 430.262,118.874 430.753,119.158C431.244,119.441 431.642,120.131 431.642,120.698Z" style="fill:rgb(212,235,250);fill-rule:nonzero;"/>
            <path d="M413.602,115.926C413.602,116.368 413.243,116.726 412.802,116.726C412.36,116.726 412.002,116.368 412.002,115.926C412.002,115.484 412.36,115.126 412.802,115.126C413.243,115.126 413.602,115.484 413.602,115.926Z" style="fill:rgb(212,235,250);fill-rule:nonzero;"/>
            <path d="M420.905,120.301C420.905,120.743 420.547,121.101 420.105,121.101C419.663,121.101 419.306,120.743 419.306,120.301C419.306,119.859 419.663,119.501 420.105,119.501C420.547,119.501 420.905,119.859 420.905,120.301Z" style="fill:rgb(212,235,250);fill-rule:nonzero;"/>
            <path d="M428.208,124.676C428.208,125.118 427.85,125.476 427.408,125.476C426.967,125.476 426.608,125.118 426.608,124.676C426.608,124.234 426.967,123.876 427.408,123.876C427.85,123.876 428.208,124.234 428.208,124.676Z" style="fill:rgb(212,235,250);fill-rule:nonzero;"/>
            <path d="M435.512,128.881C435.512,129.322 435.153,129.681 434.712,129.681C434.27,129.681 433.912,129.322 433.912,128.881C433.912,128.439 434.27,128.081 434.712,128.081C435.153,128.081 435.512,128.439 435.512,128.881Z" style="fill:rgb(212,235,250);fill-rule:nonzero;"/>
        </g>
    </g>
</svg>
