<?xml version="1.0" encoding="UTF-8" standalone="no"?>
<!DOCTYPE svg PUBLIC "-//W3C//DTD SVG 1.1//EN" "http://www.w3.org/Graphics/SVG/1.1/DTD/svg11.dtd">
<svg width="100%" height="100%" viewBox="0 0 357 344" version="1.1" xmlns="http://www.w3.org/2000/svg" xmlns:xlink="http://www.w3.org/1999/xlink" xml:space="preserve" xmlns:serif="http://www.serif.com/" style="fill-rule:evenodd;clip-rule:evenodd;stroke-linejoin:round;stroke-miterlimit:2;">
    <g transform="matrix(1,0,0,1,-71.815,-78.178)">
        <path d="M342.449,260.012L342.732,262.891C342.712,262.723 350.115,262.506 350.115,262.506L350.119,259.61C350.119,259.61 342.441,259.836 342.449,260.012Z" style="fill:rgb(251,227,102);fill-rule:nonzero;"/>
        <path d="M331.129,262.256L332.056,265.004C332.056,265.004 332.495,264.868 333.143,264.675C333.795,264.487 334.656,264.171 335.562,264.031C337.351,263.671 339.151,263.306 339.151,263.306L338.696,260.447C338.696,260.447 336.793,260.828 334.886,261.214C333.93,261.369 333.003,261.694 332.298,261.908C331.601,262.112 331.129,262.256 331.129,262.256Z" style="fill:rgb(251,227,102);fill-rule:nonzero;"/>
        <path d="M320.699,267.337L322.372,269.712C322.232,269.478 328.639,266.041 328.725,266.234L327.544,263.585C327.445,263.383 320.543,267.091 320.699,267.337Z" style="fill:rgb(251,227,102);fill-rule:nonzero;"/>
        <path d="M312.388,275.438L314.673,277.226C314.673,277.226 315.703,275.721 316.987,274.437C318.16,273.039 319.579,271.898 319.579,271.898L317.684,269.696C317.684,269.696 316.158,270.926 314.891,272.427C313.504,273.826 312.388,275.438 312.388,275.438Z" style="fill:rgb(251,227,102);fill-rule:nonzero;"/>
        <path d="M306.597,285.433L309.23,286.635C309.23,286.635 309.989,284.95 310.855,283.321C311.294,282.525 311.737,281.718 312.06,281.123C312.425,280.548 312.668,280.159 312.668,280.159L310.231,278.6C310.231,278.6 309.973,279.01 309.579,279.634C309.23,280.266 308.759,281.123 308.295,281.976C307.381,283.686 306.597,285.433 306.597,285.433Z" style="fill:rgb(251,227,102);fill-rule:nonzero;"/>
        <path d="M302.582,295.531L304.961,297.382C304.961,297.382 305.637,295.56 306.318,293.727C307.032,291.906 307.742,290.089 307.742,290.089L305.162,288.756C305.162,288.756 304.505,290.441 303.837,292.132C303.214,293.83 302.582,295.531 302.582,295.531Z" style="fill:rgb(251,227,102);fill-rule:nonzero;"/>
        <path d="M298.644,305.576L300.642,308.111C300.642,308.111 301.47,306.368 302.188,304.567C302.951,302.783 303.62,300.958 303.62,300.958L301.355,298.854C301.355,298.854 300.707,300.544 300.055,302.237C299.407,303.931 298.644,305.576 298.644,305.576Z" style="fill:rgb(251,227,102);fill-rule:nonzero;"/>
        <path d="M293.181,314.846L294.67,317.881C294.67,317.881 295.019,317.544 295.429,316.954C295.855,316.368 296.421,315.588 296.983,314.809C297.496,313.992 297.996,313.168 298.382,312.553C298.751,311.938 298.952,311.503 298.952,311.503L297.119,308.775C297.119,308.775 296.261,310.371 295.318,311.921C294.793,312.664 294.268,313.402 293.882,313.96C293.505,314.53 293.181,314.846 293.181,314.846Z" style="fill:rgb(251,227,102);fill-rule:nonzero;"/>
        <path d="M284.728,321.392L285.581,324.755C285.581,324.755 286.016,324.538 286.663,324.218C287.312,323.894 288.189,323.496 288.969,322.909C290.634,321.904 292.033,320.576 292.037,320.576L290.741,317.409C290.741,317.409 289.441,318.68 287.886,319.636C287.168,320.194 286.344,320.58 285.737,320.879C285.13,321.191 284.728,321.392 284.728,321.392Z" style="fill:rgb(251,227,102);fill-rule:nonzero;"/>
        <path d="M274.269,323.787L274.412,327.278C274.412,327.278 276.332,327.085 278.255,326.88C279.203,326.679 280.146,326.482 280.86,326.326C281.578,326.195 282.037,326.051 282.037,326.051L281.41,322.618C281.405,322.618 280.975,322.757 280.306,322.889C279.646,323.028 278.756,323.221 277.87,323.41C276.065,323.595 274.269,323.787 274.269,323.787Z" style="fill:rgb(251,227,102);fill-rule:nonzero;"/>
        <path d="M263.514,323.188L262.94,326.642C262.94,326.642 263.408,326.745 264.122,326.888C264.843,326.95 265.807,327.031 266.771,327.114C267.735,327.191 268.699,327.273 269.421,327.331C270.143,327.327 270.627,327.331 270.627,327.331L270.721,323.832C270.721,323.832 270.27,323.832 269.585,323.836C268.916,323.779 268.01,323.709 267.103,323.635C266.205,323.558 265.298,323.479 264.63,323.422C263.957,323.282 263.514,323.188 263.514,323.188Z" style="fill:rgb(251,227,102);fill-rule:nonzero;"/>
        <path d="M253.818,318.754L252.567,321.974C252.51,322.048 254.134,323.094 255.775,324.111C256.545,324.702 257.526,324.911 258.17,325.239C258.838,325.514 259.286,325.695 259.286,325.695L260.094,322.302C260.094,322.302 259.676,322.126 259.048,321.864C258.449,321.556 257.534,321.355 256.808,320.793C255.279,319.813 253.761,318.828 253.818,318.754Z" style="fill:rgb(251,227,102);fill-rule:nonzero;"/>
        <path d="M246.842,310.584L245.029,313.381C245.029,313.381 246.128,314.965 247.223,316.548C248.486,318.004 249.754,319.46 249.754,319.46L251.206,316.355C251.206,316.355 250.037,314.969 248.868,313.591C247.85,312.085 246.842,310.584 246.842,310.584Z" style="fill:rgb(251,227,102);fill-rule:nonzero;"/>
        <path d="M242.059,300.925L239.795,303.123C239.795,303.123 240.55,304.912 241.37,306.667C242.125,308.459 243.117,310.117 243.117,310.117L245.094,307.504C245.094,307.504 244.184,305.933 243.499,304.247C242.752,302.598 242.059,300.925 242.059,300.925Z" style="fill:rgb(251,227,102);fill-rule:nonzero;"/>
        <path d="M238.618,290.7L236.026,292.168C236.026,292.168 236.567,294.043 237.187,295.888C237.765,297.75 238.434,299.576 238.434,299.576L240.816,297.603C240.816,297.603 240.209,295.893 239.676,294.162C239.114,292.443 238.618,290.7 238.618,290.7Z" style="fill:rgb(251,227,102);fill-rule:nonzero;"/>
        <path d="M235.972,280.22L233.159,280.914C233.159,280.914 233.606,282.805 234.057,284.699C234.496,286.606 235.004,288.489 235.004,288.489L237.683,287.275C237.683,287.275 237.211,285.528 236.805,283.76C236.391,281.992 235.972,280.22 235.972,280.22Z" style="fill:rgb(251,227,102);fill-rule:nonzero;"/>
        <path d="M233.766,269.302L230.915,269.827L232.379,277.263L235.213,276.656L233.766,269.302Z" style="fill:rgb(251,227,102);fill-rule:nonzero;"/>
        <path d="M231.851,258.27L228.996,258.736L230.263,266.185L233.113,265.68L231.851,258.27Z" style="fill:rgb(251,227,102);fill-rule:nonzero;"/>
        <path d="M230.083,247.191L227.228,247.642L228.401,255.098L231.26,254.631L230.083,247.191Z" style="fill:rgb(251,227,102);fill-rule:nonzero;"/>
        <path d="M228.344,236.092L225.485,236.551L226.658,243.991L229.517,243.544L228.344,236.092Z" style="fill:rgb(251,227,102);fill-rule:nonzero;"/>
        <path d="M226.49,225.001L223.643,225.506L224.894,232.913L227.749,232.45L226.49,225.001Z" style="fill:rgb(251,227,102);fill-rule:nonzero;"/>
        <path d="M224.369,213.931L221.547,214.509C221.547,214.509 221.92,216.347 222.294,218.188C222.642,220.038 222.979,221.88 222.979,221.88L225.834,221.351C225.834,221.351 225.493,219.492 225.144,217.634C224.759,215.781 224.369,213.931 224.369,213.931Z" style="fill:rgb(251,227,102);fill-rule:nonzero;"/>
        <path d="M221.797,202.91L218.996,203.665C218.996,203.665 219.463,205.473 219.927,207.282C220.354,209.103 220.776,210.924 220.776,210.924L223.598,210.297C223.598,210.297 223.172,208.443 222.741,206.597C222.269,204.76 221.797,202.91 221.797,202.91Z" style="fill:rgb(251,227,102);fill-rule:nonzero;"/>
        <path d="M218.397,192.074L215.69,193.079C215.69,193.079 216.35,194.805 216.929,196.577C217.474,198.366 218.024,200.141 218.024,200.141L220.801,199.325C220.801,199.325 220.243,197.5 219.677,195.679C219.082,193.862 218.397,192.074 218.397,192.074Z" style="fill:rgb(251,227,102);fill-rule:nonzero;"/>
        <path d="M213.57,181.611L211.117,183.161C211.117,183.161 211.978,184.761 212.831,186.368C213.656,187.992 214.349,189.711 214.349,189.72L217.011,188.571C217.011,188.575 216.293,186.799 215.416,185.06C214.497,183.333 213.57,181.611 213.57,181.611Z" style="fill:rgb(251,227,102);fill-rule:nonzero;"/>
        <path d="M206.064,172.78L204.161,174.966C204.161,174.966 204.509,175.257 205.022,175.705C205.506,176.18 206.294,176.676 206.839,177.406C207.425,178.096 208.02,178.793 208.459,179.309C208.931,179.802 209.16,180.204 209.16,180.204L211.445,178.419C211.445,178.419 211.203,177.993 210.699,177.456C210.219,176.898 209.587,176.156 208.947,175.409C208.357,174.626 207.508,174.088 206.987,173.576C206.433,173.096 206.064,172.78 206.064,172.78Z" style="fill:rgb(251,227,102);fill-rule:nonzero;"/>
        <path d="M196.327,166.546L194.99,169.109C194.99,169.109 195.412,169.281 196.007,169.646C196.597,169.999 197.397,170.467 198.189,170.93C199.821,171.828 201.269,172.907 201.269,172.907L202.955,170.541C202.955,170.541 201.359,169.376 199.673,168.449C198.853,167.961 198.021,167.468 197.397,167.108C196.778,166.726 196.327,166.546 196.327,166.546Z" style="fill:rgb(251,227,102);fill-rule:nonzero;"/>
        <path d="M185.548,162.362L184.875,165.176C184.875,165.176 186.618,165.684 188.362,166.193C190.06,166.866 191.762,167.53 191.762,167.53L192.922,164.885C192.922,164.885 191.118,164.175 189.301,163.461C187.43,162.916 185.548,162.362 185.548,162.362Z" style="fill:rgb(251,227,102);fill-rule:nonzero;"/>
        <path d="M173.838,161.784L174.273,164.646C174.273,164.646 174.712,164.569 175.376,164.47C176.032,164.4 176.935,164.4 177.82,164.359C179.605,164.339 181.397,164.548 181.397,164.548L181.758,161.673C181.758,161.673 179.785,161.443 177.796,161.459C176.807,161.509 175.811,161.517 175.068,161.595C174.33,161.706 173.838,161.784 173.838,161.784Z" style="fill:rgb(251,227,102);fill-rule:nonzero;"/>
        <path d="M162.874,166.062L164.482,168.473C164.482,168.473 164.855,168.223 165.405,167.85C165.996,167.53 166.788,167.108 167.567,166.685C168.375,166.307 169.211,166.012 169.827,165.746C170.434,165.479 170.889,165.426 170.877,165.401L170.032,162.637C170.032,162.637 169.531,162.719 168.842,163.031C168.153,163.318 167.214,163.65 166.316,164.076C165.438,164.548 164.56,165.016 163.908,165.373C163.285,165.791 162.874,166.062 162.874,166.062Z" style="fill:rgb(251,227,102);fill-rule:nonzero;"/>
        <path d="M154.446,174.121L156.739,175.88C156.739,175.88 157.013,175.512 157.427,174.974C157.883,174.462 158.474,173.781 159.072,173.088C160.327,171.787 161.681,170.59 161.681,170.59L159.794,168.399C159.794,168.399 158.309,169.704 156.956,171.115C156.312,171.857 155.668,172.591 155.188,173.149C154.745,173.723 154.446,174.121 154.446,174.121Z" style="fill:rgb(251,227,102);fill-rule:nonzero;"/>
        <path d="M148.539,184.014L151.156,185.228C151.017,185.158 154.552,178.711 154.679,178.801L152.251,177.23C152.251,177.23 151.213,178.875 150.262,180.561C149.356,182.271 148.539,184.014 148.539,184.014Z" style="fill:rgb(251,227,102);fill-rule:nonzero;"/>
        <path d="M144.627,194.797L147.42,195.552C147.42,195.552 147.912,193.772 148.474,192.016C149.069,190.265 149.745,188.55 149.745,188.55L147.047,187.488C147.047,187.488 146.345,189.281 145.726,191.106C145.135,192.939 144.631,194.797 144.627,194.797Z" style="fill:rgb(251,227,102);fill-rule:nonzero;"/>
        <path d="M142.58,206.113L145.467,206.314C145.467,206.314 145.607,204.509 145.898,202.689C146.177,200.863 146.567,199.067 146.567,199.067L143.732,198.456C143.732,198.456 143.326,200.343 143.039,202.25C142.727,204.153 142.58,206.113 142.58,206.113Z" style="fill:rgb(251,227,102);fill-rule:nonzero;"/>
        <path d="M143.203,217.553L146.083,217.261L145.554,212.311C145.459,211.503 145.406,210.678 145.369,209.862L142.473,209.944C142.514,210.822 142.568,211.708 142.674,212.581L143.203,217.553Z" style="fill:rgb(251,227,102);fill-rule:nonzero;"/>
        <path d="M144.147,228.693L147.034,228.496L146.436,220.949L143.552,221.211L144.147,228.693Z" style="fill:rgb(251,227,102);fill-rule:nonzero;"/>
        <path d="M144.704,239.849L147.596,239.767C147.596,239.767 147.535,237.872 147.465,235.973C147.366,234.094 147.272,232.191 147.272,232.191L144.38,232.355C144.38,232.355 144.475,234.229 144.573,236.104C144.639,237.974 144.704,239.849 144.704,239.849Z" style="fill:rgb(251,227,102);fill-rule:nonzero;"/>
        <path d="M144.787,251.005L147.678,251.054C147.678,251.054 147.691,249.159 147.707,247.26C147.691,245.361 147.674,243.47 147.674,243.47L144.782,243.511C144.782,243.511 144.799,245.386 144.811,247.256C144.803,249.131 144.787,251.005 144.787,251.005Z" style="fill:rgb(251,227,102);fill-rule:nonzero;"/>
        <path d="M144.286,262.133L147.17,262.354C147.17,262.354 147.28,260.46 147.399,258.56C147.538,256.666 147.572,254.77 147.572,254.77L144.676,254.664C144.676,254.664 144.639,256.538 144.512,258.4C144.397,260.27 144.286,262.133 144.286,262.133Z" style="fill:rgb(251,227,102);fill-rule:nonzero;"/>
        <path d="M143.035,273.174L145.898,273.613C145.898,273.613 146.156,271.726 146.402,269.843C146.669,267.952 146.829,266.057 146.829,266.057L143.946,265.771C143.946,265.771 143.794,267.637 143.527,269.478C143.294,271.328 143.035,273.174 143.035,273.174Z" style="fill:rgb(251,227,102);fill-rule:nonzero;"/>
        <path d="M140.824,284.023L143.63,284.748C143.63,284.748 144.122,282.899 144.508,281.033C144.947,279.174 145.266,277.292 145.266,277.292L142.424,276.767C142.42,276.771 142.104,278.605 141.677,280.409C141.304,282.238 140.824,284.023 140.824,284.023Z" style="fill:rgb(251,227,102);fill-rule:nonzero;"/>
        <path d="M137.346,294.453L140.012,295.577C140.012,295.577 140.833,293.83 141.407,291.996C142.034,290.183 142.629,288.362 142.629,288.362L139.865,287.521C139.865,287.521 139.278,289.277 138.684,291.02C138.13,292.792 137.346,294.453 137.346,294.453Z" style="fill:rgb(251,227,102);fill-rule:nonzero;"/>
        <path d="M132.191,303.993L134.516,305.736C134.516,305.732 135.62,304.112 136.641,302.459C137.555,300.741 138.466,299.026 138.466,299.026L135.874,297.734C135.874,297.734 135.021,299.35 134.164,300.954C133.175,302.475 132.191,303.993 132.191,303.993Z" style="fill:rgb(251,227,102);fill-rule:nonzero;"/>
        <path d="M124.874,311.868L126.621,314.198C126.793,314.407 132.342,308.898 132.182,308.747L130.029,306.803C130.177,306.934 125.037,312.065 124.874,311.868Z" style="fill:rgb(251,227,102);fill-rule:nonzero;"/>
        <path d="M115.415,316.95L116.428,319.677C116.428,319.677 116.892,319.518 117.585,319.267C118.262,319.005 119.222,318.759 120.063,318.246C121.785,317.339 123.516,316.433 123.516,316.433L121.998,313.935C121.998,313.935 120.386,314.784 118.791,315.621C118.007,316.109 117.122,316.314 116.486,316.568C115.85,316.802 115.415,316.95 115.415,316.95Z" style="fill:rgb(251,227,102);fill-rule:nonzero;"/>
        <path d="M104.841,318.849L105.034,321.736C105.034,321.736 106.978,321.597 108.931,321.445C110.859,321.182 112.762,320.723 112.766,320.719L112.015,317.914C112.015,317.914 110.251,318.34 108.455,318.578C106.65,318.714 104.841,318.849 104.841,318.849Z" style="fill:rgb(251,227,102);fill-rule:nonzero;"/>
        <path d="M94.013,318.053L93.541,320.908C93.541,320.908 95.448,321.195 97.348,321.49C99.275,321.658 101.224,321.707 101.224,321.707L101.294,318.812C101.294,318.812 99.472,318.767 97.655,318.615C95.834,318.332 94.013,318.053 94.013,318.053Z" style="fill:rgb(251,227,102);fill-rule:nonzero;"/>
        <path d="M83.316,315.457L82.455,318.221C82.393,318.394 89.846,320.215 89.846,320.215L90.469,317.384C90.469,317.384 83.275,315.633 83.316,315.457Z" style="fill:rgb(251,227,102);fill-rule:nonzero;"/>
        <path d="M72.943,311.573L71.815,314.247C71.815,314.247 73.575,314.977 75.33,315.711C76.196,316.105 77.098,316.421 77.783,316.634C78.46,316.868 78.911,317.019 78.911,317.019L79.875,314.292C79.875,314.292 79.432,314.144 78.776,313.919C78.107,313.714 77.233,313.394 76.384,313.016C74.666,312.299 72.943,311.573 72.943,311.573Z" style="fill:rgb(251,227,102);fill-rule:nonzero;"/>
        <path d="M356.887,321.773C356.419,333.028 346.895,341.74 335.648,341.252C324.386,340.764 315.662,331.26 316.129,319.997C316.634,308.751 326.149,300.039 337.388,300.515C348.65,300.999 357.375,310.51 356.887,321.773Z" style="fill:rgb(203,233,244);fill-rule:nonzero;"/>
        <path d="M334.262,373.744C305.075,372.485 282.427,347.798 283.69,318.603C284.957,289.416 309.637,266.775 338.831,268.026C368.002,269.294 390.684,293.977 389.4,323.168C388.145,352.359 363.473,375.003 334.262,373.744ZM407.447,309.559C401.027,303.841 397.627,294.121 398.903,285.881C399.698,280.729 414.189,271.759 414.189,271.759L392.574,248.269C392.574,248.269 382.431,262.014 377.247,262.37C369.31,262.949 360.34,258.876 355.512,252.252C352.448,248.035 356.419,231.461 356.419,231.461L324.488,230.087C324.488,230.087 326.99,246.961 323.594,250.874C318.885,256.288 310.49,259.041 303.632,257.666C298.521,256.654 290.261,241.748 290.261,241.748L265.803,262.293C265.803,262.293 279.043,273.022 279.178,278.211C279.392,286.931 274.761,296.553 267.448,301.762C263.198,304.789 246.641,300.605 246.641,300.605L244.852,332.511C244.852,332.511 261.726,330.194 265.59,333.647C272.013,339.394 275.421,349.114 274.15,357.342C273.358,362.485 258.842,371.451 258.842,371.451L280.458,394.941C280.458,394.941 290.593,381.209 295.794,380.848C303.706,380.282 312.708,384.363 317.54,390.958C320.6,395.183 316.659,411.745 316.659,411.745L348.564,413.123C348.564,413.123 346.038,396.257 349.434,392.337C354.163,386.935 362.576,384.17 369.433,385.548C374.523,386.578 382.796,401.471 382.796,401.471L407.25,380.922C407.25,380.922 394.018,370.188 393.862,364.996C393.661,356.284 398.288,346.67 405.601,341.448C409.85,338.442 426.42,342.626 426.42,342.626L428.184,310.728C428.184,310.728 411.335,313.016 407.447,309.559Z" style="fill:rgb(89,182,84);fill-rule:nonzero;"/>
        <path d="M376.935,323.352C375.979,345.665 357.116,362.973 334.795,361.997C312.495,361.033 295.191,342.179 296.155,319.878C297.111,297.545 315.977,280.253 338.29,281.205C360.602,282.177 377.907,301.044 376.935,323.352Z" style="fill:rgb(89,182,84);fill-rule:nonzero;"/>
        <path d="M276.685,177.911C277.025,175.409 275.491,168.03 268.662,165.902C259.532,163.063 240.382,166.775 231.449,157.063C222.491,147.305 225.206,138.819 226.26,132.888C227.338,126.945 230.559,125.087 230.784,121.568C231.03,118.028 226.834,117.934 222.827,127.043C220.907,131.395 208.886,151.772 217.397,165.323C228.541,183.091 274.564,192.681 276.685,177.911Z" style="fill:rgb(251,198,180);fill-rule:nonzero;"/>
        <path d="M278.481,173.264C278.481,173.264 279.072,183.735 263.531,185.048C247.982,186.36 241.03,184.777 241.03,184.777C241.03,184.777 237.219,175.315 241.838,159.983C241.838,159.983 279.765,158.424 278.481,173.264Z" style="fill:rgb(237,165,3);fill-rule:nonzero;"/>
        <path d="M303.919,165.939L303.894,165.885C298.652,163.051 291.938,162.411 286.787,161.874C275.442,160.685 256.915,162.267 253.379,182.14C252.227,188.69 251.891,198.271 252.481,208.053C252.58,210.182 252.707,212.356 252.982,214.489C253.888,224.037 251.005,230.456 254.413,235.329C264.31,249.479 321.617,261.452 312.401,243.852C312.22,243.45 310.162,237.626 314.284,235.866C311.388,227.729 311.691,217.996 310.359,211.236C309.973,209.222 309.702,207.192 309.559,205.084C309.177,200.257 309.554,195.133 310.92,189.149C314.025,175.864 310.026,169.363 303.919,165.939Z" style="fill:rgb(255,181,2);fill-rule:nonzero;"/>
        <path d="M231.469,301.446C242.506,313.135 260.5,326.183 266.611,335.144C267.587,336.572 267.719,337.224 263.699,341.342C259.647,345.431 265.856,345.677 274.105,340.969C282.361,336.239 255.619,298.817 241.136,282.345C228.483,267.936 218.643,287.882 231.469,301.446Z" style="fill:rgb(251,198,180);fill-rule:nonzero;"/>
        <path d="M275.47,334.997C275.47,334.997 269.892,342.109 263.699,341.342C263.699,341.342 256.127,346.986 262.464,346.399C268.822,345.8 279.786,342.285 275.47,334.997Z" style="fill:rgb(255,181,2);fill-rule:nonzero;"/>
        <path d="M295.962,179.843C293.981,189.72 289.059,204.903 311.749,216.937C311.749,216.937 272.546,264.319 249.097,240.062C249.097,240.062 252.202,197.217 257.945,180.036C259.592,175.106 263.506,161.574 274.22,162.124C274.22,162.124 258.219,186.377 265.389,192.488C272.559,198.599 278.948,193.042 281.849,188.161C286.512,180.314 296.827,163.342 296.827,163.342L303.103,165.496C303.103,165.496 297.652,171.434 295.962,179.843Z" style="fill:rgb(28,39,69);fill-rule:nonzero;"/>
        <path d="M295.634,147.74C295.634,147.74 289.256,154.692 293.636,160.848C298.144,167.169 271.414,172.185 273.481,167.587C276.131,161.648 280.421,158.982 279.621,150.959L295.634,147.74Z" style="fill:rgb(247,178,160);fill-rule:nonzero;"/>
        <path d="M287.468,128.175C280.663,131.482 268.256,151.452 272.255,157.961C274.031,160.787 284.634,161.521 293.858,153.909C297.652,150.812 303.127,144.438 301.47,135.813C300.712,131.904 295.355,124.332 287.468,128.175Z" style="fill:rgb(251,198,180);fill-rule:nonzero;"/>
        <path d="M281.299,129.131C279.293,131.498 279.429,132.224 287.25,136.034C295.055,139.861 296.643,139.742 295.195,141.432C290.946,146.423 297.147,147.116 292.004,153.031C286.873,158.957 295.055,156.948 299.838,152.276C300.777,151.329 305.953,146.895 304.624,137.133C303.086,125.727 288.719,120.46 281.299,129.131Z" style="fill:rgb(29,27,58);fill-rule:nonzero;"/>
        <path d="M290.113,143.794C290.113,143.794 271.226,134.82 273.814,127.072C275.413,122.306 289.867,126.846 289.867,126.846L290.113,143.794Z" style="fill:rgb(237,165,3);fill-rule:nonzero;"/>
        <path d="M280.282,130.152C280.971,138.191 285.905,142.728 301.991,150.185C301.991,150.185 313.123,136.518 303.583,126.568C295.158,117.794 279.847,125.021 280.282,130.152Z" style="fill:rgb(255,181,2);fill-rule:nonzero;"/>
        <path d="M254.684,230.571C254.684,230.571 208.246,246.218 200.461,259.676C192.676,273.137 260.926,334.796 260.926,334.796C260.926,334.796 271.841,327.602 269.33,318.496C259.917,284.363 256.185,273.289 256.185,273.289L301.2,249.065L254.684,230.571Z" style="fill:rgb(28,39,69);fill-rule:nonzero;"/>
        <path d="M275.561,327.068C277.25,343.056 283.641,364.343 283.067,375.171C282.976,376.894 282.689,377.505 276.988,378.338C271.291,379.134 276.074,383.092 285.495,384.355C294.924,385.598 296.36,339.627 294.834,317.741C293.509,298.616 273.6,308.505 275.561,327.068Z" style="fill:rgb(251,198,180);fill-rule:nonzero;"/>
        <path d="M290.203,380.434C290.203,380.434 281.447,382.706 276.988,378.338C276.988,378.338 267.551,378.235 272.944,381.603C278.362,384.991 289.211,388.838 290.203,380.434Z" style="fill:rgb(255,181,2);fill-rule:nonzero;"/>
        <path d="M311.749,216.937C311.749,216.937 316.769,236.169 316.913,262.346C317.077,293.891 296.196,367.022 296.196,367.022C296.196,367.022 297.024,369.667 278.977,363.581C274.113,361.932 271.689,256.05 271.689,256.05L283.608,228.975L311.749,216.937Z" style="fill:rgb(28,39,69);fill-rule:nonzero;"/>
        <path d="M289.982,366.915L288.997,366.554C307.319,316.384 303.244,231.674 303.201,230.825L304.251,230.768C304.294,231.621 308.38,316.548 289.982,366.915Z" style="fill:white;fill-rule:nonzero;"/>
        <path d="M317.489,418.656L248.404,248.364L208.48,248.364L276.92,417.081L273.028,418.656L202.245,244.164L251.234,244.164L321.382,417.081L317.489,418.656Z" style="fill:rgb(70,79,114);fill-rule:nonzero;"/>
        <rect x="236.149" y="320.059" width="44.457" height="4.2" style="fill:rgb(70,79,114);fill-rule:nonzero;"/>
        <rect x="245.049" y="340.899" width="44.457" height="4.2" style="fill:rgb(70,79,114);fill-rule:nonzero;"/>
        <rect x="252.744" y="361.94" width="44.456" height="4.2" style="fill:rgb(70,79,114);fill-rule:nonzero;"/>
        <rect x="262.395" y="383.395" width="44.461" height="4.2" style="fill:rgb(70,79,114);fill-rule:nonzero;"/>
        <path d="M180.96,418.607L177.027,417.131L223.161,294.264L227.094,295.741L180.96,418.607Z" style="fill:rgb(70,79,114);fill-rule:nonzero;"/>
        <path d="M227.094,421.823L223.161,420.346L269.296,297.476L273.229,298.952L227.094,421.823Z" style="fill:rgb(70,79,114);fill-rule:nonzero;"/>
        <path d="M240.648,147.272C240.648,155.217 234.205,161.661 226.26,161.661C218.311,161.661 211.876,155.217 211.876,147.272C211.876,139.332 218.311,132.888 226.26,132.888C234.205,132.888 240.648,139.332 240.648,147.272Z" style="fill:rgb(255,207,3);fill-rule:nonzero;"/>
        <rect x="223.537" y="78.178" width="5.434" height="38.53" style="fill:rgb(70,79,114);fill-rule:nonzero;"/>
        <rect x="219.587" y="107.815" width="13.338" height="17.785" style="fill:rgb(109,118,161);fill-rule:nonzero;"/>
        <path d="M226.256,116.211C207.84,116.211 192.91,131.145 192.91,149.557L259.596,149.557C259.596,131.145 244.668,116.211 226.256,116.211Z" style="fill:rgb(89,182,84);fill-rule:nonzero;"/>
        <path d="M310.724,174.876C310.239,172.509 307.007,167.87 300.199,168.203C291.073,168.617 275.11,178.173 263.941,172.358C252.74,166.521 252.416,158.027 251.431,152.358C250.472,146.69 252.74,143.979 251.813,140.747C250.877,137.49 247.071,138.774 246.448,148.236C246.152,152.764 241.981,174.95 254.019,184.342C269.79,196.655 313.627,188.796 310.724,174.876Z" style="fill:rgb(251,198,180);fill-rule:nonzero;"/>
        <path d="M310.752,172.555C310.752,172.555 314.681,181.762 301.151,187.989C287.648,194.202 280.897,195.064 280.897,195.064C280.897,195.064 274.408,187.796 273.563,172.558C273.563,172.558 307.073,158.831 310.752,172.555Z" style="fill:rgb(237,165,3);fill-rule:nonzero;"/>
        <path d="M181.762,202.389C179.055,202.389 176.849,204.592 176.849,207.299C176.849,210.006 179.055,212.204 181.762,212.204C184.469,212.204 186.672,210.006 186.672,207.299C186.672,204.592 184.469,202.389 181.762,202.389ZM181.762,216.162C176.869,216.162 172.895,212.184 172.895,207.299C172.895,202.414 176.869,198.439 181.762,198.439C186.651,198.439 190.625,202.414 190.625,207.299C190.625,212.184 186.651,216.162 181.762,216.162Z" style="fill:rgb(89,182,84);fill-rule:nonzero;"/>
        <rect x="127.088" y="356.394" width="36.361" height="2.81" style="fill:rgb(39,53,92);fill-rule:nonzero;"/>
        <rect x="141.284" y="347.215" width="20.044" height="2.806" style="fill:rgb(39,53,92);fill-rule:nonzero;"/>
    </g>
</svg>
