<?xml version="1.0" encoding="UTF-8" standalone="no"?>
<!DOCTYPE svg PUBLIC "-//W3C//DTD SVG 1.1//EN" "http://www.w3.org/Graphics/SVG/1.1/DTD/svg11.dtd">
<svg width="100%" height="100%" viewBox="0 0 1107 254" version="1.1" xmlns="http://www.w3.org/2000/svg" xmlns:xlink="http://www.w3.org/1999/xlink" xml:space="preserve" xmlns:serif="http://www.serif.com/" style="fill-rule:evenodd;clip-rule:evenodd;stroke-linejoin:round;stroke-miterlimit:2;">
    <g transform="matrix(1,0,0,1,-672.636,-6746.33)">
        <g transform="matrix(0.604739,0,0,0.492346,89.2726,6262.4)">
            <g transform="matrix(1.48384,0,0,1.82257,51.3279,347.829)">
                <path d="M902.941,557.829L902.941,424.495L985.623,424.495L985.623,441.813L923.058,441.813L923.058,482.438L979.698,482.438L979.698,499.691L923.058,499.691L923.058,557.829L902.941,557.829Z" style="fill:rgb(89,182,84);fill-rule:nonzero;"/>
                <path d="M1008.8,557.829L1008.8,457.829L1028.27,457.829L1028.27,557.829L1008.8,557.829ZM1018.63,442.399C1015.25,442.399 1012.35,441.26 1009.94,438.981C1007.53,436.702 1006.33,433.979 1006.33,430.81C1006.33,427.599 1007.53,424.853 1009.94,422.575C1012.35,420.296 1015.25,419.157 1018.63,419.157C1022.02,419.157 1024.91,420.296 1027.32,422.575C1029.73,424.853 1030.93,427.599 1030.93,430.81C1030.93,433.979 1029.73,436.702 1027.32,438.981C1024.91,441.26 1022.02,442.399 1018.63,442.399Z" style="fill:rgb(89,182,84);fill-rule:nonzero;"/>
                <path d="M1097.54,559.847C1087.68,559.847 1079.21,557.731 1072.11,553.499C1065.02,549.267 1059.55,543.299 1055.71,535.595C1051.87,527.891 1049.95,518.853 1049.95,508.48C1049.95,498.237 1051.87,489.209 1055.71,481.396C1059.55,473.584 1064.93,467.486 1071.85,463.102C1078.78,458.718 1086.88,456.526 1096.17,456.526C1101.81,456.526 1107.28,457.46 1112.58,459.326C1117.87,461.192 1122.62,464.122 1126.83,468.115C1131.04,472.108 1134.36,477.284 1136.8,483.642C1139.23,490.001 1140.44,497.716 1140.44,506.787L1140.44,513.688L1060.95,513.688L1060.95,499.105L1121.37,499.105C1121.37,493.983 1120.32,489.437 1118.24,485.465C1116.16,481.494 1113.24,478.358 1109.48,476.058C1105.73,473.757 1101.34,472.607 1096.3,472.607C1090.83,472.607 1086.07,473.942 1082.01,476.611C1077.95,479.28 1074.83,482.753 1072.63,487.028C1070.44,491.303 1069.35,495.936 1069.35,500.928L1069.35,512.321C1069.35,519.005 1070.53,524.691 1072.89,529.378C1075.26,534.066 1078.57,537.635 1082.82,540.088C1087.08,542.54 1092.05,543.766 1097.73,543.766C1101.42,543.766 1104.79,543.234 1107.82,542.171C1110.86,541.108 1113.49,539.513 1115.7,537.386C1117.91,535.259 1119.61,532.633 1120.78,529.508L1139.2,532.829C1137.73,538.254 1135.09,542.996 1131.29,547.054C1127.5,551.112 1122.74,554.259 1117.04,556.494C1111.33,558.729 1104.83,559.847 1097.54,559.847Z" style="fill:rgb(89,182,84);fill-rule:nonzero;"/>
                <rect x="1162.12" y="424.495" width="19.466" height="133.333" style="fill:rgb(89,182,84);fill-rule:nonzero;"/>
                <path d="M1245.19,559.782C1237.12,559.782 1229.93,557.709 1223.61,553.564C1217.3,549.419 1212.35,543.495 1208.77,535.791C1205.19,528.087 1203.4,518.831 1203.4,508.024C1203.4,497.217 1205.21,487.972 1208.83,480.289C1212.46,472.607 1217.44,466.726 1223.77,462.646C1230.11,458.566 1237.29,456.526 1245.32,456.526C1251.53,456.526 1256.53,457.557 1260.33,459.619C1264.13,461.681 1267.08,464.079 1269.18,466.813C1271.29,469.547 1272.93,471.956 1274.1,474.039L1275.27,474.039L1275.27,424.495L1294.74,424.495L1294.74,557.829L1275.73,557.829L1275.73,542.269L1274.1,542.269C1272.93,544.395 1271.25,546.826 1269.05,549.56C1266.86,552.295 1263.86,554.682 1260.04,556.722C1256.22,558.762 1251.27,559.782 1245.19,559.782ZM1249.49,543.18C1255.09,543.18 1259.83,541.694 1263.71,538.72C1267.6,535.747 1270.55,531.613 1272.57,526.318C1274.59,521.023 1275.6,514.86 1275.6,507.829C1275.6,500.884 1274.6,494.808 1272.6,489.599C1270.61,484.391 1267.68,480.333 1263.81,477.425C1259.95,474.517 1255.18,473.063 1249.49,473.063C1243.63,473.063 1238.75,474.582 1234.84,477.62C1230.93,480.658 1228,484.803 1226.02,490.055C1224.05,495.307 1223.06,501.231 1223.06,507.829C1223.06,514.513 1224.06,520.524 1226.05,525.862C1228.05,531.201 1231.01,535.422 1234.94,538.525C1238.87,541.628 1243.72,543.18 1249.49,543.18Z" style="fill:rgb(89,182,84);fill-rule:nonzero;"/>
                <path d="M1396.76,459.521C1396.06,453.358 1393.2,448.573 1388.16,445.166C1383.13,441.759 1376.79,440.055 1369.15,440.055C1363.68,440.055 1358.95,440.912 1354.96,442.627C1350.97,444.341 1347.87,446.685 1345.68,449.658C1343.49,452.631 1342.39,456.006 1342.39,459.782C1342.39,462.95 1343.14,465.684 1344.64,467.985C1346.14,470.285 1348.11,472.206 1350.56,473.747C1353.02,475.287 1355.65,476.568 1358.47,477.588C1361.3,478.608 1364.01,479.443 1366.61,480.094L1379.63,483.48C1383.89,484.521 1388.25,485.932 1392.72,487.711C1397.19,489.491 1401.34,491.835 1405.15,494.743C1408.97,497.651 1412.07,501.253 1414.43,505.55C1416.8,509.847 1417.98,514.99 1417.98,520.98C1417.98,528.532 1416.04,535.237 1412.15,541.097C1408.27,546.956 1402.65,551.579 1395.29,554.964C1387.93,558.349 1379.05,560.042 1368.63,560.042C1358.65,560.042 1350.01,558.458 1342.72,555.289C1335.43,552.121 1329.72,547.618 1325.6,541.78C1321.47,535.943 1319.19,529.009 1318.76,520.98L1338.94,520.98C1339.33,525.797 1340.91,529.801 1343.66,532.991C1346.42,536.181 1349.96,538.547 1354.28,540.088C1358.59,541.628 1363.34,542.399 1368.5,542.399C1374.19,542.399 1379.25,541.498 1383.7,539.697C1388.15,537.896 1391.66,535.378 1394.22,532.145C1396.78,528.911 1398.06,525.125 1398.06,520.784C1398.06,516.835 1396.94,513.601 1394.7,511.084C1392.47,508.566 1389.45,506.483 1385.65,504.834C1381.86,503.184 1377.57,501.73 1372.8,500.472L1357.04,496.175C1346.37,493.267 1337.91,488.992 1331.68,483.349C1325.46,477.707 1322.34,470.242 1322.34,460.954C1322.34,453.271 1324.42,446.566 1328.59,440.836C1332.76,435.107 1338.4,430.648 1345.52,427.457C1352.64,424.267 1360.67,422.672 1369.61,422.672C1378.63,422.672 1386.61,424.256 1393.53,427.425C1400.46,430.593 1405.91,434.944 1409.91,440.478C1413.9,446.012 1415.98,452.36 1416.16,459.521L1396.76,459.521Z" style="fill:rgb(47,47,47);fill-rule:nonzero;"/>
                <path d="M1483.54,559.847C1473.69,559.847 1465.21,557.731 1458.12,553.499C1451.02,549.267 1445.55,543.299 1441.71,535.595C1437.87,527.891 1435.95,518.853 1435.95,508.48C1435.95,498.237 1437.87,489.209 1441.71,481.396C1445.55,473.584 1450.93,467.486 1457.86,463.102C1464.78,458.718 1472.88,456.526 1482.17,456.526C1487.82,456.526 1493.28,457.46 1498.58,459.326C1503.87,461.192 1508.63,464.122 1512.84,468.115C1517.05,472.108 1520.37,477.284 1522.8,483.642C1525.23,490.001 1526.44,497.716 1526.44,506.787L1526.44,513.688L1446.95,513.688L1446.95,499.105L1507.37,499.105C1507.37,493.983 1506.33,489.437 1504.24,485.465C1502.16,481.494 1499.24,478.358 1495.49,476.058C1491.73,473.757 1487.34,472.607 1482.3,472.607C1476.83,472.607 1472.07,473.942 1468.01,476.611C1463.95,479.28 1460.83,482.753 1458.64,487.028C1456.44,491.303 1455.35,495.936 1455.35,500.928L1455.35,512.321C1455.35,519.005 1456.53,524.691 1458.9,529.378C1461.26,534.066 1464.57,537.635 1468.83,540.088C1473.08,542.54 1478.05,543.766 1483.74,543.766C1487.42,543.766 1490.79,543.234 1493.83,542.171C1496.86,541.108 1499.49,539.513 1501.7,537.386C1503.92,535.259 1505.61,532.633 1506.78,529.508L1525.21,532.829C1523.73,538.254 1521.09,542.996 1517.3,547.054C1513.5,551.112 1508.75,554.259 1503.04,556.494C1497.33,558.729 1490.83,559.847 1483.54,559.847Z" style="fill:rgb(47,47,47);fill-rule:nonzero;"/>
                <path d="M1548.12,557.829L1548.12,457.829L1566.94,457.829L1566.94,473.714L1567.98,473.714C1569.8,468.332 1573.03,464.089 1577.65,460.986C1582.27,457.883 1587.51,456.331 1593.37,456.331C1594.59,456.331 1596.03,456.375 1597.7,456.461C1599.37,456.548 1600.68,456.657 1601.64,456.787L1601.64,475.407C1600.86,475.19 1599.47,474.94 1597.47,474.658C1595.48,474.376 1593.48,474.235 1591.48,474.235C1586.88,474.235 1582.79,475.201 1579.21,477.132C1575.63,479.063 1572.8,481.733 1570.71,485.14C1568.63,488.547 1567.59,492.421 1567.59,496.761L1567.59,557.829L1548.12,557.829Z" style="fill:rgb(47,47,47);fill-rule:nonzero;"/>
                <path d="M1707.24,457.829L1670.97,557.829L1650.14,557.829L1613.81,457.829L1634.71,457.829L1660.04,534.782L1661.08,534.782L1686.34,457.829L1707.24,457.829Z" style="fill:rgb(47,47,47);fill-rule:nonzero;"/>
                <path d="M1725.53,557.829L1725.53,457.829L1745,457.829L1745,557.829L1725.53,557.829ZM1735.36,442.399C1731.98,442.399 1729.08,441.26 1726.67,438.981C1724.26,436.702 1723.06,433.979 1723.06,430.81C1723.06,427.599 1724.26,424.853 1726.67,422.575C1729.08,420.296 1731.98,419.157 1735.36,419.157C1738.75,419.157 1741.64,420.296 1744.05,422.575C1746.46,424.853 1747.67,427.599 1747.67,430.81C1747.67,433.979 1746.46,436.702 1744.05,438.981C1741.64,441.26 1738.75,442.399 1735.36,442.399Z" style="fill:rgb(47,47,47);fill-rule:nonzero;"/>
                <path d="M1846.11,482.243L1828.46,485.368C1827.72,483.111 1826.56,480.962 1824.98,478.922C1823.39,476.882 1821.26,475.211 1818.57,473.909C1815.88,472.607 1812.51,471.956 1808.47,471.956C1802.96,471.956 1798.36,473.182 1794.67,475.635C1790.98,478.087 1789.14,481.244 1789.14,485.107C1789.14,488.449 1790.38,491.14 1792.85,493.18C1795.32,495.22 1799.32,496.891 1804.83,498.193L1820.71,501.839C1829.91,503.966 1836.77,507.243 1841.29,511.67C1845.8,516.097 1848.06,521.848 1848.06,528.922C1848.06,534.912 1846.33,540.24 1842.88,544.905C1839.43,549.571 1834.64,553.228 1828.49,555.875C1822.35,558.523 1815.25,559.847 1807.17,559.847C1795.97,559.847 1786.84,557.449 1779.76,552.653C1772.69,547.857 1768.35,541.032 1766.74,532.178L1785.56,529.313C1786.73,534.217 1789.14,537.918 1792.78,540.413C1796.43,542.909 1801.18,544.157 1807.04,544.157C1813.42,544.157 1818.52,542.822 1822.34,540.153C1826.16,537.483 1828.07,534.217 1828.07,530.355C1828.07,527.23 1826.91,524.604 1824.59,522.477C1822.27,520.35 1818.72,518.744 1813.94,517.659L1797.02,513.948C1787.68,511.822 1780.79,508.436 1776.35,503.792C1771.9,499.148 1769.67,493.267 1769.67,486.149C1769.67,480.246 1771.32,475.081 1774.62,470.654C1777.92,466.227 1782.48,462.766 1788.29,460.27C1794.11,457.774 1800.77,456.526 1808.28,456.526C1819.09,456.526 1827.59,458.859 1833.8,463.525C1840.01,468.191 1844.11,474.43 1846.11,482.243Z" style="fill:rgb(47,47,47);fill-rule:nonzero;"/>
            </g>
        </g>
        <g transform="matrix(0.604739,0,0,0.492346,89.2726,6262.4)">
            <g transform="matrix(1,0,0,1,191.633,-100.471)">
                <g transform="matrix(1.65361,0,0,2.03109,-11430.1,-9278.26)">
                    <path d="M7399.64,5267C7387.11,5249.8 7379.71,5228.62 7379.71,5205.73C7379.71,5148.21 7426.41,5101.52 7483.93,5101.52C7541.44,5101.52 7588.14,5148.21 7588.14,5205.73C7588.14,5228.62 7580.74,5249.8 7568.21,5267C7555.09,5255.32 7539.53,5246.32 7522.39,5240.86C7530.86,5231.59 7536.03,5219.26 7536.03,5205.73C7536.03,5176.97 7512.68,5153.62 7483.93,5153.62C7455.17,5153.62 7431.82,5176.97 7431.82,5205.73C7431.82,5219.26 7436.99,5231.59 7445.46,5240.86C7428.33,5246.31 7412.77,5255.31 7399.64,5267Z" style="fill:rgb(47,47,47);"/>
                </g>
                <g transform="matrix(0.453529,0.443858,-0.361366,0.55706,893.237,1140.83)">
                    <path d="M401.519,406.554C386.96,441.272 504.561,338.239 467.6,348.321L295.12,148.961C311.921,114.242 308.561,72.801 282.8,42.561C260.398,16.799 226.8,6.717 193.198,12.319L240.237,67.198L224.557,134.397L155.116,138.878L109.198,86.237C97.999,118.717 103.596,153.436 125.999,180.315C151.761,209.436 192.077,219.514 229.039,207.194L401.519,406.554Z" style="fill:rgb(47,47,47);fill-rule:nonzero;"/>
                </g>
                <g transform="matrix(1.74863,0,0,2.14781,-12135,-10086.7)">
                    <path d="M7479.89,5440.24L7409.88,5370.23C7409.88,5370.23 7476.37,5310.74 7550.74,5370.24L7479.89,5440.24Z" style="fill:rgb(89,182,84);"/>
                </g>
            </g>
        </g>
    </g>
</svg>
